<svg version="1.1" viewBox="0.0 0.0 882.0 444.0" fill="none" stroke="none" stroke-linecap="square" stroke-miterlimit="10" width="882" height="444" xmlns:xlink="http://www.w3.org/1999/xlink" xmlns="http://www.w3.org/2000/svg"><path fill="#ffffff" d="M0 0L882.0 0L882.0 444.0L0 444.0L0 0Z" fill-rule="nonzero"/><path stroke="#333333" stroke-width="1.0" stroke-linecap="butt" d="M190.5 61.5L190.5 401.5" fill-rule="nonzero"/><path stroke="#cccccc" stroke-width="1.0" stroke-linecap="butt" d="M357.5 61.5L357.5 401.5" fill-rule="nonzero"/><path stroke="#cccccc" stroke-width="1.0" stroke-linecap="butt" d="M525.5 61.5L525.5 401.5" fill-rule="nonzero"/><path stroke="#cccccc" stroke-width="1.0" stroke-linecap="butt" d="M692.5 61.5L692.5 401.5" fill-rule="nonzero"/><path stroke="#cccccc" stroke-width="1.0" stroke-linecap="butt" d="M859.5 61.5L859.5 401.5" fill-rule="nonzero"/><clipPath id="id_0"><path d="M190.2 61.0L859.8 61.0L859.8 401.8L190.2 401.8L190.2 61.0Z" clip-rule="nonzero"/></clipPath><path stroke="#000000" stroke-width="2.0" stroke-linecap="butt" stroke-opacity="0.0" clip-path="url(#id_0)" d="M190.0 115.0L190.0 80.0L394.0 80.0C395.10458 80.0 396.0 80.89543 396.0 82.0L396.0 113.0C396.0 114.10457 395.10458 115.0 394.0 115.0Z" fill-rule="nonzero"/><path fill="#129a74" clip-path="url(#id_0)" d="M190.0 115.0L190.0 80.0L394.0 80.0C395.10458 80.0 396.0 80.89543 396.0 82.0L396.0 113.0C396.0 114.10457 395.10458 115.0 394.0 115.0Z" fill-rule="nonzero"/><path stroke="#000000" stroke-width="2.0" stroke-linecap="butt" stroke-opacity="0.0" clip-path="url(#id_0)" d="M190.0 169.0L190.0 134.0L761.0 134.0C762.10455 134.0 763.0 134.89543 763.0 136.0L763.0 167.0C763.0 168.10457 762.10455 169.0 761.0 169.0Z" fill-rule="nonzero"/><path fill="#129a74" clip-path="url(#id_0)" d="M190.0 169.0L190.0 134.0L761.0 134.0C762.10455 134.0 763.0 134.89543 763.0 136.0L763.0 167.0C763.0 168.10457 762.10455 169.0 761.0 169.0Z" fill-rule="nonzero"/><path stroke="#000000" stroke-width="2.0" stroke-linecap="butt" stroke-opacity="0.0" clip-path="url(#id_0)" d="M190.0 223.0L190.0 188.0L737.0 188.0C738.10455 188.0 739.0 188.89543 739.0 190.0L739.0 221.0C739.0 222.10457 738.10455 223.0 737.0 223.0Z" fill-rule="nonzero"/><path fill="#129a74" clip-path="url(#id_0)" d="M190.0 223.0L190.0 188.0L737.0 188.0C738.10455 188.0 739.0 188.89543 739.0 190.0L739.0 221.0C739.0 222.10457 738.10455 223.0 737.0 223.0Z" fill-rule="nonzero"/><path stroke="#000000" stroke-width="2.0" stroke-linecap="butt" stroke-opacity="0.0" clip-path="url(#id_0)" d="M190.0 276.0L190.0 241.0L751.0 241.0C752.10455 241.0 753.0 241.89543 753.0 243.0L753.0 274.0C753.0 275.10458 752.10455 276.0 751.0 276.0Z" fill-rule="nonzero"/><path fill="#129a74" clip-path="url(#id_0)" d="M190.0 276.0L190.0 241.0L751.0 241.0C752.10455 241.0 753.0 241.89543 753.0 243.0L753.0 274.0C753.0 275.10458 752.10455 276.0 751.0 276.0Z" fill-rule="nonzero"/><path stroke="#000000" stroke-width="2.0" stroke-linecap="butt" stroke-opacity="0.0" clip-path="url(#id_0)" d="M190.0 330.0L190.0 295.0L747.0 295.0C748.10455 295.0 749.0 295.89542 749.0 297.0L749.0 328.0C749.0 329.10458 748.10455 330.0 747.0 330.0Z" fill-rule="nonzero"/><path fill="#129a74" clip-path="url(#id_0)" d="M190.0 330.0L190.0 295.0L747.0 295.0C748.10455 295.0 749.0 295.89542 749.0 297.0L749.0 328.0C749.0 329.10458 748.10455 330.0 747.0 330.0Z" fill-rule="nonzero"/><path stroke="#000000" stroke-width="2.0" stroke-linecap="butt" stroke-opacity="0.0" clip-path="url(#id_0)" d="M190.0 384.0L190.0 349.0L734.0 349.0C735.10455 349.0 736.0 349.89542 736.0 351.0L736.0 382.0C736.0 383.10458 735.10455 384.0 734.0 384.0Z" fill-rule="nonzero"/><path fill="#129a74" clip-path="url(#id_0)" d="M190.0 384.0L190.0 349.0L734.0 349.0C735.10455 349.0 736.0 349.89542 736.0 351.0L736.0 382.0C736.0 383.10458 735.10455 384.0 734.0 384.0Z" fill-rule="nonzero"/><path stroke="#129a74" stroke-width="3.0" stroke-linejoin="round" stroke-linecap="round" d="M365.23727 92.96875L365.23727 93.875L365.03415 93.875Q363.76852 93.90625 363.01852 94.640625Q362.26852 95.359375 362.14352 96.671875Q362.83102 95.90625 363.98727 95.90625Q365.09665 95.90625 365.76852 96.6875Q366.4404 97.46875 366.4404 98.71875Q366.4404 100.03125 365.72165 100.828125Q365.0029 101.625 363.78415 101.625Q362.5654 101.625 361.79977 100.6875Q361.04977 99.734375 361.04977 98.25L361.04977 97.84375Q361.04977 95.484375 362.04977 94.234375Q363.04977 92.984375 365.03415 92.96875L365.23727 92.96875ZM363.8154 96.8125Q363.2529 96.8125 362.78415 97.140625Q362.3154 97.46875 362.1279 97.984375L362.1279 98.375Q362.1279 99.4375 362.59665 100.078125Q363.08102 100.71875 363.78415 100.71875Q364.51852 100.71875 364.9404 100.1875Q365.36227 99.640625 365.36227 98.765625Q365.36227 97.890625 364.9404 97.359375Q364.51852 96.8125 363.8154 96.8125ZM371.53415 101.5L370.45602 101.5L370.45602 94.28125L368.26852 95.078125L368.26852 94.09375L371.3779 92.921875L371.53415 92.921875L371.53415 101.5ZM375.11227 100.9375Q375.11227 100.65625 375.26852 100.46875Q375.4404 100.28125 375.76852 100.28125Q376.11227 100.28125 376.28415 100.46875Q376.45602 100.65625 376.45602 100.9375Q376.45602 101.203125 376.28415 101.390625Q376.11227 101.5625 375.76852 101.5625Q375.4404 101.5625 375.26852 101.390625Q375.11227 101.203125 375.11227 100.9375ZM382.54977 98.640625L383.73727 98.640625L383.73727 99.515625L382.54977 99.515625L382.54977 101.5L381.47165 101.5L381.47165 99.515625L377.58102 99.515625L377.58102 98.875L381.39352 92.96875L382.54977 92.96875L382.54977 98.640625ZM378.8154 98.640625L381.47165 98.640625L381.47165 94.453125L381.33102 94.6875L378.8154 98.640625ZM389.1279 97.75Q388.79977 98.15625 388.3154 98.40625Q387.84665 98.640625 387.28415 98.640625Q386.54977 98.640625 386.0029 98.28125Q385.45602 97.921875 385.15915 97.265625Q384.86227 96.59375 384.86227 95.796875Q384.86227 94.953125 385.17477 94.265625Q385.5029 93.578125 386.09665 93.21875Q386.70602 92.84375 387.5029 92.84375Q388.76852 92.84375 389.48727 93.796875Q390.22165 94.75 390.22165 96.375L390.22165 96.6875Q390.22165 99.1875 389.23727 100.328125Q388.2529 101.46875 386.26852 101.5L386.04977 101.5L386.04977 100.59375L386.28415 100.59375Q387.6279 100.5625 388.34665 99.890625Q389.0654 99.21875 389.1279 97.75ZM387.45602 97.75Q388.0029 97.75 388.45602 97.421875Q388.92477 97.078125 389.14352 96.59375L389.14352 96.15625Q389.14352 95.09375 388.67477 94.421875Q388.20602 93.75 387.5029 93.75Q386.78415 93.75 386.34665 94.296875Q385.92477 94.84375 385.92477 95.75Q385.92477 96.625 386.33102 97.1875Q386.7529 97.75 387.45602 97.75Z" fill-rule="nonzero"/><path fill="#ffffff" d="M365.23727 92.96875L365.23727 93.875L365.03415 93.875Q363.76852 93.90625 363.01852 94.640625Q362.26852 95.359375 362.14352 96.671875Q362.83102 95.90625 363.98727 95.90625Q365.09665 95.90625 365.76852 96.6875Q366.4404 97.46875 366.4404 98.71875Q366.4404 100.03125 365.72165 100.828125Q365.0029 101.625 363.78415 101.625Q362.5654 101.625 361.79977 100.6875Q361.04977 99.734375 361.04977 98.25L361.04977 97.84375Q361.04977 95.484375 362.04977 94.234375Q363.04977 92.984375 365.03415 92.96875L365.23727 92.96875ZM363.8154 96.8125Q363.2529 96.8125 362.78415 97.140625Q362.3154 97.46875 362.1279 97.984375L362.1279 98.375Q362.1279 99.4375 362.59665 100.078125Q363.08102 100.71875 363.78415 100.71875Q364.51852 100.71875 364.9404 100.1875Q365.36227 99.640625 365.36227 98.765625Q365.36227 97.890625 364.9404 97.359375Q364.51852 96.8125 363.8154 96.8125ZM371.53415 101.5L370.45602 101.5L370.45602 94.28125L368.26852 95.078125L368.26852 94.09375L371.3779 92.921875L371.53415 92.921875L371.53415 101.5ZM375.11227 100.9375Q375.11227 100.65625 375.26852 100.46875Q375.4404 100.28125 375.76852 100.28125Q376.11227 100.28125 376.28415 100.46875Q376.45602 100.65625 376.45602 100.9375Q376.45602 101.203125 376.28415 101.390625Q376.11227 101.5625 375.76852 101.5625Q375.4404 101.5625 375.26852 101.390625Q375.11227 101.203125 375.11227 100.9375ZM382.54977 98.640625L383.73727 98.640625L383.73727 99.515625L382.54977 99.515625L382.54977 101.5L381.47165 101.5L381.47165 99.515625L377.58102 99.515625L377.58102 98.875L381.39352 92.96875L382.54977 92.96875L382.54977 98.640625ZM378.8154 98.640625L381.47165 98.640625L381.47165 94.453125L381.33102 94.6875L378.8154 98.640625ZM389.1279 97.75Q388.79977 98.15625 388.3154 98.40625Q387.84665 98.640625 387.28415 98.640625Q386.54977 98.640625 386.0029 98.28125Q385.45602 97.921875 385.15915 97.265625Q384.86227 96.59375 384.86227 95.796875Q384.86227 94.953125 385.17477 94.265625Q385.5029 93.578125 386.09665 93.21875Q386.70602 92.84375 387.5029 92.84375Q388.76852 92.84375 389.48727 93.796875Q390.22165 94.75 390.22165 96.375L390.22165 96.6875Q390.22165 99.1875 389.23727 100.328125Q388.2529 101.46875 386.26852 101.5L386.04977 101.5L386.04977 100.59375L386.28415 100.59375Q387.6279 100.5625 388.34665 99.890625Q389.0654 99.21875 389.1279 97.75ZM387.45602 97.75Q388.0029 97.75 388.45602 97.421875Q388.92477 97.078125 389.14352 96.59375L389.14352 96.15625Q389.14352 95.09375 388.67477 94.421875Q388.20602 93.75 387.5029 93.75Q386.78415 93.75 386.34665 94.296875Q385.92477 94.84375 385.92477 95.75Q385.92477 96.625 386.33102 97.1875Q386.7529 97.75 387.45602 97.75Z" fill-rule="nonzero"/><path stroke="#129a74" stroke-width="3.0" stroke-linejoin="round" stroke-linecap="round" d="M741.17365 155.5L740.0955 155.5L740.0955 148.28125L737.908 149.07812L737.908 148.09375L741.0174 146.92188L741.17365 146.92188L741.17365 155.5ZM750.1268 147.57812L746.5955 155.5L745.4549 155.5L748.9705 147.85938L744.36115 147.85938L744.36115 146.96875L750.1268 146.96875L750.1268 147.57812ZM755.17365 155.5L754.0955 155.5L754.0955 148.28125L751.908 149.07812L751.908 148.09375L755.0174 146.92188L755.17365 146.92188L755.17365 155.5Z" fill-rule="nonzero"/><path fill="#ffffff" d="M741.17365 155.5L740.0955 155.5L740.0955 148.28125L737.908 149.07812L737.908 148.09375L741.0174 146.92188L741.17365 146.92188L741.17365 155.5ZM750.1268 147.57812L746.5955 155.5L745.4549 155.5L748.9705 147.85938L744.36115 147.85938L744.36115 146.96875L750.1268 146.96875L750.1268 147.57812ZM755.17365 155.5L754.0955 155.5L754.0955 148.28125L751.908 149.07812L751.908 148.09375L755.0174 146.92188L755.17365 146.92188L755.17365 155.5Z" fill-rule="nonzero"/><path stroke="#129a74" stroke-width="3.0" stroke-linejoin="round" stroke-linecap="round" d="M717.7376 209.5L716.6595 209.5L716.6595 202.28125L714.472 203.07812L714.472 202.09375L717.58136 200.92188L717.7376 200.92188L717.7376 209.5ZM725.44073 200.96875L725.44073 201.875L725.2376 201.875Q723.972 201.90625 723.222 202.64062Q722.472 203.35938 722.347 204.67188Q723.0345 203.90625 724.19073 203.90625Q725.3001 203.90625 725.972 204.6875Q726.64386 205.46875 726.64386 206.71875Q726.64386 208.03125 725.9251 208.82812Q725.20636 209.625 723.9876 209.625Q722.76886 209.625 722.00323 208.6875Q721.25323 207.73438 721.25323 206.25L721.25323 205.84375Q721.25323 203.48438 722.25323 202.23438Q723.25323 200.98438 725.2376 200.96875L725.44073 200.96875ZM724.01886 204.8125Q723.45636 204.8125 722.9876 205.14062Q722.51886 205.46875 722.33136 205.98438L722.33136 206.375Q722.33136 207.4375 722.8001 208.07812Q723.2845 208.71875 723.9876 208.71875Q724.722 208.71875 725.14386 208.1875Q725.56573 207.64062 725.56573 206.76562Q725.56573 205.89062 725.14386 205.35938Q724.722 204.8125 724.01886 204.8125ZM732.75323 206.64062L733.94073 206.64062L733.94073 207.51562L732.75323 207.51562L732.75323 209.5L731.6751 209.5L731.6751 207.51562L727.7845 207.51562L727.7845 206.875L731.597 200.96875L732.75323 200.96875L732.75323 206.64062ZM729.01886 206.64062L731.6751 206.64062L731.6751 202.45312L731.5345 202.6875L729.01886 206.64062Z" fill-rule="nonzero"/><path fill="#ffffff" d="M717.7376 209.5L716.6595 209.5L716.6595 202.28125L714.472 203.07812L714.472 202.09375L717.58136 200.92188L717.7376 200.92188L717.7376 209.5ZM725.44073 200.96875L725.44073 201.875L725.2376 201.875Q723.972 201.90625 723.222 202.64062Q722.472 203.35938 722.347 204.67188Q723.0345 203.90625 724.19073 203.90625Q725.3001 203.90625 725.972 204.6875Q726.64386 205.46875 726.64386 206.71875Q726.64386 208.03125 725.9251 208.82812Q725.20636 209.625 723.9876 209.625Q722.76886 209.625 722.00323 208.6875Q721.25323 207.73438 721.25323 206.25L721.25323 205.84375Q721.25323 203.48438 722.25323 202.23438Q723.25323 200.98438 725.2376 200.96875L725.44073 200.96875ZM724.01886 204.8125Q723.45636 204.8125 722.9876 205.14062Q722.51886 205.46875 722.33136 205.98438L722.33136 206.375Q722.33136 207.4375 722.8001 208.07812Q723.2845 208.71875 723.9876 208.71875Q724.722 208.71875 725.14386 208.1875Q725.56573 207.64062 725.56573 206.76562Q725.56573 205.89062 725.14386 205.35938Q724.722 204.8125 724.01886 204.8125ZM732.75323 206.64062L733.94073 206.64062L733.94073 207.51562L732.75323 207.51562L732.75323 209.5L731.6751 209.5L731.6751 207.51562L727.7845 207.51562L727.7845 206.875L731.597 200.96875L732.75323 200.96875L732.75323 206.64062ZM729.01886 206.64062L731.6751 206.64062L731.6751 202.45312L731.5345 202.6875L729.01886 206.64062Z" fill-rule="nonzero"/><path stroke="#129a74" stroke-width="3.0" stroke-linejoin="round" stroke-linecap="round" d="M731.12964 262.5L730.0515 262.5L730.0515 255.28125L727.864 256.07812L727.864 255.09375L730.9734 253.92188L731.12964 253.92188L731.12964 262.5ZM738.83276 253.96875L738.83276 254.875L738.62964 254.875Q737.364 254.90625 736.614 255.64062Q735.864 256.35938 735.739 257.67188Q736.4265 256.90625 737.58276 256.90625Q738.69214 256.90625 739.364 257.6875Q740.0359 258.46875 740.0359 259.71875Q740.0359 261.03125 739.31714 261.82812Q738.5984 262.625 737.37964 262.625Q736.1609 262.625 735.39526 261.6875Q734.64526 260.73438 734.64526 259.25L734.64526 258.84375Q734.64526 256.48438 735.64526 255.23438Q736.64526 253.98438 738.62964 253.96875L738.83276 253.96875ZM737.4109 257.8125Q736.8484 257.8125 736.37964 258.14062Q735.9109 258.46875 735.7234 258.98438L735.7234 259.375Q735.7234 260.4375 736.19214 261.07812Q736.6765 261.71875 737.37964 261.71875Q738.114 261.71875 738.5359 261.1875Q738.95776 260.64062 738.95776 259.76562Q738.95776 258.89062 738.5359 258.35938Q738.114 257.8125 737.4109 257.8125ZM746.75464 256.1875Q746.75464 256.82812 746.4109 257.32812Q746.06714 257.82812 745.50464 258.10938Q746.1609 258.39062 746.5515 258.95312Q746.94214 259.5 746.94214 260.20312Q746.94214 261.29688 746.19214 261.96875Q745.45776 262.625 744.239 262.625Q743.00464 262.625 742.25464 261.96875Q741.52026 261.29688 741.52026 260.20312Q741.52026 259.5 741.89526 258.95312Q742.27026 258.39062 742.94214 258.10938Q742.37964 257.82812 742.0515 257.32812Q741.7234 256.82812 741.7234 256.1875Q741.7234 255.10938 742.4109 254.48438Q743.0984 253.84375 744.239 253.84375Q745.364 253.84375 746.0515 254.48438Q746.75464 255.10938 746.75464 256.1875ZM745.864 260.17188Q745.864 259.45312 745.4109 259.01562Q744.95776 258.5625 744.2234 258.5625Q743.489 258.5625 743.0359 259.01562Q742.5984 259.45312 742.5984 260.1875Q742.5984 260.90625 743.0359 261.32812Q743.4734 261.73438 744.239 261.73438Q744.989 261.73438 745.4265 261.3125Q745.864 260.89062 745.864 260.17188ZM744.239 254.73438Q743.5984 254.73438 743.19214 255.14062Q742.8015 255.53125 742.8015 256.21875Q742.8015 256.85938 743.19214 257.26562Q743.58276 257.67188 744.2234 257.67188Q744.87964 257.67188 745.27026 257.26562Q745.6609 256.85938 745.6609 256.21875Q745.6609 255.5625 745.25464 255.15625Q744.8484 254.73438 744.239 254.73438Z" fill-rule="nonzero"/><path fill="#ffffff" d="M731.12964 262.5L730.0515 262.5L730.0515 255.28125L727.864 256.07812L727.864 255.09375L730.9734 253.92188L731.12964 253.92188L731.12964 262.5ZM738.83276 253.96875L738.83276 254.875L738.62964 254.875Q737.364 254.90625 736.614 255.64062Q735.864 256.35938 735.739 257.67188Q736.4265 256.90625 737.58276 256.90625Q738.69214 256.90625 739.364 257.6875Q740.0359 258.46875 740.0359 259.71875Q740.0359 261.03125 739.31714 261.82812Q738.5984 262.625 737.37964 262.625Q736.1609 262.625 735.39526 261.6875Q734.64526 260.73438 734.64526 259.25L734.64526 258.84375Q734.64526 256.48438 735.64526 255.23438Q736.64526 253.98438 738.62964 253.96875L738.83276 253.96875ZM737.4109 257.8125Q736.8484 257.8125 736.37964 258.14062Q735.9109 258.46875 735.7234 258.98438L735.7234 259.375Q735.7234 260.4375 736.19214 261.07812Q736.6765 261.71875 737.37964 261.71875Q738.114 261.71875 738.5359 261.1875Q738.95776 260.64062 738.95776 259.76562Q738.95776 258.89062 738.5359 258.35938Q738.114 257.8125 737.4109 257.8125ZM746.75464 256.1875Q746.75464 256.82812 746.4109 257.32812Q746.06714 257.82812 745.50464 258.10938Q746.1609 258.39062 746.5515 258.95312Q746.94214 259.5 746.94214 260.20312Q746.94214 261.29688 746.19214 261.96875Q745.45776 262.625 744.239 262.625Q743.00464 262.625 742.25464 261.96875Q741.52026 261.29688 741.52026 260.20312Q741.52026 259.5 741.89526 258.95312Q742.27026 258.39062 742.94214 258.10938Q742.37964 257.82812 742.0515 257.32812Q741.7234 256.82812 741.7234 256.1875Q741.7234 255.10938 742.4109 254.48438Q743.0984 253.84375 744.239 253.84375Q745.364 253.84375 746.0515 254.48438Q746.75464 255.10938 746.75464 256.1875ZM745.864 260.17188Q745.864 259.45312 745.4109 259.01562Q744.95776 258.5625 744.2234 258.5625Q743.489 258.5625 743.0359 259.01562Q742.5984 259.45312 742.5984 260.1875Q742.5984 260.90625 743.0359 261.32812Q743.4734 261.73438 744.239 261.73438Q744.989 261.73438 745.4265 261.3125Q745.864 260.89062 745.864 260.17188ZM744.239 254.73438Q743.5984 254.73438 743.19214 255.14062Q742.8015 255.53125 742.8015 256.21875Q742.8015 256.85938 743.19214 257.26562Q743.58276 257.67188 744.2234 257.67188Q744.87964 257.67188 745.27026 257.26562Q745.6609 256.85938 745.6609 256.21875Q745.6609 255.5625 745.25464 255.15625Q744.8484 254.73438 744.239 254.73438Z" fill-rule="nonzero"/><path stroke="#129a74" stroke-width="3.0" stroke-linejoin="round" stroke-linecap="round" d="M727.7816 316.5L726.7035 316.5L726.7035 309.28125L724.516 310.07812L724.516 309.09375L727.62537 307.92188L727.7816 307.92188L727.7816 316.5ZM735.48474 307.96875L735.48474 308.875L735.2816 308.875Q734.016 308.90625 733.266 309.64062Q732.516 310.35938 732.391 311.67188Q733.0785 310.90625 734.23474 310.90625Q735.3441 310.90625 736.016 311.6875Q736.68787 312.46875 736.68787 313.71875Q736.68787 315.03125 735.9691 315.82812Q735.25037 316.625 734.0316 316.625Q732.81287 316.625 732.04724 315.6875Q731.29724 314.73438 731.29724 313.25L731.29724 312.84375Q731.29724 310.48438 732.29724 309.23438Q733.29724 307.98438 735.2816 307.96875L735.48474 307.96875ZM734.06287 311.8125Q733.50037 311.8125 733.0316 312.14062Q732.56287 312.46875 732.37537 312.98438L732.37537 313.375Q732.37537 314.4375 732.8441 315.07812Q733.3285 315.71875 734.0316 315.71875Q734.766 315.71875 735.18787 315.1875Q735.60974 314.64062 735.60974 313.76562Q735.60974 312.89062 735.18787 312.35938Q734.766 311.8125 734.06287 311.8125ZM743.73474 308.57812L740.2035 316.5L739.06287 316.5L742.5785 308.85938L737.9691 308.85938L737.9691 307.96875L743.73474 307.96875L743.73474 308.57812Z" fill-rule="nonzero"/><path fill="#ffffff" d="M727.7816 316.5L726.7035 316.5L726.7035 309.28125L724.516 310.07812L724.516 309.09375L727.62537 307.92188L727.7816 307.92188L727.7816 316.5ZM735.48474 307.96875L735.48474 308.875L735.2816 308.875Q734.016 308.90625 733.266 309.64062Q732.516 310.35938 732.391 311.67188Q733.0785 310.90625 734.23474 310.90625Q735.3441 310.90625 736.016 311.6875Q736.68787 312.46875 736.68787 313.71875Q736.68787 315.03125 735.9691 315.82812Q735.25037 316.625 734.0316 316.625Q732.81287 316.625 732.04724 315.6875Q731.29724 314.73438 731.29724 313.25L731.29724 312.84375Q731.29724 310.48438 732.29724 309.23438Q733.29724 307.98438 735.2816 307.96875L735.48474 307.96875ZM734.06287 311.8125Q733.50037 311.8125 733.0316 312.14062Q732.56287 312.46875 732.37537 312.98438L732.37537 313.375Q732.37537 314.4375 732.8441 315.07812Q733.3285 315.71875 734.0316 315.71875Q734.766 315.71875 735.18787 315.1875Q735.60974 314.64062 735.60974 313.76562Q735.60974 312.89062 735.18787 312.35938Q734.766 311.8125 734.06287 311.8125ZM743.73474 308.57812L740.2035 316.5L739.06287 316.5L742.5785 308.85938L737.9691 308.85938L737.9691 307.96875L743.73474 307.96875L743.73474 308.57812Z" fill-rule="nonzero"/><path stroke="#129a74" stroke-width="3.0" stroke-linejoin="round" stroke-linecap="round" d="M714.38965 370.5L713.3115 370.5L713.3115 363.28125L711.124 364.07812L711.124 363.09375L714.2334 361.92188L714.38965 361.92188L714.38965 370.5ZM722.0928 361.96875L722.0928 362.875L721.88965 362.875Q720.624 362.90625 719.874 363.64062Q719.124 364.35938 718.999 365.67188Q719.6865 364.90625 720.8428 364.90625Q721.95215 364.90625 722.624 365.6875Q723.2959 366.46875 723.2959 367.71875Q723.2959 369.03125 722.57715 369.82812Q721.8584 370.625 720.63965 370.625Q719.4209 370.625 718.6553 369.6875Q717.9053 368.73438 717.9053 367.25L717.9053 366.84375Q717.9053 364.48438 718.9053 363.23438Q719.9053 361.98438 721.88965 361.96875L722.0928 361.96875ZM720.6709 365.8125Q720.1084 365.8125 719.63965 366.14062Q719.1709 366.46875 718.9834 366.98438L718.9834 367.375Q718.9834 368.4375 719.45215 369.07812Q719.9365 369.71875 720.63965 369.71875Q721.374 369.71875 721.7959 369.1875Q722.2178 368.64062 722.2178 367.76562Q722.2178 366.89062 721.7959 366.35938Q721.374 365.8125 720.6709 365.8125ZM726.4053 365.70312L727.2178 365.70312Q727.999 365.6875 728.4365 365.29688Q728.874 364.90625 728.874 364.23438Q728.874 362.73438 727.374 362.73438Q726.6709 362.73438 726.249 363.14062Q725.8428 363.54688 725.8428 364.20312L724.749 364.20312Q724.749 363.1875 725.4834 362.51562Q726.2334 361.84375 727.374 361.84375Q728.57715 361.84375 729.26465 362.48438Q729.95215 363.125 729.95215 364.26562Q729.95215 364.82812 729.5928 365.34375Q729.2334 365.85938 728.6084 366.125Q729.3115 366.34375 729.6865 366.85938Q730.07715 367.375 730.07715 368.125Q730.07715 369.26562 729.32715 369.95312Q728.57715 370.625 727.374 370.625Q726.1865 370.625 725.4209 369.96875Q724.6709 369.3125 724.6709 368.25L725.76465 368.25Q725.76465 368.92188 726.20215 369.32812Q726.63965 369.73438 727.38965 369.73438Q728.1709 369.73438 728.57715 369.32812Q728.999 368.90625 728.999 368.14062Q728.999 367.40625 728.5459 367.01562Q728.0928 366.60938 727.2178 366.59375L726.4053 366.59375L726.4053 365.70312Z" fill-rule="nonzero"/><path fill="#ffffff" d="M714.38965 370.5L713.3115 370.5L713.3115 363.28125L711.124 364.07812L711.124 363.09375L714.2334 361.92188L714.38965 361.92188L714.38965 370.5ZM722.0928 361.96875L722.0928 362.875L721.88965 362.875Q720.624 362.90625 719.874 363.64062Q719.124 364.35938 718.999 365.67188Q719.6865 364.90625 720.8428 364.90625Q721.95215 364.90625 722.624 365.6875Q723.2959 366.46875 723.2959 367.71875Q723.2959 369.03125 722.57715 369.82812Q721.8584 370.625 720.63965 370.625Q719.4209 370.625 718.6553 369.6875Q717.9053 368.73438 717.9053 367.25L717.9053 366.84375Q717.9053 364.48438 718.9053 363.23438Q719.9053 361.98438 721.88965 361.96875L722.0928 361.96875ZM720.6709 365.8125Q720.1084 365.8125 719.63965 366.14062Q719.1709 366.46875 718.9834 366.98438L718.9834 367.375Q718.9834 368.4375 719.45215 369.07812Q719.9365 369.71875 720.63965 369.71875Q721.374 369.71875 721.7959 369.1875Q722.2178 368.64062 722.2178 367.76562Q722.2178 366.89062 721.7959 366.35938Q721.374 365.8125 720.6709 365.8125ZM726.4053 365.70312L727.2178 365.70312Q727.999 365.6875 728.4365 365.29688Q728.874 364.90625 728.874 364.23438Q728.874 362.73438 727.374 362.73438Q726.6709 362.73438 726.249 363.14062Q725.8428 363.54688 725.8428 364.20312L724.749 364.20312Q724.749 363.1875 725.4834 362.51562Q726.2334 361.84375 727.374 361.84375Q728.57715 361.84375 729.26465 362.48438Q729.95215 363.125 729.95215 364.26562Q729.95215 364.82812 729.5928 365.34375Q729.2334 365.85938 728.6084 366.125Q729.3115 366.34375 729.6865 366.85938Q730.07715 367.375 730.07715 368.125Q730.07715 369.26562 729.32715 369.95312Q728.57715 370.625 727.374 370.625Q726.1865 370.625 725.4209 369.96875Q724.6709 369.3125 724.6709 368.25L725.76465 368.25Q725.76465 368.92188 726.20215 369.32812Q726.63965 369.73438 727.38965 369.73438Q728.1709 369.73438 728.57715 369.32812Q728.999 368.90625 728.999 368.14062Q728.999 367.40625 728.5459 367.01562Q728.0928 366.60938 727.2178 366.59375L726.4053 366.59375L726.4053 365.70312Z" fill-rule="nonzero"/><path fill="#000000" d="M140.29375 101.22677L140.29375 100.02364L141.49687 100.02364L141.49687 101.22677L140.29375 101.22677ZM143.24687 101.22677L143.24687 95.82052L142.30937 95.82052L142.30937 95.00802L143.24687 95.00802L143.24687 94.33614Q143.24687 93.71114 143.35625 93.41427Q143.5125 92.99239 143.8875 92.74239Q144.27812 92.49239 144.96562 92.49239Q145.41875 92.49239 145.95 92.60177L145.79375 93.50802Q145.46562 93.46114 145.16875 93.46114Q144.68437 93.46114 144.48125 93.66427Q144.29375 93.86739 144.29375 94.42989L144.29375 95.00802L145.5125 95.00802L145.5125 95.82052L144.29375 95.82052L144.29375 101.22677L143.24687 101.22677ZM145.60625 98.11739Q145.60625 96.38302 146.55937 95.55489Q147.35625 94.86739 148.5125 94.86739Q149.79375 94.86739 150.60625 95.71114Q151.43437 96.53927 151.43437 98.02364Q151.43437 99.22677 151.075 99.91427Q150.71562 100.60177 150.0125 100.99239Q149.325 101.36739 148.5125 101.36739Q147.21562 101.36739 146.40312 100.53927Q145.60625 99.69552 145.60625 98.11739ZM146.68437 98.11739Q146.68437 99.30489 147.2 99.89864Q147.73125 100.49239 148.5125 100.49239Q149.30937 100.49239 149.825 99.89864Q150.34062 99.30489 150.34062 98.08614Q150.34062 96.92989 149.80937 96.33614Q149.29375 95.74239 148.5125 95.74239Q147.73125 95.74239 147.2 96.33614Q146.68437 96.91427 146.68437 98.11739ZM152.98125 101.22677L152.98125 95.00802L153.93437 95.00802L153.93437 95.94552Q154.29375 95.28927 154.59062 95.08614Q154.90312 94.86739 155.27812 94.86739Q155.80937 94.86739 156.35625 95.19552L155.99687 96.17989Q155.60625 95.94552 155.23125 95.94552Q154.87187 95.94552 154.59062 96.16427Q154.325 96.36739 154.21562 96.74239Q154.02812 97.30489 154.02812 97.96114L154.02812 101.22677L152.98125 101.22677ZM157.15312 101.22677L157.15312 92.63302L163.35625 92.63302L163.35625 93.64864L158.29375 93.64864L158.29375 96.27364L163.04375 96.27364L163.04375 97.28927L158.29375 97.28927L158.29375 100.21114L163.55937 100.21114L163.55937 101.22677L157.15312 101.22677ZM169.05937 100.46114Q168.46562 100.96114 167.91875 101.16427Q167.3875 101.36739 166.7625 101.36739Q165.73125 101.36739 165.18437 100.86739Q164.6375 100.36739 164.6375 99.58614Q164.6375 99.13302 164.84062 98.75802Q165.04375 98.36739 165.3875 98.14864Q165.73125 97.91427 166.15312 97.80489Q166.45 97.71114 167.09062 97.63302Q168.35625 97.49239 168.96562 97.27364Q168.96562 97.05489 168.96562 97.00802Q168.96562 96.35177 168.66875 96.08614Q168.2625 95.74239 167.46562 95.74239Q166.73125 95.74239 166.37187 96.00802Q166.0125 96.25802 165.84062 96.91427L164.80937 96.77364Q164.95 96.11739 165.27812 95.71114Q165.60625 95.30489 166.21562 95.08614Q166.825 94.86739 167.62187 94.86739Q168.41875 94.86739 168.91875 95.05489Q169.41875 95.24239 169.65312 95.52364Q169.8875 95.80489 169.98125 96.24239Q170.02812 96.50802 170.02812 97.21114L170.02812 98.61739Q170.02812 100.08614 170.09062 100.47677Q170.16875 100.86739 170.37187 101.22677L169.2625 101.22677Q169.10625 100.89864 169.05937 100.46114ZM168.96562 98.10177Q168.3875 98.33614 167.24687 98.50802Q166.59062 98.60177 166.325 98.72677Q166.05937 98.83614 165.90312 99.05489Q165.7625 99.27364 165.7625 99.55489Q165.7625 99.97677 166.075 100.25802Q166.40312 100.53927 167.0125 100.53927Q167.62187 100.53927 168.09062 100.27364Q168.575 100.00802 168.79375 99.53927Q168.96562 99.17989 168.96562 98.49239L168.96562 98.10177ZM176.05937 98.94552L177.09062 99.08614Q176.91875 100.14864 176.21562 100.75802Q175.5125 101.36739 174.49687 101.36739Q173.21562 101.36739 172.43437 100.53927Q171.66875 99.69552 171.66875 98.13302Q171.66875 97.13302 171.99687 96.38302Q172.34062 95.61739 173.0125 95.24239Q173.7 94.86739 174.5125 94.86739Q175.5125 94.86739 176.15312 95.38302Q176.80937 95.88302 176.99687 96.83614L175.96562 96.99239Q175.825 96.36739 175.45 96.05489Q175.075 95.72677 174.54375 95.72677Q173.74687 95.72677 173.24687 96.30489Q172.74687 96.86739 172.74687 98.10177Q172.74687 99.36739 173.23125 99.92989Q173.71562 100.49239 174.48125 100.49239Q175.10625 100.49239 175.5125 100.11739Q175.93437 99.74239 176.05937 98.94552ZM177.99687 101.22677L177.99687 92.63302L179.04375 92.63302L179.04375 95.71114Q179.77812 94.86739 180.90312 94.86739Q181.60625 94.86739 182.10625 95.14864Q182.62187 95.41427 182.84062 95.89864Q183.05937 96.36739 183.05937 97.28927L183.05937 101.22677L182.0125 101.22677L182.0125 97.28927Q182.0125 96.49239 181.66875 96.13302Q181.325 95.77364 180.7 95.77364Q180.23125 95.77364 179.80937 96.02364Q179.40312 96.25802 179.21562 96.67989Q179.04375 97.08614 179.04375 97.82052L179.04375 101.22677L177.99687 101.22677Z" fill-rule="nonzero"/><path fill="#000000" d="M155.24687 154.89606L155.24687 149.4898L154.30937 149.4898L154.30937 148.6773L155.24687 148.6773L155.24687 148.00543Q155.24687 147.38043 155.35625 147.08356Q155.5125 146.66168 155.8875 146.41168Q156.27812 146.16168 156.96562 146.16168Q157.41875 146.16168 157.95 146.27106L157.79375 147.1773Q157.46562 147.13043 157.16875 147.13043Q156.68437 147.13043 156.48125 147.33356Q156.29375 147.53668 156.29375 148.09918L156.29375 148.6773L157.5125 148.6773L157.5125 149.4898L156.29375 149.4898L156.29375 154.89606L155.24687 154.89606ZM157.60625 151.78668Q157.60625 150.0523 158.55937 149.22418Q159.35625 148.53668 160.5125 148.53668Q161.79375 148.53668 162.60625 149.38043Q163.43437 150.20856 163.43437 151.69293Q163.43437 152.89606 163.075 153.58356Q162.71562 154.27106 162.0125 154.66168Q161.325 155.03668 160.5125 155.03668Q159.21562 155.03668 158.40312 154.20856Q157.60625 153.3648 157.60625 151.78668ZM158.68437 151.78668Q158.68437 152.97418 159.2 153.56793Q159.73125 154.16168 160.5125 154.16168Q161.30937 154.16168 161.825 153.56793Q162.34062 152.97418 162.34062 151.75543Q162.34062 150.59918 161.80937 150.00543Q161.29375 149.41168 160.5125 149.41168Q159.73125 149.41168 159.2 150.00543Q158.68437 150.58356 158.68437 151.78668ZM164.98125 154.89606L164.98125 148.6773L165.93437 148.6773L165.93437 149.6148Q166.29375 148.95856 166.59062 148.75543Q166.90312 148.53668 167.27812 148.53668Q167.80937 148.53668 168.35625 148.8648L167.99687 149.84918Q167.60625 149.6148 167.23125 149.6148Q166.87187 149.6148 166.59062 149.83356Q166.325 150.03668 166.21562 150.41168Q166.02812 150.97418 166.02812 151.63043L166.02812 154.89606L164.98125 154.89606ZM169.29375 154.89606L169.29375 153.69293L170.49687 153.69293L170.49687 154.89606L169.29375 154.89606ZM172.29375 154.89606L172.29375 153.69293L173.49687 153.69293L173.49687 154.89606L172.29375 154.89606ZM174.60625 151.78668Q174.60625 150.0523 175.55937 149.22418Q176.35625 148.53668 177.5125 148.53668Q178.79375 148.53668 179.60625 149.38043Q180.43437 150.20856 180.43437 151.69293Q180.43437 152.89606 180.075 153.58356Q179.71562 154.27106 179.0125 154.66168Q178.325 155.03668 177.5125 155.03668Q176.21562 155.03668 175.40312 154.20856Q174.60625 153.3648 174.60625 151.78668ZM175.68437 151.78668Q175.68437 152.97418 176.2 153.56793Q176.73125 154.16168 177.5125 154.16168Q178.30937 154.16168 178.825 153.56793Q179.34062 152.97418 179.34062 151.75543Q179.34062 150.59918 178.80937 150.00543Q178.29375 149.41168 177.5125 149.41168Q176.73125 149.41168 176.2 150.00543Q175.68437 150.58356 175.68437 151.78668ZM182.24687 154.89606L182.24687 149.4898L181.30937 149.4898L181.30937 148.6773L182.24687 148.6773L182.24687 148.00543Q182.24687 147.38043 182.35625 147.08356Q182.5125 146.66168 182.8875 146.41168Q183.27812 146.16168 183.96562 146.16168Q184.41875 146.16168 184.95 146.27106L184.79375 147.1773Q184.46562 147.13043 184.16875 147.13043Q183.68437 147.13043 183.48125 147.33356Q183.29375 147.53668 183.29375 148.09918L183.29375 148.6773L184.5125 148.6773L184.5125 149.4898L183.29375 149.4898L183.29375 154.89606L182.24687 154.89606Z" fill-rule="nonzero"/><path fill="#000000" d="M43.246876 208.56535L43.246876 203.1591L42.309376 203.1591L42.309376 202.3466L43.246876 202.3466L43.246876 201.67473Q43.246876 201.04973 43.35625 200.75285Q43.5125 200.33098 43.8875 200.08098Q44.278126 199.83098 44.965626 199.83098Q45.41875 199.83098 45.95 199.94035L45.79375 200.8466Q45.465626 200.79973 45.16875 200.79973Q44.684376 200.79973 44.48125 201.00285Q44.29375 201.20598 44.29375 201.76848L44.29375 202.3466L45.5125 202.3466L45.5125 203.1591L44.29375 203.1591L44.29375 208.56535L43.246876 208.56535ZM45.60625 205.45598Q45.60625 203.7216 46.559376 202.89348Q47.35625 202.20598 48.5125 202.20598Q49.79375 202.20598 50.60625 203.04973Q51.434376 203.87785 51.434376 205.36223Q51.434376 206.56535 51.075 207.25285Q50.715626 207.94035 50.0125 208.33098Q49.325 208.70598 48.5125 208.70598Q47.215626 208.70598 46.403126 207.87785Q45.60625 207.0341 45.60625 205.45598ZM46.684376 205.45598Q46.684376 206.64348 47.2 207.23723Q47.73125 207.83098 48.5125 207.83098Q49.309376 207.83098 49.825 207.23723Q50.340626 206.64348 50.340626 205.42473Q50.340626 204.26848 49.809376 203.67473Q49.29375 203.08098 48.5125 203.08098Q47.73125 203.08098 47.2 203.67473Q46.684376 204.25285 46.684376 205.45598ZM52.98125 208.56535L52.98125 202.3466L53.934376 202.3466L53.934376 203.2841Q54.29375 202.62785 54.590626 202.42473Q54.903126 202.20598 55.278126 202.20598Q55.809376 202.20598 56.35625 202.5341L55.996876 203.51848Q55.60625 203.2841 55.23125 203.2841Q54.871876 203.2841 54.590626 203.50285Q54.325 203.70598 54.215626 204.08098Q54.028126 204.64348 54.028126 205.29973L54.028126 208.56535L52.98125 208.56535ZM59.85625 204.81535L59.85625 203.83098L65.54375 201.42473L65.54375 202.4716L61.028126 204.31535L65.54375 206.19035L65.54375 207.23723L59.85625 204.81535ZM71.05937 207.79973Q70.46562 208.29973 69.91875 208.50285Q69.3875 208.70598 68.7625 208.70598Q67.73125 208.70598 67.18437 208.20598Q66.6375 207.70598 66.6375 206.92473Q66.6375 206.4716 66.84062 206.0966Q67.04375 205.70598 67.3875 205.48723Q67.73125 205.25285 68.15312 205.14348Q68.45 205.04973 69.09062 204.9716Q70.35625 204.83098 70.96562 204.61223Q70.96562 204.39348 70.96562 204.3466Q70.96562 203.69035 70.66875 203.42473Q70.2625 203.08098 69.46562 203.08098Q68.73125 203.08098 68.37187 203.3466Q68.0125 203.5966 67.84062 204.25285L66.80937 204.11223Q66.95 203.45598 67.27812 203.04973Q67.60625 202.64348 68.21562 202.42473Q68.825 202.20598 69.62187 202.20598Q70.41875 202.20598 70.91875 202.39348Q71.41875 202.58098 71.65312 202.86223Q71.8875 203.14348 71.98125 203.58098Q72.02812 203.8466 72.02812 204.54973L72.02812 205.95598Q72.02812 207.42473 72.09062 207.81535Q72.16875 208.20598 72.37187 208.56535L71.2625 208.56535Q71.10625 208.23723 71.05937 207.79973ZM70.96562 205.44035Q70.3875 205.67473 69.24687 205.8466Q68.59062 205.94035 68.325 206.06535Q68.05937 206.17473 67.90312 206.39348Q67.7625 206.61223 67.7625 206.89348Q67.7625 207.31535 68.075 207.5966Q68.40312 207.87785 69.0125 207.87785Q69.62187 207.87785 70.09062 207.61223Q70.575 207.3466 70.79375 206.87785Q70.96562 206.51848 70.96562 205.83098L70.96562 205.44035ZM73.98125 208.56535L73.98125 202.3466L74.93437 202.3466L74.93437 203.2841Q75.29375 202.62785 75.59062 202.42473Q75.90312 202.20598 76.27812 202.20598Q76.80937 202.20598 77.35625 202.5341L76.99687 203.51848Q76.60625 203.2841 76.23125 203.2841Q75.87187 203.2841 75.59062 203.50285Q75.325 203.70598 75.21562 204.08098Q75.02812 204.64348 75.02812 205.29973L75.02812 208.56535L73.98125 208.56535ZM77.98125 208.56535L77.98125 202.3466L78.93437 202.3466L78.93437 203.2841Q79.29375 202.62785 79.59062 202.42473Q79.90312 202.20598 80.27812 202.20598Q80.80937 202.20598 81.35625 202.5341L80.99687 203.51848Q80.60625 203.2841 80.23125 203.2841Q79.87187 203.2841 79.59062 203.50285Q79.325 203.70598 79.21562 204.08098Q79.02812 204.64348 79.02812 205.29973L79.02812 208.56535L77.98125 208.56535ZM86.05937 207.79973Q85.46562 208.29973 84.91875 208.50285Q84.3875 208.70598 83.7625 208.70598Q82.73125 208.70598 82.18437 208.20598Q81.6375 207.70598 81.6375 206.92473Q81.6375 206.4716 81.84062 206.0966Q82.04375 205.70598 82.3875 205.48723Q82.73125 205.25285 83.15312 205.14348Q83.45 205.04973 84.09062 204.9716Q85.35625 204.83098 85.96562 204.61223Q85.96562 204.39348 85.96562 204.3466Q85.96562 203.69035 85.66875 203.42473Q85.2625 203.08098 84.46562 203.08098Q83.73125 203.08098 83.37187 203.3466Q83.0125 203.5966 82.84062 204.25285L81.80937 204.11223Q81.95 203.45598 82.27812 203.04973Q82.60625 202.64348 83.21562 202.42473Q83.825 202.20598 84.62187 202.20598Q85.41875 202.20598 85.91875 202.39348Q86.41875 202.58098 86.65312 202.86223Q86.8875 203.14348 86.98125 203.58098Q87.02812 203.8466 87.02812 204.54973L87.02812 205.95598Q87.02812 207.42473 87.09062 207.81535Q87.16875 208.20598 87.37187 208.56535L86.2625 208.56535Q86.10625 208.23723 86.05937 207.79973ZM85.96562 205.44035Q85.3875 205.67473 84.24687 205.8466Q83.59062 205.94035 83.325 206.06535Q83.05937 206.17473 82.90312 206.39348Q82.7625 206.61223 82.7625 206.89348Q82.7625 207.31535 83.075 207.5966Q83.40312 207.87785 84.0125 207.87785Q84.62187 207.87785 85.09062 207.61223Q85.575 207.3466 85.79375 206.87785Q85.96562 206.51848 85.96562 205.83098L85.96562 205.44035ZM88.95 210.95598L88.825 209.9716Q89.16875 210.06535 89.43437 210.06535Q89.77812 210.06535 89.98125 209.94035Q90.2 209.83098 90.34062 209.62785Q90.43437 209.45598 90.66875 208.83098Q90.68437 208.75285 90.7625 208.58098L88.3875 202.3466L89.52812 202.3466L90.825 205.94035Q91.075 206.62785 91.27812 207.39348Q91.46562 206.6591 91.71562 205.9716L93.04375 202.3466L94.09062 202.3466L91.73125 208.67473Q91.34062 209.69035 91.1375 210.08098Q90.85625 210.61223 90.48125 210.8466Q90.12187 211.0966 89.62187 211.0966Q89.325 211.0966 88.95 210.95598ZM95.29375 208.56535L95.29375 207.36223L96.49687 207.36223L96.49687 208.56535L95.29375 208.56535ZM97.96562 208.56535L97.96562 199.9716L99.02812 199.9716L99.02812 208.56535L97.96562 208.56535ZM105.24687 206.56535L106.34062 206.69035Q106.09062 207.64348 105.3875 208.17473Q104.68437 208.70598 103.60625 208.70598Q102.24687 208.70598 101.43437 207.86223Q100.6375 207.01848 100.6375 205.50285Q100.6375 203.94035 101.45 203.08098Q102.2625 202.20598 103.54375 202.20598Q104.79375 202.20598 105.575 203.04973Q106.37187 203.89348 106.37187 205.44035Q106.37187 205.5341 106.37187 205.7216L101.73125 205.7216Q101.79375 206.75285 102.30937 207.29973Q102.825 207.83098 103.60625 207.83098Q104.18437 207.83098 104.59062 207.5341Q105.0125 207.2216 105.24687 206.56535ZM101.79375 204.86223L105.2625 204.86223Q105.2 204.06535 104.87187 203.67473Q104.35625 203.06535 103.55937 203.06535Q102.825 203.06535 102.325 203.54973Q101.84062 204.0341 101.79375 204.86223ZM107.99687 208.56535L107.99687 202.3466L108.93437 202.3466L108.93437 203.2216Q109.62187 202.20598 110.91875 202.20598Q111.48125 202.20598 111.95 202.4091Q112.43437 202.61223 112.66875 202.94035Q112.90312 203.26848 112.99687 203.70598Q113.04375 204.00285 113.04375 204.73723L113.04375 208.56535L111.99687 208.56535L111.99687 204.7841Q111.99687 204.12785 111.87187 203.81535Q111.74687 203.50285 111.43437 203.31535Q111.12187 203.11223 110.7 203.11223Q110.02812 203.11223 109.52812 203.54973Q109.04375 203.9716 109.04375 205.1591L109.04375 208.56535L107.99687 208.56535ZM114.79375 209.08098L115.825 209.23723Q115.8875 209.70598 116.18437 209.92473Q116.575 210.2216 117.24687 210.2216Q117.98125 210.2216 118.37187 209.92473Q118.77812 209.62785 118.91875 209.11223Q119.0125 208.7841 118.99687 207.75285Q118.30937 208.56535 117.27812 208.56535Q115.99687 208.56535 115.29375 207.64348Q114.59062 206.70598 114.59062 205.42473Q114.59062 204.5341 114.90312 203.7841Q115.23125 203.01848 115.84062 202.61223Q116.45 202.20598 117.27812 202.20598Q118.3875 202.20598 119.10625 203.0966L119.10625 202.3466L120.075 202.3466L120.075 207.7216Q120.075 209.17473 119.77812 209.7841Q119.48125 210.39348 118.84062 210.73723Q118.2 211.0966 117.2625 211.0966Q116.15312 211.0966 115.46562 210.5966Q114.77812 210.0966 114.79375 209.08098ZM115.66875 205.3466Q115.66875 206.56535 116.15312 207.12785Q116.6375 207.69035 117.37187 207.69035Q118.10625 207.69035 118.59062 207.12785Q119.09062 206.56535 119.09062 205.37785Q119.09062 204.23723 118.575 203.6591Q118.075 203.08098 117.35625 203.08098Q116.65312 203.08098 116.15312 203.6591Q115.66875 204.2216 115.66875 205.3466ZM124.29375 207.62785L124.45 208.54973Q123.99687 208.64348 123.65312 208.64348Q123.075 208.64348 122.7625 208.4716Q122.45 208.2841 122.30937 207.98723Q122.18437 207.69035 122.18437 206.73723L122.18437 203.1591L121.41875 203.1591L121.41875 202.3466L122.18437 202.3466L122.18437 200.79973L123.23125 200.17473L123.23125 202.3466L124.29375 202.3466L124.29375 203.1591L123.23125 203.1591L123.23125 206.79973Q123.23125 207.25285 123.27812 207.37785Q123.34062 207.50285 123.46562 207.58098Q123.59062 207.6591 123.825 207.6591Q124.0125 207.6591 124.29375 207.62785ZM124.99687 208.56535L124.99687 199.9716L126.04375 199.9716L126.04375 203.04973Q126.77812 202.20598 127.90312 202.20598Q128.60625 202.20598 129.10625 202.48723Q129.62187 202.75285 129.84062 203.23723Q130.05937 203.70598 130.05937 204.62785L130.05937 208.56535L129.0125 208.56535L129.0125 204.62785Q129.0125 203.83098 128.66875 203.4716Q128.325 203.11223 127.7 203.11223Q127.23125 203.11223 126.80937 203.36223Q126.40312 203.5966 126.21562 204.01848Q126.04375 204.42473 126.04375 205.1591L126.04375 208.56535L124.99687 208.56535ZM132.2625 208.56535L132.2625 207.36223L133.46562 207.36223L133.46562 208.56535Q133.46562 209.2216 133.23125 209.62785Q132.99687 210.04973 132.49687 210.26848L132.2 209.81535Q132.52812 209.67473 132.68437 209.37785Q132.84062 209.0966 132.87187 208.56535L132.2625 208.56535ZM137.99687 201.19035L137.99687 199.9716L139.05937 199.9716L139.05937 201.19035L137.99687 201.19035ZM137.99687 208.56535L137.99687 202.3466L139.05937 202.3466L139.05937 208.56535L137.99687 208.56535ZM140.99687 208.56535L140.99687 202.3466L141.93437 202.3466L141.93437 203.2216Q142.62187 202.20598 143.91875 202.20598Q144.48125 202.20598 144.95 202.4091Q145.43437 202.61223 145.66875 202.94035Q145.90312 203.26848 145.99687 203.70598Q146.04375 204.00285 146.04375 204.73723L146.04375 208.56535L144.99687 208.56535L144.99687 204.7841Q144.99687 204.12785 144.87187 203.81535Q144.74687 203.50285 144.43437 203.31535Q144.12187 203.11223 143.7 203.11223Q143.02812 203.11223 142.52812 203.54973Q142.04375 203.9716 142.04375 205.1591L142.04375 208.56535L140.99687 208.56535ZM152.02812 208.56535L152.02812 207.7841Q151.43437 208.70598 150.29375 208.70598Q149.54375 208.70598 148.91875 208.29973Q148.29375 207.87785 147.95 207.14348Q147.60625 206.4091 147.60625 205.45598Q147.60625 204.5341 147.91875 203.76848Q148.23125 203.00285 148.85625 202.61223Q149.48125 202.20598 150.24687 202.20598Q150.80937 202.20598 151.24687 202.44035Q151.68437 202.67473 151.96562 203.04973L151.96562 199.9716L153.0125 199.9716L153.0125 208.56535L152.02812 208.56535ZM148.7 205.45598Q148.7 206.6591 149.2 207.25285Q149.7 207.83098 150.3875 207.83098Q151.075 207.83098 151.55937 207.26848Q152.04375 206.70598 152.04375 205.54973Q152.04375 204.26848 151.54375 203.67473Q151.05937 203.08098 150.34062 203.08098Q149.6375 203.08098 149.16875 203.6591Q148.7 204.2216 148.7 205.45598ZM159.24687 206.56535L160.34062 206.69035Q160.09062 207.64348 159.3875 208.17473Q158.68437 208.70598 157.60625 208.70598Q156.24687 208.70598 155.43437 207.86223Q154.6375 207.01848 154.6375 205.50285Q154.6375 203.94035 155.45 203.08098Q156.2625 202.20598 157.54375 202.20598Q158.79375 202.20598 159.575 203.04973Q160.37187 203.89348 160.37187 205.44035Q160.37187 205.5341 160.37187 205.7216L155.73125 205.7216Q155.79375 206.75285 156.30937 207.29973Q156.825 207.83098 157.60625 207.83098Q158.18437 207.83098 158.59062 207.5341Q159.0125 207.2216 159.24687 206.56535ZM155.79375 204.86223L159.2625 204.86223Q159.2 204.06535 158.87187 203.67473Q158.35625 203.06535 157.55937 203.06535Q156.825 203.06535 156.325 203.54973Q155.84062 204.0341 155.79375 204.86223ZM161.29375 208.56535L163.55937 205.33098L161.46562 202.3466L162.77812 202.3466L163.73125 203.79973Q163.99687 204.2216 164.16875 204.50285Q164.41875 204.11223 164.6375 203.81535L165.68437 202.3466L166.95 202.3466L164.79375 205.26848L167.10625 208.56535L165.825 208.56535L164.54375 206.62785L164.2 206.11223L162.55937 208.56535L161.29375 208.56535ZM167.99687 201.19035L167.99687 199.9716L169.05937 199.9716L169.05937 201.19035L167.99687 201.19035ZM167.99687 208.56535L167.99687 202.3466L169.05937 202.3466L169.05937 208.56535L167.99687 208.56535ZM170.99687 208.56535L170.99687 202.3466L171.93437 202.3466L171.93437 203.2216Q172.62187 202.20598 173.91875 202.20598Q174.48125 202.20598 174.95 202.4091Q175.43437 202.61223 175.66875 202.94035Q175.90312 203.26848 175.99687 203.70598Q176.04375 204.00285 176.04375 204.73723L176.04375 208.56535L174.99687 208.56535L174.99687 204.7841Q174.99687 204.12785 174.87187 203.81535Q174.74687 203.50285 174.43437 203.31535Q174.12187 203.11223 173.7 203.11223Q173.02812 203.11223 172.52812 203.54973Q172.04375 203.9716 172.04375 205.1591L172.04375 208.56535L170.99687 208.56535ZM177.79375 209.08098L178.825 209.23723Q178.8875 209.70598 179.18437 209.92473Q179.575 210.2216 180.24687 210.2216Q180.98125 210.2216 181.37187 209.92473Q181.77812 209.62785 181.91875 209.11223Q182.0125 208.7841 181.99687 207.75285Q181.30937 208.56535 180.27812 208.56535Q178.99687 208.56535 178.29375 207.64348Q177.59062 206.70598 177.59062 205.42473Q177.59062 204.5341 177.90312 203.7841Q178.23125 203.01848 178.84062 202.61223Q179.45 202.20598 180.27812 202.20598Q181.3875 202.20598 182.10625 203.0966L182.10625 202.3466L183.075 202.3466L183.075 207.7216Q183.075 209.17473 182.77812 209.7841Q182.48125 210.39348 181.84062 210.73723Q181.2 211.0966 180.2625 211.0966Q179.15312 211.0966 178.46562 210.5966Q177.77812 210.0966 177.79375 209.08098ZM178.66875 205.3466Q178.66875 206.56535 179.15312 207.12785Q179.6375 207.69035 180.37187 207.69035Q181.10625 207.69035 181.59062 207.12785Q182.09062 206.56535 182.09062 205.37785Q182.09062 204.23723 181.575 203.6591Q181.075 203.08098 180.35625 203.08098Q179.65312 203.08098 179.15312 203.6591Q178.66875 204.2216 178.66875 205.3466Z" fill-rule="nonzero"/><path fill="#000000" d="M91.24687 262.23465L91.24687 256.8284L90.30937 256.8284L90.30937 256.0159L91.24687 256.0159L91.24687 255.34402Q91.24687 254.71902 91.35625 254.42215Q91.5125 254.00027 91.8875 253.75027Q92.27812 253.50027 92.96562 253.50027Q93.41875 253.50027 93.95 253.60965L93.79375 254.5159Q93.46562 254.46902 93.16875 254.46902Q92.68437 254.46902 92.48125 254.67215Q92.29375 254.87527 92.29375 255.43777L92.29375 256.0159L93.5125 256.0159L93.5125 256.8284L92.29375 256.8284L92.29375 262.23465L91.24687 262.23465ZM93.60625 259.12527Q93.60625 257.3909 94.55937 256.56277Q95.35625 255.87527 96.5125 255.87527Q97.79375 255.87527 98.60625 256.71902Q99.43437 257.54715 99.43437 259.03152Q99.43437 260.23465 99.075 260.92215Q98.71562 261.60965 98.0125 262.00027Q97.325 262.37527 96.5125 262.37527Q95.21562 262.37527 94.40312 261.54715Q93.60625 260.7034 93.60625 259.12527ZM94.68437 259.12527Q94.68437 260.31277 95.2 260.90652Q95.73125 261.50027 96.5125 261.50027Q97.30937 261.50027 97.825 260.90652Q98.34062 260.31277 98.34062 259.09402Q98.34062 257.93777 97.80937 257.34402Q97.29375 256.75027 96.5125 256.75027Q95.73125 256.75027 95.2 257.34402Q94.68437 257.92215 94.68437 259.12527ZM100.98125 262.23465L100.98125 256.0159L101.93437 256.0159L101.93437 256.9534Q102.29375 256.29715 102.59062 256.09402Q102.90312 255.87527 103.27812 255.87527Q103.80937 255.87527 104.35625 256.2034L103.99687 257.18777Q103.60625 256.9534 103.23125 256.9534Q102.87187 256.9534 102.59062 257.17215Q102.325 257.37527 102.21562 257.75027Q102.02812 258.31277 102.02812 258.96902L102.02812 262.23465L100.98125 262.23465ZM107.85625 258.48465L107.85625 257.50027L113.54375 255.09402L113.54375 256.1409L109.02812 257.98465L113.54375 259.85965L113.54375 260.90652L107.85625 258.48465ZM114.96562 262.23465L114.96562 253.6409L116.02812 253.6409L116.02812 262.23465L114.96562 262.23465ZM122.24687 260.23465L123.34062 260.35965Q123.09062 261.31277 122.3875 261.84402Q121.68437 262.37527 120.60625 262.37527Q119.24687 262.37527 118.43437 261.53152Q117.6375 260.68777 117.6375 259.17215Q117.6375 257.60965 118.45 256.75027Q119.2625 255.87527 120.54375 255.87527Q121.79375 255.87527 122.575 256.71902Q123.37187 257.56277 123.37187 259.10965Q123.37187 259.2034 123.37187 259.3909L118.73125 259.3909Q118.79375 260.42215 119.30937 260.96902Q119.825 261.50027 120.60625 261.50027Q121.18437 261.50027 121.59062 261.2034Q122.0125 260.8909 122.24687 260.23465ZM118.79375 258.53152L122.2625 258.53152Q122.2 257.73465 121.87187 257.34402Q121.35625 256.73465 120.55937 256.73465Q119.825 256.73465 119.325 257.21902Q118.84062 257.7034 118.79375 258.53152ZM124.99687 262.23465L124.99687 256.0159L125.93437 256.0159L125.93437 256.8909Q126.62187 255.87527 127.91875 255.87527Q128.48125 255.87527 128.95 256.0784Q129.43437 256.28152 129.66875 256.60965Q129.90312 256.93777 129.99687 257.37527Q130.04375 257.67215 130.04375 258.40652L130.04375 262.23465L128.99687 262.23465L128.99687 258.4534Q128.99687 257.79715 128.87187 257.48465Q128.74687 257.17215 128.43437 256.98465Q128.12187 256.78152 127.7 256.78152Q127.02812 256.78152 126.52812 257.21902Q126.04375 257.6409 126.04375 258.8284L126.04375 262.23465L124.99687 262.23465ZM132.2625 262.23465L132.2625 261.03152L133.46562 261.03152L133.46562 262.23465Q133.46562 262.8909 133.23125 263.29715Q132.99687 263.71902 132.49687 263.93777L132.2 263.48465Q132.52812 263.34402 132.68437 263.04715Q132.84062 262.7659 132.87187 262.23465L132.2625 262.23465ZM137.99687 254.85965L137.99687 253.6409L139.05937 253.6409L139.05937 254.85965L137.99687 254.85965ZM137.99687 262.23465L137.99687 256.0159L139.05937 256.0159L139.05937 262.23465L137.99687 262.23465ZM140.99687 262.23465L140.99687 256.0159L141.93437 256.0159L141.93437 256.8909Q142.62187 255.87527 143.91875 255.87527Q144.48125 255.87527 144.95 256.0784Q145.43437 256.28152 145.66875 256.60965Q145.90312 256.93777 145.99687 257.37527Q146.04375 257.67215 146.04375 258.40652L146.04375 262.23465L144.99687 262.23465L144.99687 258.4534Q144.99687 257.79715 144.87187 257.48465Q144.74687 257.17215 144.43437 256.98465Q144.12187 256.78152 143.7 256.78152Q143.02812 256.78152 142.52812 257.21902Q142.04375 257.6409 142.04375 258.8284L142.04375 262.23465L140.99687 262.23465ZM152.02812 262.23465L152.02812 261.4534Q151.43437 262.37527 150.29375 262.37527Q149.54375 262.37527 148.91875 261.96902Q148.29375 261.54715 147.95 260.81277Q147.60625 260.0784 147.60625 259.12527Q147.60625 258.2034 147.91875 257.43777Q148.23125 256.67215 148.85625 256.28152Q149.48125 255.87527 150.24687 255.87527Q150.80937 255.87527 151.24687 256.10965Q151.68437 256.34402 151.96562 256.71902L151.96562 253.6409L153.0125 253.6409L153.0125 262.23465L152.02812 262.23465ZM148.7 259.12527Q148.7 260.3284 149.2 260.92215Q149.7 261.50027 150.3875 261.50027Q151.075 261.50027 151.55937 260.93777Q152.04375 260.37527 152.04375 259.21902Q152.04375 257.93777 151.54375 257.34402Q151.05937 256.75027 150.34062 256.75027Q149.6375 256.75027 149.16875 257.3284Q148.7 257.8909 148.7 259.12527ZM159.24687 260.23465L160.34062 260.35965Q160.09062 261.31277 159.3875 261.84402Q158.68437 262.37527 157.60625 262.37527Q156.24687 262.37527 155.43437 261.53152Q154.6375 260.68777 154.6375 259.17215Q154.6375 257.60965 155.45 256.75027Q156.2625 255.87527 157.54375 255.87527Q158.79375 255.87527 159.575 256.71902Q160.37187 257.56277 160.37187 259.10965Q160.37187 259.2034 160.37187 259.3909L155.73125 259.3909Q155.79375 260.42215 156.30937 260.96902Q156.825 261.50027 157.60625 261.50027Q158.18437 261.50027 158.59062 261.2034Q159.0125 260.8909 159.24687 260.23465ZM155.79375 258.53152L159.2625 258.53152Q159.2 257.73465 158.87187 257.34402Q158.35625 256.73465 157.55937 256.73465Q156.825 256.73465 156.325 257.21902Q155.84062 257.7034 155.79375 258.53152ZM161.29375 262.23465L163.55937 259.00027L161.46562 256.0159L162.77812 256.0159L163.73125 257.46902Q163.99687 257.8909 164.16875 258.17215Q164.41875 257.78152 164.6375 257.48465L165.68437 256.0159L166.95 256.0159L164.79375 258.93777L167.10625 262.23465L165.825 262.23465L164.54375 260.29715L164.2 259.78152L162.55937 262.23465L161.29375 262.23465ZM167.99687 254.85965L167.99687 253.6409L169.05937 253.6409L169.05937 254.85965L167.99687 254.85965ZM167.99687 262.23465L167.99687 256.0159L169.05937 256.0159L169.05937 262.23465L167.99687 262.23465ZM170.99687 262.23465L170.99687 256.0159L171.93437 256.0159L171.93437 256.8909Q172.62187 255.87527 173.91875 255.87527Q174.48125 255.87527 174.95 256.0784Q175.43437 256.28152 175.66875 256.60965Q175.90312 256.93777 175.99687 257.37527Q176.04375 257.67215 176.04375 258.40652L176.04375 262.23465L174.99687 262.23465L174.99687 258.4534Q174.99687 257.79715 174.87187 257.48465Q174.74687 257.17215 174.43437 256.98465Q174.12187 256.78152 173.7 256.78152Q173.02812 256.78152 172.52812 257.21902Q172.04375 257.6409 172.04375 258.8284L172.04375 262.23465L170.99687 262.23465ZM177.79375 262.75027L178.825 262.90652Q178.8875 263.37527 179.18437 263.59402Q179.575 263.8909 180.24687 263.8909Q180.98125 263.8909 181.37187 263.59402Q181.77812 263.29715 181.91875 262.78152Q182.0125 262.4534 181.99687 261.42215Q181.30937 262.23465 180.27812 262.23465Q178.99687 262.23465 178.29375 261.31277Q177.59062 260.37527 177.59062 259.09402Q177.59062 258.2034 177.90312 257.4534Q178.23125 256.68777 178.84062 256.28152Q179.45 255.87527 180.27812 255.87527Q181.3875 255.87527 182.10625 256.7659L182.10625 256.0159L183.075 256.0159L183.075 261.3909Q183.075 262.84402 182.77812 263.4534Q182.48125 264.06277 181.84062 264.40652Q181.2 264.7659 180.2625 264.7659Q179.15312 264.7659 178.46562 264.2659Q177.77812 263.7659 177.79375 262.75027ZM178.66875 259.0159Q178.66875 260.23465 179.15312 260.79715Q179.6375 261.35965 180.37187 261.35965Q181.10625 261.35965 181.59062 260.79715Q182.09062 260.23465 182.09062 259.04715Q182.09062 257.90652 181.575 257.3284Q181.075 256.75027 180.35625 256.75027Q179.65312 256.75027 179.15312 257.3284Q178.66875 257.8909 178.66875 259.0159Z" fill-rule="nonzero"/><path fill="#000000" d="M23.246876 315.90393L23.246876 310.49768L22.309376 310.49768L22.309376 309.68518L23.246876 309.68518L23.246876 309.0133Q23.246876 308.3883 23.35625 308.09143Q23.5125 307.66956 23.8875 307.41956Q24.278126 307.16956 24.965626 307.16956Q25.41875 307.16956 25.95 307.27893L25.79375 308.18518Q25.465626 308.1383 25.16875 308.1383Q24.684376 308.1383 24.48125 308.34143Q24.29375 308.54456 24.29375 309.10706L24.29375 309.68518L25.5125 309.68518L25.5125 310.49768L24.29375 310.49768L24.29375 315.90393L23.246876 315.90393ZM25.60625 312.79456Q25.60625 311.06018 26.559376 310.23206Q27.35625 309.54456 28.5125 309.54456Q29.79375 309.54456 30.60625 310.3883Q31.434376 311.21643 31.434376 312.7008Q31.434376 313.90393 31.075 314.59143Q30.715626 315.27893 30.0125 315.66956Q29.325 316.04456 28.5125 316.04456Q27.215626 316.04456 26.403126 315.21643Q25.60625 314.37268 25.60625 312.79456ZM26.684376 312.79456Q26.684376 313.98206 27.2 314.5758Q27.73125 315.16956 28.5125 315.16956Q29.309376 315.16956 29.825 314.5758Q30.340626 313.98206 30.340626 312.7633Q30.340626 311.60706 29.809376 311.0133Q29.29375 310.41956 28.5125 310.41956Q27.73125 310.41956 27.2 311.0133Q26.684376 311.59143 26.684376 312.79456ZM32.98125 315.90393L32.98125 309.68518L33.934376 309.68518L33.934376 310.62268Q34.29375 309.96643 34.590626 309.7633Q34.903126 309.54456 35.278126 309.54456Q35.809376 309.54456 36.35625 309.87268L35.996876 310.85706Q35.60625 310.62268 35.23125 310.62268Q34.871876 310.62268 34.590626 310.84143Q34.325 311.04456 34.215626 311.41956Q34.028126 311.98206 34.028126 312.6383L34.028126 315.90393L32.98125 315.90393ZM39.85625 312.15393L39.85625 311.16956L45.54375 308.7633L45.54375 309.81018L41.028126 311.65393L45.54375 313.52893L45.54375 314.5758L39.85625 312.15393ZM51.059376 315.1383Q50.465626 315.6383 49.91875 315.84143Q49.3875 316.04456 48.7625 316.04456Q47.73125 316.04456 47.184376 315.54456Q46.6375 315.04456 46.6375 314.2633Q46.6375 313.81018 46.840626 313.43518Q47.04375 313.04456 47.3875 312.8258Q47.73125 312.59143 48.153126 312.48206Q48.45 312.3883 49.090626 312.31018Q50.35625 312.16956 50.965626 311.9508Q50.965626 311.73206 50.965626 311.68518Q50.965626 311.02893 50.66875 310.7633Q50.2625 310.41956 49.465626 310.41956Q48.73125 310.41956 48.371876 310.68518Q48.0125 310.93518 47.840626 311.59143L46.809376 311.4508Q46.95 310.79456 47.278126 310.3883Q47.60625 309.98206 48.215626 309.7633Q48.825 309.54456 49.621876 309.54456Q50.41875 309.54456 50.91875 309.73206Q51.41875 309.91956 51.653126 310.2008Q51.8875 310.48206 51.98125 310.91956Q52.028126 311.18518 52.028126 311.8883L52.028126 313.29456Q52.028126 314.7633 52.090626 315.15393Q52.16875 315.54456 52.371876 315.90393L51.2625 315.90393Q51.10625 315.5758 51.059376 315.1383ZM50.965626 312.77893Q50.3875 313.0133 49.246876 313.18518Q48.590626 313.27893 48.325 313.40393Q48.059376 313.5133 47.903126 313.73206Q47.7625 313.9508 47.7625 314.23206Q47.7625 314.65393 48.075 314.93518Q48.403126 315.21643 49.0125 315.21643Q49.621876 315.21643 50.090626 314.9508Q50.575 314.68518 50.79375 314.21643Q50.965626 313.85706 50.965626 313.16956L50.965626 312.77893ZM53.98125 315.90393L53.98125 309.68518L54.934376 309.68518L54.934376 310.62268Q55.29375 309.96643 55.590626 309.7633Q55.903126 309.54456 56.278126 309.54456Q56.809376 309.54456 57.35625 309.87268L56.996876 310.85706Q56.60625 310.62268 56.23125 310.62268Q55.871876 310.62268 55.590626 310.84143Q55.325 311.04456 55.215626 311.41956Q55.028126 311.98206 55.028126 312.6383L55.028126 315.90393L53.98125 315.90393ZM57.98125 315.90393L57.98125 309.68518L58.934376 309.68518L58.934376 310.62268Q59.29375 309.96643 59.590626 309.7633Q59.903126 309.54456 60.278126 309.54456Q60.809376 309.54456 61.35625 309.87268L60.996876 310.85706Q60.60625 310.62268 60.23125 310.62268Q59.871876 310.62268 59.590626 310.84143Q59.325 311.04456 59.215626 311.41956Q59.028126 311.98206 59.028126 312.6383L59.028126 315.90393L57.98125 315.90393ZM66.05937 315.1383Q65.46562 315.6383 64.91875 315.84143Q64.3875 316.04456 63.7625 316.04456Q62.73125 316.04456 62.184376 315.54456Q61.6375 315.04456 61.6375 314.2633Q61.6375 313.81018 61.840626 313.43518Q62.04375 313.04456 62.3875 312.8258Q62.73125 312.59143 63.153126 312.48206Q63.45 312.3883 64.09062 312.31018Q65.35625 312.16956 65.96562 311.9508Q65.96562 311.73206 65.96562 311.68518Q65.96562 311.02893 65.66875 310.7633Q65.2625 310.41956 64.46562 310.41956Q63.73125 310.41956 63.371876 310.68518Q63.0125 310.93518 62.840626 311.59143L61.809376 311.4508Q61.95 310.79456 62.278126 310.3883Q62.60625 309.98206 63.215626 309.7633Q63.825 309.54456 64.62187 309.54456Q65.41875 309.54456 65.91875 309.73206Q66.41875 309.91956 66.65312 310.2008Q66.8875 310.48206 66.98125 310.91956Q67.02812 311.18518 67.02812 311.8883L67.02812 313.29456Q67.02812 314.7633 67.09062 315.15393Q67.16875 315.54456 67.37187 315.90393L66.2625 315.90393Q66.10625 315.5758 66.05937 315.1383ZM65.96562 312.77893Q65.3875 313.0133 64.24687 313.18518Q63.590626 313.27893 63.325 313.40393Q63.059376 313.5133 62.903126 313.73206Q62.7625 313.9508 62.7625 314.23206Q62.7625 314.65393 63.075 314.93518Q63.403126 315.21643 64.0125 315.21643Q64.62187 315.21643 65.09062 314.9508Q65.575 314.68518 65.79375 314.21643Q65.96562 313.85706 65.96562 313.16956L65.96562 312.77893ZM68.95 318.29456L68.825 317.31018Q69.16875 317.40393 69.43437 317.40393Q69.77812 317.40393 69.98125 317.27893Q70.2 317.16956 70.34062 316.96643Q70.43437 316.79456 70.66875 316.16956Q70.68437 316.09143 70.7625 315.91956L68.3875 309.68518L69.52812 309.68518L70.825 313.27893Q71.075 313.96643 71.27812 314.73206Q71.46562 313.99768 71.71562 313.31018L73.04375 309.68518L74.09062 309.68518L71.73125 316.0133Q71.34062 317.02893 71.1375 317.41956Q70.85625 317.9508 70.48125 318.18518Q70.12187 318.43518 69.62187 318.43518Q69.325 318.43518 68.95 318.29456ZM75.29375 315.90393L75.29375 314.7008L76.49687 314.7008L76.49687 315.90393L75.29375 315.90393ZM77.96562 315.90393L77.96562 307.31018L79.02812 307.31018L79.02812 315.90393L77.96562 315.90393ZM85.24687 313.90393L86.34062 314.02893Q86.09062 314.98206 85.3875 315.5133Q84.68437 316.04456 83.60625 316.04456Q82.24687 316.04456 81.43437 315.2008Q80.6375 314.35706 80.6375 312.84143Q80.6375 311.27893 81.45 310.41956Q82.2625 309.54456 83.54375 309.54456Q84.79375 309.54456 85.575 310.3883Q86.37187 311.23206 86.37187 312.77893Q86.37187 312.87268 86.37187 313.06018L81.73125 313.06018Q81.79375 314.09143 82.30937 314.6383Q82.825 315.16956 83.60625 315.16956Q84.18437 315.16956 84.59062 314.87268Q85.0125 314.56018 85.24687 313.90393ZM81.79375 312.2008L85.2625 312.2008Q85.2 311.40393 84.87187 311.0133Q84.35625 310.40393 83.55937 310.40393Q82.825 310.40393 82.325 310.8883Q81.84062 311.37268 81.79375 312.2008ZM87.99687 315.90393L87.99687 309.68518L88.93437 309.68518L88.93437 310.56018Q89.62187 309.54456 90.91875 309.54456Q91.48125 309.54456 91.95 309.74768Q92.43437 309.9508 92.66875 310.27893Q92.90312 310.60706 92.99687 311.04456Q93.04375 311.34143 93.04375 312.0758L93.04375 315.90393L91.99687 315.90393L91.99687 312.12268Q91.99687 311.46643 91.87187 311.15393Q91.74687 310.84143 91.43437 310.65393Q91.12187 310.4508 90.7 310.4508Q90.02812 310.4508 89.52812 310.8883Q89.04375 311.31018 89.04375 312.49768L89.04375 315.90393L87.99687 315.90393ZM94.79375 316.41956L95.825 316.5758Q95.8875 317.04456 96.18437 317.2633Q96.575 317.56018 97.24687 317.56018Q97.98125 317.56018 98.37187 317.2633Q98.77812 316.96643 98.91875 316.4508Q99.0125 316.12268 98.99687 315.09143Q98.30937 315.90393 97.27812 315.90393Q95.99687 315.90393 95.29375 314.98206Q94.59062 314.04456 94.59062 312.7633Q94.59062 311.87268 94.90312 311.12268Q95.23125 310.35706 95.84062 309.9508Q96.45 309.54456 97.27812 309.54456Q98.3875 309.54456 99.10625 310.43518L99.10625 309.68518L100.075 309.68518L100.075 315.06018Q100.075 316.5133 99.77812 317.12268Q99.48125 317.73206 98.84062 318.0758Q98.2 318.43518 97.2625 318.43518Q96.15312 318.43518 95.46562 317.93518Q94.77812 317.43518 94.79375 316.41956ZM95.66875 312.68518Q95.66875 313.90393 96.15312 314.46643Q96.6375 315.02893 97.37187 315.02893Q98.10625 315.02893 98.59062 314.46643Q99.09062 313.90393 99.09062 312.71643Q99.09062 311.5758 98.575 310.99768Q98.075 310.41956 97.35625 310.41956Q96.65312 310.41956 96.15312 310.99768Q95.66875 311.56018 95.66875 312.68518ZM104.29375 314.96643L104.45 315.8883Q103.99687 315.98206 103.65312 315.98206Q103.075 315.98206 102.7625 315.81018Q102.45 315.62268 102.30937 315.3258Q102.18437 315.02893 102.18437 314.0758L102.18437 310.49768L101.41875 310.49768L101.41875 309.68518L102.18437 309.68518L102.18437 308.1383L103.23125 307.5133L103.23125 309.68518L104.29375 309.68518L104.29375 310.49768L103.23125 310.49768L103.23125 314.1383Q103.23125 314.59143 103.27812 314.71643Q103.34062 314.84143 103.46562 314.91956Q103.59062 314.99768 103.825 314.99768Q104.0125 314.99768 104.29375 314.96643ZM104.99687 315.90393L104.99687 307.31018L106.04375 307.31018L106.04375 310.3883Q106.77812 309.54456 107.90312 309.54456Q108.60625 309.54456 109.10625 309.8258Q109.62187 310.09143 109.84062 310.5758Q110.05937 311.04456 110.05937 311.96643L110.05937 315.90393L109.0125 315.90393L109.0125 311.96643Q109.0125 311.16956 108.66875 310.81018Q108.325 310.4508 107.7 310.4508Q107.23125 310.4508 106.80937 310.7008Q106.40312 310.93518 106.21562 311.35706Q106.04375 311.7633 106.04375 312.49768L106.04375 315.90393L104.99687 315.90393ZM112.2625 315.90393L112.2625 314.7008L113.46562 314.7008L113.46562 315.90393Q113.46562 316.56018 113.23125 316.96643Q112.99687 317.3883 112.49687 317.60706L112.2 317.15393Q112.52812 317.0133 112.68437 316.71643Q112.84062 316.43518 112.87187 315.90393L112.2625 315.90393ZM120.29375 314.96643L120.45 315.8883Q119.99687 315.98206 119.65312 315.98206Q119.075 315.98206 118.7625 315.81018Q118.45 315.62268 118.30937 315.3258Q118.18437 315.02893 118.18437 314.0758L118.18437 310.49768L117.41875 310.49768L117.41875 309.68518L118.18437 309.68518L118.18437 308.1383L119.23125 307.5133L119.23125 309.68518L120.29375 309.68518L120.29375 310.49768L119.23125 310.49768L119.23125 314.1383Q119.23125 314.59143 119.27812 314.71643Q119.34062 314.84143 119.46562 314.91956Q119.59062 314.99768 119.825 314.99768Q120.0125 314.99768 120.29375 314.96643ZM120.99687 315.90393L120.99687 309.68518L121.93437 309.68518L121.93437 310.56018Q122.23125 310.09143 122.71562 309.8258Q123.2 309.54456 123.825 309.54456Q124.5125 309.54456 124.95 309.8258Q125.40312 310.10706 125.575 310.62268Q126.325 309.54456 127.49687 309.54456Q128.43437 309.54456 128.91875 310.06018Q129.41875 310.56018 129.41875 311.6383L129.41875 315.90393L128.37187 315.90393L128.37187 311.98206Q128.37187 311.35706 128.2625 311.0758Q128.16875 310.79456 127.90312 310.62268Q127.6375 310.4508 127.2625 310.4508Q126.60625 310.4508 126.16875 310.8883Q125.74687 311.3258 125.74687 312.29456L125.74687 315.90393L124.68437 315.90393L124.68437 311.85706Q124.68437 311.15393 124.41875 310.81018Q124.16875 310.4508 123.59062 310.4508Q123.1375 310.4508 122.7625 310.68518Q122.3875 310.91956 122.21562 311.37268Q122.04375 311.8258 122.04375 312.66956L122.04375 315.90393L120.99687 315.90393ZM130.99687 318.29456L130.99687 309.68518L131.95 309.68518L131.95 310.48206Q132.29375 310.0133 132.71562 309.77893Q133.15312 309.54456 133.7625 309.54456Q134.55937 309.54456 135.16875 309.9508Q135.77812 310.35706 136.075 311.10706Q136.3875 311.85706 136.3875 312.74768Q136.3875 313.7008 136.04375 314.46643Q135.71562 315.23206 135.05937 315.6383Q134.40312 316.04456 133.68437 316.04456Q133.15312 316.04456 132.73125 315.8258Q132.30937 315.59143 132.04375 315.2633L132.04375 318.29456L130.99687 318.29456ZM131.95 312.8258Q131.95 314.02893 132.43437 314.60706Q132.91875 315.16956 133.60625 315.16956Q134.30937 315.16956 134.80937 314.5758Q135.30937 313.98206 135.30937 312.73206Q135.30937 311.54456 134.825 310.96643Q134.34062 310.37268 133.65312 310.37268Q132.98125 310.37268 132.46562 310.99768Q131.95 311.62268 131.95 312.8258ZM145.24687 313.90393L146.34062 314.02893Q146.09062 314.98206 145.3875 315.5133Q144.68437 316.04456 143.60625 316.04456Q142.24687 316.04456 141.43437 315.2008Q140.6375 314.35706 140.6375 312.84143Q140.6375 311.27893 141.45 310.41956Q142.2625 309.54456 143.54375 309.54456Q144.79375 309.54456 145.575 310.3883Q146.37187 311.23206 146.37187 312.77893Q146.37187 312.87268 146.37187 313.06018L141.73125 313.06018Q141.79375 314.09143 142.30937 314.6383Q142.825 315.16956 143.60625 315.16956Q144.18437 315.16956 144.59062 314.87268Q145.0125 314.56018 145.24687 313.90393ZM141.79375 312.2008L145.2625 312.2008Q145.2 311.40393 144.87187 311.0133Q144.35625 310.40393 143.55937 310.40393Q142.825 310.40393 142.325 310.8883Q141.84062 311.37268 141.79375 312.2008ZM147.96562 315.90393L147.96562 307.31018L149.02812 307.31018L149.02812 315.90393L147.96562 315.90393ZM155.24687 313.90393L156.34062 314.02893Q156.09062 314.98206 155.3875 315.5133Q154.68437 316.04456 153.60625 316.04456Q152.24687 316.04456 151.43437 315.2008Q150.6375 314.35706 150.6375 312.84143Q150.6375 311.27893 151.45 310.41956Q152.2625 309.54456 153.54375 309.54456Q154.79375 309.54456 155.575 310.3883Q156.37187 311.23206 156.37187 312.77893Q156.37187 312.87268 156.37187 313.06018L151.73125 313.06018Q151.79375 314.09143 152.30937 314.6383Q152.825 315.16956 153.60625 315.16956Q154.18437 315.16956 154.59062 314.87268Q155.0125 314.56018 155.24687 313.90393ZM151.79375 312.2008L155.2625 312.2008Q155.2 311.40393 154.87187 311.0133Q154.35625 310.40393 153.55937 310.40393Q152.825 310.40393 152.325 310.8883Q151.84062 311.37268 151.79375 312.2008ZM157.99687 315.90393L157.99687 309.68518L158.93437 309.68518L158.93437 310.56018Q159.23125 310.09143 159.71562 309.8258Q160.2 309.54456 160.825 309.54456Q161.5125 309.54456 161.95 309.8258Q162.40312 310.10706 162.575 310.62268Q163.325 309.54456 164.49687 309.54456Q165.43437 309.54456 165.91875 310.06018Q166.41875 310.56018 166.41875 311.6383L166.41875 315.90393L165.37187 315.90393L165.37187 311.98206Q165.37187 311.35706 165.2625 311.0758Q165.16875 310.79456 164.90312 310.62268Q164.6375 310.4508 164.2625 310.4508Q163.60625 310.4508 163.16875 310.8883Q162.74687 311.3258 162.74687 312.29456L162.74687 315.90393L161.68437 315.90393L161.68437 311.85706Q161.68437 311.15393 161.41875 310.81018Q161.16875 310.4508 160.59062 310.4508Q160.1375 310.4508 159.7625 310.68518Q159.3875 310.91956 159.21562 311.37268Q159.04375 311.8258 159.04375 312.66956L159.04375 315.90393L157.99687 315.90393ZM172.24687 313.90393L173.34062 314.02893Q173.09062 314.98206 172.3875 315.5133Q171.68437 316.04456 170.60625 316.04456Q169.24687 316.04456 168.43437 315.2008Q167.6375 314.35706 167.6375 312.84143Q167.6375 311.27893 168.45 310.41956Q169.2625 309.54456 170.54375 309.54456Q171.79375 309.54456 172.575 310.3883Q173.37187 311.23206 173.37187 312.77893Q173.37187 312.87268 173.37187 313.06018L168.73125 313.06018Q168.79375 314.09143 169.30937 314.6383Q169.825 315.16956 170.60625 315.16956Q171.18437 315.16956 171.59062 314.87268Q172.0125 314.56018 172.24687 313.90393ZM168.79375 312.2008L172.2625 312.2008Q172.2 311.40393 171.87187 311.0133Q171.35625 310.40393 170.55937 310.40393Q169.825 310.40393 169.325 310.8883Q168.84062 311.37268 168.79375 312.2008ZM174.99687 315.90393L174.99687 309.68518L175.93437 309.68518L175.93437 310.56018Q176.62187 309.54456 177.91875 309.54456Q178.48125 309.54456 178.95 309.74768Q179.43437 309.9508 179.66875 310.27893Q179.90312 310.60706 179.99687 311.04456Q180.04375 311.34143 180.04375 312.0758L180.04375 315.90393L178.99687 315.90393L178.99687 312.12268Q178.99687 311.46643 178.87187 311.15393Q178.74687 310.84143 178.43437 310.65393Q178.12187 310.4508 177.7 310.4508Q177.02812 310.4508 176.52812 310.8883Q176.04375 311.31018 176.04375 312.49768L176.04375 315.90393L174.99687 315.90393ZM184.29375 314.96643L184.45 315.8883Q183.99687 315.98206 183.65312 315.98206Q183.075 315.98206 182.7625 315.81018Q182.45 315.62268 182.30937 315.3258Q182.18437 315.02893 182.18437 314.0758L182.18437 310.49768L181.41875 310.49768L181.41875 309.68518L182.18437 309.68518L182.18437 308.1383L183.23125 307.5133L183.23125 309.68518L184.29375 309.68518L184.29375 310.49768L183.23125 310.49768L183.23125 314.1383Q183.23125 314.59143 183.27812 314.71643Q183.34062 314.84143 183.46562 314.91956Q183.59062 314.99768 183.825 314.99768Q184.0125 314.99768 184.29375 314.96643Z" fill-rule="nonzero"/><path fill="#000000" d="M71.24687 369.57324L71.24687 364.167L70.30937 364.167L70.30937 363.3545L71.24687 363.3545L71.24687 362.68262Q71.24687 362.05762 71.35625 361.76074Q71.5125 361.33887 71.8875 361.08887Q72.27812 360.83887 72.96562 360.83887Q73.41875 360.83887 73.95 360.94824L73.79375 361.8545Q73.46562 361.80762 73.16875 361.80762Q72.68437 361.80762 72.48125 362.01074Q72.29375 362.21387 72.29375 362.77637L72.29375 363.3545L73.5125 363.3545L73.5125 364.167L72.29375 364.167L72.29375 369.57324L71.24687 369.57324ZM73.60625 366.46387Q73.60625 364.7295 74.55937 363.90137Q75.35625 363.21387 76.5125 363.21387Q77.79375 363.21387 78.60625 364.05762Q79.43437 364.88574 79.43437 366.37012Q79.43437 367.57324 79.075 368.26074Q78.71562 368.94824 78.0125 369.33887Q77.325 369.71387 76.5125 369.71387Q75.21562 369.71387 74.40312 368.88574Q73.60625 368.042 73.60625 366.46387ZM74.68437 366.46387Q74.68437 367.65137 75.2 368.24512Q75.73125 368.83887 76.5125 368.83887Q77.30937 368.83887 77.825 368.24512Q78.34062 367.65137 78.34062 366.43262Q78.34062 365.27637 77.80937 364.68262Q77.29375 364.08887 76.5125 364.08887Q75.73125 364.08887 75.2 364.68262Q74.68437 365.26074 74.68437 366.46387ZM80.98125 369.57324L80.98125 363.3545L81.93437 363.3545L81.93437 364.292Q82.29375 363.63574 82.59062 363.43262Q82.90312 363.21387 83.27812 363.21387Q83.80937 363.21387 84.35625 363.542L83.99687 364.52637Q83.60625 364.292 83.23125 364.292Q82.87187 364.292 82.59062 364.51074Q82.325 364.71387 82.21562 365.08887Q82.02812 365.65137 82.02812 366.30762L82.02812 369.57324L80.98125 369.57324ZM87.85625 365.82324L87.85625 364.83887L93.54375 362.43262L93.54375 363.4795L89.02812 365.32324L93.54375 367.19824L93.54375 368.24512L87.85625 365.82324ZM94.96562 369.57324L94.96562 360.9795L96.02812 360.9795L96.02812 369.57324L94.96562 369.57324ZM102.24687 367.57324L103.34062 367.69824Q103.09062 368.65137 102.3875 369.18262Q101.68437 369.71387 100.60625 369.71387Q99.24687 369.71387 98.43437 368.87012Q97.6375 368.02637 97.6375 366.51074Q97.6375 364.94824 98.45 364.08887Q99.2625 363.21387 100.54375 363.21387Q101.79375 363.21387 102.575 364.05762Q103.37187 364.90137 103.37187 366.44824Q103.37187 366.542 103.37187 366.7295L98.73125 366.7295Q98.79375 367.76074 99.30937 368.30762Q99.825 368.83887 100.60625 368.83887Q101.18437 368.83887 101.59062 368.542Q102.0125 368.2295 102.24687 367.57324ZM98.79375 365.87012L102.2625 365.87012Q102.2 365.07324 101.87187 364.68262Q101.35625 364.07324 100.55937 364.07324Q99.825 364.07324 99.325 364.55762Q98.84062 365.042 98.79375 365.87012ZM104.99687 369.57324L104.99687 363.3545L105.93437 363.3545L105.93437 364.2295Q106.62187 363.21387 107.91875 363.21387Q108.48125 363.21387 108.95 363.417Q109.43437 363.62012 109.66875 363.94824Q109.90312 364.27637 109.99687 364.71387Q110.04375 365.01074 110.04375 365.74512L110.04375 369.57324L108.99687 369.57324L108.99687 365.792Q108.99687 365.13574 108.87187 364.82324Q108.74687 364.51074 108.43437 364.32324Q108.12187 364.12012 107.7 364.12012Q107.02812 364.12012 106.52812 364.55762Q106.04375 364.9795 106.04375 366.167L106.04375 369.57324L104.99687 369.57324ZM112.2625 369.57324L112.2625 368.37012L113.46562 368.37012L113.46562 369.57324Q113.46562 370.2295 113.23125 370.63574Q112.99687 371.05762 112.49687 371.27637L112.2 370.82324Q112.52812 370.68262 112.68437 370.38574Q112.84062 370.1045 112.87187 369.57324L112.2625 369.57324ZM120.29375 368.63574L120.45 369.55762Q119.99687 369.65137 119.65312 369.65137Q119.075 369.65137 118.7625 369.4795Q118.45 369.292 118.30937 368.99512Q118.18437 368.69824 118.18437 367.74512L118.18437 364.167L117.41875 364.167L117.41875 363.3545L118.18437 363.3545L118.18437 361.80762L119.23125 361.18262L119.23125 363.3545L120.29375 363.3545L120.29375 364.167L119.23125 364.167L119.23125 367.80762Q119.23125 368.26074 119.27812 368.38574Q119.34062 368.51074 119.46562 368.58887Q119.59062 368.667 119.825 368.667Q120.0125 368.667 120.29375 368.63574ZM120.99687 369.57324L120.99687 363.3545L121.93437 363.3545L121.93437 364.2295Q122.23125 363.76074 122.71562 363.49512Q123.2 363.21387 123.825 363.21387Q124.5125 363.21387 124.95 363.49512Q125.40312 363.77637 125.575 364.292Q126.325 363.21387 127.49687 363.21387Q128.43437 363.21387 128.91875 363.7295Q129.41875 364.2295 129.41875 365.30762L129.41875 369.57324L128.37187 369.57324L128.37187 365.65137Q128.37187 365.02637 128.2625 364.74512Q128.16875 364.46387 127.90312 364.292Q127.6375 364.12012 127.2625 364.12012Q126.60625 364.12012 126.16875 364.55762Q125.74687 364.99512 125.74687 365.96387L125.74687 369.57324L124.68437 369.57324L124.68437 365.52637Q124.68437 364.82324 124.41875 364.4795Q124.16875 364.12012 123.59062 364.12012Q123.1375 364.12012 122.7625 364.3545Q122.3875 364.58887 122.21562 365.042Q122.04375 365.49512 122.04375 366.33887L122.04375 369.57324L120.99687 369.57324ZM130.99687 371.96387L130.99687 363.3545L131.95 363.3545L131.95 364.15137Q132.29375 363.68262 132.71562 363.44824Q133.15312 363.21387 133.7625 363.21387Q134.55937 363.21387 135.16875 363.62012Q135.77812 364.02637 136.075 364.77637Q136.3875 365.52637 136.3875 366.417Q136.3875 367.37012 136.04375 368.13574Q135.71562 368.90137 135.05937 369.30762Q134.40312 369.71387 133.68437 369.71387Q133.15312 369.71387 132.73125 369.49512Q132.30937 369.26074 132.04375 368.93262L132.04375 371.96387L130.99687 371.96387ZM131.95 366.49512Q131.95 367.69824 132.43437 368.27637Q132.91875 368.83887 133.60625 368.83887Q134.30937 368.83887 134.80937 368.24512Q135.30937 367.65137 135.30937 366.40137Q135.30937 365.21387 134.825 364.63574Q134.34062 364.042 133.65312 364.042Q132.98125 364.042 132.46562 364.667Q131.95 365.292 131.95 366.49512ZM145.24687 367.57324L146.34062 367.69824Q146.09062 368.65137 145.3875 369.18262Q144.68437 369.71387 143.60625 369.71387Q142.24687 369.71387 141.43437 368.87012Q140.6375 368.02637 140.6375 366.51074Q140.6375 364.94824 141.45 364.08887Q142.2625 363.21387 143.54375 363.21387Q144.79375 363.21387 145.575 364.05762Q146.37187 364.90137 146.37187 366.44824Q146.37187 366.542 146.37187 366.7295L141.73125 366.7295Q141.79375 367.76074 142.30937 368.30762Q142.825 368.83887 143.60625 368.83887Q144.18437 368.83887 144.59062 368.542Q145.0125 368.2295 145.24687 367.57324ZM141.79375 365.87012L145.2625 365.87012Q145.2 365.07324 144.87187 364.68262Q144.35625 364.07324 143.55937 364.07324Q142.825 364.07324 142.325 364.55762Q141.84062 365.042 141.79375 365.87012ZM147.96562 369.57324L147.96562 360.9795L149.02812 360.9795L149.02812 369.57324L147.96562 369.57324ZM155.24687 367.57324L156.34062 367.69824Q156.09062 368.65137 155.3875 369.18262Q154.68437 369.71387 153.60625 369.71387Q152.24687 369.71387 151.43437 368.87012Q150.6375 368.02637 150.6375 366.51074Q150.6375 364.94824 151.45 364.08887Q152.2625 363.21387 153.54375 363.21387Q154.79375 363.21387 155.575 364.05762Q156.37187 364.90137 156.37187 366.44824Q156.37187 366.542 156.37187 366.7295L151.73125 366.7295Q151.79375 367.76074 152.30937 368.30762Q152.825 368.83887 153.60625 368.83887Q154.18437 368.83887 154.59062 368.542Q155.0125 368.2295 155.24687 367.57324ZM151.79375 365.87012L155.2625 365.87012Q155.2 365.07324 154.87187 364.68262Q154.35625 364.07324 153.55937 364.07324Q152.825 364.07324 152.325 364.55762Q151.84062 365.042 151.79375 365.87012ZM157.99687 369.57324L157.99687 363.3545L158.93437 363.3545L158.93437 364.2295Q159.23125 363.76074 159.71562 363.49512Q160.2 363.21387 160.825 363.21387Q161.5125 363.21387 161.95 363.49512Q162.40312 363.77637 162.575 364.292Q163.325 363.21387 164.49687 363.21387Q165.43437 363.21387 165.91875 363.7295Q166.41875 364.2295 166.41875 365.30762L166.41875 369.57324L165.37187 369.57324L165.37187 365.65137Q165.37187 365.02637 165.2625 364.74512Q165.16875 364.46387 164.90312 364.292Q164.6375 364.12012 164.2625 364.12012Q163.60625 364.12012 163.16875 364.55762Q162.74687 364.99512 162.74687 365.96387L162.74687 369.57324L161.68437 369.57324L161.68437 365.52637Q161.68437 364.82324 161.41875 364.4795Q161.16875 364.12012 160.59062 364.12012Q160.1375 364.12012 159.7625 364.3545Q159.3875 364.58887 159.21562 365.042Q159.04375 365.49512 159.04375 366.33887L159.04375 369.57324L157.99687 369.57324ZM172.24687 367.57324L173.34062 367.69824Q173.09062 368.65137 172.3875 369.18262Q171.68437 369.71387 170.60625 369.71387Q169.24687 369.71387 168.43437 368.87012Q167.6375 368.02637 167.6375 366.51074Q167.6375 364.94824 168.45 364.08887Q169.2625 363.21387 170.54375 363.21387Q171.79375 363.21387 172.575 364.05762Q173.37187 364.90137 173.37187 366.44824Q173.37187 366.542 173.37187 366.7295L168.73125 366.7295Q168.79375 367.76074 169.30937 368.30762Q169.825 368.83887 170.60625 368.83887Q171.18437 368.83887 171.59062 368.542Q172.0125 368.2295 172.24687 367.57324ZM168.79375 365.87012L172.2625 365.87012Q172.2 365.07324 171.87187 364.68262Q171.35625 364.07324 170.55937 364.07324Q169.825 364.07324 169.325 364.55762Q168.84062 365.042 168.79375 365.87012ZM174.99687 369.57324L174.99687 363.3545L175.93437 363.3545L175.93437 364.2295Q176.62187 363.21387 177.91875 363.21387Q178.48125 363.21387 178.95 363.417Q179.43437 363.62012 179.66875 363.94824Q179.90312 364.27637 179.99687 364.71387Q180.04375 365.01074 180.04375 365.74512L180.04375 369.57324L178.99687 369.57324L178.99687 365.792Q178.99687 365.13574 178.87187 364.82324Q178.74687 364.51074 178.43437 364.32324Q178.12187 364.12012 177.7 364.12012Q177.02812 364.12012 176.52812 364.55762Q176.04375 364.9795 176.04375 366.167L176.04375 369.57324L174.99687 369.57324ZM184.29375 368.63574L184.45 369.55762Q183.99687 369.65137 183.65312 369.65137Q183.075 369.65137 182.7625 369.4795Q182.45 369.292 182.30937 368.99512Q182.18437 368.69824 182.18437 367.74512L182.18437 364.167L181.41875 364.167L181.41875 363.3545L182.18437 363.3545L182.18437 361.80762L183.23125 361.18262L183.23125 363.3545L184.29375 363.3545L184.29375 364.167L183.23125 364.167L183.23125 367.80762Q183.23125 368.26074 183.27812 368.38574Q183.34062 368.51074 183.46562 368.58887Q183.59062 368.667 183.825 368.667Q184.0125 368.667 184.29375 368.63574Z" fill-rule="nonzero"/><path fill="#000000" d="M187.2 414.5656Q187.2 413.03436 187.5125 412.1125Q187.825 411.175 188.43437 410.675Q189.05937 410.175 189.99687 410.175Q190.68437 410.175 191.2 410.45624Q191.73125 410.7375 192.075 411.26874Q192.41875 411.78436 192.60625 412.53436Q192.79375 413.28436 192.79375 414.5656Q192.79375 416.08124 192.48125 417.0031Q192.18437 417.925 191.55937 418.4406Q190.95 418.9406 189.99687 418.9406Q188.7625 418.9406 188.04375 418.05Q187.2 416.9875 187.2 414.5656ZM188.27812 414.5656Q188.27812 416.675 188.77812 417.3781Q189.27812 418.08124 189.99687 418.08124Q190.73125 418.08124 191.21562 417.3781Q191.71562 416.675 191.71562 414.5656Q191.71562 412.4406 191.21562 411.7531Q190.73125 411.05 189.98125 411.05Q189.2625 411.05 188.825 411.65936Q188.27812 412.4406 188.27812 414.5656Z" fill-rule="nonzero"/><path fill="#000000" d="M351.1 416.55L352.20938 416.45624Q352.33438 417.26874 352.77188 417.675Q353.225 418.08124 353.86563 418.08124Q354.61563 418.08124 355.14688 417.5031Q355.67813 416.925 355.67813 415.9875Q355.67813 415.08124 355.1625 414.5656Q354.6625 414.03436 353.83438 414.03436Q353.33438 414.03436 352.9125 414.26874Q352.50626 414.5031 352.27188 414.8625L351.2875 414.7375L352.11563 410.33124L356.39688 410.33124L356.39688 411.33124L352.95938 411.33124L352.50626 413.64374Q353.27188 413.09686 354.11563 413.09686Q355.24063 413.09686 356.00626 413.8781Q356.7875 414.65936 356.7875 415.89374Q356.7875 417.05 356.11563 417.90936Q355.2875 418.9406 353.86563 418.9406Q352.69376 418.9406 351.94376 418.28436Q351.20938 417.6281 351.1 416.55ZM358.1 414.5656Q358.1 413.03436 358.4125 412.1125Q358.725 411.175 359.33438 410.675Q359.95938 410.175 360.89688 410.175Q361.58438 410.175 362.1 410.45624Q362.63126 410.7375 362.975 411.26874Q363.31876 411.78436 363.50626 412.53436Q363.69376 413.28436 363.69376 414.5656Q363.69376 416.08124 363.38126 417.0031Q363.08438 417.925 362.45938 418.4406Q361.85 418.9406 360.89688 418.9406Q359.6625 418.9406 358.94376 418.05Q358.1 416.9875 358.1 414.5656ZM359.17813 414.5656Q359.17813 416.675 359.67813 417.3781Q360.17813 418.08124 360.89688 418.08124Q361.63126 418.08124 362.11563 417.3781Q362.61563 416.675 362.61563 414.5656Q362.61563 412.4406 362.11563 411.7531Q361.63126 411.05 360.88126 411.05Q360.1625 411.05 359.725 411.65936Q359.17813 412.4406 359.17813 414.5656Z" fill-rule="nonzero"/><path fill="#000000" d="M518.96875 418.8L517.9219 418.8L517.9219 412.08124Q517.53125 412.4406 516.90625 412.8156Q516.2969 413.175 515.8125 413.34686L515.8125 412.33124Q516.6875 411.90936 517.34375 411.33124Q518.0156 410.7375 518.2969 410.175L518.96875 410.175L518.96875 418.8ZM522.0 414.5656Q522.0 413.03436 522.3125 412.1125Q522.625 411.175 523.2344 410.675Q523.8594 410.175 524.7969 410.175Q525.4844 410.175 526.0 410.45624Q526.53125 410.7375 526.875 411.26874Q527.21875 411.78436 527.40625 412.53436Q527.59375 413.28436 527.59375 414.5656Q527.59375 416.08124 527.28125 417.0031Q526.9844 417.925 526.3594 418.4406Q525.75 418.9406 524.7969 418.9406Q523.5625 418.9406 522.84375 418.05Q522.0 416.9875 522.0 414.5656ZM523.0781 414.5656Q523.0781 416.675 523.5781 417.3781Q524.0781 418.08124 524.7969 418.08124Q525.53125 418.08124 526.0156 417.3781Q526.5156 416.675 526.5156 414.5656Q526.5156 412.4406 526.0156 411.7531Q525.53125 411.05 524.78125 411.05Q524.0625 411.05 523.625 411.65936Q523.0781 412.4406 523.0781 414.5656ZM529.0 414.5656Q529.0 413.03436 529.3125 412.1125Q529.625 411.175 530.2344 410.675Q530.8594 410.175 531.7969 410.175Q532.4844 410.175 533.0 410.45624Q533.53125 410.7375 533.875 411.26874Q534.21875 411.78436 534.40625 412.53436Q534.59375 413.28436 534.59375 414.5656Q534.59375 416.08124 534.28125 417.0031Q533.9844 417.925 533.3594 418.4406Q532.75 418.9406 531.7969 418.9406Q530.5625 418.9406 529.84375 418.05Q529.0 416.9875 529.0 414.5656ZM530.0781 414.5656Q530.0781 416.675 530.5781 417.3781Q531.0781 418.08124 531.7969 418.08124Q532.53125 418.08124 533.0156 417.3781Q533.5156 416.675 533.5156 414.5656Q533.5156 412.4406 533.0156 411.7531Q532.53125 411.05 531.78125 411.05Q531.0625 411.05 530.625 411.65936Q530.0781 412.4406 530.0781 414.5656Z" fill-rule="nonzero"/><path fill="#000000" d="M686.3688 418.8L685.3219 418.8L685.3219 412.08124Q684.9313 412.4406 684.3063 412.8156Q683.6969 413.175 683.2125 413.34686L683.2125 412.33124Q684.0875 411.90936 684.7438 411.33124Q685.41565 410.7375 685.6969 410.175L686.3688 410.175L686.3688 418.8ZM689.4 416.55L690.5094 416.45624Q690.6344 417.26874 691.0719 417.675Q691.525 418.08124 692.16565 418.08124Q692.91565 418.08124 693.4469 417.5031Q693.97815 416.925 693.97815 415.9875Q693.97815 415.08124 693.4625 414.5656Q692.9625 414.03436 692.1344 414.03436Q691.6344 414.03436 691.2125 414.26874Q690.8063 414.5031 690.5719 414.8625L689.5875 414.7375L690.41565 410.33124L694.6969 410.33124L694.6969 411.33124L691.2594 411.33124L690.8063 413.64374Q691.5719 413.09686 692.41565 413.09686Q693.54065 413.09686 694.3063 413.8781Q695.0875 414.65936 695.0875 415.89374Q695.0875 417.05 694.41565 417.90936Q693.5875 418.9406 692.16565 418.9406Q690.9938 418.9406 690.2438 418.28436Q689.5094 417.6281 689.4 416.55ZM696.4 414.5656Q696.4 413.03436 696.7125 412.1125Q697.025 411.175 697.6344 410.675Q698.2594 410.175 699.1969 410.175Q699.8844 410.175 700.4 410.45624Q700.9313 410.7375 701.275 411.26874Q701.6188 411.78436 701.8063 412.53436Q701.9938 413.28436 701.9938 414.5656Q701.9938 416.08124 701.6813 417.0031Q701.3844 417.925 700.7594 418.4406Q700.15 418.9406 699.1969 418.9406Q697.9625 418.9406 697.2438 418.05Q696.4 416.9875 696.4 414.5656ZM697.47815 414.5656Q697.47815 416.675 697.97815 417.3781Q698.47815 418.08124 699.1969 418.08124Q699.9313 418.08124 700.41565 417.3781Q700.91565 416.675 700.91565 414.5656Q700.91565 412.4406 700.41565 411.7531Q699.9313 411.05 699.1813 411.05Q698.4625 411.05 698.025 411.65936Q697.47815 412.4406 697.47815 414.5656Z" fill-rule="nonzero"/><path fill="#000000" d="M855.34686 417.78436L855.34686 418.8L849.65936 418.8Q849.65936 418.425 849.78436 418.0656Q850.0031 417.4875 850.47186 416.925Q850.95624 416.3625 851.8625 415.6281Q853.26874 414.47186 853.7531 413.8Q854.2531 413.1281 854.2531 412.53436Q854.2531 411.90936 853.8 411.4875Q853.34686 411.05 852.6281 411.05Q851.8625 411.05 851.40936 411.5031Q850.95624 411.95624 850.9406 412.76874L849.8625 412.65936Q849.97186 411.4406 850.6906 410.8156Q851.425 410.175 852.65936 410.175Q853.89374 410.175 854.6125 410.8625Q855.33124 411.55 855.33124 412.5656Q855.33124 413.08124 855.1125 413.58124Q854.90936 414.0656 854.40936 414.6281Q853.925 415.175 852.8 416.1281Q851.84686 416.925 851.5656 417.22186Q851.3 417.5031 851.1281 417.78436L855.34686 417.78436ZM856.8 414.5656Q856.8 413.03436 857.1125 412.1125Q857.425 411.175 858.03436 410.675Q858.65936 410.175 859.59686 410.175Q860.28436 410.175 860.8 410.45624Q861.33124 410.7375 861.675 411.26874Q862.01874 411.78436 862.20624 412.53436Q862.39374 413.28436 862.39374 414.5656Q862.39374 416.08124 862.08124 417.0031Q861.78436 417.925 861.15936 418.4406Q860.55 418.9406 859.59686 418.9406Q858.3625 418.9406 857.64374 418.05Q856.8 416.9875 856.8 414.5656ZM857.8781 414.5656Q857.8781 416.675 858.3781 417.3781Q858.8781 418.08124 859.59686 418.08124Q860.33124 418.08124 860.8156 417.3781Q861.3156 416.675 861.3156 414.5656Q861.3156 412.4406 860.8156 411.7531Q860.33124 411.05 859.58124 411.05Q858.8625 411.05 858.425 411.65936Q857.8781 412.4406 857.8781 414.5656ZM863.8 414.5656Q863.8 413.03436 864.1125 412.1125Q864.425 411.175 865.03436 410.675Q865.65936 410.175 866.59686 410.175Q867.28436 410.175 867.8 410.45624Q868.33124 410.7375 868.675 411.26874Q869.01874 411.78436 869.20624 412.53436Q869.39374 413.28436 869.39374 414.5656Q869.39374 416.08124 869.08124 417.0031Q868.78436 417.925 868.15936 418.4406Q867.55 418.9406 866.59686 418.9406Q865.3625 418.9406 864.64374 418.05Q863.8 416.9875 863.8 414.5656ZM864.8781 414.5656Q864.8781 416.675 865.3781 417.3781Q865.8781 418.08124 866.59686 418.08124Q867.33124 418.08124 867.8156 417.3781Q868.3156 416.675 868.3156 414.5656Q868.3156 412.4406 867.8156 411.7531Q867.33124 411.05 866.58124 411.05Q865.8625 411.05 865.425 411.65936Q864.8781 412.4406 864.8781 414.5656Z" fill-rule="nonzero"/><path fill="#757575" d="M23.6375 41.2L23.6375 38.45L26.3875 38.45L26.3875 41.2L23.6375 41.2ZM28.434376 30.825L29.965626 30.825L29.965626 30.04375Q29.965626 28.73125 30.23125 28.090626Q30.5125 27.45 31.2625 27.04375Q32.0125 26.6375 33.153126 26.6375Q34.325 26.6375 35.45 26.996876L35.075 28.903126Q34.41875 28.746876 33.809376 28.746876Q33.215626 28.746876 32.95 29.028126Q32.7 29.309376 32.7 30.090626L32.7 30.825L34.746876 30.825L34.746876 32.98125L32.7 32.98125L32.7 41.2L29.965626 41.2L29.965626 32.98125L28.434376 32.98125L28.434376 30.825ZM35.996876 35.871876Q35.996876 34.496876 36.66875 33.215626Q37.35625 31.934376 38.590626 31.2625Q39.825 30.590626 41.340626 30.590626Q43.7 30.590626 45.2 32.121876Q46.7 33.653126 46.7 35.98125Q46.7 38.340626 45.184376 39.8875Q43.66875 41.434376 41.35625 41.434376Q39.934376 41.434376 38.6375 40.79375Q37.35625 40.1375 36.66875 38.903126Q35.996876 37.653126 35.996876 35.871876ZM38.809376 36.0125Q38.809376 37.559376 39.54375 38.3875Q40.278126 39.2 41.35625 39.2Q42.434376 39.2 43.153126 38.3875Q43.8875 37.559376 43.8875 35.996876Q43.8875 34.465626 43.153126 33.653126Q42.434376 32.825 41.35625 32.825Q40.278126 32.825 39.54375 33.653126Q38.809376 34.465626 38.809376 36.0125ZM51.2625 41.2L48.5125 41.2L48.5125 30.825L51.075 30.825L51.075 32.309376Q51.715626 31.2625 52.23125 30.934376Q52.7625 30.590626 53.434376 30.590626Q54.371876 30.590626 55.23125 31.10625L54.3875 33.496876Q53.7 33.059376 53.10625 33.059376Q52.528126 33.059376 52.121876 33.371876Q51.715626 33.684376 51.48125 34.528126Q51.2625 35.35625 51.2625 37.996876L51.2625 41.2ZM56.653126 41.2L56.653126 26.8875L67.27812 26.8875L67.27812 29.309376L59.54375 29.309376L59.54375 32.48125L66.73125 32.48125L66.73125 34.8875L59.54375 34.8875L59.54375 38.79375L67.54375 38.79375L67.54375 41.2L56.653126 41.2ZM71.68437 33.996876L69.2 33.54375Q69.62187 32.04375 70.6375 31.325Q71.66875 30.590626 73.68437 30.590626Q75.52812 30.590626 76.41875 31.028126Q77.325 31.465626 77.68437 32.1375Q78.05937 32.79375 78.05937 34.590626L78.02812 37.79375Q78.02812 39.153126 78.15312 39.809376Q78.29375 40.45 78.65312 41.2L75.93437 41.2Q75.825 40.91875 75.66875 40.3875Q75.60625 40.1375 75.575 40.059376Q74.87187 40.746876 74.05937 41.090626Q73.2625 41.434376 72.35625 41.434376Q70.7625 41.434376 69.84062 40.575Q68.91875 39.7 68.91875 38.371876Q68.91875 37.48125 69.325 36.79375Q69.74687 36.10625 70.49687 35.746876Q71.2625 35.371876 72.7 35.10625Q74.62187 34.746876 75.35625 34.434376L75.35625 34.153126Q75.35625 33.371876 74.96562 33.04375Q74.575 32.7 73.49687 32.7Q72.7625 32.7 72.34062 32.98125Q71.93437 33.2625 71.68437 33.996876ZM75.35625 36.215626Q74.825 36.3875 73.68437 36.6375Q72.54375 36.8875 72.2 37.121876Q71.65312 37.496876 71.65312 38.090626Q71.65312 38.653126 72.075 39.075Q72.5125 39.496876 73.18437 39.496876Q73.91875 39.496876 74.59062 39.0125Q75.09062 38.6375 75.24687 38.10625Q75.35625 37.746876 75.35625 36.7625L75.35625 36.215626ZM89.68437 33.8875L86.98125 34.3875Q86.84062 33.575 86.35625 33.16875Q85.87187 32.746876 85.10625 32.746876Q84.075 32.746876 83.46562 33.465626Q82.85625 34.16875 82.85625 35.825Q82.85625 37.66875 83.46562 38.434376Q84.09062 39.2 85.1375 39.2Q85.91875 39.2 86.41875 38.7625Q86.91875 38.309376 87.12187 37.23125L89.80937 37.684376Q89.40312 39.54375 88.2 40.496876Q87.0125 41.434376 85.0125 41.434376Q82.73125 41.434376 81.37187 39.996876Q80.02812 38.559376 80.02812 36.028126Q80.02812 33.45 81.3875 32.028126Q82.74687 30.590626 85.05937 30.590626Q86.95 30.590626 88.05937 31.41875Q89.18437 32.23125 89.68437 33.8875ZM94.37187 26.8875L94.37187 32.153126Q95.7 30.590626 97.54375 30.590626Q98.49687 30.590626 99.24687 30.95Q100.0125 31.29375 100.40312 31.840626Q100.79375 32.3875 100.93437 33.059376Q101.075 33.715626 101.075 35.121876L101.075 41.2L98.325 41.2L98.325 35.715626Q98.325 34.090626 98.16875 33.653126Q98.0125 33.215626 97.60625 32.965626Q97.21562 32.7 96.62187 32.7Q95.95 32.7 95.40312 33.028126Q94.87187 33.35625 94.62187 34.028126Q94.37187 34.7 94.37187 35.996876L94.37187 41.2L91.62187 41.2L91.62187 26.8875L94.37187 26.8875ZM112.48125 41.2L108.30937 30.825L111.18437 30.825L113.1375 36.121876L113.71562 37.8875Q113.93437 37.215626 113.99687 36.996876Q114.12187 36.559376 114.27812 36.121876L116.2625 30.825L119.075 30.825L114.96562 41.2L112.48125 41.2ZM119.66875 38.246876L122.41875 37.825Q122.60625 38.621876 123.1375 39.04375Q123.66875 39.45 124.6375 39.45Q125.7 39.45 126.24687 39.059376Q126.60625 38.79375 126.60625 38.325Q126.60625 38.0125 126.40312 37.809376Q126.2 37.621876 125.49687 37.45Q122.16875 36.715626 121.27812 36.10625Q120.04375 35.278126 120.04375 33.778126Q120.04375 32.434376 121.10625 31.5125Q122.18437 30.590626 124.41875 30.590626Q126.54375 30.590626 127.575 31.29375Q128.62187 31.98125 129.0125 33.340626L126.41875 33.809376Q126.24687 33.215626 125.77812 32.8875Q125.325 32.559376 124.46562 32.559376Q123.3875 32.559376 122.91875 32.871876Q122.60625 33.090626 122.60625 33.41875Q122.60625 33.715626 122.87187 33.91875Q123.24687 34.2 125.43437 34.7Q127.62187 35.2 128.49687 35.91875Q129.35625 36.653126 129.35625 37.95Q129.35625 39.3875 128.16875 40.41875Q126.98125 41.434376 124.6375 41.434376Q122.52812 41.434376 121.27812 40.575Q120.04375 39.715626 119.66875 38.246876ZM136.43437 30.825L137.96562 30.825L137.96562 30.04375Q137.96562 28.73125 138.23125 28.090626Q138.5125 27.45 139.2625 27.04375Q140.0125 26.6375 141.15312 26.6375Q142.325 26.6375 143.45 26.996876L143.075 28.903126Q142.41875 28.746876 141.80937 28.746876Q141.21562 28.746876 140.95 29.028126Q140.7 29.309376 140.7 30.090626L140.7 30.825L142.74687 30.825L142.74687 32.98125L140.7 32.98125L140.7 41.2L137.96562 41.2L137.96562 32.98125L136.43437 32.98125L136.43437 30.825ZM143.99687 35.871876Q143.99687 34.496876 144.66875 33.215626Q145.35625 31.934376 146.59062 31.2625Q147.825 30.590626 149.34062 30.590626Q151.7 30.590626 153.2 32.121876Q154.7 33.653126 154.7 35.98125Q154.7 38.340626 153.18437 39.8875Q151.66875 41.434376 149.35625 41.434376Q147.93437 41.434376 146.6375 40.79375Q145.35625 40.1375 144.66875 38.903126Q143.99687 37.653126 143.99687 35.871876ZM146.80937 36.0125Q146.80937 37.559376 147.54375 38.3875Q148.27812 39.2 149.35625 39.2Q150.43437 39.2 151.15312 38.3875Q151.8875 37.559376 151.8875 35.996876Q151.8875 34.465626 151.15312 33.653126Q150.43437 32.825 149.35625 32.825Q148.27812 32.825 147.54375 33.653126Q146.80937 34.465626 146.80937 36.0125ZM159.2625 41.2L156.5125 41.2L156.5125 30.825L159.075 30.825L159.075 32.309376Q159.71562 31.2625 160.23125 30.934376Q160.7625 30.590626 161.43437 30.590626Q162.37187 30.590626 163.23125 31.10625L162.3875 33.496876Q161.7 33.059376 161.10625 33.059376Q160.52812 33.059376 160.12187 33.371876Q159.71562 33.684376 159.48125 34.528126Q159.2625 35.35625 159.2625 37.996876L159.2625 41.2ZM173.48125 41.2L169.30937 30.825L172.18437 30.825L174.1375 36.121876L174.71562 37.8875Q174.93437 37.215626 174.99687 36.996876Q175.12187 36.559376 175.27812 36.121876L177.2625 30.825L180.075 30.825L175.96562 41.2L173.48125 41.2ZM180.66875 38.246876L183.41875 37.825Q183.60625 38.621876 184.1375 39.04375Q184.66875 39.45 185.6375 39.45Q186.7 39.45 187.24687 39.059376Q187.60625 38.79375 187.60625 38.325Q187.60625 38.0125 187.40312 37.809376Q187.2 37.621876 186.49687 37.45Q183.16875 36.715626 182.27812 36.10625Q181.04375 35.278126 181.04375 33.778126Q181.04375 32.434376 182.10625 31.5125Q183.18437 30.590626 185.41875 30.590626Q187.54375 30.590626 188.575 31.29375Q189.62187 31.98125 190.0125 33.340626L187.41875 33.809376Q187.24687 33.215626 186.77812 32.8875Q186.325 32.559376 185.46562 32.559376Q184.3875 32.559376 183.91875 32.871876Q183.60625 33.090626 183.60625 33.41875Q183.60625 33.715626 183.87187 33.91875Q184.24687 34.2 186.43437 34.7Q188.62187 35.2 189.49687 35.91875Q190.35625 36.653126 190.35625 37.95Q190.35625 39.3875 189.16875 40.41875Q187.98125 41.434376 185.6375 41.434376Q183.52812 41.434376 182.27812 40.575Q181.04375 39.715626 180.66875 38.246876ZM197.43437 30.825L198.96562 30.825L198.96562 30.04375Q198.96562 28.73125 199.23125 28.090626Q199.5125 27.45 200.2625 27.04375Q201.0125 26.6375 202.15312 26.6375Q203.325 26.6375 204.45 26.996876L204.075 28.903126Q203.41875 28.746876 202.80937 28.746876Q202.21562 28.746876 201.95 29.028126Q201.7 29.309376 201.7 30.090626L201.7 30.825L203.74687 30.825L203.74687 32.98125L201.7 32.98125L201.7 41.2L198.96562 41.2L198.96562 32.98125L197.43437 32.98125L197.43437 30.825ZM204.99687 35.871876Q204.99687 34.496876 205.66875 33.215626Q206.35625 31.934376 207.59062 31.2625Q208.825 30.590626 210.34062 30.590626Q212.7 30.590626 214.2 32.121876Q215.7 33.653126 215.7 35.98125Q215.7 38.340626 214.18437 39.8875Q212.66875 41.434376 210.35625 41.434376Q208.93437 41.434376 207.6375 40.79375Q206.35625 40.1375 205.66875 38.903126Q204.99687 37.653126 204.99687 35.871876ZM207.80937 36.0125Q207.80937 37.559376 208.54375 38.3875Q209.27812 39.2 210.35625 39.2Q211.43437 39.2 212.15312 38.3875Q212.8875 37.559376 212.8875 35.996876Q212.8875 34.465626 212.15312 33.653126Q211.43437 32.825 210.35625 32.825Q209.27812 32.825 208.54375 33.653126Q207.80937 34.465626 207.80937 36.0125ZM220.2625 41.2L217.5125 41.2L217.5125 30.825L220.075 30.825L220.075 32.309376Q220.71562 31.2625 221.23125 30.934376Q221.7625 30.590626 222.43437 30.590626Q223.37187 30.590626 224.23125 31.10625L223.3875 33.496876Q222.7 33.059376 222.10625 33.059376Q221.52812 33.059376 221.12187 33.371876Q220.71562 33.684376 220.48125 34.528126Q220.2625 35.35625 220.2625 37.996876L220.2625 41.2ZM225.6375 41.2L225.6375 38.45L228.3875 38.45L228.3875 41.2L225.6375 41.2ZM231.6375 41.2L231.6375 38.45L234.3875 38.45L234.3875 41.2L231.6375 41.2ZM236.99687 35.871876Q236.99687 34.496876 237.66875 33.215626Q238.35625 31.934376 239.59062 31.2625Q240.825 30.590626 242.34062 30.590626Q244.7 30.590626 246.2 32.121876Q247.7 33.653126 247.7 35.98125Q247.7 38.340626 246.18437 39.8875Q244.66875 41.434376 242.35625 41.434376Q240.93437 41.434376 239.6375 40.79375Q238.35625 40.1375 237.66875 38.903126Q236.99687 37.653126 236.99687 35.871876ZM239.80937 36.0125Q239.80937 37.559376 240.54375 38.3875Q241.27812 39.2 242.35625 39.2Q243.43437 39.2 244.15312 38.3875Q244.8875 37.559376 244.8875 35.996876Q244.8875 34.465626 244.15312 33.653126Q243.43437 32.825 242.35625 32.825Q241.27812 32.825 240.54375 33.653126Q239.80937 34.465626 239.80937 36.0125ZM248.43437 30.825L249.96562 30.825L249.96562 30.04375Q249.96562 28.73125 250.23125 28.090626Q250.5125 27.45 251.2625 27.04375Q252.0125 26.6375 253.15312 26.6375Q254.325 26.6375 255.45 26.996876L255.075 28.903126Q254.41875 28.746876 253.80937 28.746876Q253.21562 28.746876 252.95 29.028126Q252.7 29.309376 252.7 30.090626L252.7 30.825L254.74687 30.825L254.74687 32.98125L252.7 32.98125L252.7 41.2L249.96562 41.2L249.96562 32.98125L248.43437 32.98125L248.43437 30.825Z" fill-rule="nonzero"/></svg>