<svg version="1.1" viewBox="0.0 0.0 882.0 444.0" fill="none" stroke="none" stroke-linecap="square" stroke-miterlimit="10" width="882" height="444" xmlns:xlink="http://www.w3.org/1999/xlink" xmlns="http://www.w3.org/2000/svg"><path fill="#ffffff" d="M0 0L882.0 0L882.0 444.0L0 444.0L0 0Z" fill-rule="nonzero"/><path stroke="#333333" stroke-width="1.0" stroke-linecap="butt" d="M135.5 61.5L135.5 401.5" fill-rule="nonzero"/><path stroke="#cccccc" stroke-width="1.0" stroke-linecap="butt" d="M316.5 61.5L316.5 401.5" fill-rule="nonzero"/><path stroke="#cccccc" stroke-width="1.0" stroke-linecap="butt" d="M497.5 61.5L497.5 401.5" fill-rule="nonzero"/><path stroke="#cccccc" stroke-width="1.0" stroke-linecap="butt" d="M678.5 61.5L678.5 401.5" fill-rule="nonzero"/><path stroke="#cccccc" stroke-width="1.0" stroke-linecap="butt" d="M859.5 61.5L859.5 401.5" fill-rule="nonzero"/><clipPath id="id_0"><path d="M135.2 61.0L859.8 61.0L859.8 401.8L135.2 401.8L135.2 61.0Z" clip-rule="nonzero"/></clipPath><path stroke="#000000" stroke-width="2.0" stroke-linecap="butt" stroke-opacity="0.0" clip-path="url(#id_0)" d="M135.0 125.0L135.0 84.0L436.0 84.0C437.10458 84.0 438.0 84.89543 438.0 86.0L438.0 123.0C438.0 124.10457 437.10458 125.0 436.0 125.0Z" fill-rule="nonzero"/><path fill="#129a74" clip-path="url(#id_0)" d="M135.0 125.0L135.0 84.0L436.0 84.0C437.10458 84.0 438.0 84.89543 438.0 86.0L438.0 123.0C438.0 124.10457 437.10458 125.0 436.0 125.0Z" fill-rule="nonzero"/><path stroke="#000000" stroke-width="2.0" stroke-linecap="butt" stroke-opacity="0.0" clip-path="url(#id_0)" d="M135.0 189.0L135.0 148.0L434.0 148.0C435.10458 148.0 436.0 148.89543 436.0 150.0L436.0 187.0C436.0 188.10457 435.10458 189.0 434.0 189.0Z" fill-rule="nonzero"/><path fill="#129a74" clip-path="url(#id_0)" d="M135.0 189.0L135.0 148.0L434.0 148.0C435.10458 148.0 436.0 148.89543 436.0 150.0L436.0 187.0C436.0 188.10457 435.10458 189.0 434.0 189.0Z" fill-rule="nonzero"/><path stroke="#000000" stroke-width="2.0" stroke-linecap="butt" stroke-opacity="0.0" clip-path="url(#id_0)" d="M135.0 252.0L135.0 211.0L521.0 211.0C522.10455 211.0 523.0 211.89543 523.0 213.0L523.0 250.0C523.0 251.10457 522.10455 252.0 521.0 252.0Z" fill-rule="nonzero"/><path fill="#129a74" clip-path="url(#id_0)" d="M135.0 252.0L135.0 211.0L521.0 211.0C522.10455 211.0 523.0 211.89543 523.0 213.0L523.0 250.0C523.0 251.10457 522.10455 252.0 521.0 252.0Z" fill-rule="nonzero"/><path stroke="#000000" stroke-width="2.0" stroke-linecap="butt" stroke-opacity="0.0" clip-path="url(#id_0)" d="M135.0 316.0L135.0 275.0L494.0 275.0C495.10458 275.0 496.0 275.89542 496.0 277.0L496.0 314.0C496.0 315.10458 495.10458 316.0 494.0 316.0Z" fill-rule="nonzero"/><path fill="#129a74" clip-path="url(#id_0)" d="M135.0 316.0L135.0 275.0L494.0 275.0C495.10458 275.0 496.0 275.89542 496.0 277.0L496.0 314.0C496.0 315.10458 495.10458 316.0 494.0 316.0Z" fill-rule="nonzero"/><path stroke="#000000" stroke-width="2.0" stroke-linecap="butt" stroke-opacity="0.0" clip-path="url(#id_0)" d="M135.0 380.0L135.0 339.0L748.0 339.0C749.10455 339.0 750.0 339.89542 750.0 341.0L750.0 378.0C750.0 379.10458 749.10455 380.0 748.0 380.0Z" fill-rule="nonzero"/><path fill="#129a74" clip-path="url(#id_0)" d="M135.0 380.0L135.0 339.0L748.0 339.0C749.10455 339.0 750.0 339.89542 750.0 341.0L750.0 378.0C750.0 379.10458 749.10455 380.0 748.0 380.0Z" fill-rule="nonzero"/><path stroke="#129a74" stroke-width="3.0" stroke-linejoin="round" stroke-linecap="round" d="M404.0206 103.703125L404.8331 103.703125Q405.61435 103.6875 406.05185 103.296875Q406.48935 102.90625 406.48935 102.234375Q406.48935 100.734375 404.98935 100.734375Q404.28622 100.734375 403.86435 101.140625Q403.4581 101.546875 403.4581 102.203125L402.36435 102.203125Q402.36435 101.1875 403.09872 100.515625Q403.84872 99.84375 404.98935 99.84375Q406.19247 99.84375 406.87997 100.484375Q407.56747 101.125 407.56747 102.265625Q407.56747 102.828125 407.2081 103.34375Q406.84872 103.859375 406.22372 104.125Q406.92685 104.34375 407.30185 104.859375Q407.69247 105.375 407.69247 106.125Q407.69247 107.265625 406.94247 107.953125Q406.19247 108.625 404.98935 108.625Q403.80185 108.625 403.03622 107.96875Q402.28622 107.3125 402.28622 106.25L403.37997 106.25Q403.37997 106.921875 403.81747 107.328125Q404.25497 107.734375 405.00497 107.734375Q405.78622 107.734375 406.19247 107.328125Q406.61435 106.90625 406.61435 106.140625Q406.61435 105.40625 406.16122 105.015625Q405.7081 104.609375 404.8331 104.59375L404.0206 104.59375L404.0206 103.703125ZM411.0206 103.703125L411.8331 103.703125Q412.61435 103.6875 413.05185 103.296875Q413.48935 102.90625 413.48935 102.234375Q413.48935 100.734375 411.98935 100.734375Q411.28622 100.734375 410.86435 101.140625Q410.4581 101.546875 410.4581 102.203125L409.36435 102.203125Q409.36435 101.1875 410.09872 100.515625Q410.84872 99.84375 411.98935 99.84375Q413.19247 99.84375 413.87997 100.484375Q414.56747 101.125 414.56747 102.265625Q414.56747 102.828125 414.2081 103.34375Q413.84872 103.859375 413.22372 104.125Q413.92685 104.34375 414.30185 104.859375Q414.69247 105.375 414.69247 106.125Q414.69247 107.265625 413.94247 107.953125Q413.19247 108.625 411.98935 108.625Q410.80185 108.625 410.03622 107.96875Q409.28622 107.3125 409.28622 106.25L410.37997 106.25Q410.37997 106.921875 410.81747 107.328125Q411.25497 107.734375 412.00497 107.734375Q412.78622 107.734375 413.19247 107.328125Q413.61435 106.90625 413.61435 106.140625Q413.61435 105.40625 413.16122 105.015625Q412.7081 104.609375 411.8331 104.59375L411.0206 104.59375L411.0206 103.703125ZM416.5831 107.9375Q416.5831 107.65625 416.73935 107.46875Q416.91122 107.28125 417.23935 107.28125Q417.5831 107.28125 417.75497 107.46875Q417.92685 107.65625 417.92685 107.9375Q417.92685 108.203125 417.75497 108.390625Q417.5831 108.5625 417.23935 108.5625Q416.91122 108.5625 416.73935 108.390625Q416.5831 108.203125 416.5831 107.9375ZM421.0206 103.703125L421.8331 103.703125Q422.61435 103.6875 423.05185 103.296875Q423.48935 102.90625 423.48935 102.234375Q423.48935 100.734375 421.98935 100.734375Q421.28622 100.734375 420.86435 101.140625Q420.4581 101.546875 420.4581 102.203125L419.36435 102.203125Q419.36435 101.1875 420.09872 100.515625Q420.84872 99.84375 421.98935 99.84375Q423.19247 99.84375 423.87997 100.484375Q424.56747 101.125 424.56747 102.265625Q424.56747 102.828125 424.2081 103.34375Q423.84872 103.859375 423.22372 104.125Q423.92685 104.34375 424.30185 104.859375Q424.69247 105.375 424.69247 106.125Q424.69247 107.265625 423.94247 107.953125Q423.19247 108.625 421.98935 108.625Q420.80185 108.625 420.03622 107.96875Q419.28622 107.3125 419.28622 106.25L420.37997 106.25Q420.37997 106.921875 420.81747 107.328125Q421.25497 107.734375 422.00497 107.734375Q422.78622 107.734375 423.19247 107.328125Q423.61435 106.90625 423.61435 106.140625Q423.61435 105.40625 423.16122 105.015625Q422.7081 104.609375 421.8331 104.59375L421.0206 104.59375L421.0206 103.703125ZM431.62997 102.1875Q431.62997 102.828125 431.28622 103.328125Q430.94247 103.828125 430.37997 104.109375Q431.03622 104.390625 431.42685 104.953125Q431.81747 105.5 431.81747 106.203125Q431.81747 107.296875 431.06747 107.96875Q430.3331 108.625 429.11435 108.625Q427.87997 108.625 427.12997 107.96875Q426.3956 107.296875 426.3956 106.203125Q426.3956 105.5 426.7706 104.953125Q427.1456 104.390625 427.81747 104.109375Q427.25497 103.828125 426.92685 103.328125Q426.59872 102.828125 426.59872 102.1875Q426.59872 101.109375 427.28622 100.484375Q427.97372 99.84375 429.11435 99.84375Q430.23935 99.84375 430.92685 100.484375Q431.62997 101.109375 431.62997 102.1875ZM430.73935 106.171875Q430.73935 105.453125 430.28622 105.015625Q429.8331 104.5625 429.09872 104.5625Q428.36435 104.5625 427.91122 105.015625Q427.47372 105.453125 427.47372 106.1875Q427.47372 106.90625 427.91122 107.328125Q428.34872 107.734375 429.11435 107.734375Q429.86435 107.734375 430.30185 107.3125Q430.73935 106.890625 430.73935 106.171875ZM429.11435 100.734375Q428.47372 100.734375 428.06747 101.140625Q427.67685 101.53125 427.67685 102.21875Q427.67685 102.859375 428.06747 103.265625Q428.4581 103.671875 429.09872 103.671875Q429.75497 103.671875 430.1456 103.265625Q430.53622 102.859375 430.53622 102.21875Q430.53622 101.5625 430.12997 101.15625Q429.72372 100.734375 429.11435 100.734375Z" fill-rule="nonzero"/><path fill="#ffffff" d="M404.0206 103.703125L404.8331 103.703125Q405.61435 103.6875 406.05185 103.296875Q406.48935 102.90625 406.48935 102.234375Q406.48935 100.734375 404.98935 100.734375Q404.28622 100.734375 403.86435 101.140625Q403.4581 101.546875 403.4581 102.203125L402.36435 102.203125Q402.36435 101.1875 403.09872 100.515625Q403.84872 99.84375 404.98935 99.84375Q406.19247 99.84375 406.87997 100.484375Q407.56747 101.125 407.56747 102.265625Q407.56747 102.828125 407.2081 103.34375Q406.84872 103.859375 406.22372 104.125Q406.92685 104.34375 407.30185 104.859375Q407.69247 105.375 407.69247 106.125Q407.69247 107.265625 406.94247 107.953125Q406.19247 108.625 404.98935 108.625Q403.80185 108.625 403.03622 107.96875Q402.28622 107.3125 402.28622 106.25L403.37997 106.25Q403.37997 106.921875 403.81747 107.328125Q404.25497 107.734375 405.00497 107.734375Q405.78622 107.734375 406.19247 107.328125Q406.61435 106.90625 406.61435 106.140625Q406.61435 105.40625 406.16122 105.015625Q405.7081 104.609375 404.8331 104.59375L404.0206 104.59375L404.0206 103.703125ZM411.0206 103.703125L411.8331 103.703125Q412.61435 103.6875 413.05185 103.296875Q413.48935 102.90625 413.48935 102.234375Q413.48935 100.734375 411.98935 100.734375Q411.28622 100.734375 410.86435 101.140625Q410.4581 101.546875 410.4581 102.203125L409.36435 102.203125Q409.36435 101.1875 410.09872 100.515625Q410.84872 99.84375 411.98935 99.84375Q413.19247 99.84375 413.87997 100.484375Q414.56747 101.125 414.56747 102.265625Q414.56747 102.828125 414.2081 103.34375Q413.84872 103.859375 413.22372 104.125Q413.92685 104.34375 414.30185 104.859375Q414.69247 105.375 414.69247 106.125Q414.69247 107.265625 413.94247 107.953125Q413.19247 108.625 411.98935 108.625Q410.80185 108.625 410.03622 107.96875Q409.28622 107.3125 409.28622 106.25L410.37997 106.25Q410.37997 106.921875 410.81747 107.328125Q411.25497 107.734375 412.00497 107.734375Q412.78622 107.734375 413.19247 107.328125Q413.61435 106.90625 413.61435 106.140625Q413.61435 105.40625 413.16122 105.015625Q412.7081 104.609375 411.8331 104.59375L411.0206 104.59375L411.0206 103.703125ZM416.5831 107.9375Q416.5831 107.65625 416.73935 107.46875Q416.91122 107.28125 417.23935 107.28125Q417.5831 107.28125 417.75497 107.46875Q417.92685 107.65625 417.92685 107.9375Q417.92685 108.203125 417.75497 108.390625Q417.5831 108.5625 417.23935 108.5625Q416.91122 108.5625 416.73935 108.390625Q416.5831 108.203125 416.5831 107.9375ZM421.0206 103.703125L421.8331 103.703125Q422.61435 103.6875 423.05185 103.296875Q423.48935 102.90625 423.48935 102.234375Q423.48935 100.734375 421.98935 100.734375Q421.28622 100.734375 420.86435 101.140625Q420.4581 101.546875 420.4581 102.203125L419.36435 102.203125Q419.36435 101.1875 420.09872 100.515625Q420.84872 99.84375 421.98935 99.84375Q423.19247 99.84375 423.87997 100.484375Q424.56747 101.125 424.56747 102.265625Q424.56747 102.828125 424.2081 103.34375Q423.84872 103.859375 423.22372 104.125Q423.92685 104.34375 424.30185 104.859375Q424.69247 105.375 424.69247 106.125Q424.69247 107.265625 423.94247 107.953125Q423.19247 108.625 421.98935 108.625Q420.80185 108.625 420.03622 107.96875Q419.28622 107.3125 419.28622 106.25L420.37997 106.25Q420.37997 106.921875 420.81747 107.328125Q421.25497 107.734375 422.00497 107.734375Q422.78622 107.734375 423.19247 107.328125Q423.61435 106.90625 423.61435 106.140625Q423.61435 105.40625 423.16122 105.015625Q422.7081 104.609375 421.8331 104.59375L421.0206 104.59375L421.0206 103.703125ZM431.62997 102.1875Q431.62997 102.828125 431.28622 103.328125Q430.94247 103.828125 430.37997 104.109375Q431.03622 104.390625 431.42685 104.953125Q431.81747 105.5 431.81747 106.203125Q431.81747 107.296875 431.06747 107.96875Q430.3331 108.625 429.11435 108.625Q427.87997 108.625 427.12997 107.96875Q426.3956 107.296875 426.3956 106.203125Q426.3956 105.5 426.7706 104.953125Q427.1456 104.390625 427.81747 104.109375Q427.25497 103.828125 426.92685 103.328125Q426.59872 102.828125 426.59872 102.1875Q426.59872 101.109375 427.28622 100.484375Q427.97372 99.84375 429.11435 99.84375Q430.23935 99.84375 430.92685 100.484375Q431.62997 101.109375 431.62997 102.1875ZM430.73935 106.171875Q430.73935 105.453125 430.28622 105.015625Q429.8331 104.5625 429.09872 104.5625Q428.36435 104.5625 427.91122 105.015625Q427.47372 105.453125 427.47372 106.1875Q427.47372 106.90625 427.91122 107.328125Q428.34872 107.734375 429.11435 107.734375Q429.86435 107.734375 430.30185 107.3125Q430.73935 106.890625 430.73935 106.171875ZM429.11435 100.734375Q428.47372 100.734375 428.06747 101.140625Q427.67685 101.53125 427.67685 102.21875Q427.67685 102.859375 428.06747 103.265625Q428.4581 103.671875 429.09872 103.671875Q429.75497 103.671875 430.1456 103.265625Q430.53622 102.859375 430.53622 102.21875Q430.53622 101.5625 430.12997 101.15625Q429.72372 100.734375 429.11435 100.734375Z" fill-rule="nonzero"/><path stroke="#129a74" stroke-width="3.0" stroke-linejoin="round" stroke-linecap="round" d="M402.662 167.70312L403.4745 167.70312Q404.25574 167.6875 404.69324 167.29688Q405.13074 166.90625 405.13074 166.23438Q405.13074 164.73438 403.63074 164.73438Q402.9276 164.73438 402.50574 165.14062Q402.0995 165.54688 402.0995 166.20312L401.00574 166.20312Q401.00574 165.1875 401.7401 164.51562Q402.4901 163.84375 403.63074 163.84375Q404.83386 163.84375 405.52136 164.48438Q406.20886 165.125 406.20886 166.26562Q406.20886 166.82812 405.8495 167.34375Q405.4901 167.85938 404.8651 168.125Q405.56824 168.34375 405.94324 168.85938Q406.33386 169.375 406.33386 170.125Q406.33386 171.26562 405.58386 171.95312Q404.83386 172.625 403.63074 172.625Q402.44324 172.625 401.6776 171.96875Q400.9276 171.3125 400.9276 170.25L402.02136 170.25Q402.02136 170.92188 402.45886 171.32812Q402.89636 171.73438 403.64636 171.73438Q404.4276 171.73438 404.83386 171.32812Q405.25574 170.90625 405.25574 170.14062Q405.25574 169.40625 404.8026 169.01562Q404.3495 168.60938 403.4745 168.59375L402.662 168.59375L402.662 167.70312ZM409.662 167.70312L410.4745 167.70312Q411.25574 167.6875 411.69324 167.29688Q412.13074 166.90625 412.13074 166.23438Q412.13074 164.73438 410.63074 164.73438Q409.9276 164.73438 409.50574 165.14062Q409.0995 165.54688 409.0995 166.20312L408.00574 166.20312Q408.00574 165.1875 408.7401 164.51562Q409.4901 163.84375 410.63074 163.84375Q411.83386 163.84375 412.52136 164.48438Q413.20886 165.125 413.20886 166.26562Q413.20886 166.82812 412.8495 167.34375Q412.4901 167.85938 411.8651 168.125Q412.56824 168.34375 412.94324 168.85938Q413.33386 169.375 413.33386 170.125Q413.33386 171.26562 412.58386 171.95312Q411.83386 172.625 410.63074 172.625Q409.44324 172.625 408.6776 171.96875Q407.9276 171.3125 407.9276 170.25L409.02136 170.25Q409.02136 170.92188 409.45886 171.32812Q409.89636 171.73438 410.64636 171.73438Q411.4276 171.73438 411.83386 171.32812Q412.25574 170.90625 412.25574 170.14062Q412.25574 169.40625 411.8026 169.01562Q411.3495 168.60938 410.4745 168.59375L409.662 168.59375L409.662 167.70312ZM415.2245 171.9375Q415.2245 171.65625 415.38074 171.46875Q415.5526 171.28125 415.88074 171.28125Q416.2245 171.28125 416.39636 171.46875Q416.56824 171.65625 416.56824 171.9375Q416.56824 172.20312 416.39636 172.39062Q416.2245 172.5625 415.88074 172.5625Q415.5526 172.5625 415.38074 172.39062Q415.2245 172.20312 415.2245 171.9375ZM423.6776 172.5L418.08386 172.5L418.08386 171.71875L421.037 168.4375Q421.69324 167.6875 421.94324 167.23438Q422.19324 166.76562 422.19324 166.26562Q422.19324 165.59375 421.787 165.17188Q421.39636 164.73438 420.70886 164.73438Q419.912 164.73438 419.45886 165.20312Q419.00574 165.65625 419.00574 166.48438L417.9276 166.48438Q417.9276 165.29688 418.6776 164.57812Q419.44324 163.84375 420.70886 163.84375Q421.912 163.84375 422.5995 164.46875Q423.287 165.09375 423.287 166.14062Q423.287 167.39062 421.6776 169.14062L419.39636 171.60938L423.6776 171.60938L423.6776 172.5ZM426.662 167.70312L427.4745 167.70312Q428.25574 167.6875 428.69324 167.29688Q429.13074 166.90625 429.13074 166.23438Q429.13074 164.73438 427.63074 164.73438Q426.9276 164.73438 426.50574 165.14062Q426.0995 165.54688 426.0995 166.20312L425.00574 166.20312Q425.00574 165.1875 425.7401 164.51562Q426.4901 163.84375 427.63074 163.84375Q428.83386 163.84375 429.52136 164.48438Q430.20886 165.125 430.20886 166.26562Q430.20886 166.82812 429.8495 167.34375Q429.4901 167.85938 428.8651 168.125Q429.56824 168.34375 429.94324 168.85938Q430.33386 169.375 430.33386 170.125Q430.33386 171.26562 429.58386 171.95312Q428.83386 172.625 427.63074 172.625Q426.44324 172.625 425.6776 171.96875Q424.9276 171.3125 424.9276 170.25L426.02136 170.25Q426.02136 170.92188 426.45886 171.32812Q426.89636 171.73438 427.64636 171.73438Q428.4276 171.73438 428.83386 171.32812Q429.25574 170.90625 429.25574 170.14062Q429.25574 169.40625 428.8026 169.01562Q428.3495 168.60938 427.4745 168.59375L426.662 168.59375L426.662 167.70312Z" fill-rule="nonzero"/><path fill="#ffffff" d="M402.662 167.70312L403.4745 167.70312Q404.25574 167.6875 404.69324 167.29688Q405.13074 166.90625 405.13074 166.23438Q405.13074 164.73438 403.63074 164.73438Q402.9276 164.73438 402.50574 165.14062Q402.0995 165.54688 402.0995 166.20312L401.00574 166.20312Q401.00574 165.1875 401.7401 164.51562Q402.4901 163.84375 403.63074 163.84375Q404.83386 163.84375 405.52136 164.48438Q406.20886 165.125 406.20886 166.26562Q406.20886 166.82812 405.8495 167.34375Q405.4901 167.85938 404.8651 168.125Q405.56824 168.34375 405.94324 168.85938Q406.33386 169.375 406.33386 170.125Q406.33386 171.26562 405.58386 171.95312Q404.83386 172.625 403.63074 172.625Q402.44324 172.625 401.6776 171.96875Q400.9276 171.3125 400.9276 170.25L402.02136 170.25Q402.02136 170.92188 402.45886 171.32812Q402.89636 171.73438 403.64636 171.73438Q404.4276 171.73438 404.83386 171.32812Q405.25574 170.90625 405.25574 170.14062Q405.25574 169.40625 404.8026 169.01562Q404.3495 168.60938 403.4745 168.59375L402.662 168.59375L402.662 167.70312ZM409.662 167.70312L410.4745 167.70312Q411.25574 167.6875 411.69324 167.29688Q412.13074 166.90625 412.13074 166.23438Q412.13074 164.73438 410.63074 164.73438Q409.9276 164.73438 409.50574 165.14062Q409.0995 165.54688 409.0995 166.20312L408.00574 166.20312Q408.00574 165.1875 408.7401 164.51562Q409.4901 163.84375 410.63074 163.84375Q411.83386 163.84375 412.52136 164.48438Q413.20886 165.125 413.20886 166.26562Q413.20886 166.82812 412.8495 167.34375Q412.4901 167.85938 411.8651 168.125Q412.56824 168.34375 412.94324 168.85938Q413.33386 169.375 413.33386 170.125Q413.33386 171.26562 412.58386 171.95312Q411.83386 172.625 410.63074 172.625Q409.44324 172.625 408.6776 171.96875Q407.9276 171.3125 407.9276 170.25L409.02136 170.25Q409.02136 170.92188 409.45886 171.32812Q409.89636 171.73438 410.64636 171.73438Q411.4276 171.73438 411.83386 171.32812Q412.25574 170.90625 412.25574 170.14062Q412.25574 169.40625 411.8026 169.01562Q411.3495 168.60938 410.4745 168.59375L409.662 168.59375L409.662 167.70312ZM415.2245 171.9375Q415.2245 171.65625 415.38074 171.46875Q415.5526 171.28125 415.88074 171.28125Q416.2245 171.28125 416.39636 171.46875Q416.56824 171.65625 416.56824 171.9375Q416.56824 172.20312 416.39636 172.39062Q416.2245 172.5625 415.88074 172.5625Q415.5526 172.5625 415.38074 172.39062Q415.2245 172.20312 415.2245 171.9375ZM423.6776 172.5L418.08386 172.5L418.08386 171.71875L421.037 168.4375Q421.69324 167.6875 421.94324 167.23438Q422.19324 166.76562 422.19324 166.26562Q422.19324 165.59375 421.787 165.17188Q421.39636 164.73438 420.70886 164.73438Q419.912 164.73438 419.45886 165.20312Q419.00574 165.65625 419.00574 166.48438L417.9276 166.48438Q417.9276 165.29688 418.6776 164.57812Q419.44324 163.84375 420.70886 163.84375Q421.912 163.84375 422.5995 164.46875Q423.287 165.09375 423.287 166.14062Q423.287 167.39062 421.6776 169.14062L419.39636 171.60938L423.6776 171.60938L423.6776 172.5ZM426.662 167.70312L427.4745 167.70312Q428.25574 167.6875 428.69324 167.29688Q429.13074 166.90625 429.13074 166.23438Q429.13074 164.73438 427.63074 164.73438Q426.9276 164.73438 426.50574 165.14062Q426.0995 165.54688 426.0995 166.20312L425.00574 166.20312Q425.00574 165.1875 425.7401 164.51562Q426.4901 163.84375 427.63074 163.84375Q428.83386 163.84375 429.52136 164.48438Q430.20886 165.125 430.20886 166.26562Q430.20886 166.82812 429.8495 167.34375Q429.4901 167.85938 428.8651 168.125Q429.56824 168.34375 429.94324 168.85938Q430.33386 169.375 430.33386 170.125Q430.33386 171.26562 429.58386 171.95312Q428.83386 172.625 427.63074 172.625Q426.44324 172.625 425.6776 171.96875Q424.9276 171.3125 424.9276 170.25L426.02136 170.25Q426.02136 170.92188 426.45886 171.32812Q426.89636 171.73438 427.64636 171.73438Q428.4276 171.73438 428.83386 171.32812Q429.25574 170.90625 429.25574 170.14062Q429.25574 169.40625 428.8026 169.01562Q428.3495 168.60938 427.4745 168.59375L426.662 168.59375L426.662 167.70312Z" fill-rule="nonzero"/><path stroke="#129a74" stroke-width="3.0" stroke-linejoin="round" stroke-linecap="round" d="M492.9763 232.64062L494.1638 232.64062L494.1638 233.51562L492.9763 233.51562L492.9763 235.5L491.89816 235.5L491.89816 233.51562L488.00754 233.51562L488.00754 232.875L491.82004 226.96875L492.9763 226.96875L492.9763 232.64062ZM489.2419 232.64062L491.89816 232.64062L491.89816 228.45312L491.75754 228.6875L489.2419 232.64062ZM500.9919 235.5L495.39816 235.5L495.39816 234.71875L498.3513 231.4375Q499.00754 230.6875 499.25754 230.23438Q499.50754 229.76562 499.50754 229.26562Q499.50754 228.59375 499.1013 228.17188Q498.71066 227.73438 498.02316 227.73438Q497.2263 227.73438 496.77316 228.20312Q496.32004 228.65625 496.32004 229.48438L495.2419 229.48438Q495.2419 228.29688 495.9919 227.57812Q496.75754 226.84375 498.02316 226.84375Q499.2263 226.84375 499.9138 227.46875Q500.6013 228.09375 500.6013 229.14062Q500.6013 230.39062 498.9919 232.14062L496.71066 234.60938L500.9919 234.60938L500.9919 235.5ZM502.5388 234.9375Q502.5388 234.65625 502.69504 234.46875Q502.8669 234.28125 503.19504 234.28125Q503.5388 234.28125 503.71066 234.46875Q503.88254 234.65625 503.88254 234.9375Q503.88254 235.20312 503.71066 235.39062Q503.5388 235.5625 503.19504 235.5625Q502.8669 235.5625 502.69504 235.39062Q502.5388 235.20312 502.5388 234.9375ZM510.58566 229.1875Q510.58566 229.82812 510.2419 230.32812Q509.89816 230.82812 509.33566 231.10938Q509.9919 231.39062 510.38254 231.95312Q510.77316 232.5 510.77316 233.20312Q510.77316 234.29688 510.02316 234.96875Q509.2888 235.625 508.07004 235.625Q506.83566 235.625 506.08566 234.96875Q505.3513 234.29688 505.3513 233.20312Q505.3513 232.5 505.7263 231.95312Q506.1013 231.39062 506.77316 231.10938Q506.21066 230.82812 505.88254 230.32812Q505.5544 229.82812 505.5544 229.1875Q505.5544 228.10938 506.2419 227.48438Q506.9294 226.84375 508.07004 226.84375Q509.19504 226.84375 509.88254 227.48438Q510.58566 228.10938 510.58566 229.1875ZM509.69504 233.17188Q509.69504 232.45312 509.2419 232.01562Q508.7888 231.5625 508.0544 231.5625Q507.32004 231.5625 506.8669 232.01562Q506.4294 232.45312 506.4294 233.1875Q506.4294 233.90625 506.8669 234.32812Q507.3044 234.73438 508.07004 234.73438Q508.82004 234.73438 509.25754 234.3125Q509.69504 233.89062 509.69504 233.17188ZM508.07004 227.73438Q507.4294 227.73438 507.02316 228.14062Q506.63254 228.53125 506.63254 229.21875Q506.63254 229.85938 507.02316 230.26562Q507.4138 230.67188 508.0544 230.67188Q508.71066 230.67188 509.1013 230.26562Q509.4919 229.85938 509.4919 229.21875Q509.4919 228.5625 509.08566 228.15625Q508.6794 227.73438 508.07004 227.73438ZM517.91376 227.57812L514.3825 235.5L513.2419 235.5L516.7575 227.85938L512.14813 227.85938L512.14813 226.96875L517.91376 226.96875L517.91376 227.57812Z" fill-rule="nonzero"/><path fill="#ffffff" d="M492.9763 232.64062L494.1638 232.64062L494.1638 233.51562L492.9763 233.51562L492.9763 235.5L491.89816 235.5L491.89816 233.51562L488.00754 233.51562L488.00754 232.875L491.82004 226.96875L492.9763 226.96875L492.9763 232.64062ZM489.2419 232.64062L491.89816 232.64062L491.89816 228.45312L491.75754 228.6875L489.2419 232.64062ZM500.9919 235.5L495.39816 235.5L495.39816 234.71875L498.3513 231.4375Q499.00754 230.6875 499.25754 230.23438Q499.50754 229.76562 499.50754 229.26562Q499.50754 228.59375 499.1013 228.17188Q498.71066 227.73438 498.02316 227.73438Q497.2263 227.73438 496.77316 228.20312Q496.32004 228.65625 496.32004 229.48438L495.2419 229.48438Q495.2419 228.29688 495.9919 227.57812Q496.75754 226.84375 498.02316 226.84375Q499.2263 226.84375 499.9138 227.46875Q500.6013 228.09375 500.6013 229.14062Q500.6013 230.39062 498.9919 232.14062L496.71066 234.60938L500.9919 234.60938L500.9919 235.5ZM502.5388 234.9375Q502.5388 234.65625 502.69504 234.46875Q502.8669 234.28125 503.19504 234.28125Q503.5388 234.28125 503.71066 234.46875Q503.88254 234.65625 503.88254 234.9375Q503.88254 235.20312 503.71066 235.39062Q503.5388 235.5625 503.19504 235.5625Q502.8669 235.5625 502.69504 235.39062Q502.5388 235.20312 502.5388 234.9375ZM510.58566 229.1875Q510.58566 229.82812 510.2419 230.32812Q509.89816 230.82812 509.33566 231.10938Q509.9919 231.39062 510.38254 231.95312Q510.77316 232.5 510.77316 233.20312Q510.77316 234.29688 510.02316 234.96875Q509.2888 235.625 508.07004 235.625Q506.83566 235.625 506.08566 234.96875Q505.3513 234.29688 505.3513 233.20312Q505.3513 232.5 505.7263 231.95312Q506.1013 231.39062 506.77316 231.10938Q506.21066 230.82812 505.88254 230.32812Q505.5544 229.82812 505.5544 229.1875Q505.5544 228.10938 506.2419 227.48438Q506.9294 226.84375 508.07004 226.84375Q509.19504 226.84375 509.88254 227.48438Q510.58566 228.10938 510.58566 229.1875ZM509.69504 233.17188Q509.69504 232.45312 509.2419 232.01562Q508.7888 231.5625 508.0544 231.5625Q507.32004 231.5625 506.8669 232.01562Q506.4294 232.45312 506.4294 233.1875Q506.4294 233.90625 506.8669 234.32812Q507.3044 234.73438 508.07004 234.73438Q508.82004 234.73438 509.25754 234.3125Q509.69504 233.89062 509.69504 233.17188ZM508.07004 227.73438Q507.4294 227.73438 507.02316 228.14062Q506.63254 228.53125 506.63254 229.21875Q506.63254 229.85938 507.02316 230.26562Q507.4138 230.67188 508.0544 230.67188Q508.71066 230.67188 509.1013 230.26562Q509.4919 229.85938 509.4919 229.21875Q509.4919 228.5625 509.08566 228.15625Q508.6794 227.73438 508.07004 227.73438ZM517.9138 227.57812L514.38257 235.5L513.24194 235.5L516.75757 227.85938L512.1482 227.85938L512.1482 226.96875L517.9138 226.96875L517.9138 227.57812Z" fill-rule="nonzero"/><path stroke="#129a74" stroke-width="3.0" stroke-linejoin="round" stroke-linecap="round" d="M462.53204 294.70312L463.34454 294.70312Q464.1258 294.6875 464.5633 294.29688Q465.0008 293.90625 465.0008 293.23438Q465.0008 291.73438 463.5008 291.73438Q462.79767 291.73438 462.3758 292.14062Q461.96954 292.54688 461.96954 293.20312L460.8758 293.20312Q460.8758 292.1875 461.61017 291.51562Q462.36017 290.84375 463.5008 290.84375Q464.70392 290.84375 465.39142 291.48438Q466.07892 292.125 466.07892 293.26562Q466.07892 293.82812 465.71954 294.34375Q465.36017 294.85938 464.73517 295.125Q465.4383 295.34375 465.8133 295.85938Q466.20392 296.375 466.20392 297.125Q466.20392 298.26562 465.45392 298.95312Q464.70392 299.625 463.5008 299.625Q462.3133 299.625 461.54767 298.96875Q460.79767 298.3125 460.79767 297.25L461.89142 297.25Q461.89142 297.92188 462.32892 298.32812Q462.76642 298.73438 463.51642 298.73438Q464.29767 298.73438 464.70392 298.32812Q465.1258 297.90625 465.1258 297.14062Q465.1258 296.40625 464.67267 296.01562Q464.21954 295.60938 463.34454 295.59375L462.53204 295.59375L462.53204 294.70312ZM472.11017 295.75Q471.78204 296.15625 471.29767 296.40625Q470.82892 296.64062 470.26642 296.64062Q469.53204 296.64062 468.98517 296.28125Q468.4383 295.92188 468.14142 295.26562Q467.84454 294.59375 467.84454 293.79688Q467.84454 292.95312 468.15704 292.26562Q468.48517 291.57812 469.07892 291.21875Q469.6883 290.84375 470.48517 290.84375Q471.7508 290.84375 472.46954 291.79688Q473.20392 292.75 473.20392 294.375L473.20392 294.6875Q473.20392 297.1875 472.21954 298.32812Q471.23517 299.46875 469.2508 299.5L469.03204 299.5L469.03204 298.59375L469.26642 298.59375Q470.61017 298.5625 471.32892 297.89062Q472.04767 297.21875 472.11017 295.75ZM470.4383 295.75Q470.98517 295.75 471.4383 295.42188Q471.90704 295.07812 472.1258 294.59375L472.1258 294.15625Q472.1258 293.09375 471.65704 292.42188Q471.1883 291.75 470.48517 291.75Q469.76642 291.75 469.32892 292.29688Q468.90704 292.84375 468.90704 293.75Q468.90704 294.625 469.3133 295.1875Q469.73517 295.75 470.4383 295.75ZM475.09454 298.9375Q475.09454 298.65625 475.2508 298.46875Q475.42267 298.28125 475.7508 298.28125Q476.09454 298.28125 476.26642 298.46875Q476.4383 298.65625 476.4383 298.9375Q476.4383 299.20312 476.26642 299.39062Q476.09454 299.5625 475.7508 299.5625Q475.42267 299.5625 475.2508 299.39062Q475.09454 299.20312 475.09454 298.9375ZM483.14142 293.1875Q483.14142 293.82812 482.79767 294.32812Q482.45392 294.82812 481.89142 295.10938Q482.54767 295.39062 482.9383 295.95312Q483.32892 296.5 483.32892 297.20312Q483.32892 298.29688 482.57892 298.96875Q481.84454 299.625 480.6258 299.625Q479.39142 299.625 478.64142 298.96875Q477.90704 298.29688 477.90704 297.20312Q477.90704 296.5 478.28204 295.95312Q478.65704 295.39062 479.32892 295.10938Q478.76642 294.82812 478.4383 294.32812Q478.11017 293.82812 478.11017 293.1875Q478.11017 292.10938 478.79767 291.48438Q479.48517 290.84375 480.6258 290.84375Q481.7508 290.84375 482.4383 291.48438Q483.14142 292.10938 483.14142 293.1875ZM482.2508 297.17188Q482.2508 296.45312 481.79767 296.01562Q481.34454 295.5625 480.61017 295.5625Q479.8758 295.5625 479.42267 296.01562Q478.98517 296.45312 478.98517 297.1875Q478.98517 297.90625 479.42267 298.32812Q479.86017 298.73438 480.6258 298.73438Q481.3758 298.73438 481.8133 298.3125Q482.2508 297.89062 482.2508 297.17188ZM480.6258 291.73438Q479.98517 291.73438 479.57892 292.14062Q479.1883 292.53125 479.1883 293.21875Q479.1883 293.85938 479.57892 294.26562Q479.96954 294.67188 480.61017 294.67188Q481.26642 294.67188 481.65704 294.26562Q482.04767 293.85938 482.04767 293.21875Q482.04767 292.5625 481.64142 292.15625Q481.23517 291.73438 480.6258 291.73438ZM489.53204 296.64062L490.71954 296.64062L490.71954 297.51562L489.53204 297.51562L489.53204 299.5L488.45392 299.5L488.45392 297.51562L484.5633 297.51562L484.5633 296.875L488.3758 290.96875L489.53204 290.96875L489.53204 296.64062ZM485.79767 296.64062L488.45392 296.64062L488.45392 292.45312L488.3133 292.6875L485.79767 296.64062Z" fill-rule="nonzero"/><path fill="#ffffff" d="M462.53204 294.70312L463.34454 294.70312Q464.1258 294.6875 464.5633 294.29688Q465.0008 293.90625 465.0008 293.23438Q465.0008 291.73438 463.5008 291.73438Q462.79767 291.73438 462.3758 292.14062Q461.96954 292.54688 461.96954 293.20312L460.8758 293.20312Q460.8758 292.1875 461.61017 291.51562Q462.36017 290.84375 463.5008 290.84375Q464.70392 290.84375 465.39142 291.48438Q466.07892 292.125 466.07892 293.26562Q466.07892 293.82812 465.71954 294.34375Q465.36017 294.85938 464.73517 295.125Q465.4383 295.34375 465.8133 295.85938Q466.20392 296.375 466.20392 297.125Q466.20392 298.26562 465.45392 298.95312Q464.70392 299.625 463.5008 299.625Q462.3133 299.625 461.54767 298.96875Q460.79767 298.3125 460.79767 297.25L461.89142 297.25Q461.89142 297.92188 462.32892 298.32812Q462.76642 298.73438 463.51642 298.73438Q464.29767 298.73438 464.70392 298.32812Q465.1258 297.90625 465.1258 297.14062Q465.1258 296.40625 464.67267 296.01562Q464.21954 295.60938 463.34454 295.59375L462.53204 295.59375L462.53204 294.70312ZM472.11017 295.75Q471.78204 296.15625 471.29767 296.40625Q470.82892 296.64062 470.26642 296.64062Q469.53204 296.64062 468.98517 296.28125Q468.4383 295.92188 468.14142 295.26562Q467.84454 294.59375 467.84454 293.79688Q467.84454 292.95312 468.15704 292.26562Q468.48517 291.57812 469.07892 291.21875Q469.6883 290.84375 470.48517 290.84375Q471.7508 290.84375 472.46954 291.79688Q473.20392 292.75 473.20392 294.375L473.20392 294.6875Q473.20392 297.1875 472.21954 298.32812Q471.23517 299.46875 469.2508 299.5L469.03204 299.5L469.03204 298.59375L469.26642 298.59375Q470.61017 298.5625 471.32892 297.89062Q472.04767 297.21875 472.11017 295.75ZM470.4383 295.75Q470.98517 295.75 471.4383 295.42188Q471.90704 295.07812 472.1258 294.59375L472.1258 294.15625Q472.1258 293.09375 471.65704 292.42188Q471.1883 291.75 470.48517 291.75Q469.76642 291.75 469.32892 292.29688Q468.90704 292.84375 468.90704 293.75Q468.90704 294.625 469.3133 295.1875Q469.73517 295.75 470.4383 295.75ZM475.09454 298.9375Q475.09454 298.65625 475.2508 298.46875Q475.42267 298.28125 475.7508 298.28125Q476.09454 298.28125 476.26642 298.46875Q476.4383 298.65625 476.4383 298.9375Q476.4383 299.20312 476.26642 299.39062Q476.09454 299.5625 475.7508 299.5625Q475.42267 299.5625 475.2508 299.39062Q475.09454 299.20312 475.09454 298.9375ZM483.14142 293.1875Q483.14142 293.82812 482.79767 294.32812Q482.45392 294.82812 481.89142 295.10938Q482.54767 295.39062 482.9383 295.95312Q483.32892 296.5 483.32892 297.20312Q483.32892 298.29688 482.57892 298.96875Q481.84454 299.625 480.6258 299.625Q479.39142 299.625 478.64142 298.96875Q477.90704 298.29688 477.90704 297.20312Q477.90704 296.5 478.28204 295.95312Q478.65704 295.39062 479.32892 295.10938Q478.76642 294.82812 478.4383 294.32812Q478.11017 293.82812 478.11017 293.1875Q478.11017 292.10938 478.79767 291.48438Q479.48517 290.84375 480.6258 290.84375Q481.7508 290.84375 482.4383 291.48438Q483.14142 292.10938 483.14142 293.1875ZM482.2508 297.17188Q482.2508 296.45312 481.79767 296.01562Q481.34454 295.5625 480.61017 295.5625Q479.8758 295.5625 479.42267 296.01562Q478.98517 296.45312 478.98517 297.1875Q478.98517 297.90625 479.42267 298.32812Q479.86017 298.73438 480.6258 298.73438Q481.3758 298.73438 481.8133 298.3125Q482.2508 297.89062 482.2508 297.17188ZM480.6258 291.73438Q479.98517 291.73438 479.57892 292.14062Q479.1883 292.53125 479.1883 293.21875Q479.1883 293.85938 479.57892 294.26562Q479.96954 294.67188 480.61017 294.67188Q481.26642 294.67188 481.65704 294.26562Q482.04767 293.85938 482.04767 293.21875Q482.04767 292.5625 481.64142 292.15625Q481.23517 291.73438 480.6258 291.73438ZM489.53204 296.64062L490.71954 296.64062L490.71954 297.51562L489.53204 297.51562L489.53204 299.5L488.45392 299.5L488.45392 297.51562L484.5633 297.51562L484.5633 296.875L488.3758 290.96875L489.53204 290.96875L489.53204 296.64062ZM485.79767 296.64062L488.45392 296.64062L488.45392 292.45312L488.3133 292.6875L485.79767 296.64062Z" fill-rule="nonzero"/><path stroke="#129a74" stroke-width="3.0" stroke-linejoin="round" stroke-linecap="round" d="M719.46356 354.96875L719.46356 355.875L719.26044 355.875Q717.9948 355.90625 717.2448 356.64062Q716.4948 357.35938 716.3698 358.67188Q717.0573 357.90625 718.21356 357.90625Q719.32294 357.90625 719.9948 358.6875Q720.6667 359.46875 720.6667 360.71875Q720.6667 362.03125 719.94794 362.82812Q719.2292 363.625 718.01044 363.625Q716.7917 363.625 716.02606 362.6875Q715.27606 361.73438 715.27606 360.25L715.27606 359.84375Q715.27606 357.48438 716.27606 356.23438Q717.27606 354.98438 719.26044 354.96875L719.46356 354.96875ZM718.0417 358.8125Q717.4792 358.8125 717.01044 359.14062Q716.5417 359.46875 716.3542 359.98438L716.3542 360.375Q716.3542 361.4375 716.82294 362.07812Q717.3073 362.71875 718.01044 362.71875Q718.7448 362.71875 719.1667 362.1875Q719.58856 361.64062 719.58856 360.76562Q719.58856 359.89062 719.1667 359.35938Q718.7448 358.8125 718.0417 358.8125ZM727.71356 355.57812L724.1823 363.5L723.0417 363.5L726.5573 355.85938L721.94794 355.85938L721.94794 354.96875L727.71356 354.96875L727.71356 355.57812ZM729.33856 362.9375Q729.33856 362.65625 729.4948 362.46875Q729.6667 362.28125 729.9948 362.28125Q730.33856 362.28125 730.51044 362.46875Q730.6823 362.65625 730.6823 362.9375Q730.6823 363.20312 730.51044 363.39062Q730.33856 363.5625 729.9948 363.5625Q729.6667 363.5625 729.4948 363.39062Q729.33856 363.20312 729.33856 362.9375ZM736.3542 359.75Q736.02606 360.15625 735.5417 360.40625Q735.07294 360.64062 734.51044 360.64062Q733.77606 360.64062 733.2292 360.28125Q732.6823 359.92188 732.38544 359.26562Q732.08856 358.59375 732.08856 357.79688Q732.08856 356.95312 732.40106 356.26562Q732.7292 355.57812 733.32294 355.21875Q733.9323 354.84375 734.7292 354.84375Q735.9948 354.84375 736.71356 355.79688Q737.44794 356.75 737.44794 358.375L737.44794 358.6875Q737.44794 361.1875 736.46356 362.32812Q735.4792 363.46875 733.4948 363.5L733.27606 363.5L733.27606 362.59375L733.51044 362.59375Q734.8542 362.5625 735.57294 361.89062Q736.2917 361.21875 736.3542 359.75ZM734.6823 359.75Q735.2292 359.75 735.6823 359.42188Q736.15106 359.07812 736.3698 358.59375L736.3698 358.15625Q736.3698 357.09375 735.90106 356.42188Q735.4323 355.75 734.7292 355.75Q734.01044 355.75 733.57294 356.29688Q733.15106 356.84375 733.15106 357.75Q733.15106 358.625 733.5573 359.1875Q733.9792 359.75 734.6823 359.75ZM742.76044 363.5L741.6823 363.5L741.6823 356.28125L739.4948 357.07812L739.4948 356.09375L742.6042 354.92188L742.76044 354.92188L742.76044 363.5Z" fill-rule="nonzero"/><path fill="#ffffff" d="M719.46356 354.96875L719.46356 355.875L719.26044 355.875Q717.9948 355.90625 717.2448 356.64062Q716.4948 357.35938 716.3698 358.67188Q717.0573 357.90625 718.21356 357.90625Q719.32294 357.90625 719.9948 358.6875Q720.6667 359.46875 720.6667 360.71875Q720.6667 362.03125 719.94794 362.82812Q719.2292 363.625 718.01044 363.625Q716.7917 363.625 716.02606 362.6875Q715.27606 361.73438 715.27606 360.25L715.27606 359.84375Q715.27606 357.48438 716.27606 356.23438Q717.27606 354.98438 719.26044 354.96875L719.46356 354.96875ZM718.0417 358.8125Q717.4792 358.8125 717.01044 359.14062Q716.5417 359.46875 716.3542 359.98438L716.3542 360.375Q716.3542 361.4375 716.82294 362.07812Q717.3073 362.71875 718.01044 362.71875Q718.7448 362.71875 719.1667 362.1875Q719.58856 361.64062 719.58856 360.76562Q719.58856 359.89062 719.1667 359.35938Q718.7448 358.8125 718.0417 358.8125ZM727.71356 355.57812L724.1823 363.5L723.0417 363.5L726.5573 355.85938L721.94794 355.85938L721.94794 354.96875L727.71356 354.96875L727.71356 355.57812ZM729.33856 362.9375Q729.33856 362.65625 729.4948 362.46875Q729.6667 362.28125 729.9948 362.28125Q730.33856 362.28125 730.51044 362.46875Q730.6823 362.65625 730.6823 362.9375Q730.6823 363.20312 730.51044 363.39062Q730.33856 363.5625 729.9948 363.5625Q729.6667 363.5625 729.4948 363.39062Q729.33856 363.20312 729.33856 362.9375ZM736.3542 359.75Q736.02606 360.15625 735.5417 360.40625Q735.07294 360.64062 734.51044 360.64062Q733.77606 360.64062 733.2292 360.28125Q732.6823 359.92188 732.38544 359.26562Q732.08856 358.59375 732.08856 357.79688Q732.08856 356.95312 732.40106 356.26562Q732.7292 355.57812 733.32294 355.21875Q733.9323 354.84375 734.7292 354.84375Q735.9948 354.84375 736.71356 355.79688Q737.44794 356.75 737.44794 358.375L737.44794 358.6875Q737.44794 361.1875 736.46356 362.32812Q735.4792 363.46875 733.4948 363.5L733.27606 363.5L733.27606 362.59375L733.51044 362.59375Q734.8542 362.5625 735.57294 361.89062Q736.2917 361.21875 736.3542 359.75ZM734.6823 359.75Q735.2292 359.75 735.6823 359.42188Q736.15106 359.07812 736.3698 358.59375L736.3698 358.15625Q736.3698 357.09375 735.90106 356.42188Q735.4323 355.75 734.7292 355.75Q734.01044 355.75 733.57294 356.29688Q733.15106 356.84375 733.15106 357.75Q733.15106 358.625 733.5573 359.1875Q733.9792 359.75 734.6823 359.75ZM742.76044 363.5L741.6823 363.5L741.6823 356.28125L739.4948 357.07812L739.4948 356.09375L742.6042 354.92188L742.76044 354.92188L742.76044 363.5Z" fill-rule="nonzero"/><path fill="#000000" d="M105.99687 107.99813L105.99687 101.77938L106.93437 101.77938L106.93437 102.65438Q107.23125 102.18563 107.71562 101.920006Q108.2 101.638756 108.825 101.638756Q109.5125 101.638756 109.95 101.920006Q110.40312 102.201256 110.575 102.71688Q111.325 101.638756 112.49687 101.638756Q113.43437 101.638756 113.91875 102.15438Q114.41875 102.65438 114.41875 103.732506L114.41875 107.99813L113.37187 107.99813L113.37187 104.076256Q113.37187 103.451256 113.2625 103.170006Q113.16875 102.888756 112.90312 102.71688Q112.6375 102.545006 112.2625 102.545006Q111.60625 102.545006 111.16875 102.982506Q110.74687 103.420006 110.74687 104.388756L110.74687 107.99813L109.68437 107.99813L109.68437 103.951256Q109.68437 103.24813 109.41875 102.90438Q109.16875 102.545006 108.59062 102.545006Q108.1375 102.545006 107.7625 102.77938Q107.3875 103.013756 107.21562 103.46688Q107.04375 103.920006 107.04375 104.763756L107.04375 107.99813L105.99687 107.99813ZM120.05937 107.232506Q119.46562 107.732506 118.91875 107.93563Q118.3875 108.138756 117.7625 108.138756Q116.73125 108.138756 116.18437 107.638756Q115.6375 107.138756 115.6375 106.357506Q115.6375 105.90438 115.84062 105.52938Q116.04375 105.138756 116.3875 104.920006Q116.73125 104.68563 117.15312 104.576256Q117.45 104.482506 118.09062 104.40438Q119.35625 104.263756 119.96562 104.045006Q119.96562 103.826256 119.96562 103.77938Q119.96562 103.12313 119.66875 102.857506Q119.2625 102.513756 118.46562 102.513756Q117.73125 102.513756 117.37187 102.77938Q117.0125 103.02938 116.84062 103.68563L115.80937 103.545006Q115.95 102.888756 116.27812 102.482506Q116.60625 102.076256 117.21562 101.857506Q117.825 101.638756 118.62187 101.638756Q119.41875 101.638756 119.91875 101.826256Q120.41875 102.013756 120.65312 102.295006Q120.8875 102.576256 120.98125 103.013756Q121.02812 103.27938 121.02812 103.982506L121.02812 105.388756Q121.02812 106.857506 121.09062 107.24813Q121.16875 107.638756 121.37187 107.99813L120.2625 107.99813Q120.10625 107.670006 120.05937 107.232506ZM119.96562 104.87313Q119.3875 105.107506 118.24687 105.27938Q117.59062 105.37313 117.325 105.49813Q117.05937 105.607506 116.90312 105.826256Q116.7625 106.045006 116.7625 106.326256Q116.7625 106.74813 117.075 107.02938Q117.40312 107.31063 118.0125 107.31063Q118.62187 107.31063 119.09062 107.045006Q119.575 106.77938 119.79375 106.31063Q119.96562 105.951256 119.96562 105.263756L119.96562 104.87313ZM122.99687 110.388756L122.99687 101.77938L123.95 101.77938L123.95 102.576256Q124.29375 102.107506 124.71562 101.87313Q125.15312 101.638756 125.7625 101.638756Q126.55937 101.638756 127.16875 102.045006Q127.77812 102.451256 128.075 103.201256Q128.3875 103.951256 128.3875 104.84188Q128.3875 105.795006 128.04375 106.56063Q127.71562 107.326256 127.05937 107.732506Q126.40312 108.138756 125.68437 108.138756Q125.15312 108.138756 124.73125 107.920006Q124.30937 107.68563 124.04375 107.357506L124.04375 110.388756L122.99687 110.388756ZM123.95 104.920006Q123.95 106.12313 124.43437 106.701256Q124.91875 107.263756 125.60625 107.263756Q126.30937 107.263756 126.80937 106.670006Q127.30937 106.076256 127.30937 104.826256Q127.30937 103.638756 126.825 103.06063Q126.34062 102.46688 125.65312 102.46688Q124.98125 102.46688 124.46562 103.09188Q123.95 103.71688 123.95 104.920006Z" fill-rule="nonzero"/><path fill="#000000" d="M28.996876 171.69907L28.996876 165.48032L29.934376 165.48032L29.934376 166.35532Q30.23125 165.88657 30.715626 165.62094Q31.2 165.33969 31.825 165.33969Q32.5125 165.33969 32.95 165.62094Q33.403126 165.90219 33.575 166.41782Q34.325 165.33969 35.496876 165.33969Q36.434376 165.33969 36.91875 165.85532Q37.41875 166.35532 37.41875 167.43344L37.41875 171.69907L36.371876 171.69907L36.371876 167.77719Q36.371876 167.15219 36.2625 166.87094Q36.16875 166.58969 35.903126 166.41782Q35.6375 166.24594 35.2625 166.24594Q34.60625 166.24594 34.16875 166.68344Q33.746876 167.12094 33.746876 168.08969L33.746876 171.69907L32.684376 171.69907L32.684376 167.65219Q32.684376 166.94907 32.41875 166.60532Q32.16875 166.24594 31.590626 166.24594Q31.1375 166.24594 30.7625 166.48032Q30.3875 166.71469 30.215626 167.16782Q30.04375 167.62094 30.04375 168.46469L30.04375 171.69907L28.996876 171.69907ZM43.059376 170.93344Q42.465626 171.43344 41.91875 171.63657Q41.3875 171.83969 40.7625 171.83969Q39.73125 171.83969 39.184376 171.33969Q38.6375 170.83969 38.6375 170.05844Q38.6375 169.60532 38.840626 169.23032Q39.04375 168.83969 39.3875 168.62094Q39.73125 168.38657 40.153126 168.27719Q40.45 168.18344 41.090626 168.10532Q42.35625 167.96469 42.965626 167.74594Q42.965626 167.52719 42.965626 167.48032Q42.965626 166.82407 42.66875 166.55844Q42.2625 166.21469 41.465626 166.21469Q40.73125 166.21469 40.371876 166.48032Q40.0125 166.73032 39.840626 167.38657L38.809376 167.24594Q38.95 166.58969 39.278126 166.18344Q39.60625 165.77719 40.215626 165.55844Q40.825 165.33969 41.621876 165.33969Q42.41875 165.33969 42.91875 165.52719Q43.41875 165.71469 43.653126 165.99594Q43.8875 166.27719 43.98125 166.71469Q44.028126 166.98032 44.028126 167.68344L44.028126 169.08969Q44.028126 170.55844 44.090626 170.94907Q44.16875 171.33969 44.371876 171.69907L43.2625 171.69907Q43.10625 171.37094 43.059376 170.93344ZM42.965626 168.57407Q42.3875 168.80844 41.246876 168.98032Q40.590626 169.07407 40.325 169.19907Q40.059376 169.30844 39.903126 169.52719Q39.7625 169.74594 39.7625 170.02719Q39.7625 170.44907 40.075 170.73032Q40.403126 171.01157 41.0125 171.01157Q41.621876 171.01157 42.090626 170.74594Q42.575 170.48032 42.79375 170.01157Q42.965626 169.65219 42.965626 168.96469L42.965626 168.57407ZM45.996876 174.08969L45.996876 165.48032L46.95 165.48032L46.95 166.27719Q47.29375 165.80844 47.715626 165.57407Q48.153126 165.33969 48.7625 165.33969Q49.559376 165.33969 50.16875 165.74594Q50.778126 166.15219 51.075 166.90219Q51.3875 167.65219 51.3875 168.54282Q51.3875 169.49594 51.04375 170.26157Q50.715626 171.02719 50.059376 171.43344Q49.403126 171.83969 48.684376 171.83969Q48.153126 171.83969 47.73125 171.62094Q47.309376 171.38657 47.04375 171.05844L47.04375 174.08969L45.996876 174.08969ZM46.95 168.62094Q46.95 169.82407 47.434376 170.40219Q47.91875 170.96469 48.60625 170.96469Q49.309376 170.96469 49.809376 170.37094Q50.309376 169.77719 50.309376 168.52719Q50.309376 167.33969 49.825 166.76157Q49.340626 166.16782 48.653126 166.16782Q47.98125 166.16782 47.465626 166.79282Q46.95 167.41782 46.95 168.62094ZM53.2625 171.69907L53.2625 170.49594L54.465626 170.49594L54.465626 171.69907Q54.465626 172.35532 54.23125 172.76157Q53.996876 173.18344 53.496876 173.40219L53.2 172.94907Q53.528126 172.80844 53.684376 172.51157Q53.840626 172.23032 53.871876 171.69907L53.2625 171.69907ZM63.028126 171.69907L63.028126 170.91782Q62.434376 171.83969 61.29375 171.83969Q60.54375 171.83969 59.91875 171.43344Q59.29375 171.01157 58.95 170.27719Q58.60625 169.54282 58.60625 168.58969Q58.60625 167.66782 58.91875 166.90219Q59.23125 166.13657 59.85625 165.74594Q60.48125 165.33969 61.246876 165.33969Q61.809376 165.33969 62.246876 165.57407Q62.684376 165.80844 62.965626 166.18344L62.965626 163.10532L64.0125 163.10532L64.0125 171.69907L63.028126 171.69907ZM59.7 168.58969Q59.7 169.79282 60.2 170.38657Q60.7 170.96469 61.3875 170.96469Q62.075 170.96469 62.559376 170.40219Q63.04375 169.83969 63.04375 168.68344Q63.04375 167.40219 62.54375 166.80844Q62.059376 166.21469 61.340626 166.21469Q60.6375 166.21469 60.16875 166.79282Q59.7 167.35532 59.7 168.58969ZM70.24687 169.69907L71.34062 169.82407Q71.09062 170.77719 70.3875 171.30844Q69.68437 171.83969 68.60625 171.83969Q67.24687 171.83969 66.43437 170.99594Q65.6375 170.15219 65.6375 168.63657Q65.6375 167.07407 66.45 166.21469Q67.2625 165.33969 68.54375 165.33969Q69.79375 165.33969 70.575 166.18344Q71.37187 167.02719 71.37187 168.57407Q71.37187 168.66782 71.37187 168.85532L66.73125 168.85532Q66.79375 169.88657 67.30937 170.43344Q67.825 170.96469 68.60625 170.96469Q69.18437 170.96469 69.59062 170.66782Q70.0125 170.35532 70.24687 169.69907ZM66.79375 167.99594L70.2625 167.99594Q70.2 167.19907 69.87187 166.80844Q69.35625 166.19907 68.55937 166.19907Q67.825 166.19907 67.325 166.68344Q66.84062 167.16782 66.79375 167.99594ZM72.575 169.83969L73.60625 169.68344Q73.7 170.30844 74.09062 170.63657Q74.49687 170.96469 75.23125 170.96469Q75.95 170.96469 76.29375 170.68344Q76.65312 170.38657 76.65312 169.98032Q76.65312 169.62094 76.34062 169.41782Q76.12187 169.27719 75.2625 169.05844Q74.10625 168.76157 73.65312 168.55844Q73.21562 168.33969 72.98125 167.96469Q72.74687 167.58969 72.74687 167.12094Q72.74687 166.71469 72.93437 166.35532Q73.12187 165.99594 73.45 165.76157Q73.7 165.58969 74.12187 165.46469Q74.54375 165.33969 75.04375 165.33969Q75.7625 165.33969 76.30937 165.55844Q76.87187 165.76157 77.1375 166.12094Q77.40312 166.48032 77.49687 167.07407L76.46562 167.21469Q76.40312 166.74594 76.05937 166.48032Q75.73125 166.19907 75.10625 166.19907Q74.3875 166.19907 74.075 166.44907Q73.7625 166.68344 73.7625 167.01157Q73.7625 167.21469 73.8875 167.37094Q74.02812 167.54282 74.29375 167.65219Q74.45 167.71469 75.23125 167.91782Q76.35625 168.23032 76.79375 168.41782Q77.23125 168.60532 77.48125 168.96469Q77.73125 169.32407 77.73125 169.87094Q77.73125 170.40219 77.41875 170.87094Q77.12187 171.32407 76.54375 171.58969Q75.96562 171.83969 75.23125 171.83969Q74.0125 171.83969 73.37187 171.33969Q72.74687 170.82407 72.575 169.83969ZM81.29375 170.76157L81.45 171.68344Q80.99687 171.77719 80.65312 171.77719Q80.075 171.77719 79.7625 171.60532Q79.45 171.41782 79.30937 171.12094Q79.18437 170.82407 79.18437 169.87094L79.18437 166.29282L78.41875 166.29282L78.41875 165.48032L79.18437 165.48032L79.18437 163.93344L80.23125 163.30844L80.23125 165.48032L81.29375 165.48032L81.29375 166.29282L80.23125 166.29282L80.23125 169.93344Q80.23125 170.38657 80.27812 170.51157Q80.34062 170.63657 80.46562 170.71469Q80.59062 170.79282 80.825 170.79282Q81.0125 170.79282 81.29375 170.76157ZM81.98125 171.69907L81.98125 165.48032L82.93437 165.48032L82.93437 166.41782Q83.29375 165.76157 83.59062 165.55844Q83.90312 165.33969 84.27812 165.33969Q84.80937 165.33969 85.35625 165.66782L84.99687 166.65219Q84.60625 166.41782 84.23125 166.41782Q83.87187 166.41782 83.59062 166.63657Q83.325 166.83969 83.21562 167.21469Q83.02812 167.77719 83.02812 168.43344L83.02812 171.69907L81.98125 171.69907ZM90.075 171.69907L90.075 170.77719Q89.34062 171.83969 88.09062 171.83969Q87.54375 171.83969 87.05937 171.63657Q86.59062 171.41782 86.35625 171.10532Q86.12187 170.77719 86.02812 170.30844Q85.96562 170.01157 85.96562 169.32407L85.96562 165.48032L87.02812 165.48032L87.02812 168.93344Q87.02812 169.74594 87.09062 170.04282Q87.18437 170.44907 87.49687 170.69907Q87.825 170.93344 88.30937 170.93344Q88.77812 170.93344 89.18437 170.69907Q89.60625 170.44907 89.77812 170.02719Q89.96562 169.60532 89.96562 168.80844L89.96562 165.48032L91.0125 165.48032L91.0125 171.69907L90.075 171.69907ZM97.05937 169.41782L98.09062 169.55844Q97.91875 170.62094 97.21562 171.23032Q96.5125 171.83969 95.49687 171.83969Q94.21562 171.83969 93.43437 171.01157Q92.66875 170.16782 92.66875 168.60532Q92.66875 167.60532 92.99687 166.85532Q93.34062 166.08969 94.0125 165.71469Q94.7 165.33969 95.5125 165.33969Q96.5125 165.33969 97.15312 165.85532Q97.80937 166.35532 97.99687 167.30844L96.96562 167.46469Q96.825 166.83969 96.45 166.52719Q96.075 166.19907 95.54375 166.19907Q94.74687 166.19907 94.24687 166.77719Q93.74687 167.33969 93.74687 168.57407Q93.74687 169.83969 94.23125 170.40219Q94.71562 170.96469 95.48125 170.96469Q96.10625 170.96469 96.5125 170.58969Q96.93437 170.21469 97.05937 169.41782ZM101.29375 170.76157L101.45 171.68344Q100.99687 171.77719 100.65312 171.77719Q100.075 171.77719 99.7625 171.60532Q99.45 171.41782 99.30937 171.12094Q99.18437 170.82407 99.18437 169.87094L99.18437 166.29282L98.41875 166.29282L98.41875 165.48032L99.18437 165.48032L99.18437 163.93344L100.23125 163.30844L100.23125 165.48032L101.29375 165.48032L101.29375 166.29282L100.23125 166.29282L100.23125 169.93344Q100.23125 170.38657 100.27812 170.51157Q100.34062 170.63657 100.46562 170.71469Q100.59062 170.79282 100.825 170.79282Q101.0125 170.79282 101.29375 170.76157ZM106.075 171.69907L106.075 170.77719Q105.34062 171.83969 104.09062 171.83969Q103.54375 171.83969 103.05937 171.63657Q102.59062 171.41782 102.35625 171.10532Q102.12187 170.77719 102.02812 170.30844Q101.96562 170.01157 101.96562 169.32407L101.96562 165.48032L103.02812 165.48032L103.02812 168.93344Q103.02812 169.74594 103.09062 170.04282Q103.18437 170.44907 103.49687 170.69907Q103.825 170.93344 104.30937 170.93344Q104.77812 170.93344 105.18437 170.69907Q105.60625 170.44907 105.77812 170.02719Q105.96562 169.60532 105.96562 168.80844L105.96562 165.48032L107.0125 165.48032L107.0125 171.69907L106.075 171.69907ZM108.98125 171.69907L108.98125 165.48032L109.93437 165.48032L109.93437 166.41782Q110.29375 165.76157 110.59062 165.55844Q110.90312 165.33969 111.27812 165.33969Q111.80937 165.33969 112.35625 165.66782L111.99687 166.65219Q111.60625 166.41782 111.23125 166.41782Q110.87187 166.41782 110.59062 166.63657Q110.325 166.83969 110.21562 167.21469Q110.02812 167.77719 110.02812 168.43344L110.02812 171.69907L108.98125 171.69907ZM112.99687 164.32407L112.99687 163.10532L114.05937 163.10532L114.05937 164.32407L112.99687 164.32407ZM112.99687 171.69907L112.99687 165.48032L114.05937 165.48032L114.05937 171.69907L112.99687 171.69907ZM115.99687 171.69907L115.99687 165.48032L116.93437 165.48032L116.93437 166.35532Q117.62187 165.33969 118.91875 165.33969Q119.48125 165.33969 119.95 165.54282Q120.43437 165.74594 120.66875 166.07407Q120.90312 166.40219 120.99687 166.83969Q121.04375 167.13657 121.04375 167.87094L121.04375 171.69907L119.99687 171.69907L119.99687 167.91782Q119.99687 167.26157 119.87187 166.94907Q119.74687 166.63657 119.43437 166.44907Q119.12187 166.24594 118.7 166.24594Q118.02812 166.24594 117.52812 166.68344Q117.04375 167.10532 117.04375 168.29282L117.04375 171.69907L115.99687 171.69907ZM122.79375 172.21469L123.825 172.37094Q123.8875 172.83969 124.18437 173.05844Q124.575 173.35532 125.24687 173.35532Q125.98125 173.35532 126.37187 173.05844Q126.77812 172.76157 126.91875 172.24594Q127.0125 171.91782 126.99687 170.88657Q126.30937 171.69907 125.27812 171.69907Q123.99687 171.69907 123.29375 170.77719Q122.59062 169.83969 122.59062 168.55844Q122.59062 167.66782 122.90312 166.91782Q123.23125 166.15219 123.84062 165.74594Q124.45 165.33969 125.27812 165.33969Q126.3875 165.33969 127.10625 166.23032L127.10625 165.48032L128.075 165.48032L128.075 170.85532Q128.075 172.30844 127.77812 172.91782Q127.48125 173.52719 126.84062 173.87094Q126.2 174.23032 125.2625 174.23032Q124.15312 174.23032 123.46562 173.73032Q122.77812 173.23032 122.79375 172.21469ZM123.66875 168.48032Q123.66875 169.69907 124.15312 170.26157Q124.6375 170.82407 125.37187 170.82407Q126.10625 170.82407 126.59062 170.26157Q127.09062 169.69907 127.09062 168.51157Q127.09062 167.37094 126.575 166.79282Q126.075 166.21469 125.35625 166.21469Q124.65312 166.21469 124.15312 166.79282Q123.66875 167.35532 123.66875 168.48032Z" fill-rule="nonzero"/><path fill="#000000" d="M100.24687 235.4L100.24687 229.99374L99.30937 229.99374L99.30937 229.18124L100.24687 229.18124L100.24687 228.50937Q100.24687 227.88437 100.35625 227.5875Q100.5125 227.16562 100.8875 226.91562Q101.27812 226.66562 101.96562 226.66562Q102.41875 226.66562 102.95 226.775L102.79375 227.68124Q102.46562 227.63437 102.16875 227.63437Q101.68437 227.63437 101.48125 227.8375Q101.29375 228.04062 101.29375 228.60312L101.29375 229.18124L102.5125 229.18124L102.5125 229.99374L101.29375 229.99374L101.29375 235.4L100.24687 235.4ZM102.60625 232.29062Q102.60625 230.55624 103.55937 229.72812Q104.35625 229.04062 105.5125 229.04062Q106.79375 229.04062 107.60625 229.88437Q108.43437 230.7125 108.43437 232.19687Q108.43437 233.4 108.075 234.0875Q107.71562 234.775 107.0125 235.16562Q106.325 235.54062 105.5125 235.54062Q104.21562 235.54062 103.40312 234.7125Q102.60625 233.86874 102.60625 232.29062ZM103.68437 232.29062Q103.68437 233.47812 104.2 234.07187Q104.73125 234.66562 105.5125 234.66562Q106.30937 234.66562 106.825 234.07187Q107.34062 233.47812 107.34062 232.25937Q107.34062 231.10312 106.80937 230.50937Q106.29375 229.91562 105.5125 229.91562Q104.73125 229.91562 104.2 230.50937Q103.68437 231.0875 103.68437 232.29062ZM109.98125 235.4L109.98125 229.18124L110.93437 229.18124L110.93437 230.11874Q111.29375 229.4625 111.59062 229.25937Q111.90312 229.04062 112.27812 229.04062Q112.80937 229.04062 113.35625 229.36874L112.99687 230.35312Q112.60625 230.11874 112.23125 230.11874Q111.87187 230.11874 111.59062 230.3375Q111.325 230.54062 111.21562 230.91562Q111.02812 231.47812 111.02812 232.13437L111.02812 235.4L109.98125 235.4ZM114.29375 235.4L114.29375 234.19687L115.49687 234.19687L115.49687 235.4L114.29375 235.4ZM117.29375 235.4L117.29375 234.19687L118.49687 234.19687L118.49687 235.4L117.29375 235.4ZM119.60625 232.29062Q119.60625 230.55624 120.55937 229.72812Q121.35625 229.04062 122.5125 229.04062Q123.79375 229.04062 124.60625 229.88437Q125.43437 230.7125 125.43437 232.19687Q125.43437 233.4 125.075 234.0875Q124.71562 234.775 124.0125 235.16562Q123.325 235.54062 122.5125 235.54062Q121.21562 235.54062 120.40312 234.7125Q119.60625 233.86874 119.60625 232.29062ZM120.68437 232.29062Q120.68437 233.47812 121.2 234.07187Q121.73125 234.66562 122.5125 234.66562Q123.30937 234.66562 123.825 234.07187Q124.34062 233.47812 124.34062 232.25937Q124.34062 231.10312 123.80937 230.50937Q123.29375 229.91562 122.5125 229.91562Q121.73125 229.91562 121.2 230.50937Q120.68437 231.0875 120.68437 232.29062ZM127.24687 235.4L127.24687 229.99374L126.30937 229.99374L126.30937 229.18124L127.24687 229.18124L127.24687 228.50937Q127.24687 227.88437 127.35625 227.5875Q127.5125 227.16562 127.8875 226.91562Q128.27812 226.66562 128.96562 226.66562Q129.41875 226.66562 129.95 226.775L129.79375 227.68124Q129.46562 227.63437 129.16875 227.63437Q128.68437 227.63437 128.48125 227.8375Q128.29375 228.04062 128.29375 228.60312L128.29375 229.18124L129.5125 229.18124L129.5125 229.99374L128.29375 229.99374L128.29375 235.4L127.24687 235.4Z" fill-rule="nonzero"/><path fill="#000000" d="M23.246876 299.10092L23.246876 293.69467L22.309376 293.69467L22.309376 292.88217L23.246876 292.88217L23.246876 292.2103Q23.246876 291.5853 23.35625 291.28842Q23.5125 290.86655 23.8875 290.61655Q24.278126 290.36655 24.965626 290.36655Q25.41875 290.36655 25.95 290.47592L25.79375 291.38217Q25.465626 291.3353 25.16875 291.3353Q24.684376 291.3353 24.48125 291.53842Q24.29375 291.74155 24.29375 292.30405L24.29375 292.88217L25.5125 292.88217L25.5125 293.69467L24.29375 293.69467L24.29375 299.10092L23.246876 299.10092ZM25.60625 295.99155Q25.60625 294.25717 26.559376 293.42905Q27.35625 292.74155 28.5125 292.74155Q29.79375 292.74155 30.60625 293.5853Q31.434376 294.41342 31.434376 295.8978Q31.434376 297.10092 31.075 297.78842Q30.715626 298.47592 30.0125 298.86655Q29.325 299.24155 28.5125 299.24155Q27.215626 299.24155 26.403126 298.41342Q25.60625 297.56967 25.60625 295.99155ZM26.684376 295.99155Q26.684376 297.17905 27.2 297.7728Q27.73125 298.36655 28.5125 298.36655Q29.309376 298.36655 29.825 297.7728Q30.340626 297.17905 30.340626 295.9603Q30.340626 294.80405 29.809376 294.2103Q29.29375 293.61655 28.5125 293.61655Q27.73125 293.61655 27.2 294.2103Q26.684376 294.78842 26.684376 295.99155ZM32.98125 299.10092L32.98125 292.88217L33.934376 292.88217L33.934376 293.81967Q34.29375 293.16342 34.590626 292.9603Q34.903126 292.74155 35.278126 292.74155Q35.809376 292.74155 36.35625 293.06967L35.996876 294.05405Q35.60625 293.81967 35.23125 293.81967Q34.871876 293.81967 34.590626 294.03842Q34.325 294.24155 34.215626 294.61655Q34.028126 295.17905 34.028126 295.8353L34.028126 299.10092L32.98125 299.10092ZM37.29375 299.10092L37.29375 297.8978L38.496876 297.8978L38.496876 299.10092L37.29375 299.10092ZM40.29375 299.10092L40.29375 297.8978L41.496876 297.8978L41.496876 299.10092L40.29375 299.10092ZM42.60625 295.99155Q42.60625 294.25717 43.559376 293.42905Q44.35625 292.74155 45.5125 292.74155Q46.79375 292.74155 47.60625 293.5853Q48.434376 294.41342 48.434376 295.8978Q48.434376 297.10092 48.075 297.78842Q47.715626 298.47592 47.0125 298.86655Q46.325 299.24155 45.5125 299.24155Q44.215626 299.24155 43.403126 298.41342Q42.60625 297.56967 42.60625 295.99155ZM43.684376 295.99155Q43.684376 297.17905 44.2 297.7728Q44.73125 298.36655 45.5125 298.36655Q46.309376 298.36655 46.825 297.7728Q47.340626 297.17905 47.340626 295.9603Q47.340626 294.80405 46.809376 294.2103Q46.29375 293.61655 45.5125 293.61655Q44.73125 293.61655 44.2 294.2103Q43.684376 294.78842 43.684376 295.99155ZM50.246876 299.10092L50.246876 293.69467L49.309376 293.69467L49.309376 292.88217L50.246876 292.88217L50.246876 292.2103Q50.246876 291.5853 50.35625 291.28842Q50.5125 290.86655 50.8875 290.61655Q51.278126 290.36655 51.965626 290.36655Q52.41875 290.36655 52.95 290.47592L52.79375 291.38217Q52.465626 291.3353 52.16875 291.3353Q51.684376 291.3353 51.48125 291.53842Q51.29375 291.74155 51.29375 292.30405L51.29375 292.88217L52.5125 292.88217L52.5125 293.69467L51.29375 293.69467L51.29375 299.10092L50.246876 299.10092ZM53.2625 299.10092L53.2625 297.8978L54.465626 297.8978L54.465626 299.10092Q54.465626 299.75717 54.23125 300.16342Q53.996876 300.5853 53.496876 300.80405L53.2 300.35092Q53.528126 300.2103 53.684376 299.91342Q53.840626 299.63217 53.871876 299.10092L53.2625 299.10092ZM63.028126 299.10092L63.028126 298.31967Q62.434376 299.24155 61.29375 299.24155Q60.54375 299.24155 59.91875 298.8353Q59.29375 298.41342 58.95 297.67905Q58.60625 296.94467 58.60625 295.99155Q58.60625 295.06967 58.91875 294.30405Q59.23125 293.53842 59.85625 293.1478Q60.48125 292.74155 61.246876 292.74155Q61.809376 292.74155 62.246876 292.97592Q62.684376 293.2103 62.965626 293.5853L62.965626 290.50717L64.0125 290.50717L64.0125 299.10092L63.028126 299.10092ZM59.7 295.99155Q59.7 297.19467 60.2 297.78842Q60.7 298.36655 61.3875 298.36655Q62.075 298.36655 62.559376 297.80405Q63.04375 297.24155 63.04375 296.0853Q63.04375 294.80405 62.54375 294.2103Q62.059376 293.61655 61.340626 293.61655Q60.6375 293.61655 60.16875 294.19467Q59.7 294.75717 59.7 295.99155ZM70.24687 297.10092L71.34062 297.22592Q71.09062 298.17905 70.3875 298.7103Q69.68437 299.24155 68.60625 299.24155Q67.24687 299.24155 66.43437 298.3978Q65.6375 297.55405 65.6375 296.03842Q65.6375 294.47592 66.45 293.61655Q67.2625 292.74155 68.54375 292.74155Q69.79375 292.74155 70.575 293.5853Q71.37187 294.42905 71.37187 295.97592Q71.37187 296.06967 71.37187 296.25717L66.73125 296.25717Q66.79375 297.28842 67.30937 297.8353Q67.825 298.36655 68.60625 298.36655Q69.18437 298.36655 69.59062 298.06967Q70.0125 297.75717 70.24687 297.10092ZM66.79375 295.3978L70.2625 295.3978Q70.2 294.60092 69.87187 294.2103Q69.35625 293.60092 68.55937 293.60092Q67.825 293.60092 67.325 294.0853Q66.84062 294.56967 66.79375 295.3978ZM72.575 297.24155L73.60625 297.0853Q73.7 297.7103 74.09062 298.03842Q74.49687 298.36655 75.23125 298.36655Q75.95 298.36655 76.29375 298.0853Q76.65312 297.78842 76.65312 297.38217Q76.65312 297.0228 76.34062 296.81967Q76.12187 296.67905 75.2625 296.4603Q74.10625 296.16342 73.65312 295.9603Q73.21562 295.74155 72.98125 295.36655Q72.74687 294.99155 72.74687 294.5228Q72.74687 294.11655 72.93437 293.75717Q73.12187 293.3978 73.45 293.16342Q73.7 292.99155 74.12187 292.86655Q74.54375 292.74155 75.04375 292.74155Q75.7625 292.74155 76.30937 292.9603Q76.87187 293.16342 77.1375 293.5228Q77.40312 293.88217 77.49687 294.47592L76.46562 294.61655Q76.40312 294.1478 76.05937 293.88217Q75.73125 293.60092 75.10625 293.60092Q74.3875 293.60092 74.075 293.85092Q73.7625 294.0853 73.7625 294.41342Q73.7625 294.61655 73.8875 294.7728Q74.02812 294.94467 74.29375 295.05405Q74.45 295.11655 75.23125 295.31967Q76.35625 295.63217 76.79375 295.81967Q77.23125 296.00717 77.48125 296.36655Q77.73125 296.72592 77.73125 297.2728Q77.73125 297.80405 77.41875 298.2728Q77.12187 298.72592 76.54375 298.99155Q75.96562 299.24155 75.23125 299.24155Q74.0125 299.24155 73.37187 298.74155Q72.74687 298.22592 72.575 297.24155ZM81.29375 298.16342L81.45 299.0853Q80.99687 299.17905 80.65312 299.17905Q80.075 299.17905 79.7625 299.00717Q79.45 298.81967 79.30937 298.5228Q79.18437 298.22592 79.18437 297.2728L79.18437 293.69467L78.41875 293.69467L78.41875 292.88217L79.18437 292.88217L79.18437 291.3353L80.23125 290.7103L80.23125 292.88217L81.29375 292.88217L81.29375 293.69467L80.23125 293.69467L80.23125 297.3353Q80.23125 297.78842 80.27812 297.91342Q80.34062 298.03842 80.46562 298.11655Q80.59062 298.19467 80.825 298.19467Q81.0125 298.19467 81.29375 298.16342ZM81.98125 299.10092L81.98125 292.88217L82.93437 292.88217L82.93437 293.81967Q83.29375 293.16342 83.59062 292.9603Q83.90312 292.74155 84.27812 292.74155Q84.80937 292.74155 85.35625 293.06967L84.99687 294.05405Q84.60625 293.81967 84.23125 293.81967Q83.87187 293.81967 83.59062 294.03842Q83.325 294.24155 83.21562 294.61655Q83.02812 295.17905 83.02812 295.8353L83.02812 299.10092L81.98125 299.10092ZM90.075 299.10092L90.075 298.17905Q89.34062 299.24155 88.09062 299.24155Q87.54375 299.24155 87.05937 299.03842Q86.59062 298.81967 86.35625 298.50717Q86.12187 298.17905 86.02812 297.7103Q85.96562 297.41342 85.96562 296.72592L85.96562 292.88217L87.02812 292.88217L87.02812 296.3353Q87.02812 297.1478 87.09062 297.44467Q87.18437 297.85092 87.49687 298.10092Q87.825 298.3353 88.30937 298.3353Q88.77812 298.3353 89.18437 298.10092Q89.60625 297.85092 89.77812 297.42905Q89.96562 297.00717 89.96562 296.2103L89.96562 292.88217L91.0125 292.88217L91.0125 299.10092L90.075 299.10092ZM97.05937 296.81967L98.09062 296.9603Q97.91875 298.0228 97.21562 298.63217Q96.5125 299.24155 95.49687 299.24155Q94.21562 299.24155 93.43437 298.41342Q92.66875 297.56967 92.66875 296.00717Q92.66875 295.00717 92.99687 294.25717Q93.34062 293.49155 94.0125 293.11655Q94.7 292.74155 95.5125 292.74155Q96.5125 292.74155 97.15312 293.25717Q97.80937 293.75717 97.99687 294.7103L96.96562 294.86655Q96.825 294.24155 96.45 293.92905Q96.075 293.60092 95.54375 293.60092Q94.74687 293.60092 94.24687 294.17905Q93.74687 294.74155 93.74687 295.97592Q93.74687 297.24155 94.23125 297.80405Q94.71562 298.36655 95.48125 298.36655Q96.10625 298.36655 96.5125 297.99155Q96.93437 297.61655 97.05937 296.81967ZM101.29375 298.16342L101.45 299.0853Q100.99687 299.17905 100.65312 299.17905Q100.075 299.17905 99.7625 299.00717Q99.45 298.81967 99.30937 298.5228Q99.18437 298.22592 99.18437 297.2728L99.18437 293.69467L98.41875 293.69467L98.41875 292.88217L99.18437 292.88217L99.18437 291.3353L100.23125 290.7103L100.23125 292.88217L101.29375 292.88217L101.29375 293.69467L100.23125 293.69467L100.23125 297.3353Q100.23125 297.78842 100.27812 297.91342Q100.34062 298.03842 100.46562 298.11655Q100.59062 298.19467 100.825 298.19467Q101.0125 298.19467 101.29375 298.16342ZM106.075 299.10092L106.075 298.17905Q105.34062 299.24155 104.09062 299.24155Q103.54375 299.24155 103.05937 299.03842Q102.59062 298.81967 102.35625 298.50717Q102.12187 298.17905 102.02812 297.7103Q101.96562 297.41342 101.96562 296.72592L101.96562 292.88217L103.02812 292.88217L103.02812 296.3353Q103.02812 297.1478 103.09062 297.44467Q103.18437 297.85092 103.49687 298.10092Q103.825 298.3353 104.30937 298.3353Q104.77812 298.3353 105.18437 298.10092Q105.60625 297.85092 105.77812 297.42905Q105.96562 297.00717 105.96562 296.2103L105.96562 292.88217L107.0125 292.88217L107.0125 299.10092L106.075 299.10092ZM108.98125 299.10092L108.98125 292.88217L109.93437 292.88217L109.93437 293.81967Q110.29375 293.16342 110.59062 292.9603Q110.90312 292.74155 111.27812 292.74155Q111.80937 292.74155 112.35625 293.06967L111.99687 294.05405Q111.60625 293.81967 111.23125 293.81967Q110.87187 293.81967 110.59062 294.03842Q110.325 294.24155 110.21562 294.61655Q110.02812 295.17905 110.02812 295.8353L110.02812 299.10092L108.98125 299.10092ZM112.99687 291.72592L112.99687 290.50717L114.05937 290.50717L114.05937 291.72592L112.99687 291.72592ZM112.99687 299.10092L112.99687 292.88217L114.05937 292.88217L114.05937 299.10092L112.99687 299.10092ZM115.99687 299.10092L115.99687 292.88217L116.93437 292.88217L116.93437 293.75717Q117.62187 292.74155 118.91875 292.74155Q119.48125 292.74155 119.95 292.94467Q120.43437 293.1478 120.66875 293.47592Q120.90312 293.80405 120.99687 294.24155Q121.04375 294.53842 121.04375 295.2728L121.04375 299.10092L119.99687 299.10092L119.99687 295.31967Q119.99687 294.66342 119.87187 294.35092Q119.74687 294.03842 119.43437 293.85092Q119.12187 293.6478 118.7 293.6478Q118.02812 293.6478 117.52812 294.0853Q117.04375 294.50717 117.04375 295.69467L117.04375 299.10092L115.99687 299.10092ZM122.79375 299.61655L123.825 299.7728Q123.8875 300.24155 124.18437 300.4603Q124.575 300.75717 125.24687 300.75717Q125.98125 300.75717 126.37187 300.4603Q126.77812 300.16342 126.91875 299.6478Q127.0125 299.31967 126.99687 298.28842Q126.30937 299.10092 125.27812 299.10092Q123.99687 299.10092 123.29375 298.17905Q122.59062 297.24155 122.59062 295.9603Q122.59062 295.06967 122.90312 294.31967Q123.23125 293.55405 123.84062 293.1478Q124.45 292.74155 125.27812 292.74155Q126.3875 292.74155 127.10625 293.63217L127.10625 292.88217L128.075 292.88217L128.075 298.25717Q128.075 299.7103 127.77812 300.31967Q127.48125 300.92905 126.84062 301.2728Q126.2 301.63217 125.2625 301.63217Q124.15312 301.63217 123.46562 301.13217Q122.77812 300.63217 122.79375 299.61655ZM123.66875 295.88217Q123.66875 297.10092 124.15312 297.66342Q124.6375 298.22592 125.37187 298.22592Q126.10625 298.22592 126.59062 297.66342Q127.09062 297.10092 127.09062 295.91342Q127.09062 294.7728 126.575 294.19467Q126.075 293.61655 125.35625 293.61655Q124.65312 293.61655 124.15312 294.19467Q123.66875 294.75717 123.66875 295.88217Z" fill-rule="nonzero"/><path fill="#000000" d="M63.246876 362.80188L63.246876 357.39563L62.309376 357.39563L62.309376 356.58313L63.246876 356.58313L63.246876 355.91125Q63.246876 355.28625 63.35625 354.98938Q63.5125 354.5675 63.8875 354.3175Q64.27812 354.0675 64.96562 354.0675Q65.41875 354.0675 65.95 354.17688L65.79375 355.08313Q65.46562 355.03625 65.16875 355.03625Q64.68437 355.03625 64.48125 355.23938Q64.29375 355.4425 64.29375 356.005L64.29375 356.58313L65.5125 356.58313L65.5125 357.39563L64.29375 357.39563L64.29375 362.80188L63.246876 362.80188ZM65.60625 359.6925Q65.60625 357.95813 66.55937 357.13Q67.35625 356.4425 68.5125 356.4425Q69.79375 356.4425 70.60625 357.28625Q71.43437 358.11438 71.43437 359.59875Q71.43437 360.80188 71.075 361.48938Q70.71562 362.17688 70.0125 362.5675Q69.325 362.9425 68.5125 362.9425Q67.21562 362.9425 66.40312 362.11438Q65.60625 361.27063 65.60625 359.6925ZM66.68437 359.6925Q66.68437 360.88 67.2 361.47375Q67.73125 362.0675 68.5125 362.0675Q69.30937 362.0675 69.825 361.47375Q70.34062 360.88 70.34062 359.66125Q70.34062 358.505 69.80937 357.91125Q69.29375 357.3175 68.5125 357.3175Q67.73125 357.3175 67.2 357.91125Q66.68437 358.48938 66.68437 359.6925ZM72.98125 362.80188L72.98125 356.58313L73.93437 356.58313L73.93437 357.52063Q74.29375 356.86438 74.59062 356.66125Q74.90312 356.4425 75.27812 356.4425Q75.80937 356.4425 76.35625 356.77063L75.99687 357.755Q75.60625 357.52063 75.23125 357.52063Q74.87187 357.52063 74.59062 357.73938Q74.325 357.9425 74.21562 358.3175Q74.02812 358.88 74.02812 359.53625L74.02812 362.80188L72.98125 362.80188ZM77.2625 362.80188L77.2625 361.59875L78.46562 361.59875L78.46562 362.80188Q78.46562 363.45813 78.23125 363.86438Q77.99687 364.28625 77.49687 364.505L77.2 364.05188Q77.52812 363.91125 77.68437 363.61438Q77.84062 363.33313 77.87187 362.80188L77.2625 362.80188ZM82.99687 355.42688L82.99687 354.20813L84.05937 354.20813L84.05937 355.42688L82.99687 355.42688ZM82.99687 362.80188L82.99687 356.58313L84.05937 356.58313L84.05937 362.80188L82.99687 362.80188ZM85.99687 362.80188L85.99687 356.58313L86.93437 356.58313L86.93437 357.45813Q87.62187 356.4425 88.91875 356.4425Q89.48125 356.4425 89.95 356.64563Q90.43437 356.84875 90.66875 357.17688Q90.90312 357.505 90.99687 357.9425Q91.04375 358.23938 91.04375 358.97375L91.04375 362.80188L89.99687 362.80188L89.99687 359.02063Q89.99687 358.36438 89.87187 358.05188Q89.74687 357.73938 89.43437 357.55188Q89.12187 357.34875 88.7 357.34875Q88.02812 357.34875 87.52812 357.78625Q87.04375 358.20813 87.04375 359.39563L87.04375 362.80188L85.99687 362.80188ZM92.99687 355.42688L92.99687 354.20813L94.05937 354.20813L94.05937 355.42688L92.99687 355.42688ZM92.99687 362.80188L92.99687 356.58313L94.05937 356.58313L94.05937 362.80188L92.99687 362.80188ZM98.29375 361.86438L98.45 362.78625Q97.99687 362.88 97.65312 362.88Q97.075 362.88 96.7625 362.70813Q96.45 362.52063 96.30937 362.22375Q96.18437 361.92688 96.18437 360.97375L96.18437 357.39563L95.41875 357.39563L95.41875 356.58313L96.18437 356.58313L96.18437 355.03625L97.23125 354.41125L97.23125 356.58313L98.29375 356.58313L98.29375 357.39563L97.23125 357.39563L97.23125 361.03625Q97.23125 361.48938 97.27812 361.61438Q97.34062 361.73938 97.46562 361.8175Q97.59062 361.89563 97.825 361.89563Q98.0125 361.89563 98.29375 361.86438ZM106.05937 362.03625Q105.46562 362.53625 104.91875 362.73938Q104.3875 362.9425 103.7625 362.9425Q102.73125 362.9425 102.18437 362.4425Q101.6375 361.9425 101.6375 361.16125Q101.6375 360.70813 101.84062 360.33313Q102.04375 359.9425 102.3875 359.72375Q102.73125 359.48938 103.15312 359.38Q103.45 359.28625 104.09062 359.20813Q105.35625 359.0675 105.96562 358.84875Q105.96562 358.63 105.96562 358.58313Q105.96562 357.92688 105.66875 357.66125Q105.2625 357.3175 104.46562 357.3175Q103.73125 357.3175 103.37187 357.58313Q103.0125 357.83313 102.84062 358.48938L101.80937 358.34875Q101.95 357.6925 102.27812 357.28625Q102.60625 356.88 103.21562 356.66125Q103.825 356.4425 104.62187 356.4425Q105.41875 356.4425 105.91875 356.63Q106.41875 356.8175 106.65312 357.09875Q106.8875 357.38 106.98125 357.8175Q107.02812 358.08313 107.02812 358.78625L107.02812 360.1925Q107.02812 361.66125 107.09062 362.05188Q107.16875 362.4425 107.37187 362.80188L106.2625 362.80188Q106.10625 362.47375 106.05937 362.03625ZM105.96562 359.67688Q105.3875 359.91125 104.24687 360.08313Q103.59062 360.17688 103.325 360.30188Q103.05937 360.41125 102.90312 360.63Q102.7625 360.84875 102.7625 361.13Q102.7625 361.55188 103.075 361.83313Q103.40312 362.11438 104.0125 362.11438Q104.62187 362.11438 105.09062 361.84875Q105.575 361.58313 105.79375 361.11438Q105.96562 360.755 105.96562 360.0675L105.96562 359.67688ZM108.98125 362.80188L108.98125 356.58313L109.93437 356.58313L109.93437 357.52063Q110.29375 356.86438 110.59062 356.66125Q110.90312 356.4425 111.27812 356.4425Q111.80937 356.4425 112.35625 356.77063L111.99687 357.755Q111.60625 357.52063 111.23125 357.52063Q110.87187 357.52063 110.59062 357.73938Q110.325 357.9425 110.21562 358.3175Q110.02812 358.88 110.02812 359.53625L110.02812 362.80188L108.98125 362.80188ZM112.98125 362.80188L112.98125 356.58313L113.93437 356.58313L113.93437 357.52063Q114.29375 356.86438 114.59062 356.66125Q114.90312 356.4425 115.27812 356.4425Q115.80937 356.4425 116.35625 356.77063L115.99687 357.755Q115.60625 357.52063 115.23125 357.52063Q114.87187 357.52063 114.59062 357.73938Q114.325 357.9425 114.21562 358.3175Q114.02812 358.88 114.02812 359.53625L114.02812 362.80188L112.98125 362.80188ZM121.05937 362.03625Q120.46562 362.53625 119.91875 362.73938Q119.3875 362.9425 118.7625 362.9425Q117.73125 362.9425 117.18437 362.4425Q116.6375 361.9425 116.6375 361.16125Q116.6375 360.70813 116.84062 360.33313Q117.04375 359.9425 117.3875 359.72375Q117.73125 359.48938 118.15312 359.38Q118.45 359.28625 119.09062 359.20813Q120.35625 359.0675 120.96562 358.84875Q120.96562 358.63 120.96562 358.58313Q120.96562 357.92688 120.66875 357.66125Q120.2625 357.3175 119.46562 357.3175Q118.73125 357.3175 118.37187 357.58313Q118.0125 357.83313 117.84062 358.48938L116.80937 358.34875Q116.95 357.6925 117.27812 357.28625Q117.60625 356.88 118.21562 356.66125Q118.825 356.4425 119.62187 356.4425Q120.41875 356.4425 120.91875 356.63Q121.41875 356.8175 121.65312 357.09875Q121.8875 357.38 121.98125 357.8175Q122.02812 358.08313 122.02812 358.78625L122.02812 360.1925Q122.02812 361.66125 122.09062 362.05188Q122.16875 362.4425 122.37187 362.80188L121.2625 362.80188Q121.10625 362.47375 121.05937 362.03625ZM120.96562 359.67688Q120.3875 359.91125 119.24687 360.08313Q118.59062 360.17688 118.325 360.30188Q118.05937 360.41125 117.90312 360.63Q117.7625 360.84875 117.7625 361.13Q117.7625 361.55188 118.075 361.83313Q118.40312 362.11438 119.0125 362.11438Q119.62187 362.11438 120.09062 361.84875Q120.575 361.58313 120.79375 361.11438Q120.96562 360.755 120.96562 360.0675L120.96562 359.67688ZM123.95 365.1925L123.825 364.20813Q124.16875 364.30188 124.43437 364.30188Q124.77812 364.30188 124.98125 364.17688Q125.2 364.0675 125.34062 363.86438Q125.43437 363.6925 125.66875 363.0675Q125.68437 362.98938 125.7625 362.8175L123.3875 356.58313L124.52812 356.58313L125.825 360.17688Q126.075 360.86438 126.27812 361.63Q126.46562 360.89563 126.71562 360.20813L128.04375 356.58313L129.09062 356.58313L126.73125 362.91125Q126.34062 363.92688 126.1375 364.3175Q125.85625 364.84875 125.48125 365.08313Q125.12187 365.33313 124.62187 365.33313Q124.325 365.33313 123.95 365.1925Z" fill-rule="nonzero"/><path fill="#000000" d="M132.2 414.5656Q132.2 413.03436 132.5125 412.1125Q132.825 411.175 133.43437 410.675Q134.05937 410.175 134.99687 410.175Q135.68437 410.175 136.2 410.45624Q136.73125 410.7375 137.075 411.26874Q137.41875 411.78436 137.60625 412.53436Q137.79375 413.28436 137.79375 414.5656Q137.79375 416.08124 137.48125 417.0031Q137.18437 417.925 136.55937 418.4406Q135.95 418.9406 134.99687 418.9406Q133.7625 418.9406 133.04375 418.05Q132.2 416.9875 132.2 414.5656ZM133.27812 414.5656Q133.27812 416.675 133.77812 417.3781Q134.27812 418.08124 134.99687 418.08124Q135.73125 418.08124 136.21562 417.3781Q136.71562 416.675 136.71562 414.5656Q136.71562 412.4406 136.21562 411.7531Q135.73125 411.05 134.98125 411.05Q134.2625 411.05 133.825 411.65936Q133.27812 412.4406 133.27812 414.5656Z" fill-rule="nonzero"/><path fill="#000000" d="M315.39688 417.78436L315.39688 418.8L309.70938 418.8Q309.70938 418.425 309.83438 418.0656Q310.05313 417.4875 310.52188 416.925Q311.00626 416.3625 311.9125 415.6281Q313.31876 414.47186 313.80313 413.8Q314.30313 413.1281 314.30313 412.53436Q314.30313 411.90936 313.85 411.4875Q313.39688 411.05 312.67813 411.05Q311.9125 411.05 311.45938 411.5031Q311.00626 411.95624 310.99063 412.76874L309.9125 412.65936Q310.02188 411.4406 310.74063 410.8156Q311.475 410.175 312.70938 410.175Q313.94376 410.175 314.6625 410.8625Q315.38126 411.55 315.38126 412.5656Q315.38126 413.08124 315.1625 413.58124Q314.95938 414.0656 314.45938 414.6281Q313.975 415.175 312.85 416.1281Q311.89688 416.925 311.61563 417.22186Q311.35 417.5031 311.17813 417.78436L315.39688 417.78436ZM316.85 414.5656Q316.85 413.03436 317.1625 412.1125Q317.475 411.175 318.08438 410.675Q318.70938 410.175 319.64688 410.175Q320.33438 410.175 320.85 410.45624Q321.38126 410.7375 321.725 411.26874Q322.06876 411.78436 322.25626 412.53436Q322.44376 413.28436 322.44376 414.5656Q322.44376 416.08124 322.13126 417.0031Q321.83438 417.925 321.20938 418.4406Q320.6 418.9406 319.64688 418.9406Q318.4125 418.9406 317.69376 418.05Q316.85 416.9875 316.85 414.5656ZM317.92813 414.5656Q317.92813 416.675 318.42813 417.3781Q318.92813 418.08124 319.64688 418.08124Q320.38126 418.08124 320.86563 417.3781Q321.36563 416.675 321.36563 414.5656Q321.36563 412.4406 320.86563 411.7531Q320.38126 411.05 319.63126 411.05Q318.9125 411.05 318.475 411.65936Q317.92813 412.4406 317.92813 414.5656Z" fill-rule="nonzero"/><path fill="#000000" d="M494.375 418.8L494.375 416.7375L490.65625 416.7375L490.65625 415.76874L494.57812 410.20624L495.4375 410.20624L495.4375 415.76874L496.59375 415.76874L496.59375 416.7375L495.4375 416.7375L495.4375 418.8L494.375 418.8ZM494.375 415.76874L494.375 411.90936L491.6875 415.76874L494.375 415.76874ZM498.0 414.5656Q498.0 413.03436 498.3125 412.1125Q498.625 411.175 499.23438 410.675Q499.85938 410.175 500.79688 410.175Q501.48438 410.175 502.0 410.45624Q502.53125 410.7375 502.875 411.26874Q503.21875 411.78436 503.40625 412.53436Q503.59375 413.28436 503.59375 414.5656Q503.59375 416.08124 503.28125 417.0031Q502.98438 417.925 502.35938 418.4406Q501.75 418.9406 500.79688 418.9406Q499.5625 418.9406 498.84375 418.05Q498.0 416.9875 498.0 414.5656ZM499.07812 414.5656Q499.07812 416.675 499.57812 417.3781Q500.07812 418.08124 500.79688 418.08124Q501.53125 418.08124 502.01562 417.3781Q502.51562 416.675 502.51562 414.5656Q502.51562 412.4406 502.01562 411.7531Q501.53125 411.05 500.78125 411.05Q500.0625 411.05 499.625 411.65936Q499.07812 412.4406 499.07812 414.5656Z" fill-rule="nonzero"/><path fill="#000000" d="M677.6188 412.3156L676.5719 412.39374Q676.4313 411.76874 676.1813 411.4875Q675.7438 411.03436 675.1188 411.03436Q674.6188 411.03436 674.22815 411.3156Q673.7438 411.6906 673.4469 412.39374Q673.16565 413.08124 673.15 414.3625Q673.525 413.78436 674.0719 413.5031Q674.6344 413.22186 675.2438 413.22186Q676.29065 413.22186 677.025 414.0031Q677.775 414.78436 677.775 416.0031Q677.775 416.8156 677.41565 417.51874Q677.0719 418.20624 676.4625 418.58124Q675.85315 418.9406 675.0875 418.9406Q673.7594 418.9406 672.9313 417.97186Q672.10315 417.0031 672.10315 414.78436Q672.10315 412.28436 673.025 411.15936Q673.8219 410.175 675.1813 410.175Q676.1969 410.175 676.8375 410.7531Q677.4938 411.3156 677.6188 412.3156ZM673.3219 416.01874Q673.3219 416.5656 673.54065 417.0656Q673.775 417.55 674.1813 417.8156Q674.60315 418.08124 675.0719 418.08124Q675.72815 418.08124 676.2125 417.55Q676.6969 417.0031 676.6969 416.08124Q676.6969 415.1906 676.2125 414.675Q675.7438 414.15936 675.025 414.15936Q674.3063 414.15936 673.8063 414.675Q673.3219 415.1906 673.3219 416.01874ZM679.15 414.5656Q679.15 413.03436 679.4625 412.1125Q679.775 411.175 680.3844 410.675Q681.0094 410.175 681.9469 410.175Q682.6344 410.175 683.15 410.45624Q683.6813 410.7375 684.025 411.26874Q684.3688 411.78436 684.5563 412.53436Q684.7438 413.28436 684.7438 414.5656Q684.7438 416.08124 684.4313 417.0031Q684.1344 417.925 683.5094 418.4406Q682.9 418.9406 681.9469 418.9406Q680.7125 418.9406 679.9938 418.05Q679.15 416.9875 679.15 414.5656ZM680.22815 414.5656Q680.22815 416.675 680.72815 417.3781Q681.22815 418.08124 681.9469 418.08124Q682.6813 418.08124 683.16565 417.3781Q683.66565 416.675 683.66565 414.5656Q683.66565 412.4406 683.16565 411.7531Q682.6813 411.05 681.9313 411.05Q681.2125 411.05 680.775 411.65936Q680.22815 412.4406 680.22815 414.5656Z" fill-rule="nonzero"/><path fill="#000000" d="M854.925 414.14374Q854.26874 413.89374 853.9406 413.45624Q853.6281 413.0031 853.6281 412.39374Q853.6281 411.45624 854.3 410.8156Q854.9875 410.175 856.09686 410.175Q857.22186 410.175 857.90936 410.83124Q858.59686 411.4875 858.59686 412.425Q858.59686 413.01874 858.28436 413.45624Q857.97186 413.89374 857.33124 414.14374Q858.1281 414.39374 858.53436 414.97186Q858.9406 415.55 858.9406 416.34686Q858.9406 417.4406 858.15936 418.1906Q857.39374 418.9406 856.1125 418.9406Q854.84686 418.9406 854.0656 418.1906Q853.28436 417.4406 853.28436 416.3156Q853.28436 415.47186 853.70624 414.90936Q854.14374 414.34686 854.925 414.14374ZM854.70624 412.34686Q854.70624 412.95624 855.09686 413.34686Q855.5031 413.7375 856.1281 413.7375Q856.7375 413.7375 857.1281 413.3625Q857.51874 412.97186 857.51874 412.40936Q857.51874 411.83124 857.1125 411.4406Q856.70624 411.03436 856.1125 411.03436Q855.5031 411.03436 855.09686 411.425Q854.70624 411.8156 854.70624 412.34686ZM854.3781 416.3156Q854.3781 416.76874 854.58124 417.1906Q854.8 417.6125 855.22186 417.84686Q855.64374 418.08124 856.1281 418.08124Q856.8781 418.08124 857.3625 417.59686Q857.8625 417.1125 857.8625 416.3625Q857.8625 415.59686 857.3625 415.09686Q856.8625 414.59686 856.09686 414.59686Q855.34686 414.59686 854.8625 415.09686Q854.3781 415.58124 854.3781 416.3156ZM860.3 414.5656Q860.3 413.03436 860.6125 412.1125Q860.925 411.175 861.53436 410.675Q862.15936 410.175 863.09686 410.175Q863.78436 410.175 864.3 410.45624Q864.83124 410.7375 865.175 411.26874Q865.51874 411.78436 865.70624 412.53436Q865.89374 413.28436 865.89374 414.5656Q865.89374 416.08124 865.58124 417.0031Q865.28436 417.925 864.65936 418.4406Q864.05 418.9406 863.09686 418.9406Q861.8625 418.9406 861.14374 418.05Q860.3 416.9875 860.3 414.5656ZM861.3781 414.5656Q861.3781 416.675 861.8781 417.3781Q862.3781 418.08124 863.09686 418.08124Q863.83124 418.08124 864.3156 417.3781Q864.8156 416.675 864.8156 414.5656Q864.8156 412.4406 864.3156 411.7531Q863.83124 411.05 863.08124 411.05Q862.3625 411.05 861.925 411.65936Q861.3781 412.4406 861.3781 414.5656Z" fill-rule="nonzero"/><path fill="#757575" d="M23.6375 41.2L23.6375 38.45L26.3875 38.45L26.3875 41.2L23.6375 41.2ZM29.434376 30.825L31.965626 30.825L31.965626 32.246876Q33.325 30.590626 35.2 30.590626Q36.184376 30.590626 36.91875 31.0125Q37.653126 31.41875 38.121876 32.246876Q38.809376 31.41875 39.590626 31.0125Q40.3875 30.590626 41.29375 30.590626Q42.434376 30.590626 43.215626 31.059376Q44.0125 31.528126 44.403126 32.41875Q44.684376 33.090626 44.684376 34.575L44.684376 41.2L41.934376 41.2L41.934376 35.278126Q41.934376 33.73125 41.653126 33.278126Q41.278126 32.7 40.48125 32.7Q39.903126 32.7 39.3875 33.059376Q38.8875 33.403126 38.66875 34.075Q38.45 34.746876 38.45 36.215626L38.45 41.2L35.7 41.2L35.7 35.5125Q35.7 33.996876 35.54375 33.559376Q35.403126 33.121876 35.090626 32.91875Q34.79375 32.7 34.2625 32.7Q33.6375 32.7 33.121876 33.04375Q32.621876 33.371876 32.3875 34.028126Q32.16875 34.66875 32.16875 36.153126L32.16875 41.2L29.434376 41.2L29.434376 30.825ZM49.684376 33.996876L47.2 33.54375Q47.621876 32.04375 48.6375 31.325Q49.66875 30.590626 51.684376 30.590626Q53.528126 30.590626 54.41875 31.028126Q55.325 31.465626 55.684376 32.1375Q56.059376 32.79375 56.059376 34.590626L56.028126 37.79375Q56.028126 39.153126 56.153126 39.809376Q56.29375 40.45 56.653126 41.2L53.934376 41.2Q53.825 40.91875 53.66875 40.3875Q53.60625 40.1375 53.575 40.059376Q52.871876 40.746876 52.059376 41.090626Q51.2625 41.434376 50.35625 41.434376Q48.7625 41.434376 47.840626 40.575Q46.91875 39.7 46.91875 38.371876Q46.91875 37.48125 47.325 36.79375Q47.746876 36.10625 48.496876 35.746876Q49.2625 35.371876 50.7 35.10625Q52.621876 34.746876 53.35625 34.434376L53.35625 34.153126Q53.35625 33.371876 52.965626 33.04375Q52.575 32.7 51.496876 32.7Q50.7625 32.7 50.340626 32.98125Q49.934376 33.2625 49.684376 33.996876ZM53.35625 36.215626Q52.825 36.3875 51.684376 36.6375Q50.54375 36.8875 50.2 37.121876Q49.653126 37.496876 49.653126 38.090626Q49.653126 38.653126 50.075 39.075Q50.5125 39.496876 51.184376 39.496876Q51.91875 39.496876 52.590626 39.0125Q53.090626 38.6375 53.246876 38.10625Q53.35625 37.746876 53.35625 36.7625L53.35625 36.215626ZM58.559376 30.825L61.121876 30.825L61.121876 32.35625Q61.621876 31.575 62.465626 31.090626Q63.309376 30.590626 64.35625 30.590626Q66.15312 30.590626 67.40312 32.0125Q68.66875 33.41875 68.66875 35.95Q68.66875 38.559376 67.40312 39.996876Q66.1375 41.434376 64.325 41.434376Q63.465626 41.434376 62.7625 41.090626Q62.075 40.746876 61.309376 39.91875L61.309376 45.153126L58.559376 45.153126L58.559376 30.825ZM61.278126 35.840626Q61.278126 37.590626 61.965626 38.434376Q62.653126 39.2625 63.653126 39.2625Q64.60625 39.2625 65.24687 38.496876Q65.8875 37.715626 65.8875 35.98125Q65.8875 34.340626 65.23125 33.559376Q64.575 32.7625 63.60625 32.7625Q62.60625 32.7625 61.934376 33.54375Q61.278126 34.309376 61.278126 35.840626ZM79.48125 41.2L75.30937 30.825L78.18437 30.825L80.1375 36.121876L80.71562 37.8875Q80.93437 37.215626 80.99687 36.996876Q81.12187 36.559376 81.27812 36.121876L83.2625 30.825L86.075 30.825L81.96562 41.2L79.48125 41.2ZM86.66875 38.246876L89.41875 37.825Q89.60625 38.621876 90.1375 39.04375Q90.66875 39.45 91.6375 39.45Q92.7 39.45 93.24687 39.059376Q93.60625 38.79375 93.60625 38.325Q93.60625 38.0125 93.40312 37.809376Q93.2 37.621876 92.49687 37.45Q89.16875 36.715626 88.27812 36.10625Q87.04375 35.278126 87.04375 33.778126Q87.04375 32.434376 88.10625 31.5125Q89.18437 30.590626 91.41875 30.590626Q93.54375 30.590626 94.575 31.29375Q95.62187 31.98125 96.0125 33.340626L93.41875 33.809376Q93.24687 33.215626 92.77812 32.8875Q92.325 32.559376 91.46562 32.559376Q90.3875 32.559376 89.91875 32.871876Q89.60625 33.090626 89.60625 33.41875Q89.60625 33.715626 89.87187 33.91875Q90.24687 34.2 92.43437 34.7Q94.62187 35.2 95.49687 35.91875Q96.35625 36.653126 96.35625 37.95Q96.35625 39.3875 95.16875 40.41875Q93.98125 41.434376 91.6375 41.434376Q89.52812 41.434376 88.27812 40.575Q87.04375 39.715626 86.66875 38.246876ZM103.43437 30.825L104.96562 30.825L104.96562 30.04375Q104.96562 28.73125 105.23125 28.090626Q105.5125 27.45 106.2625 27.04375Q107.0125 26.6375 108.15312 26.6375Q109.325 26.6375 110.45 26.996876L110.075 28.903126Q109.41875 28.746876 108.80937 28.746876Q108.21562 28.746876 107.95 29.028126Q107.7 29.309376 107.7 30.090626L107.7 30.825L109.74687 30.825L109.74687 32.98125L107.7 32.98125L107.7 41.2L104.96562 41.2L104.96562 32.98125L103.43437 32.98125L103.43437 30.825ZM110.99687 35.871876Q110.99687 34.496876 111.66875 33.215626Q112.35625 31.934376 113.59062 31.2625Q114.825 30.590626 116.34062 30.590626Q118.7 30.590626 120.2 32.121876Q121.7 33.653126 121.7 35.98125Q121.7 38.340626 120.18437 39.8875Q118.66875 41.434376 116.35625 41.434376Q114.93437 41.434376 113.6375 40.79375Q112.35625 40.1375 111.66875 38.903126Q110.99687 37.653126 110.99687 35.871876ZM113.80937 36.0125Q113.80937 37.559376 114.54375 38.3875Q115.27812 39.2 116.35625 39.2Q117.43437 39.2 118.15312 38.3875Q118.8875 37.559376 118.8875 35.996876Q118.8875 34.465626 118.15312 33.653126Q117.43437 32.825 116.35625 32.825Q115.27812 32.825 114.54375 33.653126Q113.80937 34.465626 113.80937 36.0125ZM126.2625 41.2L123.5125 41.2L123.5125 30.825L126.075 30.825L126.075 32.309376Q126.71562 31.2625 127.23125 30.934376Q127.7625 30.590626 128.43437 30.590626Q129.37187 30.590626 130.23125 31.10625L129.3875 33.496876Q128.7 33.059376 128.10625 33.059376Q127.52812 33.059376 127.12187 33.371876Q126.71562 33.684376 126.48125 34.528126Q126.2625 35.35625 126.2625 37.996876L126.2625 41.2ZM140.48125 41.2L136.30937 30.825L139.18437 30.825L141.1375 36.121876L141.71562 37.8875Q141.93437 37.215626 141.99687 36.996876Q142.12187 36.559376 142.27812 36.121876L144.2625 30.825L147.075 30.825L142.96562 41.2L140.48125 41.2ZM147.66875 38.246876L150.41875 37.825Q150.60625 38.621876 151.1375 39.04375Q151.66875 39.45 152.6375 39.45Q153.7 39.45 154.24687 39.059376Q154.60625 38.79375 154.60625 38.325Q154.60625 38.0125 154.40312 37.809376Q154.2 37.621876 153.49687 37.45Q150.16875 36.715626 149.27812 36.10625Q148.04375 35.278126 148.04375 33.778126Q148.04375 32.434376 149.10625 31.5125Q150.18437 30.590626 152.41875 30.590626Q154.54375 30.590626 155.575 31.29375Q156.62187 31.98125 157.0125 33.340626L154.41875 33.809376Q154.24687 33.215626 153.77812 32.8875Q153.325 32.559376 152.46562 32.559376Q151.3875 32.559376 150.91875 32.871876Q150.60625 33.090626 150.60625 33.41875Q150.60625 33.715626 150.87187 33.91875Q151.24687 34.2 153.43437 34.7Q155.62187 35.2 156.49687 35.91875Q157.35625 36.653126 157.35625 37.95Q157.35625 39.3875 156.16875 40.41875Q154.98125 41.434376 152.6375 41.434376Q150.52812 41.434376 149.27812 40.575Q148.04375 39.715626 147.66875 38.246876ZM164.43437 30.825L165.96562 30.825L165.96562 30.04375Q165.96562 28.73125 166.23125 28.090626Q166.5125 27.45 167.2625 27.04375Q168.0125 26.6375 169.15312 26.6375Q170.325 26.6375 171.45 26.996876L171.075 28.903126Q170.41875 28.746876 169.80937 28.746876Q169.21562 28.746876 168.95 29.028126Q168.7 29.309376 168.7 30.090626L168.7 30.825L170.74687 30.825L170.74687 32.98125L168.7 32.98125L168.7 41.2L165.96562 41.2L165.96562 32.98125L164.43437 32.98125L164.43437 30.825ZM171.99687 35.871876Q171.99687 34.496876 172.66875 33.215626Q173.35625 31.934376 174.59062 31.2625Q175.825 30.590626 177.34062 30.590626Q179.7 30.590626 181.2 32.121876Q182.7 33.653126 182.7 35.98125Q182.7 38.340626 181.18437 39.8875Q179.66875 41.434376 177.35625 41.434376Q175.93437 41.434376 174.6375 40.79375Q173.35625 40.1375 172.66875 38.903126Q171.99687 37.653126 171.99687 35.871876ZM174.80937 36.0125Q174.80937 37.559376 175.54375 38.3875Q176.27812 39.2 177.35625 39.2Q178.43437 39.2 179.15312 38.3875Q179.8875 37.559376 179.8875 35.996876Q179.8875 34.465626 179.15312 33.653126Q178.43437 32.825 177.35625 32.825Q176.27812 32.825 175.54375 33.653126Q174.80937 34.465626 174.80937 36.0125ZM187.2625 41.2L184.5125 41.2L184.5125 30.825L187.075 30.825L187.075 32.309376Q187.71562 31.2625 188.23125 30.934376Q188.7625 30.590626 189.43437 30.590626Q190.37187 30.590626 191.23125 31.10625L190.3875 33.496876Q189.7 33.059376 189.10625 33.059376Q188.52812 33.059376 188.12187 33.371876Q187.71562 33.684376 187.48125 34.528126Q187.2625 35.35625 187.2625 37.996876L187.2625 41.2ZM192.6375 41.2L192.6375 38.45L195.3875 38.45L195.3875 41.2L192.6375 41.2ZM198.6375 41.2L198.6375 38.45L201.3875 38.45L201.3875 41.2L198.6375 41.2ZM203.99687 35.871876Q203.99687 34.496876 204.66875 33.215626Q205.35625 31.934376 206.59062 31.2625Q207.825 30.590626 209.34062 30.590626Q211.7 30.590626 213.2 32.121876Q214.7 33.653126 214.7 35.98125Q214.7 38.340626 213.18437 39.8875Q211.66875 41.434376 209.35625 41.434376Q207.93437 41.434376 206.6375 40.79375Q205.35625 40.1375 204.66875 38.903126Q203.99687 37.653126 203.99687 35.871876ZM206.80937 36.0125Q206.80937 37.559376 207.54375 38.3875Q208.27812 39.2 209.35625 39.2Q210.43437 39.2 211.15312 38.3875Q211.8875 37.559376 211.8875 35.996876Q211.8875 34.465626 211.15312 33.653126Q210.43437 32.825 209.35625 32.825Q208.27812 32.825 207.54375 33.653126Q206.80937 34.465626 206.80937 36.0125ZM215.43437 30.825L216.96562 30.825L216.96562 30.04375Q216.96562 28.73125 217.23125 28.090626Q217.5125 27.45 218.2625 27.04375Q219.0125 26.6375 220.15312 26.6375Q221.325 26.6375 222.45 26.996876L222.075 28.903126Q221.41875 28.746876 220.80937 28.746876Q220.21562 28.746876 219.95 29.028126Q219.7 29.309376 219.7 30.090626L219.7 30.825L221.74687 30.825L221.74687 32.98125L219.7 32.98125L219.7 41.2L216.96562 41.2L216.96562 32.98125L215.43437 32.98125L215.43437 30.825Z" fill-rule="nonzero"/></svg>