<svg version="1.1" viewBox="0.0 0.0 882.0 444.0" fill="none" stroke="none" stroke-linecap="square" stroke-miterlimit="10" width="882" height="444" xmlns:xlink="http://www.w3.org/1999/xlink" xmlns="http://www.w3.org/2000/svg"><path fill="#ffffff" d="M0 0L882.0 0L882.0 444.0L0 444.0L0 0Z" fill-rule="nonzero"/><path stroke="#333333" stroke-width="1.0" stroke-linecap="butt" d="M136.5 61.5L136.5 401.5" fill-rule="nonzero"/><path stroke="#cccccc" stroke-width="1.0" stroke-linecap="butt" d="M377.5 61.5L377.5 401.5" fill-rule="nonzero"/><path stroke="#cccccc" stroke-width="1.0" stroke-linecap="butt" d="M618.5 61.5L618.5 401.5" fill-rule="nonzero"/><path stroke="#cccccc" stroke-width="1.0" stroke-linecap="butt" d="M859.5 61.5L859.5 401.5" fill-rule="nonzero"/><clipPath id="id_0"><path d="M136.2 61.0L859.8 61.0L859.8 401.8L136.2 401.8L136.2 61.0Z" clip-rule="nonzero"/></clipPath><path stroke="#000000" stroke-width="2.0" stroke-linecap="butt" stroke-opacity="0.0" clip-path="url(#id_0)" d="M136.0 125.0L136.0 84.0L350.0 84.0C351.10458 84.0 352.0 84.89543 352.0 86.0L352.0 123.0C352.0 124.10457 351.10458 125.0 350.0 125.0Z" fill-rule="nonzero"/><path fill="#129a74" clip-path="url(#id_0)" d="M136.0 125.0L136.0 84.0L350.0 84.0C351.10458 84.0 352.0 84.89543 352.0 86.0L352.0 123.0C352.0 124.10457 351.10458 125.0 350.0 125.0Z" fill-rule="nonzero"/><path stroke="#000000" stroke-width="2.0" stroke-linecap="butt" stroke-opacity="0.0" clip-path="url(#id_0)" d="M136.0 189.0L136.0 148.0L361.0 148.0C362.10458 148.0 363.0 148.89543 363.0 150.0L363.0 187.0C363.0 188.10457 362.10458 189.0 361.0 189.0Z" fill-rule="nonzero"/><path fill="#129a74" clip-path="url(#id_0)" d="M136.0 189.0L136.0 148.0L361.0 148.0C362.10458 148.0 363.0 148.89543 363.0 150.0L363.0 187.0C363.0 188.10457 362.10458 189.0 361.0 189.0Z" fill-rule="nonzero"/><path stroke="#000000" stroke-width="2.0" stroke-linecap="butt" stroke-opacity="0.0" clip-path="url(#id_0)" d="M136.0 252.0L136.0 211.0L440.0 211.0C441.10458 211.0 442.0 211.89543 442.0 213.0L442.0 250.0C442.0 251.10457 441.10458 252.0 440.0 252.0Z" fill-rule="nonzero"/><path fill="#129a74" clip-path="url(#id_0)" d="M136.0 252.0L136.0 211.0L440.0 211.0C441.10458 211.0 442.0 211.89543 442.0 213.0L442.0 250.0C442.0 251.10457 441.10458 252.0 440.0 252.0Z" fill-rule="nonzero"/><path stroke="#000000" stroke-width="2.0" stroke-linecap="butt" stroke-opacity="0.0" clip-path="url(#id_0)" d="M136.0 316.0L136.0 275.0L443.0 275.0C444.10458 275.0 445.0 275.89542 445.0 277.0L445.0 314.0C445.0 315.10458 444.10458 316.0 443.0 316.0Z" fill-rule="nonzero"/><path fill="#129a74" clip-path="url(#id_0)" d="M136.0 316.0L136.0 275.0L443.0 275.0C444.10458 275.0 445.0 275.89542 445.0 277.0L445.0 314.0C445.0 315.10458 444.10458 316.0 443.0 316.0Z" fill-rule="nonzero"/><path stroke="#000000" stroke-width="2.0" stroke-linecap="butt" stroke-opacity="0.0" clip-path="url(#id_0)" d="M136.0 380.0L136.0 339.0L858.0 339.0C859.10455 339.0 860.0 339.89542 860.0 341.0L860.0 378.0C860.0 379.10458 859.10455 380.0 858.0 380.0Z" fill-rule="nonzero"/><path fill="#129a74" clip-path="url(#id_0)" d="M136.0 380.0L136.0 339.0L858.0 339.0C859.10455 339.0 860.0 339.89542 860.0 341.0L860.0 378.0C860.0 379.10458 859.10455 380.0 858.0 380.0Z" fill-rule="nonzero"/><path stroke="#129a74" stroke-width="3.0" stroke-linejoin="round" stroke-linecap="round" d="M321.50702 105.640625L322.69452 105.640625L322.69452 106.515625L321.50702 106.515625L321.50702 108.5L320.4289 108.5L320.4289 106.515625L316.53827 106.515625L316.53827 105.875L320.35077 99.96875L321.50702 99.96875L321.50702 105.640625ZM317.77264 105.640625L320.4289 105.640625L320.4289 101.453125L320.28827 101.6875L317.77264 105.640625ZM328.50702 105.640625L329.69452 105.640625L329.69452 106.515625L328.50702 106.515625L328.50702 108.5L327.4289 108.5L327.4289 106.515625L323.53827 106.515625L323.53827 105.875L327.35077 99.96875L328.50702 99.96875L328.50702 105.640625ZM324.77264 105.640625L327.4289 105.640625L327.4289 101.453125L327.28827 101.6875L324.77264 105.640625ZM331.06952 107.9375Q331.06952 107.65625 331.22577 107.46875Q331.39764 107.28125 331.72577 107.28125Q332.06952 107.28125 332.2414 107.46875Q332.41327 107.65625 332.41327 107.9375Q332.41327 108.203125 332.2414 108.390625Q332.06952 108.5625 331.72577 108.5625Q331.39764 108.5625 331.22577 108.390625Q331.06952 108.203125 331.06952 107.9375ZM339.44452 100.578125L335.91327 108.5L334.77264 108.5L338.28827 100.859375L333.6789 100.859375L333.6789 99.96875L339.44452 99.96875L339.44452 100.578125ZM345.50702 105.640625L346.69452 105.640625L346.69452 106.515625L345.50702 106.515625L345.50702 108.5L344.4289 108.5L344.4289 106.515625L340.53827 106.515625L340.53827 105.875L344.35077 99.96875L345.50702 99.96875L345.50702 105.640625ZM341.77264 105.640625L344.4289 105.640625L344.4289 101.453125L344.28827 101.6875L341.77264 105.640625Z" fill-rule="nonzero"/><path fill="#ffffff" d="M321.50702 105.640625L322.69452 105.640625L322.69452 106.515625L321.50702 106.515625L321.50702 108.5L320.4289 108.5L320.4289 106.515625L316.53827 106.515625L316.53827 105.875L320.35077 99.96875L321.50702 99.96875L321.50702 105.640625ZM317.77264 105.640625L320.4289 105.640625L320.4289 101.453125L320.28827 101.6875L317.77264 105.640625ZM328.50702 105.640625L329.69452 105.640625L329.69452 106.515625L328.50702 106.515625L328.50702 108.5L327.4289 108.5L327.4289 106.515625L323.53827 106.515625L323.53827 105.875L327.35077 99.96875L328.50702 99.96875L328.50702 105.640625ZM324.77264 105.640625L327.4289 105.640625L327.4289 101.453125L327.28827 101.6875L324.77264 105.640625ZM331.06952 107.9375Q331.06952 107.65625 331.22577 107.46875Q331.39764 107.28125 331.72577 107.28125Q332.06952 107.28125 332.2414 107.46875Q332.41327 107.65625 332.41327 107.9375Q332.41327 108.203125 332.2414 108.390625Q332.06952 108.5625 331.72577 108.5625Q331.39764 108.5625 331.22577 108.390625Q331.06952 108.203125 331.06952 107.9375ZM339.44452 100.578125L335.91327 108.5L334.77264 108.5L338.28827 100.859375L333.6789 100.859375L333.6789 99.96875L339.44452 99.96875L339.44452 100.578125ZM345.50702 105.640625L346.69452 105.640625L346.69452 106.515625L345.50702 106.515625L345.50702 108.5L344.4289 108.5L344.4289 106.515625L340.53827 106.515625L340.53827 105.875L344.35077 99.96875L345.50702 99.96875L345.50702 105.640625ZM341.77264 105.640625L344.4289 105.640625L344.4289 101.453125L344.28827 101.6875L341.77264 105.640625Z" fill-rule="nonzero"/><path stroke="#129a74" stroke-width="3.0" stroke-linejoin="round" stroke-linecap="round" d="M332.16806 169.64062L333.35556 169.64062L333.35556 170.51562L332.16806 170.51562L332.16806 172.5L331.08994 172.5L331.08994 170.51562L327.1993 170.51562L327.1993 169.875L331.0118 163.96875L332.16806 163.96875L332.16806 169.64062ZM328.4337 169.64062L331.08994 169.64062L331.08994 165.45312L330.9493 165.6875L328.4337 169.64062ZM338.85556 163.96875L338.85556 164.875L338.65244 164.875Q337.3868 164.90625 336.6368 165.64062Q335.8868 166.35938 335.7618 167.67188Q336.4493 166.90625 337.60556 166.90625Q338.71494 166.90625 339.3868 167.6875Q340.0587 168.46875 340.0587 169.71875Q340.0587 171.03125 339.33994 171.82812Q338.6212 172.625 337.40244 172.625Q336.1837 172.625 335.41806 171.6875Q334.66806 170.73438 334.66806 169.25L334.66806 168.84375Q334.66806 166.48438 335.66806 165.23438Q336.66806 163.98438 338.65244 163.96875L338.85556 163.96875ZM337.4337 167.8125Q336.8712 167.8125 336.40244 168.14062Q335.9337 168.46875 335.7462 168.98438L335.7462 169.375Q335.7462 170.4375 336.21494 171.07812Q336.6993 171.71875 337.40244 171.71875Q338.1368 171.71875 338.5587 171.1875Q338.98056 170.64062 338.98056 169.76562Q338.98056 168.89062 338.5587 168.35938Q338.1368 167.8125 337.4337 167.8125ZM341.73056 171.9375Q341.73056 171.65625 341.8868 171.46875Q342.0587 171.28125 342.3868 171.28125Q342.73056 171.28125 342.90244 171.46875Q343.0743 171.65625 343.0743 171.9375Q343.0743 172.20312 342.90244 172.39062Q342.73056 172.5625 342.3868 172.5625Q342.0587 172.5625 341.8868 172.39062Q341.73056 172.20312 341.73056 171.9375ZM348.7462 168.75Q348.41806 169.15625 347.9337 169.40625Q347.46494 169.64062 346.90244 169.64062Q346.16806 169.64062 345.6212 169.28125Q345.0743 168.92188 344.77744 168.26562Q344.48056 167.59375 344.48056 166.79688Q344.48056 165.95312 344.79306 165.26562Q345.1212 164.57812 345.71494 164.21875Q346.3243 163.84375 347.1212 163.84375Q348.3868 163.84375 349.10556 164.79688Q349.83994 165.75 349.83994 167.375L349.83994 167.6875Q349.83994 170.1875 348.85556 171.32812Q347.8712 172.46875 345.8868 172.5L345.66806 172.5L345.66806 171.59375L345.90244 171.59375Q347.2462 171.5625 347.96494 170.89062Q348.6837 170.21875 348.7462 168.75ZM347.0743 168.75Q347.6212 168.75 348.0743 168.42188Q348.54306 168.07812 348.7618 167.59375L348.7618 167.15625Q348.7618 166.09375 348.29306 165.42188Q347.8243 164.75 347.1212 164.75Q346.40244 164.75 345.96494 165.29688Q345.54306 165.84375 345.54306 166.75Q345.54306 167.625 345.9493 168.1875Q346.3712 168.75 347.0743 168.75ZM352.08994 168.21875L352.52744 163.96875L356.90244 163.96875L356.90244 164.96875L353.4493 164.96875L353.1837 167.29688Q353.8243 166.92188 354.6212 166.92188Q355.77744 166.92188 356.46494 167.70312Q357.15244 168.46875 357.15244 169.78125Q357.15244 171.09375 356.4337 171.85938Q355.73056 172.625 354.4493 172.625Q353.3243 172.625 352.60556 172.0Q351.8868 171.35938 351.79306 170.25L352.8087 170.25Q352.91806 170.98438 353.33994 171.35938Q353.7618 171.73438 354.4493 171.73438Q355.1993 171.73438 355.6368 171.21875Q356.0743 170.70312 356.0743 169.79688Q356.0743 168.9375 355.60556 168.42188Q355.1368 167.90625 354.35556 167.90625Q353.65244 167.90625 353.2462 168.20312L352.96494 168.4375L352.08994 168.21875Z" fill-rule="nonzero"/><path fill="#ffffff" d="M332.16806 169.64062L333.35556 169.64062L333.35556 170.51562L332.16806 170.51562L332.16806 172.5L331.08994 172.5L331.08994 170.51562L327.1993 170.51562L327.1993 169.875L331.0118 163.96875L332.16806 163.96875L332.16806 169.64062ZM328.4337 169.64062L331.08994 169.64062L331.08994 165.45312L330.9493 165.6875L328.4337 169.64062ZM338.85556 163.96875L338.85556 164.875L338.65244 164.875Q337.3868 164.90625 336.6368 165.64062Q335.8868 166.35938 335.7618 167.67188Q336.4493 166.90625 337.60556 166.90625Q338.71494 166.90625 339.3868 167.6875Q340.0587 168.46875 340.0587 169.71875Q340.0587 171.03125 339.33994 171.82812Q338.6212 172.625 337.40244 172.625Q336.1837 172.625 335.41806 171.6875Q334.66806 170.73438 334.66806 169.25L334.66806 168.84375Q334.66806 166.48438 335.66806 165.23438Q336.66806 163.98438 338.65244 163.96875L338.85556 163.96875ZM337.4337 167.8125Q336.8712 167.8125 336.40244 168.14062Q335.9337 168.46875 335.7462 168.98438L335.7462 169.375Q335.7462 170.4375 336.21494 171.07812Q336.6993 171.71875 337.40244 171.71875Q338.1368 171.71875 338.5587 171.1875Q338.98056 170.64062 338.98056 169.76562Q338.98056 168.89062 338.5587 168.35938Q338.1368 167.8125 337.4337 167.8125ZM341.73056 171.9375Q341.73056 171.65625 341.8868 171.46875Q342.0587 171.28125 342.3868 171.28125Q342.73056 171.28125 342.90244 171.46875Q343.0743 171.65625 343.0743 171.9375Q343.0743 172.20312 342.90244 172.39062Q342.73056 172.5625 342.3868 172.5625Q342.0587 172.5625 341.8868 172.39062Q341.73056 172.20312 341.73056 171.9375ZM348.7462 168.75Q348.41806 169.15625 347.9337 169.40625Q347.46494 169.64062 346.90244 169.64062Q346.16806 169.64062 345.6212 169.28125Q345.0743 168.92188 344.77744 168.26562Q344.48056 167.59375 344.48056 166.79688Q344.48056 165.95312 344.79306 165.26562Q345.1212 164.57812 345.71494 164.21875Q346.3243 163.84375 347.1212 163.84375Q348.3868 163.84375 349.10556 164.79688Q349.83994 165.75 349.83994 167.375L349.83994 167.6875Q349.83994 170.1875 348.85556 171.32812Q347.8712 172.46875 345.8868 172.5L345.66806 172.5L345.66806 171.59375L345.90244 171.59375Q347.2462 171.5625 347.96494 170.89062Q348.6837 170.21875 348.7462 168.75ZM347.0743 168.75Q347.6212 168.75 348.0743 168.42188Q348.54306 168.07812 348.7618 167.59375L348.7618 167.15625Q348.7618 166.09375 348.29306 165.42188Q347.8243 164.75 347.1212 164.75Q346.40244 164.75 345.96494 165.29688Q345.54306 165.84375 345.54306 166.75Q345.54306 167.625 345.9493 168.1875Q346.3712 168.75 347.0743 168.75ZM352.08994 168.21875L352.52744 163.96875L356.90244 163.96875L356.90244 164.96875L353.4493 164.96875L353.1837 167.29688Q353.8243 166.92188 354.6212 166.92188Q355.77744 166.92188 356.46494 167.70312Q357.15244 168.46875 357.15244 169.78125Q357.15244 171.09375 356.4337 171.85938Q355.73056 172.625 354.4493 172.625Q353.3243 172.625 352.60556 172.0Q351.8868 171.35938 351.79306 170.25L352.8087 170.25Q352.91806 170.98438 353.33994 171.35938Q353.7618 171.73438 354.4493 171.73438Q355.1993 171.73438 355.6368 171.21875Q356.0743 170.70312 356.0743 169.79688Q356.0743 168.9375 355.60556 168.42188Q355.1368 167.90625 354.35556 167.90625Q353.65244 167.90625 353.2462 168.20312L352.96494 168.4375L352.08994 168.21875Z" fill-rule="nonzero"/><path stroke="#129a74" stroke-width="3.0" stroke-linejoin="round" stroke-linecap="round" d="M410.77618 226.96875L410.77618 227.875L410.57306 227.875Q409.30743 227.90625 408.55743 228.64062Q407.80743 229.35938 407.68243 230.67188Q408.36993 229.90625 409.52618 229.90625Q410.63556 229.90625 411.30743 230.6875Q411.9793 231.46875 411.9793 232.71875Q411.9793 234.03125 411.26056 234.82812Q410.5418 235.625 409.32306 235.625Q408.1043 235.625 407.33868 234.6875Q406.58868 233.73438 406.58868 232.25L406.58868 231.84375Q406.58868 229.48438 407.58868 228.23438Q408.58868 226.98438 410.57306 226.96875L410.77618 226.96875ZM409.3543 230.8125Q408.7918 230.8125 408.32306 231.14062Q407.8543 231.46875 407.6668 231.98438L407.6668 232.375Q407.6668 233.4375 408.13556 234.07812Q408.61993 234.71875 409.32306 234.71875Q410.05743 234.71875 410.4793 234.1875Q410.90118 233.64062 410.90118 232.76562Q410.90118 231.89062 410.4793 231.35938Q410.05743 230.8125 409.3543 230.8125ZM415.08868 230.70312L415.90118 230.70312Q416.68243 230.6875 417.11993 230.29688Q417.55743 229.90625 417.55743 229.23438Q417.55743 227.73438 416.05743 227.73438Q415.3543 227.73438 414.93243 228.14062Q414.52618 228.54688 414.52618 229.20312L413.43243 229.20312Q413.43243 228.1875 414.1668 227.51562Q414.9168 226.84375 416.05743 226.84375Q417.26056 226.84375 417.94806 227.48438Q418.63556 228.125 418.63556 229.26562Q418.63556 229.82812 418.27618 230.34375Q417.9168 230.85938 417.2918 231.125Q417.99493 231.34375 418.36993 231.85938Q418.76056 232.375 418.76056 233.125Q418.76056 234.26562 418.01056 234.95312Q417.26056 235.625 416.05743 235.625Q414.86993 235.625 414.1043 234.96875Q413.3543 234.3125 413.3543 233.25L414.44806 233.25Q414.44806 233.92188 414.88556 234.32812Q415.32306 234.73438 416.07306 234.73438Q416.8543 234.73438 417.26056 234.32812Q417.68243 233.90625 417.68243 233.14062Q417.68243 232.40625 417.2293 232.01562Q416.77618 231.60938 415.90118 231.59375L415.08868 231.59375L415.08868 230.70312ZM420.65118 234.9375Q420.65118 234.65625 420.80743 234.46875Q420.9793 234.28125 421.30743 234.28125Q421.65118 234.28125 421.82306 234.46875Q421.99493 234.65625 421.99493 234.9375Q421.99493 235.20312 421.82306 235.39062Q421.65118 235.5625 421.30743 235.5625Q420.9793 235.5625 420.80743 235.39062Q420.65118 235.20312 420.65118 234.9375ZM425.08868 230.70312L425.90118 230.70312Q426.68243 230.6875 427.11993 230.29688Q427.55743 229.90625 427.55743 229.23438Q427.55743 227.73438 426.05743 227.73438Q425.3543 227.73438 424.93243 228.14062Q424.52618 228.54688 424.52618 229.20312L423.43243 229.20312Q423.43243 228.1875 424.1668 227.51562Q424.9168 226.84375 426.05743 226.84375Q427.26056 226.84375 427.94806 227.48438Q428.63556 228.125 428.63556 229.26562Q428.63556 229.82812 428.27618 230.34375Q427.9168 230.85938 427.2918 231.125Q427.99493 231.34375 428.36993 231.85938Q428.76056 232.375 428.76056 233.125Q428.76056 234.26562 428.01056 234.95312Q427.26056 235.625 426.05743 235.625Q424.86993 235.625 424.1043 234.96875Q423.3543 234.3125 423.3543 233.25L424.44806 233.25Q424.44806 233.92188 424.88556 234.32812Q425.32306 234.73438 426.07306 234.73438Q426.8543 234.73438 427.26056 234.32812Q427.68243 233.90625 427.68243 233.14062Q427.68243 232.40625 427.2293 232.01562Q426.77618 231.60938 425.90118 231.59375L425.08868 231.59375L425.08868 230.70312ZM434.07306 235.5L432.99493 235.5L432.99493 228.28125L430.80743 229.07812L430.80743 228.09375L433.9168 226.92188L434.07306 226.92188L434.07306 235.5Z" fill-rule="nonzero"/><path fill="#ffffff" d="M410.77618 226.96875L410.77618 227.875L410.57306 227.875Q409.30743 227.90625 408.55743 228.64062Q407.80743 229.35938 407.68243 230.67188Q408.36993 229.90625 409.52618 229.90625Q410.63556 229.90625 411.30743 230.6875Q411.9793 231.46875 411.9793 232.71875Q411.9793 234.03125 411.26056 234.82812Q410.5418 235.625 409.32306 235.625Q408.1043 235.625 407.33868 234.6875Q406.58868 233.73438 406.58868 232.25L406.58868 231.84375Q406.58868 229.48438 407.58868 228.23438Q408.58868 226.98438 410.57306 226.96875L410.77618 226.96875ZM409.3543 230.8125Q408.7918 230.8125 408.32306 231.14062Q407.8543 231.46875 407.6668 231.98438L407.6668 232.375Q407.6668 233.4375 408.13556 234.07812Q408.61993 234.71875 409.32306 234.71875Q410.05743 234.71875 410.4793 234.1875Q410.90118 233.64062 410.90118 232.76562Q410.90118 231.89062 410.4793 231.35938Q410.05743 230.8125 409.3543 230.8125ZM415.08868 230.70312L415.90118 230.70312Q416.68243 230.6875 417.11993 230.29688Q417.55743 229.90625 417.55743 229.23438Q417.55743 227.73438 416.05743 227.73438Q415.3543 227.73438 414.93243 228.14062Q414.52618 228.54688 414.52618 229.20312L413.43243 229.20312Q413.43243 228.1875 414.1668 227.51562Q414.9168 226.84375 416.05743 226.84375Q417.26056 226.84375 417.94806 227.48438Q418.63556 228.125 418.63556 229.26562Q418.63556 229.82812 418.27618 230.34375Q417.9168 230.85938 417.2918 231.125Q417.99493 231.34375 418.36993 231.85938Q418.76056 232.375 418.76056 233.125Q418.76056 234.26562 418.01056 234.95312Q417.26056 235.625 416.05743 235.625Q414.86993 235.625 414.1043 234.96875Q413.3543 234.3125 413.3543 233.25L414.44806 233.25Q414.44806 233.92188 414.88556 234.32812Q415.32306 234.73438 416.07306 234.73438Q416.8543 234.73438 417.26056 234.32812Q417.68243 233.90625 417.68243 233.14062Q417.68243 232.40625 417.2293 232.01562Q416.77618 231.60938 415.90118 231.59375L415.08868 231.59375L415.08868 230.70312ZM420.65118 234.9375Q420.65118 234.65625 420.80743 234.46875Q420.9793 234.28125 421.30743 234.28125Q421.65118 234.28125 421.82306 234.46875Q421.99493 234.65625 421.99493 234.9375Q421.99493 235.20312 421.82306 235.39062Q421.65118 235.5625 421.30743 235.5625Q420.9793 235.5625 420.80743 235.39062Q420.65118 235.20312 420.65118 234.9375ZM425.08868 230.70312L425.90118 230.70312Q426.68243 230.6875 427.11993 230.29688Q427.55743 229.90625 427.55743 229.23438Q427.55743 227.73438 426.05743 227.73438Q425.3543 227.73438 424.93243 228.14062Q424.52618 228.54688 424.52618 229.20312L423.43243 229.20312Q423.43243 228.1875 424.1668 227.51562Q424.9168 226.84375 426.05743 226.84375Q427.26056 226.84375 427.94806 227.48438Q428.63556 228.125 428.63556 229.26562Q428.63556 229.82812 428.27618 230.34375Q427.9168 230.85938 427.2918 231.125Q427.99493 231.34375 428.36993 231.85938Q428.76056 232.375 428.76056 233.125Q428.76056 234.26562 428.01056 234.95312Q427.26056 235.625 426.05743 235.625Q424.86993 235.625 424.1043 234.96875Q423.3543 234.3125 423.3543 233.25L424.44806 233.25Q424.44806 233.92188 424.88556 234.32812Q425.32306 234.73438 426.07306 234.73438Q426.8543 234.73438 427.26056 234.32812Q427.68243 233.90625 427.68243 233.14062Q427.68243 232.40625 427.2293 232.01562Q426.77618 231.60938 425.90118 231.59375L425.08868 231.59375L425.08868 230.70312ZM434.07306 235.5L432.99493 235.5L432.99493 228.28125L430.80743 229.07812L430.80743 228.09375L433.9168 226.92188L434.07306 226.92188L434.07306 235.5Z" fill-rule="nonzero"/><path stroke="#129a74" stroke-width="3.0" stroke-linejoin="round" stroke-linecap="round" d="M414.3942 290.96875L414.3942 291.875L414.19107 291.875Q412.92545 291.90625 412.17545 292.64062Q411.42545 293.35938 411.30045 294.67188Q411.98795 293.90625 413.1442 293.90625Q414.25357 293.90625 414.92545 294.6875Q415.59732 295.46875 415.59732 296.71875Q415.59732 298.03125 414.87857 298.82812Q414.15982 299.625 412.94107 299.625Q411.72232 299.625 410.9567 298.6875Q410.2067 297.73438 410.2067 296.25L410.2067 295.84375Q410.2067 293.48438 411.2067 292.23438Q412.2067 290.98438 414.19107 290.96875L414.3942 290.96875ZM412.97232 294.8125Q412.40982 294.8125 411.94107 295.14062Q411.47232 295.46875 411.28482 295.98438L411.28482 296.375Q411.28482 297.4375 411.75357 298.07812Q412.23795 298.71875 412.94107 298.71875Q413.67545 298.71875 414.09732 298.1875Q414.5192 297.64062 414.5192 296.76562Q414.5192 295.89062 414.09732 295.35938Q413.67545 294.8125 412.97232 294.8125ZM421.7067 296.64062L422.8942 296.64062L422.8942 297.51562L421.7067 297.51562L421.7067 299.5L420.62857 299.5L420.62857 297.51562L416.73795 297.51562L416.73795 296.875L420.55045 290.96875L421.7067 290.96875L421.7067 296.64062ZM417.97232 296.64062L420.62857 296.64062L420.62857 292.45312L420.48795 292.6875L417.97232 296.64062ZM424.2692 298.9375Q424.2692 298.65625 424.42545 298.46875Q424.59732 298.28125 424.92545 298.28125Q425.2692 298.28125 425.44107 298.46875Q425.61295 298.65625 425.61295 298.9375Q425.61295 299.20312 425.44107 299.39062Q425.2692 299.5625 424.92545 299.5625Q424.59732 299.5625 424.42545 299.39062Q424.2692 299.20312 424.2692 298.9375ZM432.48795 295.85938Q432.48795 297.76562 431.8317 298.70312Q431.19107 299.625 429.80045 299.625Q428.44107 299.625 427.78482 298.71875Q427.12857 297.8125 427.09732 296.0L427.09732 294.5625Q427.09732 292.67188 427.73795 291.76562Q428.3942 290.84375 429.78482 290.84375Q431.15982 290.84375 431.81607 291.73438Q432.47232 292.60938 432.48795 294.45312L432.48795 295.85938ZM431.3942 294.375Q431.3942 293.0 431.00357 292.375Q430.62857 291.73438 429.78482 291.73438Q428.9567 291.73438 428.56607 292.375Q428.19107 293.0 428.19107 294.29688L428.19107 296.03125Q428.19107 297.40625 428.5817 298.07812Q428.98795 298.73438 429.80045 298.73438Q430.59732 298.73438 430.98795 298.10938Q431.37857 297.48438 431.3942 296.15625L431.3942 294.375ZM438.3942 290.96875L438.3942 291.875L438.19107 291.875Q436.92545 291.90625 436.17545 292.64062Q435.42545 293.35938 435.30045 294.67188Q435.98795 293.90625 437.1442 293.90625Q438.25357 293.90625 438.92545 294.6875Q439.59732 295.46875 439.59732 296.71875Q439.59732 298.03125 438.87857 298.82812Q438.15982 299.625 436.94107 299.625Q435.72232 299.625 434.9567 298.6875Q434.2067 297.73438 434.2067 296.25L434.2067 295.84375Q434.2067 293.48438 435.2067 292.23438Q436.2067 290.98438 438.19107 290.96875L438.3942 290.96875ZM436.97232 294.8125Q436.40982 294.8125 435.94107 295.14062Q435.47232 295.46875 435.28482 295.98438L435.28482 296.375Q435.28482 297.4375 435.75357 298.07812Q436.23795 298.71875 436.94107 298.71875Q437.67545 298.71875 438.09732 298.1875Q438.5192 297.64062 438.5192 296.76562Q438.5192 295.89062 438.09732 295.35938Q437.67545 294.8125 436.97232 294.8125Z" fill-rule="nonzero"/><path fill="#ffffff" d="M414.3942 290.96875L414.3942 291.875L414.19107 291.875Q412.92545 291.90625 412.17545 292.64062Q411.42545 293.35938 411.30045 294.67188Q411.98795 293.90625 413.1442 293.90625Q414.25357 293.90625 414.92545 294.6875Q415.59732 295.46875 415.59732 296.71875Q415.59732 298.03125 414.87857 298.82812Q414.15982 299.625 412.94107 299.625Q411.72232 299.625 410.9567 298.6875Q410.2067 297.73438 410.2067 296.25L410.2067 295.84375Q410.2067 293.48438 411.2067 292.23438Q412.2067 290.98438 414.19107 290.96875L414.3942 290.96875ZM412.97232 294.8125Q412.40982 294.8125 411.94107 295.14062Q411.47232 295.46875 411.28482 295.98438L411.28482 296.375Q411.28482 297.4375 411.75357 298.07812Q412.23795 298.71875 412.94107 298.71875Q413.67545 298.71875 414.09732 298.1875Q414.5192 297.64062 414.5192 296.76562Q414.5192 295.89062 414.09732 295.35938Q413.67545 294.8125 412.97232 294.8125ZM421.7067 296.64062L422.8942 296.64062L422.8942 297.51562L421.7067 297.51562L421.7067 299.5L420.62857 299.5L420.62857 297.51562L416.73795 297.51562L416.73795 296.875L420.55045 290.96875L421.7067 290.96875L421.7067 296.64062ZM417.97232 296.64062L420.62857 296.64062L420.62857 292.45312L420.48795 292.6875L417.97232 296.64062ZM424.2692 298.9375Q424.2692 298.65625 424.42545 298.46875Q424.59732 298.28125 424.92545 298.28125Q425.2692 298.28125 425.44107 298.46875Q425.61295 298.65625 425.61295 298.9375Q425.61295 299.20312 425.44107 299.39062Q425.2692 299.5625 424.92545 299.5625Q424.59732 299.5625 424.42545 299.39062Q424.2692 299.20312 424.2692 298.9375ZM432.48795 295.85938Q432.48795 297.76562 431.8317 298.70312Q431.19107 299.625 429.80045 299.625Q428.44107 299.625 427.78482 298.71875Q427.12857 297.8125 427.09732 296.0L427.09732 294.5625Q427.09732 292.67188 427.73795 291.76562Q428.3942 290.84375 429.78482 290.84375Q431.15982 290.84375 431.81607 291.73438Q432.47232 292.60938 432.48795 294.45312L432.48795 295.85938ZM431.3942 294.375Q431.3942 293.0 431.00357 292.375Q430.62857 291.73438 429.78482 291.73438Q428.9567 291.73438 428.56607 292.375Q428.19107 293.0 428.19107 294.29688L428.19107 296.03125Q428.19107 297.40625 428.5817 298.07812Q428.98795 298.73438 429.80045 298.73438Q430.59732 298.73438 430.98795 298.10938Q431.37857 297.48438 431.3942 296.15625L431.3942 294.375ZM438.3942 290.96875L438.3942 291.875L438.19107 291.875Q436.92545 291.90625 436.17545 292.64062Q435.42545 293.35938 435.30045 294.67188Q435.98795 293.90625 437.1442 293.90625Q438.25357 293.90625 438.92545 294.6875Q439.59732 295.46875 439.59732 296.71875Q439.59732 298.03125 438.87857 298.82812Q438.15982 299.625 436.94107 299.625Q435.72232 299.625 434.9567 298.6875Q434.2067 297.73438 434.2067 296.25L434.2067 295.84375Q434.2067 293.48438 435.2067 292.23438Q436.2067 290.98438 438.19107 290.96875L438.3942 290.96875ZM436.97232 294.8125Q436.40982 294.8125 435.94107 295.14062Q435.47232 295.46875 435.28482 295.98438L435.28482 296.375Q435.28482 297.4375 435.75357 298.07812Q436.23795 298.71875 436.94107 298.71875Q437.67545 298.71875 438.09732 298.1875Q438.5192 297.64062 438.5192 296.76562Q438.5192 295.89062 438.09732 295.35938Q437.67545 294.8125 436.97232 294.8125Z" fill-rule="nonzero"/><path stroke="#129a74" stroke-width="3.0" stroke-linejoin="round" stroke-linecap="round" d="M838.2656 363.5L837.1875 363.5L837.1875 356.28125L835.0 357.07812L835.0 356.09375L838.1094 354.92188L838.2656 354.92188L838.2656 363.5ZM842.2031 359.21875L842.6406 354.96875L847.0156 354.96875L847.0156 355.96875L843.5625 355.96875L843.2969 358.29688Q843.9375 357.92188 844.7344 357.92188Q845.8906 357.92188 846.5781 358.70312Q847.2656 359.46875 847.2656 360.78125Q847.2656 362.09375 846.5469 362.85938Q845.84375 363.625 844.5625 363.625Q843.4375 363.625 842.71875 363.0Q842.0 362.35938 841.90625 361.25L842.9219 361.25Q843.03125 361.98438 843.4531 362.35938Q843.875 362.73438 844.5625 362.73438Q845.3125 362.73438 845.75 362.21875Q846.1875 361.70312 846.1875 360.79688Q846.1875 359.9375 845.71875 359.42188Q845.25 358.90625 844.46875 358.90625Q843.7656 358.90625 843.3594 359.20312L843.0781 359.4375L842.2031 359.21875ZM854.0625 359.85938Q854.0625 361.76562 853.40625 362.70312Q852.7656 363.625 851.375 363.625Q850.0156 363.625 849.3594 362.71875Q848.7031 361.8125 848.6719 360.0L848.6719 358.5625Q848.6719 356.67188 849.3125 355.76562Q849.96875 354.84375 851.3594 354.84375Q852.7344 354.84375 853.3906 355.73438Q854.0469 356.60938 854.0625 358.45312L854.0625 359.85938ZM852.96875 358.375Q852.96875 357.0 852.5781 356.375Q852.2031 355.73438 851.3594 355.73438Q850.53125 355.73438 850.1406 356.375Q849.7656 357.0 849.7656 358.29688L849.7656 360.03125Q849.7656 361.40625 850.15625 362.07812Q850.5625 362.73438 851.375 362.73438Q852.1719 362.73438 852.5625 362.10938Q852.9531 361.48438 852.96875 360.15625L852.96875 358.375Z" fill-rule="nonzero"/><path fill="#ffffff" d="M838.2656 363.5L837.1875 363.5L837.1875 356.28125L835.0 357.07812L835.0 356.09375L838.1094 354.92188L838.2656 354.92188L838.2656 363.5ZM842.2031 359.21875L842.6406 354.96875L847.0156 354.96875L847.0156 355.96875L843.5625 355.96875L843.2969 358.29688Q843.9375 357.92188 844.7344 357.92188Q845.8906 357.92188 846.5781 358.70312Q847.2656 359.46875 847.2656 360.78125Q847.2656 362.09375 846.5469 362.85938Q845.84375 363.625 844.5625 363.625Q843.4375 363.625 842.71875 363.0Q842.0 362.35938 841.90625 361.25L842.9219 361.25Q843.03125 361.98438 843.4531 362.35938Q843.875 362.73438 844.5625 362.73438Q845.3125 362.73438 845.75 362.21875Q846.1875 361.70312 846.1875 360.79688Q846.1875 359.9375 845.71875 359.42188Q845.25 358.90625 844.46875 358.90625Q843.7656 358.90625 843.3594 359.20312L843.0781 359.4375L842.2031 359.21875ZM854.0625 359.85938Q854.0625 361.76562 853.40625 362.70312Q852.7656 363.625 851.375 363.625Q850.0156 363.625 849.3594 362.71875Q848.7031 361.8125 848.6719 360.0L848.6719 358.5625Q848.6719 356.67188 849.3125 355.76562Q849.96875 354.84375 851.3594 354.84375Q852.7344 354.84375 853.3906 355.73438Q854.0469 356.60938 854.0625 358.45312L854.0625 359.85938ZM852.96875 358.375Q852.96875 357.0 852.5781 356.375Q852.2031 355.73438 851.3594 355.73438Q850.53125 355.73438 850.1406 356.375Q849.7656 357.0 849.7656 358.29688L849.7656 360.03125Q849.7656 361.40625 850.15625 362.07812Q850.5625 362.73438 851.375 362.73438Q852.1719 362.73438 852.5625 362.10938Q852.9531 361.48438 852.96875 360.15625L852.96875 358.375Z" fill-rule="nonzero"/><path fill="#000000" d="M105.99687 107.99813L105.99687 101.77938L106.93437 101.77938L106.93437 102.65438Q107.23125 102.18563 107.71562 101.920006Q108.2 101.638756 108.825 101.638756Q109.5125 101.638756 109.95 101.920006Q110.40312 102.201256 110.575 102.71688Q111.325 101.638756 112.49687 101.638756Q113.43437 101.638756 113.91875 102.15438Q114.41875 102.65438 114.41875 103.732506L114.41875 107.99813L113.37187 107.99813L113.37187 104.076256Q113.37187 103.451256 113.2625 103.170006Q113.16875 102.888756 112.90312 102.71688Q112.6375 102.545006 112.2625 102.545006Q111.60625 102.545006 111.16875 102.982506Q110.74687 103.420006 110.74687 104.388756L110.74687 107.99813L109.68437 107.99813L109.68437 103.951256Q109.68437 103.24813 109.41875 102.90438Q109.16875 102.545006 108.59062 102.545006Q108.1375 102.545006 107.7625 102.77938Q107.3875 103.013756 107.21562 103.46688Q107.04375 103.920006 107.04375 104.763756L107.04375 107.99813L105.99687 107.99813ZM121.05937 107.232506Q120.46562 107.732506 119.91875 107.93563Q119.3875 108.138756 118.7625 108.138756Q117.73125 108.138756 117.18437 107.638756Q116.6375 107.138756 116.6375 106.357506Q116.6375 105.90438 116.84062 105.52938Q117.04375 105.138756 117.3875 104.920006Q117.73125 104.68563 118.15312 104.576256Q118.45 104.482506 119.09062 104.40438Q120.35625 104.263756 120.96562 104.045006Q120.96562 103.826256 120.96562 103.77938Q120.96562 103.12313 120.66875 102.857506Q120.2625 102.513756 119.46562 102.513756Q118.73125 102.513756 118.37187 102.77938Q118.0125 103.02938 117.84062 103.68563L116.80937 103.545006Q116.95 102.888756 117.27812 102.482506Q117.60625 102.076256 118.21562 101.857506Q118.825 101.638756 119.62187 101.638756Q120.41875 101.638756 120.91875 101.826256Q121.41875 102.013756 121.65312 102.295006Q121.8875 102.576256 121.98125 103.013756Q122.02812 103.27938 122.02812 103.982506L122.02812 105.388756Q122.02812 106.857506 122.09062 107.24813Q122.16875 107.638756 122.37187 107.99813L121.2625 107.99813Q121.10625 107.670006 121.05937 107.232506ZM120.96562 104.87313Q120.3875 105.107506 119.24687 105.27938Q118.59062 105.37313 118.325 105.49813Q118.05937 105.607506 117.90312 105.826256Q117.7625 106.045006 117.7625 106.326256Q117.7625 106.74813 118.075 107.02938Q118.40312 107.31063 119.0125 107.31063Q119.62187 107.31063 120.09062 107.045006Q120.575 106.77938 120.79375 106.31063Q120.96562 105.951256 120.96562 105.263756L120.96562 104.87313ZM123.99687 110.388756L123.99687 101.77938L124.95 101.77938L124.95 102.576256Q125.29375 102.107506 125.71562 101.87313Q126.15312 101.638756 126.7625 101.638756Q127.55937 101.638756 128.16875 102.045006Q128.77812 102.451256 129.075 103.201256Q129.3875 103.951256 129.3875 104.84188Q129.3875 105.795006 129.04375 106.56063Q128.71562 107.326256 128.05937 107.732506Q127.40312 108.138756 126.68437 108.138756Q126.15312 108.138756 125.73125 107.920006Q125.30937 107.68563 125.04375 107.357506L125.04375 110.388756L123.99687 110.388756ZM124.95 104.920006Q124.95 106.12313 125.43437 106.701256Q125.91875 107.263756 126.60625 107.263756Q127.30937 107.263756 127.80937 106.670006Q128.30937 106.076256 128.30937 104.826256Q128.30937 103.638756 127.825 103.06063Q127.34062 102.46688 126.65312 102.46688Q125.98125 102.46688 125.46562 103.09188Q124.95 103.71688 124.95 104.920006Z" fill-rule="nonzero"/><path fill="#000000" d="M27.996876 171.69907L27.996876 165.48032L28.934376 165.48032L28.934376 166.35532Q29.23125 165.88657 29.715626 165.62094Q30.2 165.33969 30.825 165.33969Q31.5125 165.33969 31.95 165.62094Q32.403126 165.90219 32.575 166.41782Q33.325 165.33969 34.496876 165.33969Q35.434376 165.33969 35.91875 165.85532Q36.41875 166.35532 36.41875 167.43344L36.41875 171.69907L35.371876 171.69907L35.371876 167.77719Q35.371876 167.15219 35.2625 166.87094Q35.16875 166.58969 34.903126 166.41782Q34.6375 166.24594 34.2625 166.24594Q33.60625 166.24594 33.16875 166.68344Q32.746876 167.12094 32.746876 168.08969L32.746876 171.69907L31.684376 171.69907L31.684376 167.65219Q31.684376 166.94907 31.41875 166.60532Q31.16875 166.24594 30.590626 166.24594Q30.1375 166.24594 29.7625 166.48032Q29.3875 166.71469 29.215626 167.16782Q29.04375 167.62094 29.04375 168.46469L29.04375 171.69907L27.996876 171.69907ZM43.059376 170.93344Q42.465626 171.43344 41.91875 171.63657Q41.3875 171.83969 40.7625 171.83969Q39.73125 171.83969 39.184376 171.33969Q38.6375 170.83969 38.6375 170.05844Q38.6375 169.60532 38.840626 169.23032Q39.04375 168.83969 39.3875 168.62094Q39.73125 168.38657 40.153126 168.27719Q40.45 168.18344 41.090626 168.10532Q42.35625 167.96469 42.965626 167.74594Q42.965626 167.52719 42.965626 167.48032Q42.965626 166.82407 42.66875 166.55844Q42.2625 166.21469 41.465626 166.21469Q40.73125 166.21469 40.371876 166.48032Q40.0125 166.73032 39.840626 167.38657L38.809376 167.24594Q38.95 166.58969 39.278126 166.18344Q39.60625 165.77719 40.215626 165.55844Q40.825 165.33969 41.621876 165.33969Q42.41875 165.33969 42.91875 165.52719Q43.41875 165.71469 43.653126 165.99594Q43.8875 166.27719 43.98125 166.71469Q44.028126 166.98032 44.028126 167.68344L44.028126 169.08969Q44.028126 170.55844 44.090626 170.94907Q44.16875 171.33969 44.371876 171.69907L43.2625 171.69907Q43.10625 171.37094 43.059376 170.93344ZM42.965626 168.57407Q42.3875 168.80844 41.246876 168.98032Q40.590626 169.07407 40.325 169.19907Q40.059376 169.30844 39.903126 169.52719Q39.7625 169.74594 39.7625 170.02719Q39.7625 170.44907 40.075 170.73032Q40.403126 171.01157 41.0125 171.01157Q41.621876 171.01157 42.090626 170.74594Q42.575 170.48032 42.79375 170.01157Q42.965626 169.65219 42.965626 168.96469L42.965626 168.57407ZM45.996876 174.08969L45.996876 165.48032L46.95 165.48032L46.95 166.27719Q47.29375 165.80844 47.715626 165.57407Q48.153126 165.33969 48.7625 165.33969Q49.559376 165.33969 50.16875 165.74594Q50.778126 166.15219 51.075 166.90219Q51.3875 167.65219 51.3875 168.54282Q51.3875 169.49594 51.04375 170.26157Q50.715626 171.02719 50.059376 171.43344Q49.403126 171.83969 48.684376 171.83969Q48.153126 171.83969 47.73125 171.62094Q47.309376 171.38657 47.04375 171.05844L47.04375 174.08969L45.996876 174.08969ZM46.95 168.62094Q46.95 169.82407 47.434376 170.40219Q47.91875 170.96469 48.60625 170.96469Q49.309376 170.96469 49.809376 170.37094Q50.309376 169.77719 50.309376 168.52719Q50.309376 167.33969 49.825 166.76157Q49.340626 166.16782 48.653126 166.16782Q47.98125 166.16782 47.465626 166.79282Q46.95 167.41782 46.95 168.62094ZM53.2625 171.69907L53.2625 170.49594L54.465626 170.49594L54.465626 171.69907Q54.465626 172.35532 54.23125 172.76157Q53.996876 173.18344 53.496876 173.40219L53.2 172.94907Q53.528126 172.80844 53.684376 172.51157Q53.840626 172.23032 53.871876 171.69907L53.2625 171.69907ZM63.028126 171.69907L63.028126 170.91782Q62.434376 171.83969 61.29375 171.83969Q60.54375 171.83969 59.91875 171.43344Q59.29375 171.01157 58.95 170.27719Q58.60625 169.54282 58.60625 168.58969Q58.60625 167.66782 58.91875 166.90219Q59.23125 166.13657 59.85625 165.74594Q60.48125 165.33969 61.246876 165.33969Q61.809376 165.33969 62.246876 165.57407Q62.684376 165.80844 62.965626 166.18344L62.965626 163.10532L64.0125 163.10532L64.0125 171.69907L63.028126 171.69907ZM59.7 168.58969Q59.7 169.79282 60.2 170.38657Q60.7 170.96469 61.3875 170.96469Q62.075 170.96469 62.559376 170.40219Q63.04375 169.83969 63.04375 168.68344Q63.04375 167.40219 62.54375 166.80844Q62.059376 166.21469 61.340626 166.21469Q60.6375 166.21469 60.16875 166.79282Q59.7 167.35532 59.7 168.58969ZM70.24687 169.69907L71.34062 169.82407Q71.09062 170.77719 70.3875 171.30844Q69.68437 171.83969 68.60625 171.83969Q67.24687 171.83969 66.43437 170.99594Q65.6375 170.15219 65.6375 168.63657Q65.6375 167.07407 66.45 166.21469Q67.2625 165.33969 68.54375 165.33969Q69.79375 165.33969 70.575 166.18344Q71.37187 167.02719 71.37187 168.57407Q71.37187 168.66782 71.37187 168.85532L66.73125 168.85532Q66.79375 169.88657 67.30937 170.43344Q67.825 170.96469 68.60625 170.96469Q69.18437 170.96469 69.59062 170.66782Q70.0125 170.35532 70.24687 169.69907ZM66.79375 167.99594L70.2625 167.99594Q70.2 167.19907 69.87187 166.80844Q69.35625 166.19907 68.55937 166.19907Q67.825 166.19907 67.325 166.68344Q66.84062 167.16782 66.79375 167.99594ZM72.575 169.83969L73.60625 169.68344Q73.7 170.30844 74.09062 170.63657Q74.49687 170.96469 75.23125 170.96469Q75.95 170.96469 76.29375 170.68344Q76.65312 170.38657 76.65312 169.98032Q76.65312 169.62094 76.34062 169.41782Q76.12187 169.27719 75.2625 169.05844Q74.10625 168.76157 73.65312 168.55844Q73.21562 168.33969 72.98125 167.96469Q72.74687 167.58969 72.74687 167.12094Q72.74687 166.71469 72.93437 166.35532Q73.12187 165.99594 73.45 165.76157Q73.7 165.58969 74.12187 165.46469Q74.54375 165.33969 75.04375 165.33969Q75.7625 165.33969 76.30937 165.55844Q76.87187 165.76157 77.1375 166.12094Q77.40312 166.48032 77.49687 167.07407L76.46562 167.21469Q76.40312 166.74594 76.05937 166.48032Q75.73125 166.19907 75.10625 166.19907Q74.3875 166.19907 74.075 166.44907Q73.7625 166.68344 73.7625 167.01157Q73.7625 167.21469 73.8875 167.37094Q74.02812 167.54282 74.29375 167.65219Q74.45 167.71469 75.23125 167.91782Q76.35625 168.23032 76.79375 168.41782Q77.23125 168.60532 77.48125 168.96469Q77.73125 169.32407 77.73125 169.87094Q77.73125 170.40219 77.41875 170.87094Q77.12187 171.32407 76.54375 171.58969Q75.96562 171.83969 75.23125 171.83969Q74.0125 171.83969 73.37187 171.33969Q72.74687 170.82407 72.575 169.83969ZM82.29375 170.76157L82.45 171.68344Q81.99687 171.77719 81.65312 171.77719Q81.075 171.77719 80.7625 171.60532Q80.45 171.41782 80.30937 171.12094Q80.18437 170.82407 80.18437 169.87094L80.18437 166.29282L79.41875 166.29282L79.41875 165.48032L80.18437 165.48032L80.18437 163.93344L81.23125 163.30844L81.23125 165.48032L82.29375 165.48032L82.29375 166.29282L81.23125 166.29282L81.23125 169.93344Q81.23125 170.38657 81.27812 170.51157Q81.34062 170.63657 81.46562 170.71469Q81.59062 170.79282 81.825 170.79282Q82.0125 170.79282 82.29375 170.76157ZM82.98125 171.69907L82.98125 165.48032L83.93437 165.48032L83.93437 166.41782Q84.29375 165.76157 84.59062 165.55844Q84.90312 165.33969 85.27812 165.33969Q85.80937 165.33969 86.35625 165.66782L85.99687 166.65219Q85.60625 166.41782 85.23125 166.41782Q84.87187 166.41782 84.59062 166.63657Q84.325 166.83969 84.21562 167.21469Q84.02812 167.77719 84.02812 168.43344L84.02812 171.69907L82.98125 171.69907ZM91.075 171.69907L91.075 170.77719Q90.34062 171.83969 89.09062 171.83969Q88.54375 171.83969 88.05937 171.63657Q87.59062 171.41782 87.35625 171.10532Q87.12187 170.77719 87.02812 170.30844Q86.96562 170.01157 86.96562 169.32407L86.96562 165.48032L88.02812 165.48032L88.02812 168.93344Q88.02812 169.74594 88.09062 170.04282Q88.18437 170.44907 88.49687 170.69907Q88.825 170.93344 89.30937 170.93344Q89.77812 170.93344 90.18437 170.69907Q90.60625 170.44907 90.77812 170.02719Q90.96562 169.60532 90.96562 168.80844L90.96562 165.48032L92.0125 165.48032L92.0125 171.69907L91.075 171.69907ZM98.05937 169.41782L99.09062 169.55844Q98.91875 170.62094 98.21562 171.23032Q97.5125 171.83969 96.49687 171.83969Q95.21562 171.83969 94.43437 171.01157Q93.66875 170.16782 93.66875 168.60532Q93.66875 167.60532 93.99687 166.85532Q94.34062 166.08969 95.0125 165.71469Q95.7 165.33969 96.5125 165.33969Q97.5125 165.33969 98.15312 165.85532Q98.80937 166.35532 98.99687 167.30844L97.96562 167.46469Q97.825 166.83969 97.45 166.52719Q97.075 166.19907 96.54375 166.19907Q95.74687 166.19907 95.24687 166.77719Q94.74687 167.33969 94.74687 168.57407Q94.74687 169.83969 95.23125 170.40219Q95.71562 170.96469 96.48125 170.96469Q97.10625 170.96469 97.5125 170.58969Q97.93437 170.21469 98.05937 169.41782ZM102.29375 170.76157L102.45 171.68344Q101.99687 171.77719 101.65312 171.77719Q101.075 171.77719 100.7625 171.60532Q100.45 171.41782 100.30937 171.12094Q100.18437 170.82407 100.18437 169.87094L100.18437 166.29282L99.41875 166.29282L99.41875 165.48032L100.18437 165.48032L100.18437 163.93344L101.23125 163.30844L101.23125 165.48032L102.29375 165.48032L102.29375 166.29282L101.23125 166.29282L101.23125 169.93344Q101.23125 170.38657 101.27812 170.51157Q101.34062 170.63657 101.46562 170.71469Q101.59062 170.79282 101.825 170.79282Q102.0125 170.79282 102.29375 170.76157ZM107.075 171.69907L107.075 170.77719Q106.34062 171.83969 105.09062 171.83969Q104.54375 171.83969 104.05937 171.63657Q103.59062 171.41782 103.35625 171.10532Q103.12187 170.77719 103.02812 170.30844Q102.96562 170.01157 102.96562 169.32407L102.96562 165.48032L104.02812 165.48032L104.02812 168.93344Q104.02812 169.74594 104.09062 170.04282Q104.18437 170.44907 104.49687 170.69907Q104.825 170.93344 105.30937 170.93344Q105.77812 170.93344 106.18437 170.69907Q106.60625 170.44907 106.77812 170.02719Q106.96562 169.60532 106.96562 168.80844L106.96562 165.48032L108.0125 165.48032L108.0125 171.69907L107.075 171.69907ZM109.98125 171.69907L109.98125 165.48032L110.93437 165.48032L110.93437 166.41782Q111.29375 165.76157 111.59062 165.55844Q111.90312 165.33969 112.27812 165.33969Q112.80937 165.33969 113.35625 165.66782L112.99687 166.65219Q112.60625 166.41782 112.23125 166.41782Q111.87187 166.41782 111.59062 166.63657Q111.325 166.83969 111.21562 167.21469Q111.02812 167.77719 111.02812 168.43344L111.02812 171.69907L109.98125 171.69907ZM113.99687 164.32407L113.99687 163.10532L115.05937 163.10532L115.05937 164.32407L113.99687 164.32407ZM113.99687 171.69907L113.99687 165.48032L115.05937 165.48032L115.05937 171.69907L113.99687 171.69907ZM116.99687 171.69907L116.99687 165.48032L117.93437 165.48032L117.93437 166.35532Q118.62187 165.33969 119.91875 165.33969Q120.48125 165.33969 120.95 165.54282Q121.43437 165.74594 121.66875 166.07407Q121.90312 166.40219 121.99687 166.83969Q122.04375 167.13657 122.04375 167.87094L122.04375 171.69907L120.99687 171.69907L120.99687 167.91782Q120.99687 167.26157 120.87187 166.94907Q120.74687 166.63657 120.43437 166.44907Q120.12187 166.24594 119.7 166.24594Q119.02812 166.24594 118.52812 166.68344Q118.04375 167.10532 118.04375 168.29282L118.04375 171.69907L116.99687 171.69907ZM123.79375 172.21469L124.825 172.37094Q124.8875 172.83969 125.18437 173.05844Q125.575 173.35532 126.24687 173.35532Q126.98125 173.35532 127.37187 173.05844Q127.77812 172.76157 127.91875 172.24594Q128.0125 171.91782 127.99687 170.88657Q127.30937 171.69907 126.27812 171.69907Q124.99687 171.69907 124.29375 170.77719Q123.59062 169.83969 123.59062 168.55844Q123.59062 167.66782 123.90312 166.91782Q124.23125 166.15219 124.84062 165.74594Q125.45 165.33969 126.27812 165.33969Q127.3875 165.33969 128.10625 166.23032L128.10625 165.48032L129.075 165.48032L129.075 170.85532Q129.075 172.30844 128.77812 172.91782Q128.48125 173.52719 127.84062 173.87094Q127.2 174.23032 126.2625 174.23032Q125.15312 174.23032 124.46562 173.73032Q123.77812 173.23032 123.79375 172.21469ZM124.66875 168.48032Q124.66875 169.69907 125.15312 170.26157Q125.6375 170.82407 126.37187 170.82407Q127.10625 170.82407 127.59062 170.26157Q128.09062 169.69907 128.09062 168.51157Q128.09062 167.37094 127.575 166.79282Q127.075 166.21469 126.35625 166.21469Q125.65312 166.21469 125.15312 166.79282Q124.66875 167.35532 124.66875 168.48032Z" fill-rule="nonzero"/><path fill="#000000" d="M101.24687 235.4L101.24687 229.99374L100.30937 229.99374L100.30937 229.18124L101.24687 229.18124L101.24687 228.50937Q101.24687 227.88437 101.35625 227.5875Q101.5125 227.16562 101.8875 226.91562Q102.27812 226.66562 102.96562 226.66562Q103.41875 226.66562 103.95 226.775L103.79375 227.68124Q103.46562 227.63437 103.16875 227.63437Q102.68437 227.63437 102.48125 227.8375Q102.29375 228.04062 102.29375 228.60312L102.29375 229.18124L103.5125 229.18124L103.5125 229.99374L102.29375 229.99374L102.29375 235.4L101.24687 235.4ZM103.60625 232.29062Q103.60625 230.55624 104.55937 229.72812Q105.35625 229.04062 106.5125 229.04062Q107.79375 229.04062 108.60625 229.88437Q109.43437 230.7125 109.43437 232.19687Q109.43437 233.4 109.075 234.0875Q108.71562 234.775 108.0125 235.16562Q107.325 235.54062 106.5125 235.54062Q105.21562 235.54062 104.40312 234.7125Q103.60625 233.86874 103.60625 232.29062ZM104.68437 232.29062Q104.68437 233.47812 105.2 234.07187Q105.73125 234.66562 106.5125 234.66562Q107.30937 234.66562 107.825 234.07187Q108.34062 233.47812 108.34062 232.25937Q108.34062 231.10312 107.80937 230.50937Q107.29375 229.91562 106.5125 229.91562Q105.73125 229.91562 105.2 230.50937Q104.68437 231.0875 104.68437 232.29062ZM110.98125 235.4L110.98125 229.18124L111.93437 229.18124L111.93437 230.11874Q112.29375 229.4625 112.59062 229.25937Q112.90312 229.04062 113.27812 229.04062Q113.80937 229.04062 114.35625 229.36874L113.99687 230.35312Q113.60625 230.11874 113.23125 230.11874Q112.87187 230.11874 112.59062 230.3375Q112.325 230.54062 112.21562 230.91562Q112.02812 231.47812 112.02812 232.13437L112.02812 235.4L110.98125 235.4ZM115.29375 235.4L115.29375 234.19687L116.49687 234.19687L116.49687 235.4L115.29375 235.4ZM118.29375 235.4L118.29375 234.19687L119.49687 234.19687L119.49687 235.4L118.29375 235.4ZM120.60625 232.29062Q120.60625 230.55624 121.55937 229.72812Q122.35625 229.04062 123.5125 229.04062Q124.79375 229.04062 125.60625 229.88437Q126.43437 230.7125 126.43437 232.19687Q126.43437 233.4 126.075 234.0875Q125.71562 234.775 125.0125 235.16562Q124.325 235.54062 123.5125 235.54062Q122.21562 235.54062 121.40312 234.7125Q120.60625 233.86874 120.60625 232.29062ZM121.68437 232.29062Q121.68437 233.47812 122.2 234.07187Q122.73125 234.66562 123.5125 234.66562Q124.30937 234.66562 124.825 234.07187Q125.34062 233.47812 125.34062 232.25937Q125.34062 231.10312 124.80937 230.50937Q124.29375 229.91562 123.5125 229.91562Q122.73125 229.91562 122.2 230.50937Q121.68437 231.0875 121.68437 232.29062ZM128.24687 235.4L128.24687 229.99374L127.30937 229.99374L127.30937 229.18124L128.24687 229.18124L128.24687 228.50937Q128.24687 227.88437 128.35625 227.5875Q128.5125 227.16562 128.8875 226.91562Q129.27812 226.66562 129.96562 226.66562Q130.41875 226.66562 130.95 226.775L130.79375 227.68124Q130.46562 227.63437 130.16875 227.63437Q129.68437 227.63437 129.48125 227.8375Q129.29375 228.04062 129.29375 228.60312L129.29375 229.18124L130.5125 229.18124L130.5125 229.99374L129.29375 229.99374L129.29375 235.4L128.24687 235.4Z" fill-rule="nonzero"/><path fill="#000000" d="M23.246876 299.10092L23.246876 293.69467L22.309376 293.69467L22.309376 292.88217L23.246876 292.88217L23.246876 292.2103Q23.246876 291.5853 23.35625 291.28842Q23.5125 290.86655 23.8875 290.61655Q24.278126 290.36655 24.965626 290.36655Q25.41875 290.36655 25.95 290.47592L25.79375 291.38217Q25.465626 291.3353 25.16875 291.3353Q24.684376 291.3353 24.48125 291.53842Q24.29375 291.74155 24.29375 292.30405L24.29375 292.88217L25.5125 292.88217L25.5125 293.69467L24.29375 293.69467L24.29375 299.10092L23.246876 299.10092ZM25.60625 295.99155Q25.60625 294.25717 26.559376 293.42905Q27.35625 292.74155 28.5125 292.74155Q29.79375 292.74155 30.60625 293.5853Q31.434376 294.41342 31.434376 295.8978Q31.434376 297.10092 31.075 297.78842Q30.715626 298.47592 30.0125 298.86655Q29.325 299.24155 28.5125 299.24155Q27.215626 299.24155 26.403126 298.41342Q25.60625 297.56967 25.60625 295.99155ZM26.684376 295.99155Q26.684376 297.17905 27.2 297.7728Q27.73125 298.36655 28.5125 298.36655Q29.309376 298.36655 29.825 297.7728Q30.340626 297.17905 30.340626 295.9603Q30.340626 294.80405 29.809376 294.2103Q29.29375 293.61655 28.5125 293.61655Q27.73125 293.61655 27.2 294.2103Q26.684376 294.78842 26.684376 295.99155ZM32.98125 299.10092L32.98125 292.88217L33.934376 292.88217L33.934376 293.81967Q34.29375 293.16342 34.590626 292.9603Q34.903126 292.74155 35.278126 292.74155Q35.809376 292.74155 36.35625 293.06967L35.996876 294.05405Q35.60625 293.81967 35.23125 293.81967Q34.871876 293.81967 34.590626 294.03842Q34.325 294.24155 34.215626 294.61655Q34.028126 295.17905 34.028126 295.8353L34.028126 299.10092L32.98125 299.10092ZM37.29375 299.10092L37.29375 297.8978L38.496876 297.8978L38.496876 299.10092L37.29375 299.10092ZM40.29375 299.10092L40.29375 297.8978L41.496876 297.8978L41.496876 299.10092L40.29375 299.10092ZM42.60625 295.99155Q42.60625 294.25717 43.559376 293.42905Q44.35625 292.74155 45.5125 292.74155Q46.79375 292.74155 47.60625 293.5853Q48.434376 294.41342 48.434376 295.8978Q48.434376 297.10092 48.075 297.78842Q47.715626 298.47592 47.0125 298.86655Q46.325 299.24155 45.5125 299.24155Q44.215626 299.24155 43.403126 298.41342Q42.60625 297.56967 42.60625 295.99155ZM43.684376 295.99155Q43.684376 297.17905 44.2 297.7728Q44.73125 298.36655 45.5125 298.36655Q46.309376 298.36655 46.825 297.7728Q47.340626 297.17905 47.340626 295.9603Q47.340626 294.80405 46.809376 294.2103Q46.29375 293.61655 45.5125 293.61655Q44.73125 293.61655 44.2 294.2103Q43.684376 294.78842 43.684376 295.99155ZM50.246876 299.10092L50.246876 293.69467L49.309376 293.69467L49.309376 292.88217L50.246876 292.88217L50.246876 292.2103Q50.246876 291.5853 50.35625 291.28842Q50.5125 290.86655 50.8875 290.61655Q51.278126 290.36655 51.965626 290.36655Q52.41875 290.36655 52.95 290.47592L52.79375 291.38217Q52.465626 291.3353 52.16875 291.3353Q51.684376 291.3353 51.48125 291.53842Q51.29375 291.74155 51.29375 292.30405L51.29375 292.88217L52.5125 292.88217L52.5125 293.69467L51.29375 293.69467L51.29375 299.10092L50.246876 299.10092ZM53.2625 299.10092L53.2625 297.8978L54.465626 297.8978L54.465626 299.10092Q54.465626 299.75717 54.23125 300.16342Q53.996876 300.5853 53.496876 300.80405L53.2 300.35092Q53.528126 300.2103 53.684376 299.91342Q53.840626 299.63217 53.871876 299.10092L53.2625 299.10092ZM63.028126 299.10092L63.028126 298.31967Q62.434376 299.24155 61.29375 299.24155Q60.54375 299.24155 59.91875 298.8353Q59.29375 298.41342 58.95 297.67905Q58.60625 296.94467 58.60625 295.99155Q58.60625 295.06967 58.91875 294.30405Q59.23125 293.53842 59.85625 293.1478Q60.48125 292.74155 61.246876 292.74155Q61.809376 292.74155 62.246876 292.97592Q62.684376 293.2103 62.965626 293.5853L62.965626 290.50717L64.0125 290.50717L64.0125 299.10092L63.028126 299.10092ZM59.7 295.99155Q59.7 297.19467 60.2 297.78842Q60.7 298.36655 61.3875 298.36655Q62.075 298.36655 62.559376 297.80405Q63.04375 297.24155 63.04375 296.0853Q63.04375 294.80405 62.54375 294.2103Q62.059376 293.61655 61.340626 293.61655Q60.6375 293.61655 60.16875 294.19467Q59.7 294.75717 59.7 295.99155ZM70.24687 297.10092L71.34062 297.22592Q71.09062 298.17905 70.3875 298.7103Q69.68437 299.24155 68.60625 299.24155Q67.24687 299.24155 66.43437 298.3978Q65.6375 297.55405 65.6375 296.03842Q65.6375 294.47592 66.45 293.61655Q67.2625 292.74155 68.54375 292.74155Q69.79375 292.74155 70.575 293.5853Q71.37187 294.42905 71.37187 295.97592Q71.37187 296.06967 71.37187 296.25717L66.73125 296.25717Q66.79375 297.28842 67.30937 297.8353Q67.825 298.36655 68.60625 298.36655Q69.18437 298.36655 69.59062 298.06967Q70.0125 297.75717 70.24687 297.10092ZM66.79375 295.3978L70.2625 295.3978Q70.2 294.60092 69.87187 294.2103Q69.35625 293.60092 68.55937 293.60092Q67.825 293.60092 67.325 294.0853Q66.84062 294.56967 66.79375 295.3978ZM72.575 297.24155L73.60625 297.0853Q73.7 297.7103 74.09062 298.03842Q74.49687 298.36655 75.23125 298.36655Q75.95 298.36655 76.29375 298.0853Q76.65312 297.78842 76.65312 297.38217Q76.65312 297.0228 76.34062 296.81967Q76.12187 296.67905 75.2625 296.4603Q74.10625 296.16342 73.65312 295.9603Q73.21562 295.74155 72.98125 295.36655Q72.74687 294.99155 72.74687 294.5228Q72.74687 294.11655 72.93437 293.75717Q73.12187 293.3978 73.45 293.16342Q73.7 292.99155 74.12187 292.86655Q74.54375 292.74155 75.04375 292.74155Q75.7625 292.74155 76.30937 292.9603Q76.87187 293.16342 77.1375 293.5228Q77.40312 293.88217 77.49687 294.47592L76.46562 294.61655Q76.40312 294.1478 76.05937 293.88217Q75.73125 293.60092 75.10625 293.60092Q74.3875 293.60092 74.075 293.85092Q73.7625 294.0853 73.7625 294.41342Q73.7625 294.61655 73.8875 294.7728Q74.02812 294.94467 74.29375 295.05405Q74.45 295.11655 75.23125 295.31967Q76.35625 295.63217 76.79375 295.81967Q77.23125 296.00717 77.48125 296.36655Q77.73125 296.72592 77.73125 297.2728Q77.73125 297.80405 77.41875 298.2728Q77.12187 298.72592 76.54375 298.99155Q75.96562 299.24155 75.23125 299.24155Q74.0125 299.24155 73.37187 298.74155Q72.74687 298.22592 72.575 297.24155ZM82.29375 298.16342L82.45 299.0853Q81.99687 299.17905 81.65312 299.17905Q81.075 299.17905 80.7625 299.00717Q80.45 298.81967 80.30937 298.5228Q80.18437 298.22592 80.18437 297.2728L80.18437 293.69467L79.41875 293.69467L79.41875 292.88217L80.18437 292.88217L80.18437 291.3353L81.23125 290.7103L81.23125 292.88217L82.29375 292.88217L82.29375 293.69467L81.23125 293.69467L81.23125 297.3353Q81.23125 297.78842 81.27812 297.91342Q81.34062 298.03842 81.46562 298.11655Q81.59062 298.19467 81.825 298.19467Q82.0125 298.19467 82.29375 298.16342ZM82.98125 299.10092L82.98125 292.88217L83.93437 292.88217L83.93437 293.81967Q84.29375 293.16342 84.59062 292.9603Q84.90312 292.74155 85.27812 292.74155Q85.80937 292.74155 86.35625 293.06967L85.99687 294.05405Q85.60625 293.81967 85.23125 293.81967Q84.87187 293.81967 84.59062 294.03842Q84.325 294.24155 84.21562 294.61655Q84.02812 295.17905 84.02812 295.8353L84.02812 299.10092L82.98125 299.10092ZM91.075 299.10092L91.075 298.17905Q90.34062 299.24155 89.09062 299.24155Q88.54375 299.24155 88.05937 299.03842Q87.59062 298.81967 87.35625 298.50717Q87.12187 298.17905 87.02812 297.7103Q86.96562 297.41342 86.96562 296.72592L86.96562 292.88217L88.02812 292.88217L88.02812 296.3353Q88.02812 297.1478 88.09062 297.44467Q88.18437 297.85092 88.49687 298.10092Q88.825 298.3353 89.30937 298.3353Q89.77812 298.3353 90.18437 298.10092Q90.60625 297.85092 90.77812 297.42905Q90.96562 297.00717 90.96562 296.2103L90.96562 292.88217L92.0125 292.88217L92.0125 299.10092L91.075 299.10092ZM98.05937 296.81967L99.09062 296.9603Q98.91875 298.0228 98.21562 298.63217Q97.5125 299.24155 96.49687 299.24155Q95.21562 299.24155 94.43437 298.41342Q93.66875 297.56967 93.66875 296.00717Q93.66875 295.00717 93.99687 294.25717Q94.34062 293.49155 95.0125 293.11655Q95.7 292.74155 96.5125 292.74155Q97.5125 292.74155 98.15312 293.25717Q98.80937 293.75717 98.99687 294.7103L97.96562 294.86655Q97.825 294.24155 97.45 293.92905Q97.075 293.60092 96.54375 293.60092Q95.74687 293.60092 95.24687 294.17905Q94.74687 294.74155 94.74687 295.97592Q94.74687 297.24155 95.23125 297.80405Q95.71562 298.36655 96.48125 298.36655Q97.10625 298.36655 97.5125 297.99155Q97.93437 297.61655 98.05937 296.81967ZM102.29375 298.16342L102.45 299.0853Q101.99687 299.17905 101.65312 299.17905Q101.075 299.17905 100.7625 299.00717Q100.45 298.81967 100.30937 298.5228Q100.18437 298.22592 100.18437 297.2728L100.18437 293.69467L99.41875 293.69467L99.41875 292.88217L100.18437 292.88217L100.18437 291.3353L101.23125 290.7103L101.23125 292.88217L102.29375 292.88217L102.29375 293.69467L101.23125 293.69467L101.23125 297.3353Q101.23125 297.78842 101.27812 297.91342Q101.34062 298.03842 101.46562 298.11655Q101.59062 298.19467 101.825 298.19467Q102.0125 298.19467 102.29375 298.16342ZM107.075 299.10092L107.075 298.17905Q106.34062 299.24155 105.09062 299.24155Q104.54375 299.24155 104.05937 299.03842Q103.59062 298.81967 103.35625 298.50717Q103.12187 298.17905 103.02812 297.7103Q102.96562 297.41342 102.96562 296.72592L102.96562 292.88217L104.02812 292.88217L104.02812 296.3353Q104.02812 297.1478 104.09062 297.44467Q104.18437 297.85092 104.49687 298.10092Q104.825 298.3353 105.30937 298.3353Q105.77812 298.3353 106.18437 298.10092Q106.60625 297.85092 106.77812 297.42905Q106.96562 297.00717 106.96562 296.2103L106.96562 292.88217L108.0125 292.88217L108.0125 299.10092L107.075 299.10092ZM109.98125 299.10092L109.98125 292.88217L110.93437 292.88217L110.93437 293.81967Q111.29375 293.16342 111.59062 292.9603Q111.90312 292.74155 112.27812 292.74155Q112.80937 292.74155 113.35625 293.06967L112.99687 294.05405Q112.60625 293.81967 112.23125 293.81967Q111.87187 293.81967 111.59062 294.03842Q111.325 294.24155 111.21562 294.61655Q111.02812 295.17905 111.02812 295.8353L111.02812 299.10092L109.98125 299.10092ZM113.99687 291.72592L113.99687 290.50717L115.05937 290.50717L115.05937 291.72592L113.99687 291.72592ZM113.99687 299.10092L113.99687 292.88217L115.05937 292.88217L115.05937 299.10092L113.99687 299.10092ZM116.99687 299.10092L116.99687 292.88217L117.93437 292.88217L117.93437 293.75717Q118.62187 292.74155 119.91875 292.74155Q120.48125 292.74155 120.95 292.94467Q121.43437 293.1478 121.66875 293.47592Q121.90312 293.80405 121.99687 294.24155Q122.04375 294.53842 122.04375 295.2728L122.04375 299.10092L120.99687 299.10092L120.99687 295.31967Q120.99687 294.66342 120.87187 294.35092Q120.74687 294.03842 120.43437 293.85092Q120.12187 293.6478 119.7 293.6478Q119.02812 293.6478 118.52812 294.0853Q118.04375 294.50717 118.04375 295.69467L118.04375 299.10092L116.99687 299.10092ZM123.79375 299.61655L124.825 299.7728Q124.8875 300.24155 125.18437 300.4603Q125.575 300.75717 126.24687 300.75717Q126.98125 300.75717 127.37187 300.4603Q127.77812 300.16342 127.91875 299.6478Q128.0125 299.31967 127.99687 298.28842Q127.30937 299.10092 126.27812 299.10092Q124.99687 299.10092 124.29375 298.17905Q123.59062 297.24155 123.59062 295.9603Q123.59062 295.06967 123.90312 294.31967Q124.23125 293.55405 124.84062 293.1478Q125.45 292.74155 126.27812 292.74155Q127.3875 292.74155 128.10625 293.63217L128.10625 292.88217L129.075 292.88217L129.075 298.25717Q129.075 299.7103 128.77812 300.31967Q128.48125 300.92905 127.84062 301.2728Q127.2 301.63217 126.2625 301.63217Q125.15312 301.63217 124.46562 301.13217Q123.77812 300.63217 123.79375 299.61655ZM124.66875 295.88217Q124.66875 297.10092 125.15312 297.66342Q125.6375 298.22592 126.37187 298.22592Q127.10625 298.22592 127.59062 297.66342Q128.09062 297.10092 128.09062 295.91342Q128.09062 294.7728 127.575 294.19467Q127.075 293.61655 126.35625 293.61655Q125.65312 293.61655 125.15312 294.19467Q124.66875 294.75717 124.66875 295.88217Z" fill-rule="nonzero"/><path fill="#000000" d="M65.24687 362.80188L65.24687 357.39563L64.30937 357.39563L64.30937 356.58313L65.24687 356.58313L65.24687 355.91125Q65.24687 355.28625 65.35625 354.98938Q65.5125 354.5675 65.8875 354.3175Q66.27812 354.0675 66.96562 354.0675Q67.41875 354.0675 67.95 354.17688L67.79375 355.08313Q67.46562 355.03625 67.16875 355.03625Q66.68437 355.03625 66.48125 355.23938Q66.29375 355.4425 66.29375 356.005L66.29375 356.58313L67.5125 356.58313L67.5125 357.39563L66.29375 357.39563L66.29375 362.80188L65.24687 362.80188ZM67.60625 359.6925Q67.60625 357.95813 68.55937 357.13Q69.35625 356.4425 70.5125 356.4425Q71.79375 356.4425 72.60625 357.28625Q73.43437 358.11438 73.43437 359.59875Q73.43437 360.80188 73.075 361.48938Q72.71562 362.17688 72.0125 362.5675Q71.325 362.9425 70.5125 362.9425Q69.21562 362.9425 68.40312 362.11438Q67.60625 361.27063 67.60625 359.6925ZM68.68437 359.6925Q68.68437 360.88 69.2 361.47375Q69.73125 362.0675 70.5125 362.0675Q71.30937 362.0675 71.825 361.47375Q72.34062 360.88 72.34062 359.66125Q72.34062 358.505 71.80937 357.91125Q71.29375 357.3175 70.5125 357.3175Q69.73125 357.3175 69.2 357.91125Q68.68437 358.48938 68.68437 359.6925ZM74.98125 362.80188L74.98125 356.58313L75.93437 356.58313L75.93437 357.52063Q76.29375 356.86438 76.59062 356.66125Q76.90312 356.4425 77.27812 356.4425Q77.80937 356.4425 78.35625 356.77063L77.99687 357.755Q77.60625 357.52063 77.23125 357.52063Q76.87187 357.52063 76.59062 357.73938Q76.325 357.9425 76.21562 358.3175Q76.02812 358.88 76.02812 359.53625L76.02812 362.80188L74.98125 362.80188ZM79.2625 362.80188L79.2625 361.59875L80.46562 361.59875L80.46562 362.80188Q80.46562 363.45813 80.23125 363.86438Q79.99687 364.28625 79.49687 364.505L79.2 364.05188Q79.52812 363.91125 79.68437 363.61438Q79.84062 363.33313 79.87187 362.80188L79.2625 362.80188ZM84.99687 355.42688L84.99687 354.20813L86.05937 354.20813L86.05937 355.42688L84.99687 355.42688ZM84.99687 362.80188L84.99687 356.58313L86.05937 356.58313L86.05937 362.80188L84.99687 362.80188ZM87.99687 362.80188L87.99687 356.58313L88.93437 356.58313L88.93437 357.45813Q89.62187 356.4425 90.91875 356.4425Q91.48125 356.4425 91.95 356.64563Q92.43437 356.84875 92.66875 357.17688Q92.90312 357.505 92.99687 357.9425Q93.04375 358.23938 93.04375 358.97375L93.04375 362.80188L91.99687 362.80188L91.99687 359.02063Q91.99687 358.36438 91.87187 358.05188Q91.74687 357.73938 91.43437 357.55188Q91.12187 357.34875 90.7 357.34875Q90.02812 357.34875 89.52812 357.78625Q89.04375 358.20813 89.04375 359.39563L89.04375 362.80188L87.99687 362.80188ZM94.99687 355.42688L94.99687 354.20813L96.05937 354.20813L96.05937 355.42688L94.99687 355.42688ZM94.99687 362.80188L94.99687 356.58313L96.05937 356.58313L96.05937 362.80188L94.99687 362.80188ZM100.29375 361.86438L100.45 362.78625Q99.99687 362.88 99.65312 362.88Q99.075 362.88 98.7625 362.70813Q98.45 362.52063 98.30937 362.22375Q98.18437 361.92688 98.18437 360.97375L98.18437 357.39563L97.41875 357.39563L97.41875 356.58313L98.18437 356.58313L98.18437 355.03625L99.23125 354.41125L99.23125 356.58313L100.29375 356.58313L100.29375 357.39563L99.23125 357.39563L99.23125 361.03625Q99.23125 361.48938 99.27812 361.61438Q99.34062 361.73938 99.46562 361.8175Q99.59062 361.89563 99.825 361.89563Q100.0125 361.89563 100.29375 361.86438ZM108.05937 362.03625Q107.46562 362.53625 106.91875 362.73938Q106.3875 362.9425 105.7625 362.9425Q104.73125 362.9425 104.18437 362.4425Q103.6375 361.9425 103.6375 361.16125Q103.6375 360.70813 103.84062 360.33313Q104.04375 359.9425 104.3875 359.72375Q104.73125 359.48938 105.15312 359.38Q105.45 359.28625 106.09062 359.20813Q107.35625 359.0675 107.96562 358.84875Q107.96562 358.63 107.96562 358.58313Q107.96562 357.92688 107.66875 357.66125Q107.2625 357.3175 106.46562 357.3175Q105.73125 357.3175 105.37187 357.58313Q105.0125 357.83313 104.84062 358.48938L103.80937 358.34875Q103.95 357.6925 104.27812 357.28625Q104.60625 356.88 105.21562 356.66125Q105.825 356.4425 106.62187 356.4425Q107.41875 356.4425 107.91875 356.63Q108.41875 356.8175 108.65312 357.09875Q108.8875 357.38 108.98125 357.8175Q109.02812 358.08313 109.02812 358.78625L109.02812 360.1925Q109.02812 361.66125 109.09062 362.05188Q109.16875 362.4425 109.37187 362.80188L108.2625 362.80188Q108.10625 362.47375 108.05937 362.03625ZM107.96562 359.67688Q107.3875 359.91125 106.24687 360.08313Q105.59062 360.17688 105.325 360.30188Q105.05937 360.41125 104.90312 360.63Q104.7625 360.84875 104.7625 361.13Q104.7625 361.55188 105.075 361.83313Q105.40312 362.11438 106.0125 362.11438Q106.62187 362.11438 107.09062 361.84875Q107.575 361.58313 107.79375 361.11438Q107.96562 360.755 107.96562 360.0675L107.96562 359.67688ZM110.98125 362.80188L110.98125 356.58313L111.93437 356.58313L111.93437 357.52063Q112.29375 356.86438 112.59062 356.66125Q112.90312 356.4425 113.27812 356.4425Q113.80937 356.4425 114.35625 356.77063L113.99687 357.755Q113.60625 357.52063 113.23125 357.52063Q112.87187 357.52063 112.59062 357.73938Q112.325 357.9425 112.21562 358.3175Q112.02812 358.88 112.02812 359.53625L112.02812 362.80188L110.98125 362.80188ZM114.98125 362.80188L114.98125 356.58313L115.93437 356.58313L115.93437 357.52063Q116.29375 356.86438 116.59062 356.66125Q116.90312 356.4425 117.27812 356.4425Q117.80937 356.4425 118.35625 356.77063L117.99687 357.755Q117.60625 357.52063 117.23125 357.52063Q116.87187 357.52063 116.59062 357.73938Q116.325 357.9425 116.21562 358.3175Q116.02812 358.88 116.02812 359.53625L116.02812 362.80188L114.98125 362.80188ZM123.05937 362.03625Q122.46562 362.53625 121.91875 362.73938Q121.3875 362.9425 120.7625 362.9425Q119.73125 362.9425 119.18437 362.4425Q118.6375 361.9425 118.6375 361.16125Q118.6375 360.70813 118.84062 360.33313Q119.04375 359.9425 119.3875 359.72375Q119.73125 359.48938 120.15312 359.38Q120.45 359.28625 121.09062 359.20813Q122.35625 359.0675 122.96562 358.84875Q122.96562 358.63 122.96562 358.58313Q122.96562 357.92688 122.66875 357.66125Q122.2625 357.3175 121.46562 357.3175Q120.73125 357.3175 120.37187 357.58313Q120.0125 357.83313 119.84062 358.48938L118.80937 358.34875Q118.95 357.6925 119.27812 357.28625Q119.60625 356.88 120.21562 356.66125Q120.825 356.4425 121.62187 356.4425Q122.41875 356.4425 122.91875 356.63Q123.41875 356.8175 123.65312 357.09875Q123.8875 357.38 123.98125 357.8175Q124.02812 358.08313 124.02812 358.78625L124.02812 360.1925Q124.02812 361.66125 124.09062 362.05188Q124.16875 362.4425 124.37187 362.80188L123.2625 362.80188Q123.10625 362.47375 123.05937 362.03625ZM122.96562 359.67688Q122.3875 359.91125 121.24687 360.08313Q120.59062 360.17688 120.325 360.30188Q120.05937 360.41125 119.90312 360.63Q119.7625 360.84875 119.7625 361.13Q119.7625 361.55188 120.075 361.83313Q120.40312 362.11438 121.0125 362.11438Q121.62187 362.11438 122.09062 361.84875Q122.575 361.58313 122.79375 361.11438Q122.96562 360.755 122.96562 360.0675L122.96562 359.67688ZM125.95 365.1925L125.825 364.20813Q126.16875 364.30188 126.43437 364.30188Q126.77812 364.30188 126.98125 364.17688Q127.2 364.0675 127.34062 363.86438Q127.43437 363.6925 127.66875 363.0675Q127.68437 362.98938 127.7625 362.8175L125.3875 356.58313L126.52812 356.58313L127.825 360.17688Q128.075 360.86438 128.27812 361.63Q128.46562 360.89563 128.71562 360.20813L130.04375 356.58313L131.09062 356.58313L128.73125 362.91125Q128.34062 363.92688 128.1375 364.3175Q127.85625 364.84875 127.48125 365.08313Q127.12187 365.33313 126.62187 365.33313Q126.325 365.33313 125.95 365.1925Z" fill-rule="nonzero"/><path fill="#000000" d="M133.2 414.5656Q133.2 413.03436 133.5125 412.1125Q133.825 411.175 134.43437 410.675Q135.05937 410.175 135.99687 410.175Q136.68437 410.175 137.2 410.45624Q137.73125 410.7375 138.075 411.26874Q138.41875 411.78436 138.60625 412.53436Q138.79375 413.28436 138.79375 414.5656Q138.79375 416.08124 138.48125 417.0031Q138.18437 417.925 137.55937 418.4406Q136.95 418.9406 135.99687 418.9406Q134.7625 418.9406 134.04375 418.05Q133.2 416.9875 133.2 414.5656ZM134.27812 414.5656Q134.27812 416.675 134.77812 417.3781Q135.27812 418.08124 135.99687 418.08124Q136.73125 418.08124 137.21562 417.3781Q137.71562 416.675 137.71562 414.5656Q137.71562 412.4406 137.21562 411.7531Q136.73125 411.05 135.98125 411.05Q135.2625 411.05 134.825 411.65936Q134.27812 412.4406 134.27812 414.5656Z" fill-rule="nonzero"/><path fill="#000000" d="M370.9 416.55L372.00937 416.45624Q372.13437 417.26874 372.57187 417.675Q373.025 418.08124 373.66562 418.08124Q374.41562 418.08124 374.94687 417.5031Q375.47812 416.925 375.47812 415.9875Q375.47812 415.08124 374.9625 414.5656Q374.4625 414.03436 373.63437 414.03436Q373.13437 414.03436 372.7125 414.26874Q372.30624 414.5031 372.07187 414.8625L371.0875 414.7375L371.91562 410.33124L376.19687 410.33124L376.19687 411.33124L372.75937 411.33124L372.30624 413.64374Q373.07187 413.09686 373.91562 413.09686Q375.04062 413.09686 375.80624 413.8781Q376.5875 414.65936 376.5875 415.89374Q376.5875 417.05 375.91562 417.90936Q375.0875 418.9406 373.66562 418.9406Q372.49374 418.9406 371.74374 418.28436Q371.00937 417.6281 370.9 416.55ZM377.9 414.5656Q377.9 413.03436 378.2125 412.1125Q378.525 411.175 379.13437 410.675Q379.75937 410.175 380.69687 410.175Q381.38437 410.175 381.9 410.45624Q382.43124 410.7375 382.775 411.26874Q383.11874 411.78436 383.30624 412.53436Q383.49374 413.28436 383.49374 414.5656Q383.49374 416.08124 383.18124 417.0031Q382.88437 417.925 382.25937 418.4406Q381.65 418.9406 380.69687 418.9406Q379.4625 418.9406 378.74374 418.05Q377.9 416.9875 377.9 414.5656ZM378.97812 414.5656Q378.97812 416.675 379.47812 417.3781Q379.97812 418.08124 380.69687 418.08124Q381.43124 418.08124 381.91562 417.3781Q382.41562 416.675 382.41562 414.5656Q382.41562 412.4406 381.91562 411.7531Q381.43124 411.05 380.68124 411.05Q379.9625 411.05 379.525 411.65936Q378.97812 412.4406 378.97812 414.5656Z" fill-rule="nonzero"/><path fill="#000000" d="M612.5687 418.8L611.52185 418.8L611.52185 412.08124Q611.1312 412.4406 610.5062 412.8156Q609.89685 413.175 609.4125 413.34686L609.4125 412.33124Q610.2875 411.90936 610.9437 411.33124Q611.6156 410.7375 611.89685 410.175L612.5687 410.175L612.5687 418.8ZM615.6 414.5656Q615.6 413.03436 615.9125 412.1125Q616.225 411.175 616.83435 410.675Q617.45935 410.175 618.39685 410.175Q619.08435 410.175 619.6 410.45624Q620.1312 410.7375 620.475 411.26874Q620.8187 411.78436 621.0062 412.53436Q621.1937 413.28436 621.1937 414.5656Q621.1937 416.08124 620.8812 417.0031Q620.58435 417.925 619.95935 418.4406Q619.35 418.9406 618.39685 418.9406Q617.1625 418.9406 616.4437 418.05Q615.6 416.9875 615.6 414.5656ZM616.6781 414.5656Q616.6781 416.675 617.1781 417.3781Q617.6781 418.08124 618.39685 418.08124Q619.1312 418.08124 619.6156 417.3781Q620.1156 416.675 620.1156 414.5656Q620.1156 412.4406 619.6156 411.7531Q619.1312 411.05 618.3812 411.05Q617.6625 411.05 617.225 411.65936Q616.6781 412.4406 616.6781 414.5656ZM622.6 414.5656Q622.6 413.03436 622.9125 412.1125Q623.225 411.175 623.83435 410.675Q624.45935 410.175 625.39685 410.175Q626.08435 410.175 626.6 410.45624Q627.1312 410.7375 627.475 411.26874Q627.8187 411.78436 628.0062 412.53436Q628.1937 413.28436 628.1937 414.5656Q628.1937 416.08124 627.8812 417.0031Q627.58435 417.925 626.95935 418.4406Q626.35 418.9406 625.39685 418.9406Q624.1625 418.9406 623.4437 418.05Q622.6 416.9875 622.6 414.5656ZM623.6781 414.5656Q623.6781 416.675 624.1781 417.3781Q624.6781 418.08124 625.39685 418.08124Q626.1312 418.08124 626.6156 417.3781Q627.1156 416.675 627.1156 414.5656Q627.1156 412.4406 626.6156 411.7531Q626.1312 411.05 625.3812 411.05Q624.6625 411.05 624.225 411.65936Q623.6781 412.4406 623.6781 414.5656Z" fill-rule="nonzero"/><path fill="#000000" d="M853.76874 418.8L852.72186 418.8L852.72186 412.08124Q852.33124 412.4406 851.70624 412.8156Q851.09686 413.175 850.6125 413.34686L850.6125 412.33124Q851.4875 411.90936 852.14374 411.33124Q852.8156 410.7375 853.09686 410.175L853.76874 410.175L853.76874 418.8ZM856.8 416.55L857.90936 416.45624Q858.03436 417.26874 858.47186 417.675Q858.925 418.08124 859.5656 418.08124Q860.3156 418.08124 860.84686 417.5031Q861.3781 416.925 861.3781 415.9875Q861.3781 415.08124 860.8625 414.5656Q860.3625 414.03436 859.53436 414.03436Q859.03436 414.03436 858.6125 414.26874Q858.20624 414.5031 857.97186 414.8625L856.9875 414.7375L857.8156 410.33124L862.09686 410.33124L862.09686 411.33124L858.65936 411.33124L858.20624 413.64374Q858.97186 413.09686 859.8156 413.09686Q860.9406 413.09686 861.70624 413.8781Q862.4875 414.65936 862.4875 415.89374Q862.4875 417.05 861.8156 417.90936Q860.9875 418.9406 859.5656 418.9406Q858.39374 418.9406 857.64374 418.28436Q856.90936 417.6281 856.8 416.55ZM863.8 414.5656Q863.8 413.03436 864.1125 412.1125Q864.425 411.175 865.03436 410.675Q865.65936 410.175 866.59686 410.175Q867.28436 410.175 867.8 410.45624Q868.33124 410.7375 868.675 411.26874Q869.01874 411.78436 869.20624 412.53436Q869.39374 413.28436 869.39374 414.5656Q869.39374 416.08124 869.08124 417.0031Q868.78436 417.925 868.15936 418.4406Q867.55 418.9406 866.59686 418.9406Q865.3625 418.9406 864.64374 418.05Q863.8 416.9875 863.8 414.5656ZM864.8781 414.5656Q864.8781 416.675 865.3781 417.3781Q865.8781 418.08124 866.59686 418.08124Q867.33124 418.08124 867.8156 417.3781Q868.3156 416.675 868.3156 414.5656Q868.3156 412.4406 867.8156 411.7531Q867.33124 411.05 866.58124 411.05Q865.8625 411.05 865.425 411.65936Q864.8781 412.4406 864.8781 414.5656Z" fill-rule="nonzero"/><path fill="#757575" d="M23.6375 41.2L23.6375 38.45L26.3875 38.45L26.3875 41.2L23.6375 41.2ZM29.434376 30.825L31.965626 30.825L31.965626 32.246876Q33.325 30.590626 35.2 30.590626Q36.184376 30.590626 36.91875 31.0125Q37.653126 31.41875 38.121876 32.246876Q38.809376 31.41875 39.590626 31.0125Q40.3875 30.590626 41.29375 30.590626Q42.434376 30.590626 43.215626 31.059376Q44.0125 31.528126 44.403126 32.41875Q44.684376 33.090626 44.684376 34.575L44.684376 41.2L41.934376 41.2L41.934376 35.278126Q41.934376 33.73125 41.653126 33.278126Q41.278126 32.7 40.48125 32.7Q39.903126 32.7 39.3875 33.059376Q38.8875 33.403126 38.66875 34.075Q38.45 34.746876 38.45 36.215626L38.45 41.2L35.7 41.2L35.7 35.5125Q35.7 33.996876 35.54375 33.559376Q35.403126 33.121876 35.090626 32.91875Q34.79375 32.7 34.2625 32.7Q33.6375 32.7 33.121876 33.04375Q32.621876 33.371876 32.3875 34.028126Q32.16875 34.66875 32.16875 36.153126L32.16875 41.2L29.434376 41.2L29.434376 30.825ZM48.684376 33.996876L46.2 33.54375Q46.621876 32.04375 47.6375 31.325Q48.66875 30.590626 50.684376 30.590626Q52.528126 30.590626 53.41875 31.028126Q54.325 31.465626 54.684376 32.1375Q55.059376 32.79375 55.059376 34.590626L55.028126 37.79375Q55.028126 39.153126 55.153126 39.809376Q55.29375 40.45 55.653126 41.2L52.934376 41.2Q52.825 40.91875 52.66875 40.3875Q52.60625 40.1375 52.575 40.059376Q51.871876 40.746876 51.059376 41.090626Q50.2625 41.434376 49.35625 41.434376Q47.7625 41.434376 46.840626 40.575Q45.91875 39.7 45.91875 38.371876Q45.91875 37.48125 46.325 36.79375Q46.746876 36.10625 47.496876 35.746876Q48.2625 35.371876 49.7 35.10625Q51.621876 34.746876 52.35625 34.434376L52.35625 34.153126Q52.35625 33.371876 51.965626 33.04375Q51.575 32.7 50.496876 32.7Q49.7625 32.7 49.340626 32.98125Q48.934376 33.2625 48.684376 33.996876ZM52.35625 36.215626Q51.825 36.3875 50.684376 36.6375Q49.54375 36.8875 49.2 37.121876Q48.653126 37.496876 48.653126 38.090626Q48.653126 38.653126 49.075 39.075Q49.5125 39.496876 50.184376 39.496876Q50.91875 39.496876 51.590626 39.0125Q52.090626 38.6375 52.246876 38.10625Q52.35625 37.746876 52.35625 36.7625L52.35625 36.215626ZM57.559376 30.825L60.121876 30.825L60.121876 32.35625Q60.621876 31.575 61.465626 31.090626Q62.309376 30.590626 63.35625 30.590626Q65.15312 30.590626 66.40312 32.0125Q67.66875 33.41875 67.66875 35.95Q67.66875 38.559376 66.40312 39.996876Q65.1375 41.434376 63.325 41.434376Q62.465626 41.434376 61.7625 41.090626Q61.075 40.746876 60.309376 39.91875L60.309376 45.153126L57.559376 45.153126L57.559376 30.825ZM60.278126 35.840626Q60.278126 37.590626 60.965626 38.434376Q61.653126 39.2625 62.653126 39.2625Q63.60625 39.2625 64.24687 38.496876Q64.8875 37.715626 64.8875 35.98125Q64.8875 34.340626 64.23125 33.559376Q63.575 32.7625 62.60625 32.7625Q61.60625 32.7625 60.934376 33.54375Q60.278126 34.309376 60.278126 35.840626ZM78.48125 41.2L74.30937 30.825L77.18437 30.825L79.1375 36.121876L79.71562 37.8875Q79.93437 37.215626 79.99687 36.996876Q80.12187 36.559376 80.27812 36.121876L82.2625 30.825L85.075 30.825L80.96562 41.2L78.48125 41.2ZM85.66875 38.246876L88.41875 37.825Q88.60625 38.621876 89.1375 39.04375Q89.66875 39.45 90.6375 39.45Q91.7 39.45 92.24687 39.059376Q92.60625 38.79375 92.60625 38.325Q92.60625 38.0125 92.40312 37.809376Q92.2 37.621876 91.49687 37.45Q88.16875 36.715626 87.27812 36.10625Q86.04375 35.278126 86.04375 33.778126Q86.04375 32.434376 87.10625 31.5125Q88.18437 30.590626 90.41875 30.590626Q92.54375 30.590626 93.575 31.29375Q94.62187 31.98125 95.0125 33.340626L92.41875 33.809376Q92.24687 33.215626 91.77812 32.8875Q91.325 32.559376 90.46562 32.559376Q89.3875 32.559376 88.91875 32.871876Q88.60625 33.090626 88.60625 33.41875Q88.60625 33.715626 88.87187 33.91875Q89.24687 34.2 91.43437 34.7Q93.62187 35.2 94.49687 35.91875Q95.35625 36.653126 95.35625 37.95Q95.35625 39.3875 94.16875 40.41875Q92.98125 41.434376 90.6375 41.434376Q88.52812 41.434376 87.27812 40.575Q86.04375 39.715626 85.66875 38.246876ZM102.43437 30.825L103.96562 30.825L103.96562 30.04375Q103.96562 28.73125 104.23125 28.090626Q104.5125 27.45 105.2625 27.04375Q106.0125 26.6375 107.15312 26.6375Q108.325 26.6375 109.45 26.996876L109.075 28.903126Q108.41875 28.746876 107.80937 28.746876Q107.21562 28.746876 106.95 29.028126Q106.7 29.309376 106.7 30.090626L106.7 30.825L108.74687 30.825L108.74687 32.98125L106.7 32.98125L106.7 41.2L103.96562 41.2L103.96562 32.98125L102.43437 32.98125L102.43437 30.825ZM109.99687 35.871876Q109.99687 34.496876 110.66875 33.215626Q111.35625 31.934376 112.59062 31.2625Q113.825 30.590626 115.34062 30.590626Q117.7 30.590626 119.2 32.121876Q120.7 33.653126 120.7 35.98125Q120.7 38.340626 119.18437 39.8875Q117.66875 41.434376 115.35625 41.434376Q113.93437 41.434376 112.6375 40.79375Q111.35625 40.1375 110.66875 38.903126Q109.99687 37.653126 109.99687 35.871876ZM112.80937 36.0125Q112.80937 37.559376 113.54375 38.3875Q114.27812 39.2 115.35625 39.2Q116.43437 39.2 117.15312 38.3875Q117.8875 37.559376 117.8875 35.996876Q117.8875 34.465626 117.15312 33.653126Q116.43437 32.825 115.35625 32.825Q114.27812 32.825 113.54375 33.653126Q112.80937 34.465626 112.80937 36.0125ZM125.2625 41.2L122.5125 41.2L122.5125 30.825L125.075 30.825L125.075 32.309376Q125.71562 31.2625 126.23125 30.934376Q126.7625 30.590626 127.43437 30.590626Q128.37187 30.590626 129.23125 31.10625L128.3875 33.496876Q127.7 33.059376 127.10625 33.059376Q126.52812 33.059376 126.12187 33.371876Q125.71562 33.684376 125.48125 34.528126Q125.2625 35.35625 125.2625 37.996876L125.2625 41.2ZM139.48125 41.2L135.30937 30.825L138.18437 30.825L140.1375 36.121876L140.71562 37.8875Q140.93437 37.215626 140.99687 36.996876Q141.12187 36.559376 141.27812 36.121876L143.2625 30.825L146.075 30.825L141.96562 41.2L139.48125 41.2ZM146.66875 38.246876L149.41875 37.825Q149.60625 38.621876 150.1375 39.04375Q150.66875 39.45 151.6375 39.45Q152.7 39.45 153.24687 39.059376Q153.60625 38.79375 153.60625 38.325Q153.60625 38.0125 153.40312 37.809376Q153.2 37.621876 152.49687 37.45Q149.16875 36.715626 148.27812 36.10625Q147.04375 35.278126 147.04375 33.778126Q147.04375 32.434376 148.10625 31.5125Q149.18437 30.590626 151.41875 30.590626Q153.54375 30.590626 154.575 31.29375Q155.62187 31.98125 156.0125 33.340626L153.41875 33.809376Q153.24687 33.215626 152.77812 32.8875Q152.325 32.559376 151.46562 32.559376Q150.3875 32.559376 149.91875 32.871876Q149.60625 33.090626 149.60625 33.41875Q149.60625 33.715626 149.87187 33.91875Q150.24687 34.2 152.43437 34.7Q154.62187 35.2 155.49687 35.91875Q156.35625 36.653126 156.35625 37.95Q156.35625 39.3875 155.16875 40.41875Q153.98125 41.434376 151.6375 41.434376Q149.52812 41.434376 148.27812 40.575Q147.04375 39.715626 146.66875 38.246876ZM163.43437 30.825L164.96562 30.825L164.96562 30.04375Q164.96562 28.73125 165.23125 28.090626Q165.5125 27.45 166.2625 27.04375Q167.0125 26.6375 168.15312 26.6375Q169.325 26.6375 170.45 26.996876L170.075 28.903126Q169.41875 28.746876 168.80937 28.746876Q168.21562 28.746876 167.95 29.028126Q167.7 29.309376 167.7 30.090626L167.7 30.825L169.74687 30.825L169.74687 32.98125L167.7 32.98125L167.7 41.2L164.96562 41.2L164.96562 32.98125L163.43437 32.98125L163.43437 30.825ZM170.99687 35.871876Q170.99687 34.496876 171.66875 33.215626Q172.35625 31.934376 173.59062 31.2625Q174.825 30.590626 176.34062 30.590626Q178.7 30.590626 180.2 32.121876Q181.7 33.653126 181.7 35.98125Q181.7 38.340626 180.18437 39.8875Q178.66875 41.434376 176.35625 41.434376Q174.93437 41.434376 173.6375 40.79375Q172.35625 40.1375 171.66875 38.903126Q170.99687 37.653126 170.99687 35.871876ZM173.80937 36.0125Q173.80937 37.559376 174.54375 38.3875Q175.27812 39.2 176.35625 39.2Q177.43437 39.2 178.15312 38.3875Q178.8875 37.559376 178.8875 35.996876Q178.8875 34.465626 178.15312 33.653126Q177.43437 32.825 176.35625 32.825Q175.27812 32.825 174.54375 33.653126Q173.80937 34.465626 173.80937 36.0125ZM186.2625 41.2L183.5125 41.2L183.5125 30.825L186.075 30.825L186.075 32.309376Q186.71562 31.2625 187.23125 30.934376Q187.7625 30.590626 188.43437 30.590626Q189.37187 30.590626 190.23125 31.10625L189.3875 33.496876Q188.7 33.059376 188.10625 33.059376Q187.52812 33.059376 187.12187 33.371876Q186.71562 33.684376 186.48125 34.528126Q186.2625 35.35625 186.2625 37.996876L186.2625 41.2ZM191.6375 41.2L191.6375 38.45L194.3875 38.45L194.3875 41.2L191.6375 41.2ZM197.6375 41.2L197.6375 38.45L200.3875 38.45L200.3875 41.2L197.6375 41.2ZM202.99687 35.871876Q202.99687 34.496876 203.66875 33.215626Q204.35625 31.934376 205.59062 31.2625Q206.825 30.590626 208.34062 30.590626Q210.7 30.590626 212.2 32.121876Q213.7 33.653126 213.7 35.98125Q213.7 38.340626 212.18437 39.8875Q210.66875 41.434376 208.35625 41.434376Q206.93437 41.434376 205.6375 40.79375Q204.35625 40.1375 203.66875 38.903126Q202.99687 37.653126 202.99687 35.871876ZM205.80937 36.0125Q205.80937 37.559376 206.54375 38.3875Q207.27812 39.2 208.35625 39.2Q209.43437 39.2 210.15312 38.3875Q210.8875 37.559376 210.8875 35.996876Q210.8875 34.465626 210.15312 33.653126Q209.43437 32.825 208.35625 32.825Q207.27812 32.825 206.54375 33.653126Q205.80937 34.465626 205.80937 36.0125ZM214.43437 30.825L215.96562 30.825L215.96562 30.04375Q215.96562 28.73125 216.23125 28.090626Q216.5125 27.45 217.2625 27.04375Q218.0125 26.6375 219.15312 26.6375Q220.325 26.6375 221.45 26.996876L221.075 28.903126Q220.41875 28.746876 219.80937 28.746876Q219.21562 28.746876 218.95 29.028126Q218.7 29.309376 218.7 30.090626L218.7 30.825L220.74687 30.825L220.74687 32.98125L218.7 32.98125L218.7 41.2L215.96562 41.2L215.96562 32.98125L214.43437 32.98125L214.43437 30.825Z" fill-rule="nonzero"/></svg>