<svg version="1.1" viewBox="0.0 0.0 882.0 444.0" fill="none" stroke="none" stroke-linecap="square" stroke-miterlimit="10" width="882" height="444" xmlns:xlink="http://www.w3.org/1999/xlink" xmlns="http://www.w3.org/2000/svg"><path fill="#ffffff" d="M0 0L882.0 0L882.0 444.0L0 444.0L0 0Z" fill-rule="nonzero"/><path stroke="#333333" stroke-width="1.0" stroke-linecap="butt" d="M144.5 61.5L144.5 401.5" fill-rule="nonzero"/><path stroke="#cccccc" stroke-width="1.0" stroke-linecap="butt" d="M323.5 61.5L323.5 401.5" fill-rule="nonzero"/><path stroke="#cccccc" stroke-width="1.0" stroke-linecap="butt" d="M501.5 61.5L501.5 401.5" fill-rule="nonzero"/><path stroke="#cccccc" stroke-width="1.0" stroke-linecap="butt" d="M680.5 61.5L680.5 401.5" fill-rule="nonzero"/><path stroke="#cccccc" stroke-width="1.0" stroke-linecap="butt" d="M859.5 61.5L859.5 401.5" fill-rule="nonzero"/><clipPath id="id_0"><path d="M144.2 61.0L859.8 61.0L859.8 401.8L144.2 401.8L144.2 61.0Z" clip-rule="nonzero"/></clipPath><path stroke="#000000" stroke-width="2.0" stroke-linecap="butt" stroke-opacity="0.0" clip-path="url(#id_0)" d="M144.0 140.0L144.0 89.0L412.0 89.0C413.10458 89.0 414.0 89.89543 414.0 91.0L414.0 138.0C414.0 139.10457 413.10458 140.0 412.0 140.0Z" fill-rule="nonzero"/><path fill="#129a74" clip-path="url(#id_0)" d="M144.0 140.0L144.0 89.0L412.0 89.0C413.10458 89.0 414.0 89.89543 414.0 91.0L414.0 138.0C414.0 139.10457 413.10458 140.0 412.0 140.0Z" fill-rule="nonzero"/><path stroke="#000000" stroke-width="2.0" stroke-linecap="butt" stroke-opacity="0.0" clip-path="url(#id_0)" d="M144.0 218.0L144.0 167.0L409.0 167.0C410.10458 167.0 411.0 167.89543 411.0 169.0L411.0 216.0C411.0 217.10457 410.10458 218.0 409.0 218.0Z" fill-rule="nonzero"/><path fill="#129a74" clip-path="url(#id_0)" d="M144.0 218.0L144.0 167.0L409.0 167.0C410.10458 167.0 411.0 167.89543 411.0 169.0L411.0 216.0C411.0 217.10457 410.10458 218.0 409.0 218.0Z" fill-rule="nonzero"/><path stroke="#000000" stroke-width="2.0" stroke-linecap="butt" stroke-opacity="0.0" clip-path="url(#id_0)" d="M144.0 297.0L144.0 246.0L471.0 246.0C472.10458 246.0 473.0 246.89543 473.0 248.0L473.0 295.0C473.0 296.10458 472.10458 297.0 471.0 297.0Z" fill-rule="nonzero"/><path fill="#129a74" clip-path="url(#id_0)" d="M144.0 297.0L144.0 246.0L471.0 246.0C472.10458 246.0 473.0 246.89543 473.0 248.0L473.0 295.0C473.0 296.10458 472.10458 297.0 471.0 297.0Z" fill-rule="nonzero"/><path stroke="#000000" stroke-width="2.0" stroke-linecap="butt" stroke-opacity="0.0" clip-path="url(#id_0)" d="M144.0 375.0L144.0 324.0L688.0 324.0C689.10455 324.0 690.0 324.89542 690.0 326.0L690.0 373.0C690.0 374.10458 689.10455 375.0 688.0 375.0Z" fill-rule="nonzero"/><path fill="#129a74" clip-path="url(#id_0)" d="M144.0 375.0L144.0 324.0L688.0 324.0C689.10455 324.0 690.0 324.89542 690.0 326.0L690.0 373.0C690.0 374.10458 689.10455 375.0 688.0 375.0Z" fill-rule="nonzero"/><path stroke="#129a74" stroke-width="3.0" stroke-linejoin="round" stroke-linecap="round" d="M392.80463 118.5L391.7265 118.5L391.7265 111.28125L389.539 112.078125L389.539 111.09375L392.64838 109.921875L392.80463 109.921875L392.80463 118.5ZM396.74213 114.21875L397.17963 109.96875L401.55463 109.96875L401.55463 110.96875L398.1015 110.96875L397.83588 113.296875Q398.4765 112.921875 399.27338 112.921875Q400.42963 112.921875 401.11713 113.703125Q401.80463 114.46875 401.80463 115.78125Q401.80463 117.09375 401.08588 117.859375Q400.38275 118.625 399.1015 118.625Q397.9765 118.625 397.25775 118.0Q396.539 117.359375 396.44525 116.25L397.46088 116.25Q397.57025 116.984375 397.99213 117.359375Q398.414 117.734375 399.1015 117.734375Q399.8515 117.734375 400.289 117.21875Q400.7265 116.703125 400.7265 115.796875Q400.7265 114.9375 400.25775 114.421875Q399.789 113.90625 399.00775 113.90625Q398.30463 113.90625 397.89838 114.203125L397.61713 114.4375L396.74213 114.21875ZM406.80463 118.5L405.7265 118.5L405.7265 111.28125L403.539 112.078125L403.539 111.09375L406.64838 109.921875L406.80463 109.921875L406.80463 118.5Z" fill-rule="nonzero"/><path fill="#ffffff" d="M392.80463 118.5L391.7265 118.5L391.7265 111.28125L389.539 112.078125L389.539 111.09375L392.64838 109.921875L392.80463 109.921875L392.80463 118.5ZM396.74213 114.21875L397.17963 109.96875L401.55463 109.96875L401.55463 110.96875L398.1015 110.96875L397.83588 113.296875Q398.4765 112.921875 399.27338 112.921875Q400.42963 112.921875 401.11713 113.703125Q401.80463 114.46875 401.80463 115.78125Q401.80463 117.09375 401.08588 117.859375Q400.38275 118.625 399.1015 118.625Q397.9765 118.625 397.25775 118.0Q396.539 117.359375 396.44525 116.25L397.46088 116.25Q397.57025 116.984375 397.99213 117.359375Q398.414 117.734375 399.1015 117.734375Q399.8515 117.734375 400.289 117.21875Q400.7265 116.703125 400.7265 115.796875Q400.7265 114.9375 400.25775 114.421875Q399.789 113.90625 399.00775 113.90625Q398.30463 113.90625 397.89838 114.203125L397.61713 114.4375L396.74213 114.21875ZM406.80463 118.5L405.7265 118.5L405.7265 111.28125L403.539 112.078125L403.539 111.09375L406.64838 109.921875L406.80463 109.921875L406.80463 118.5Z" fill-rule="nonzero"/><path stroke="#129a74" stroke-width="3.0" stroke-linejoin="round" stroke-linecap="round" d="M389.22662 196.5L388.1485 196.5L388.1485 189.28125L385.961 190.07812L385.961 189.09375L389.07037 187.92188L389.22662 187.92188L389.22662 196.5ZM397.24225 193.64062L398.42975 193.64062L398.42975 194.51562L397.24225 194.51562L397.24225 196.5L396.16412 196.5L396.16412 194.51562L392.2735 194.51562L392.2735 193.875L396.086 187.96875L397.24225 187.96875L397.24225 193.64062ZM393.50787 193.64062L396.16412 193.64062L396.16412 189.45312L396.0235 189.6875L393.50787 193.64062ZM403.82037 192.75Q403.49225 193.15625 403.00787 193.40625Q402.53912 193.64062 401.97662 193.64062Q401.24225 193.64062 400.69537 193.28125Q400.1485 192.92188 399.85162 192.26562Q399.55475 191.59375 399.55475 190.79688Q399.55475 189.95312 399.86725 189.26562Q400.19537 188.57812 400.78912 188.21875Q401.3985 187.84375 402.19537 187.84375Q403.461 187.84375 404.17975 188.79688Q404.91412 189.75 404.91412 191.375L404.91412 191.6875Q404.91412 194.1875 403.92975 195.32812Q402.94537 196.46875 400.961 196.5L400.74225 196.5L400.74225 195.59375L400.97662 195.59375Q402.32037 195.5625 403.03912 194.89062Q403.75787 194.21875 403.82037 192.75ZM402.1485 192.75Q402.69537 192.75 403.1485 192.42188Q403.61725 192.07812 403.836 191.59375L403.836 191.15625Q403.836 190.09375 403.36725 189.42188Q402.8985 188.75 402.19537 188.75Q401.47662 188.75 401.03912 189.29688Q400.61725 189.84375 400.61725 190.75Q400.61725 191.625 401.0235 192.1875Q401.44537 192.75 402.1485 192.75Z" fill-rule="nonzero"/><path fill="#ffffff" d="M389.22662 196.5L388.1485 196.5L388.1485 189.28125L385.961 190.07812L385.961 189.09375L389.07037 187.92188L389.22662 187.92188L389.22662 196.5ZM397.24225 193.64062L398.42975 193.64062L398.42975 194.51562L397.24225 194.51562L397.24225 196.5L396.16412 196.5L396.16412 194.51562L392.2735 194.51562L392.2735 193.875L396.086 187.96875L397.24225 187.96875L397.24225 193.64062ZM393.50787 193.64062L396.16412 193.64062L396.16412 189.45312L396.0235 189.6875L393.50787 193.64062ZM403.82037 192.75Q403.49225 193.15625 403.00787 193.40625Q402.53912 193.64062 401.97662 193.64062Q401.24225 193.64062 400.69537 193.28125Q400.1485 192.92188 399.85162 192.26562Q399.55475 191.59375 399.55475 190.79688Q399.55475 189.95312 399.86725 189.26562Q400.19537 188.57812 400.78912 188.21875Q401.3985 187.84375 402.19537 187.84375Q403.461 187.84375 404.17975 188.79688Q404.91412 189.75 404.91412 191.375L404.91412 191.6875Q404.91412 194.1875 403.92975 195.32812Q402.94537 196.46875 400.961 196.5L400.74225 196.5L400.74225 195.59375L400.97662 195.59375Q402.32037 195.5625 403.03912 194.89062Q403.75787 194.21875 403.82037 192.75ZM402.1485 192.75Q402.69537 192.75 403.1485 192.42188Q403.61725 192.07812 403.836 191.59375L403.836 191.15625Q403.836 190.09375 403.36725 189.42188Q402.8985 188.75 402.19537 188.75Q401.47662 188.75 401.03912 189.29688Q400.61725 189.84375 400.61725 190.75Q400.61725 191.625 401.0235 192.1875Q401.44537 192.75 402.1485 192.75Z" fill-rule="nonzero"/><path stroke="#129a74" stroke-width="3.0" stroke-linejoin="round" stroke-linecap="round" d="M451.8416 275.5L450.7635 275.5L450.7635 268.28125L448.576 269.07812L448.576 268.09375L451.68536 266.92188L451.8416 266.92188L451.8416 275.5ZM460.4666 269.1875Q460.4666 269.82812 460.12286 270.32812Q459.7791 270.82812 459.2166 271.10938Q459.87286 271.39062 460.2635 271.95312Q460.6541 272.5 460.6541 273.20312Q460.6541 274.29688 459.9041 274.96875Q459.16974 275.625 457.951 275.625Q456.7166 275.625 455.9666 274.96875Q455.23224 274.29688 455.23224 273.20312Q455.23224 272.5 455.60724 271.95312Q455.98224 271.39062 456.6541 271.10938Q456.0916 270.82812 455.7635 270.32812Q455.43536 269.82812 455.43536 269.1875Q455.43536 268.10938 456.12286 267.48438Q456.81036 266.84375 457.951 266.84375Q459.076 266.84375 459.7635 267.48438Q460.4666 268.10938 460.4666 269.1875ZM459.576 273.17188Q459.576 272.45312 459.12286 272.01562Q458.66974 271.5625 457.93536 271.5625Q457.201 271.5625 456.74786 272.01562Q456.31036 272.45312 456.31036 273.1875Q456.31036 273.90625 456.74786 274.32812Q457.18536 274.73438 457.951 274.73438Q458.701 274.73438 459.1385 274.3125Q459.576 273.89062 459.576 273.17188ZM457.951 267.73438Q457.31036 267.73438 456.9041 268.14062Q456.5135 268.53125 456.5135 269.21875Q456.5135 269.85938 456.9041 270.26562Q457.29474 270.67188 457.93536 270.67188Q458.5916 270.67188 458.98224 270.26562Q459.37286 269.85938 459.37286 269.21875Q459.37286 268.5625 458.9666 268.15625Q458.56036 267.73438 457.951 267.73438ZM466.85724 272.64062L468.04474 272.64062L468.04474 273.51562L466.85724 273.51562L466.85724 275.5L465.7791 275.5L465.7791 273.51562L461.8885 273.51562L461.8885 272.875L465.701 266.96875L466.85724 266.96875L466.85724 272.64062ZM463.12286 272.64062L465.7791 272.64062L465.7791 268.45312L465.6385 268.6875L463.12286 272.64062Z" fill-rule="nonzero"/><path fill="#ffffff" d="M451.8416 275.5L450.7635 275.5L450.7635 268.28125L448.576 269.07812L448.576 268.09375L451.68536 266.92188L451.8416 266.92188L451.8416 275.5ZM460.4666 269.1875Q460.4666 269.82812 460.12286 270.32812Q459.7791 270.82812 459.2166 271.10938Q459.87286 271.39062 460.2635 271.95312Q460.6541 272.5 460.6541 273.20312Q460.6541 274.29688 459.9041 274.96875Q459.16974 275.625 457.951 275.625Q456.7166 275.625 455.9666 274.96875Q455.23224 274.29688 455.23224 273.20312Q455.23224 272.5 455.60724 271.95312Q455.98224 271.39062 456.6541 271.10938Q456.0916 270.82812 455.7635 270.32812Q455.43536 269.82812 455.43536 269.1875Q455.43536 268.10938 456.12286 267.48438Q456.81036 266.84375 457.951 266.84375Q459.076 266.84375 459.7635 267.48438Q460.4666 268.10938 460.4666 269.1875ZM459.576 273.17188Q459.576 272.45312 459.12286 272.01562Q458.66974 271.5625 457.93536 271.5625Q457.201 271.5625 456.74786 272.01562Q456.31036 272.45312 456.31036 273.1875Q456.31036 273.90625 456.74786 274.32812Q457.18536 274.73438 457.951 274.73438Q458.701 274.73438 459.1385 274.3125Q459.576 273.89062 459.576 273.17188ZM457.951 267.73438Q457.31036 267.73438 456.9041 268.14062Q456.5135 268.53125 456.5135 269.21875Q456.5135 269.85938 456.9041 270.26562Q457.29474 270.67188 457.93536 270.67188Q458.5916 270.67188 458.98224 270.26562Q459.37286 269.85938 459.37286 269.21875Q459.37286 268.5625 458.9666 268.15625Q458.56036 267.73438 457.951 267.73438ZM466.85724 272.64062L468.04474 272.64062L468.04474 273.51562L466.85724 273.51562L466.85724 275.5L465.7791 275.5L465.7791 273.51562L461.8885 273.51562L461.8885 272.875L465.701 266.96875L466.85724 266.96875L466.85724 272.64062ZM463.12286 272.64062L465.7791 272.64062L465.7791 268.45312L465.6385 268.6875L463.12286 272.64062Z" fill-rule="nonzero"/><path stroke="#129a74" stroke-width="3.0" stroke-linejoin="round" stroke-linecap="round" d="M666.32623 348.70312L667.13873 348.70312Q667.92 348.6875 668.3575 348.29688Q668.795 347.90625 668.795 347.23438Q668.795 345.73438 667.295 345.73438Q666.59186 345.73438 666.17 346.14062Q665.76373 346.54688 665.76373 347.20312L664.67 347.20312Q664.67 346.1875 665.40436 345.51562Q666.15436 344.84375 667.295 344.84375Q668.4981 344.84375 669.1856 345.48438Q669.8731 346.125 669.8731 347.26562Q669.8731 347.82812 669.51373 348.34375Q669.15436 348.85938 668.52936 349.125Q669.2325 349.34375 669.6075 349.85938Q669.9981 350.375 669.9981 351.125Q669.9981 352.26562 669.2481 352.95312Q668.4981 353.625 667.295 353.625Q666.1075 353.625 665.34186 352.96875Q664.59186 352.3125 664.59186 351.25L665.6856 351.25Q665.6856 351.92188 666.1231 352.32812Q666.5606 352.73438 667.3106 352.73438Q668.09186 352.73438 668.4981 352.32812Q668.92 351.90625 668.92 351.14062Q668.92 350.40625 668.46686 350.01562Q668.01373 349.60938 667.13873 349.59375L666.32623 349.59375L666.32623 348.70312ZM677.1075 349.85938Q677.1075 351.76562 676.45123 352.70312Q675.8106 353.625 674.42 353.625Q673.0606 353.625 672.40436 352.71875Q671.7481 351.8125 671.71686 350.0L671.71686 348.5625Q671.71686 346.67188 672.3575 345.76562Q673.01373 344.84375 674.40436 344.84375Q675.77936 344.84375 676.4356 345.73438Q677.09186 346.60938 677.1075 348.45312L677.1075 349.85938ZM676.01373 348.375Q676.01373 347.0 675.6231 346.375Q675.2481 345.73438 674.40436 345.73438Q673.57623 345.73438 673.1856 346.375Q672.8106 347.0 672.8106 348.29688L672.8106 350.03125Q672.8106 351.40625 673.20123 352.07812Q673.6075 352.73438 674.42 352.73438Q675.21686 352.73438 675.6075 352.10938Q675.9981 351.48438 676.01373 350.15625L676.01373 348.375ZM679.2481 349.21875L679.6856 344.96875L684.0606 344.96875L684.0606 345.96875L680.6075 345.96875L680.34186 348.29688Q680.9825 347.92188 681.77936 347.92188Q682.9356 347.92188 683.6231 348.70312Q684.3106 349.46875 684.3106 350.78125Q684.3106 352.09375 683.59186 352.85938Q682.88873 353.625 681.6075 353.625Q680.4825 353.625 679.76373 353.0Q679.045 352.35938 678.95123 351.25L679.96686 351.25Q680.07623 351.98438 680.4981 352.35938Q680.92 352.73438 681.6075 352.73438Q682.3575 352.73438 682.795 352.21875Q683.2325 351.70312 683.2325 350.79688Q683.2325 349.9375 682.76373 349.42188Q682.295 348.90625 681.51373 348.90625Q680.8106 348.90625 680.40436 349.20312L680.1231 349.4375L679.2481 349.21875Z" fill-rule="nonzero"/><path fill="#ffffff" d="M666.32623 348.70312L667.13873 348.70312Q667.92 348.6875 668.3575 348.29688Q668.795 347.90625 668.795 347.23438Q668.795 345.73438 667.295 345.73438Q666.59186 345.73438 666.17 346.14062Q665.76373 346.54688 665.76373 347.20312L664.67 347.20312Q664.67 346.1875 665.40436 345.51562Q666.15436 344.84375 667.295 344.84375Q668.4981 344.84375 669.1856 345.48438Q669.8731 346.125 669.8731 347.26562Q669.8731 347.82812 669.51373 348.34375Q669.15436 348.85938 668.52936 349.125Q669.2325 349.34375 669.6075 349.85938Q669.9981 350.375 669.9981 351.125Q669.9981 352.26562 669.2481 352.95312Q668.4981 353.625 667.295 353.625Q666.1075 353.625 665.34186 352.96875Q664.59186 352.3125 664.59186 351.25L665.6856 351.25Q665.6856 351.92188 666.1231 352.32812Q666.5606 352.73438 667.3106 352.73438Q668.09186 352.73438 668.4981 352.32812Q668.92 351.90625 668.92 351.14062Q668.92 350.40625 668.46686 350.01562Q668.01373 349.60938 667.13873 349.59375L666.32623 349.59375L666.32623 348.70312ZM677.1075 349.85938Q677.1075 351.76562 676.45123 352.70312Q675.8106 353.625 674.42 353.625Q673.0606 353.625 672.40436 352.71875Q671.7481 351.8125 671.71686 350.0L671.71686 348.5625Q671.71686 346.67188 672.3575 345.76562Q673.01373 344.84375 674.40436 344.84375Q675.77936 344.84375 676.4356 345.73438Q677.09186 346.60938 677.1075 348.45312L677.1075 349.85938ZM676.01373 348.375Q676.01373 347.0 675.6231 346.375Q675.2481 345.73438 674.40436 345.73438Q673.57623 345.73438 673.1856 346.375Q672.8106 347.0 672.8106 348.29688L672.8106 350.03125Q672.8106 351.40625 673.20123 352.07812Q673.6075 352.73438 674.42 352.73438Q675.21686 352.73438 675.6075 352.10938Q675.9981 351.48438 676.01373 350.15625L676.01373 348.375ZM679.2481 349.21875L679.6856 344.96875L684.0606 344.96875L684.0606 345.96875L680.6075 345.96875L680.34186 348.29688Q680.9825 347.92188 681.77936 347.92188Q682.9356 347.92188 683.6231 348.70312Q684.3106 349.46875 684.3106 350.78125Q684.3106 352.09375 683.59186 352.85938Q682.88873 353.625 681.6075 353.625Q680.4825 353.625 679.76373 353.0Q679.045 352.35938 678.95123 351.25L679.96686 351.25Q680.07623 351.98438 680.4981 352.35938Q680.92 352.73438 681.6075 352.73438Q682.3575 352.73438 682.795 352.21875Q683.2325 351.70312 683.2325 350.79688Q683.2325 349.9375 682.76373 349.42188Q682.295 348.90625 681.51373 348.90625Q680.8106 348.90625 680.40436 349.20312L680.1231 349.4375L679.2481 349.21875Z" fill-rule="nonzero"/><path fill="#000000" d="M100.98125 117.88276L100.98125 111.66401L101.93437 111.66401L101.93437 112.60151Q102.29375 111.94526 102.59062 111.742134Q102.90312 111.523384 103.27812 111.523384Q103.80937 111.523384 104.35625 111.85151L103.99687 112.835884Q103.60625 112.60151 103.23125 112.60151Q102.87187 112.60151 102.59062 112.82026Q102.325 113.023384 102.21562 113.398384Q102.02812 113.960884 102.02812 114.617134L102.02812 117.88276L100.98125 117.88276ZM109.24687 115.88276L110.34062 116.00776Q110.09062 116.960884 109.3875 117.492134Q108.68437 118.023384 107.60625 118.023384Q106.24687 118.023384 105.43437 117.179634Q104.6375 116.335884 104.6375 114.82026Q104.6375 113.25776 105.45 112.398384Q106.2625 111.523384 107.54375 111.523384Q108.79375 111.523384 109.575 112.367134Q110.37187 113.210884 110.37187 114.75776Q110.37187 114.85151 110.37187 115.03901L105.73125 115.03901Q105.79375 116.07026 106.30937 116.617134Q106.825 117.148384 107.60625 117.148384Q108.18437 117.148384 108.59062 116.85151Q109.0125 116.53901 109.24687 115.88276ZM105.79375 114.179634L109.2625 114.179634Q109.2 113.38276 108.87187 112.992134Q108.35625 112.38276 107.55937 112.38276Q106.825 112.38276 106.325 112.867134Q105.84062 113.35151 105.79375 114.179634ZM116.02812 117.88276L116.02812 117.10151Q115.43437 118.023384 114.29375 118.023384Q113.54375 118.023384 112.91875 117.617134Q112.29375 117.19526 111.95 116.460884Q111.60625 115.72651 111.60625 114.773384Q111.60625 113.85151 111.91875 113.085884Q112.23125 112.32026 112.85625 111.929634Q113.48125 111.523384 114.24687 111.523384Q114.80937 111.523384 115.24687 111.75776Q115.68437 111.992134 115.96562 112.367134L115.96562 109.28901L117.0125 109.28901L117.0125 117.88276L116.02812 117.88276ZM112.7 114.773384Q112.7 115.97651 113.2 116.57026Q113.7 117.148384 114.3875 117.148384Q115.075 117.148384 115.55937 116.585884Q116.04375 116.023384 116.04375 114.867134Q116.04375 113.585884 115.54375 112.992134Q115.05937 112.398384 114.34062 112.398384Q113.6375 112.398384 113.16875 112.97651Q112.7 113.53901 112.7 114.773384ZM123.075 117.88276L123.075 116.960884Q122.34062 118.023384 121.09062 118.023384Q120.54375 118.023384 120.05937 117.82026Q119.59062 117.60151 119.35625 117.28901Q119.12187 116.960884 119.02812 116.492134Q118.96562 116.19526 118.96562 115.50776L118.96562 111.66401L120.02812 111.66401L120.02812 115.117134Q120.02812 115.929634 120.09062 116.22651Q120.18437 116.63276 120.49687 116.88276Q120.825 117.117134 121.30937 117.117134Q121.77812 117.117134 122.18437 116.88276Q122.60625 116.63276 122.77812 116.210884Q122.96562 115.78901 122.96562 114.992134L122.96562 111.66401L124.0125 111.66401L124.0125 117.88276L123.075 117.88276ZM130.05937 115.60151L131.09062 115.742134Q130.91875 116.804634 130.21562 117.41401Q129.5125 118.023384 128.49687 118.023384Q127.21562 118.023384 126.43437 117.19526Q125.66875 116.35151 125.66875 114.78901Q125.66875 113.78901 125.99687 113.03901Q126.34062 112.273384 127.0125 111.898384Q127.7 111.523384 128.5125 111.523384Q129.5125 111.523384 130.15312 112.03901Q130.80937 112.53901 130.99687 113.492134L129.96562 113.648384Q129.825 113.023384 129.45 112.710884Q129.075 112.38276 128.54375 112.38276Q127.74687 112.38276 127.24687 112.960884Q126.74687 113.523384 126.74687 114.75776Q126.74687 116.023384 127.23125 116.585884Q127.71562 117.148384 128.48125 117.148384Q129.10625 117.148384 129.5125 116.773384Q129.93437 116.398384 130.05937 115.60151ZM136.24687 115.88276L137.34062 116.00776Q137.09062 116.960884 136.3875 117.492134Q135.68437 118.023384 134.60625 118.023384Q133.24687 118.023384 132.43437 117.179634Q131.6375 116.335884 131.6375 114.82026Q131.6375 113.25776 132.45 112.398384Q133.2625 111.523384 134.54375 111.523384Q135.79375 111.523384 136.575 112.367134Q137.37187 113.210884 137.37187 114.75776Q137.37187 114.85151 137.37187 115.03901L132.73125 115.03901Q132.79375 116.07026 133.30937 116.617134Q133.825 117.148384 134.60625 117.148384Q135.18437 117.148384 135.59062 116.85151Q136.0125 116.53901 136.24687 115.88276ZM132.79375 114.179634L136.2625 114.179634Q136.2 113.38276 135.87187 112.992134Q135.35625 112.38276 134.55937 112.38276Q133.825 112.38276 133.325 112.867134Q132.84062 113.35151 132.79375 114.179634Z" fill-rule="nonzero"/><path fill="#000000" d="M22.98125 196.22758L22.98125 190.00883L23.934376 190.00883L23.934376 190.94633Q24.29375 190.29008 24.590626 190.08696Q24.903126 189.86821 25.278126 189.86821Q25.809376 189.86821 26.35625 190.19633L25.996876 191.18071Q25.60625 190.94633 25.23125 190.94633Q24.871876 190.94633 24.590626 191.16508Q24.325 191.36821 24.215626 191.74321Q24.028126 192.30571 24.028126 192.96196L24.028126 196.22758L22.98125 196.22758ZM31.246876 194.22758L32.340626 194.35258Q32.090626 195.30571 31.3875 195.83696Q30.684376 196.36821 29.60625 196.36821Q28.246876 196.36821 27.434376 195.52446Q26.6375 194.68071 26.6375 193.16508Q26.6375 191.60258 27.45 190.74321Q28.2625 189.86821 29.54375 189.86821Q30.79375 189.86821 31.575 190.71196Q32.371876 191.55571 32.371876 193.10258Q32.371876 193.19633 32.371876 193.38383L27.73125 193.38383Q27.79375 194.41508 28.309376 194.96196Q28.825 195.49321 29.60625 195.49321Q30.184376 195.49321 30.590626 195.19633Q31.0125 194.88383 31.246876 194.22758ZM27.79375 192.52446L31.2625 192.52446Q31.2 191.72758 30.871876 191.33696Q30.35625 190.72758 29.559376 190.72758Q28.825 190.72758 28.325 191.21196Q27.840626 191.69633 27.79375 192.52446ZM38.028126 196.22758L38.028126 195.44633Q37.434376 196.36821 36.29375 196.36821Q35.54375 196.36821 34.91875 195.96196Q34.29375 195.54008 33.95 194.80571Q33.60625 194.07133 33.60625 193.11821Q33.60625 192.19633 33.91875 191.43071Q34.23125 190.66508 34.85625 190.27446Q35.48125 189.86821 36.246876 189.86821Q36.809376 189.86821 37.246876 190.10258Q37.684376 190.33696 37.965626 190.71196L37.965626 187.63383L39.0125 187.63383L39.0125 196.22758L38.028126 196.22758ZM34.7 193.11821Q34.7 194.32133 35.2 194.91508Q35.7 195.49321 36.3875 195.49321Q37.075 195.49321 37.559376 194.93071Q38.04375 194.36821 38.04375 193.21196Q38.04375 191.93071 37.54375 191.33696Q37.059376 190.74321 36.340626 190.74321Q35.6375 190.74321 35.16875 191.32133Q34.7 191.88383 34.7 193.11821ZM45.075 196.22758L45.075 195.30571Q44.340626 196.36821 43.090626 196.36821Q42.54375 196.36821 42.059376 196.16508Q41.590626 195.94633 41.35625 195.63383Q41.121876 195.30571 41.028126 194.83696Q40.965626 194.54008 40.965626 193.85258L40.965626 190.00883L42.028126 190.00883L42.028126 193.46196Q42.028126 194.27446 42.090626 194.57133Q42.184376 194.97758 42.496876 195.22758Q42.825 195.46196 43.309376 195.46196Q43.778126 195.46196 44.184376 195.22758Q44.60625 194.97758 44.778126 194.55571Q44.965626 194.13383 44.965626 193.33696L44.965626 190.00883L46.0125 190.00883L46.0125 196.22758L45.075 196.22758ZM52.059376 193.94633L53.090626 194.08696Q52.91875 195.14946 52.215626 195.75883Q51.5125 196.36821 50.496876 196.36821Q49.215626 196.36821 48.434376 195.54008Q47.66875 194.69633 47.66875 193.13383Q47.66875 192.13383 47.996876 191.38383Q48.340626 190.61821 49.0125 190.24321Q49.7 189.86821 50.5125 189.86821Q51.5125 189.86821 52.153126 190.38383Q52.809376 190.88383 52.996876 191.83696L51.965626 191.99321Q51.825 191.36821 51.45 191.05571Q51.075 190.72758 50.54375 190.72758Q49.746876 190.72758 49.246876 191.30571Q48.746876 191.86821 48.746876 193.10258Q48.746876 194.36821 49.23125 194.93071Q49.715626 195.49321 50.48125 195.49321Q51.10625 195.49321 51.5125 195.11821Q51.934376 194.74321 52.059376 193.94633ZM58.246876 194.22758L59.340626 194.35258Q59.090626 195.30571 58.3875 195.83696Q57.684376 196.36821 56.60625 196.36821Q55.246876 196.36821 54.434376 195.52446Q53.6375 194.68071 53.6375 193.16508Q53.6375 191.60258 54.45 190.74321Q55.2625 189.86821 56.54375 189.86821Q57.79375 189.86821 58.575 190.71196Q59.371876 191.55571 59.371876 193.10258Q59.371876 193.19633 59.371876 193.38383L54.73125 193.38383Q54.79375 194.41508 55.309376 194.96196Q55.825 195.49321 56.60625 195.49321Q57.184376 195.49321 57.590626 195.19633Q58.0125 194.88383 58.246876 194.22758ZM54.79375 192.52446L58.2625 192.52446Q58.2 191.72758 57.871876 191.33696Q57.35625 190.72758 56.559376 190.72758Q55.825 190.72758 55.325 191.21196Q54.840626 191.69633 54.79375 192.52446ZM61.2625 196.22758L61.2625 195.02446L62.465626 195.02446L62.465626 196.22758Q62.465626 196.88383 62.23125 197.29008Q61.996876 197.71196 61.496876 197.93071L61.2 197.47758Q61.528126 197.33696 61.684376 197.04008Q61.840626 196.75883 61.871876 196.22758L61.2625 196.22758ZM71.02812 196.22758L71.02812 195.44633Q70.43437 196.36821 69.29375 196.36821Q68.54375 196.36821 67.91875 195.96196Q67.29375 195.54008 66.95 194.80571Q66.60625 194.07133 66.60625 193.11821Q66.60625 192.19633 66.91875 191.43071Q67.23125 190.66508 67.85625 190.27446Q68.48125 189.86821 69.24687 189.86821Q69.80937 189.86821 70.24687 190.10258Q70.68437 190.33696 70.96562 190.71196L70.96562 187.63383L72.0125 187.63383L72.0125 196.22758L71.02812 196.22758ZM67.7 193.11821Q67.7 194.32133 68.2 194.91508Q68.7 195.49321 69.3875 195.49321Q70.075 195.49321 70.55937 194.93071Q71.04375 194.36821 71.04375 193.21196Q71.04375 191.93071 70.54375 191.33696Q70.05937 190.74321 69.34062 190.74321Q68.6375 190.74321 68.16875 191.32133Q67.7 191.88383 67.7 193.11821ZM78.24687 194.22758L79.34062 194.35258Q79.09062 195.30571 78.3875 195.83696Q77.68437 196.36821 76.60625 196.36821Q75.24687 196.36821 74.43437 195.52446Q73.6375 194.68071 73.6375 193.16508Q73.6375 191.60258 74.45 190.74321Q75.2625 189.86821 76.54375 189.86821Q77.79375 189.86821 78.575 190.71196Q79.37187 191.55571 79.37187 193.10258Q79.37187 193.19633 79.37187 193.38383L74.73125 193.38383Q74.79375 194.41508 75.30937 194.96196Q75.825 195.49321 76.60625 195.49321Q77.18437 195.49321 77.59062 195.19633Q78.0125 194.88383 78.24687 194.22758ZM74.79375 192.52446L78.2625 192.52446Q78.2 191.72758 77.87187 191.33696Q77.35625 190.72758 76.55937 190.72758Q75.825 190.72758 75.325 191.21196Q74.84062 191.69633 74.79375 192.52446ZM80.575 194.36821L81.60625 194.21196Q81.7 194.83696 82.09062 195.16508Q82.49687 195.49321 83.23125 195.49321Q83.95 195.49321 84.29375 195.21196Q84.65312 194.91508 84.65312 194.50883Q84.65312 194.14946 84.34062 193.94633Q84.12187 193.80571 83.2625 193.58696Q82.10625 193.29008 81.65312 193.08696Q81.21562 192.86821 80.98125 192.49321Q80.74687 192.11821 80.74687 191.64946Q80.74687 191.24321 80.93437 190.88383Q81.12187 190.52446 81.45 190.29008Q81.7 190.11821 82.12187 189.99321Q82.54375 189.86821 83.04375 189.86821Q83.7625 189.86821 84.30937 190.08696Q84.87187 190.29008 85.1375 190.64946Q85.40312 191.00883 85.49687 191.60258L84.46562 191.74321Q84.40312 191.27446 84.05937 191.00883Q83.73125 190.72758 83.10625 190.72758Q82.3875 190.72758 82.075 190.97758Q81.7625 191.21196 81.7625 191.54008Q81.7625 191.74321 81.8875 191.89946Q82.02812 192.07133 82.29375 192.18071Q82.45 192.24321 83.23125 192.44633Q84.35625 192.75883 84.79375 192.94633Q85.23125 193.13383 85.48125 193.49321Q85.73125 193.85258 85.73125 194.39946Q85.73125 194.93071 85.41875 195.39946Q85.12187 195.85258 84.54375 196.11821Q83.96562 196.36821 83.23125 196.36821Q82.0125 196.36821 81.37187 195.86821Q80.74687 195.35258 80.575 194.36821ZM90.29375 195.29008L90.45 196.21196Q89.99687 196.30571 89.65312 196.30571Q89.075 196.30571 88.7625 196.13383Q88.45 195.94633 88.30937 195.64946Q88.18437 195.35258 88.18437 194.39946L88.18437 190.82133L87.41875 190.82133L87.41875 190.00883L88.18437 190.00883L88.18437 188.46196L89.23125 187.83696L89.23125 190.00883L90.29375 190.00883L90.29375 190.82133L89.23125 190.82133L89.23125 194.46196Q89.23125 194.91508 89.27812 195.04008Q89.34062 195.16508 89.46562 195.24321Q89.59062 195.32133 89.825 195.32133Q90.0125 195.32133 90.29375 195.29008ZM90.98125 196.22758L90.98125 190.00883L91.93437 190.00883L91.93437 190.94633Q92.29375 190.29008 92.59062 190.08696Q92.90312 189.86821 93.27812 189.86821Q93.80937 189.86821 94.35625 190.19633L93.99687 191.18071Q93.60625 190.94633 93.23125 190.94633Q92.87187 190.94633 92.59062 191.16508Q92.325 191.36821 92.21562 191.74321Q92.02812 192.30571 92.02812 192.96196L92.02812 196.22758L90.98125 196.22758ZM99.075 196.22758L99.075 195.30571Q98.34062 196.36821 97.09062 196.36821Q96.54375 196.36821 96.05937 196.16508Q95.59062 195.94633 95.35625 195.63383Q95.12187 195.30571 95.02812 194.83696Q94.96562 194.54008 94.96562 193.85258L94.96562 190.00883L96.02812 190.00883L96.02812 193.46196Q96.02812 194.27446 96.09062 194.57133Q96.18437 194.97758 96.49687 195.22758Q96.825 195.46196 97.30937 195.46196Q97.77812 195.46196 98.18437 195.22758Q98.60625 194.97758 98.77812 194.55571Q98.96562 194.13383 98.96562 193.33696L98.96562 190.00883L100.0125 190.00883L100.0125 196.22758L99.075 196.22758ZM106.05937 193.94633L107.09062 194.08696Q106.91875 195.14946 106.21562 195.75883Q105.5125 196.36821 104.49687 196.36821Q103.21562 196.36821 102.43437 195.54008Q101.66875 194.69633 101.66875 193.13383Q101.66875 192.13383 101.99687 191.38383Q102.34062 190.61821 103.0125 190.24321Q103.7 189.86821 104.5125 189.86821Q105.5125 189.86821 106.15312 190.38383Q106.80937 190.88383 106.99687 191.83696L105.96562 191.99321Q105.825 191.36821 105.45 191.05571Q105.075 190.72758 104.54375 190.72758Q103.74687 190.72758 103.24687 191.30571Q102.74687 191.86821 102.74687 193.10258Q102.74687 194.36821 103.23125 194.93071Q103.71562 195.49321 104.48125 195.49321Q105.10625 195.49321 105.5125 195.11821Q105.93437 194.74321 106.05937 193.94633ZM110.29375 195.29008L110.45 196.21196Q109.99687 196.30571 109.65312 196.30571Q109.075 196.30571 108.7625 196.13383Q108.45 195.94633 108.30937 195.64946Q108.18437 195.35258 108.18437 194.39946L108.18437 190.82133L107.41875 190.82133L107.41875 190.00883L108.18437 190.00883L108.18437 188.46196L109.23125 187.83696L109.23125 190.00883L110.29375 190.00883L110.29375 190.82133L109.23125 190.82133L109.23125 194.46196Q109.23125 194.91508 109.27812 195.04008Q109.34062 195.16508 109.46562 195.24321Q109.59062 195.32133 109.825 195.32133Q110.0125 195.32133 110.29375 195.29008ZM115.075 196.22758L115.075 195.30571Q114.34062 196.36821 113.09062 196.36821Q112.54375 196.36821 112.05937 196.16508Q111.59062 195.94633 111.35625 195.63383Q111.12187 195.30571 111.02812 194.83696Q110.96562 194.54008 110.96562 193.85258L110.96562 190.00883L112.02812 190.00883L112.02812 193.46196Q112.02812 194.27446 112.09062 194.57133Q112.18437 194.97758 112.49687 195.22758Q112.825 195.46196 113.30937 195.46196Q113.77812 195.46196 114.18437 195.22758Q114.60625 194.97758 114.77812 194.55571Q114.96562 194.13383 114.96562 193.33696L114.96562 190.00883L116.0125 190.00883L116.0125 196.22758L115.075 196.22758ZM117.98125 196.22758L117.98125 190.00883L118.93437 190.00883L118.93437 190.94633Q119.29375 190.29008 119.59062 190.08696Q119.90312 189.86821 120.27812 189.86821Q120.80937 189.86821 121.35625 190.19633L120.99687 191.18071Q120.60625 190.94633 120.23125 190.94633Q119.87187 190.94633 119.59062 191.16508Q119.325 191.36821 119.21562 191.74321Q119.02812 192.30571 119.02812 192.96196L119.02812 196.22758L117.98125 196.22758ZM121.99687 188.85258L121.99687 187.63383L123.05937 187.63383L123.05937 188.85258L121.99687 188.85258ZM121.99687 196.22758L121.99687 190.00883L123.05937 190.00883L123.05937 196.22758L121.99687 196.22758ZM124.99687 196.22758L124.99687 190.00883L125.93437 190.00883L125.93437 190.88383Q126.62187 189.86821 127.91875 189.86821Q128.48125 189.86821 128.95 190.07133Q129.43437 190.27446 129.66875 190.60258Q129.90312 190.93071 129.99687 191.36821Q130.04375 191.66508 130.04375 192.39946L130.04375 196.22758L128.99687 196.22758L128.99687 192.44633Q128.99687 191.79008 128.87187 191.47758Q128.74687 191.16508 128.43437 190.97758Q128.12187 190.77446 127.7 190.77446Q127.02812 190.77446 126.52812 191.21196Q126.04375 191.63383 126.04375 192.82133L126.04375 196.22758L124.99687 196.22758ZM131.79375 196.74321L132.825 196.89946Q132.8875 197.36821 133.18437 197.58696Q133.575 197.88383 134.24687 197.88383Q134.98125 197.88383 135.37187 197.58696Q135.77812 197.29008 135.91875 196.77446Q136.0125 196.44633 135.99687 195.41508Q135.30937 196.22758 134.27812 196.22758Q132.99687 196.22758 132.29375 195.30571Q131.59062 194.36821 131.59062 193.08696Q131.59062 192.19633 131.90312 191.44633Q132.23125 190.68071 132.84062 190.27446Q133.45 189.86821 134.27812 189.86821Q135.3875 189.86821 136.10625 190.75883L136.10625 190.00883L137.075 190.00883L137.075 195.38383Q137.075 196.83696 136.77812 197.44633Q136.48125 198.05571 135.84062 198.39946Q135.2 198.75883 134.2625 198.75883Q133.15312 198.75883 132.46562 198.25883Q131.77812 197.75883 131.79375 196.74321ZM132.66875 193.00883Q132.66875 194.22758 133.15312 194.79008Q133.6375 195.35258 134.37187 195.35258Q135.10625 195.35258 135.59062 194.79008Q136.09062 194.22758 136.09062 193.04008Q136.09062 191.89946 135.575 191.32133Q135.075 190.74321 134.35625 190.74321Q133.65312 190.74321 133.15312 191.32133Q132.66875 191.88383 132.66875 193.00883Z" fill-rule="nonzero"/><path fill="#000000" d="M109.24687 274.57242L109.24687 269.16617L108.30937 269.16617L108.30937 268.35367L109.24687 268.35367L109.24687 267.6818Q109.24687 267.0568 109.35625 266.75992Q109.5125 266.33804 109.8875 266.08804Q110.27812 265.83804 110.96562 265.83804Q111.41875 265.83804 111.95 265.94742L111.79375 266.85367Q111.46562 266.8068 111.16875 266.8068Q110.68437 266.8068 110.48125 267.00992Q110.29375 267.21304 110.29375 267.77554L110.29375 268.35367L111.5125 268.35367L111.5125 269.16617L110.29375 269.16617L110.29375 274.57242L109.24687 274.57242ZM111.60625 271.46304Q111.60625 269.72867 112.55937 268.90054Q113.35625 268.21304 114.5125 268.21304Q115.79375 268.21304 116.60625 269.0568Q117.43437 269.88492 117.43437 271.3693Q117.43437 272.57242 117.075 273.25992Q116.71562 273.94742 116.0125 274.33804Q115.325 274.71304 114.5125 274.71304Q113.21562 274.71304 112.40312 273.88492Q111.60625 273.04117 111.60625 271.46304ZM112.68437 271.46304Q112.68437 272.65054 113.2 273.2443Q113.73125 273.83804 114.5125 273.83804Q115.30937 273.83804 115.825 273.2443Q116.34062 272.65054 116.34062 271.4318Q116.34062 270.27554 115.80937 269.6818Q115.29375 269.08804 114.5125 269.08804Q113.73125 269.08804 113.2 269.6818Q112.68437 270.25992 112.68437 271.46304ZM118.98125 274.57242L118.98125 268.35367L119.93437 268.35367L119.93437 269.29117Q120.29375 268.63492 120.59062 268.4318Q120.90312 268.21304 121.27812 268.21304Q121.80937 268.21304 122.35625 268.54117L121.99687 269.52554Q121.60625 269.29117 121.23125 269.29117Q120.87187 269.29117 120.59062 269.50992Q120.325 269.71304 120.21562 270.08804Q120.02812 270.65054 120.02812 271.3068L120.02812 274.57242L118.98125 274.57242ZM123.29375 274.57242L123.29375 273.3693L124.49687 273.3693L124.49687 274.57242L123.29375 274.57242ZM126.29375 274.57242L126.29375 273.3693L127.49687 273.3693L127.49687 274.57242L126.29375 274.57242ZM128.60625 271.46304Q128.60625 269.72867 129.55937 268.90054Q130.35625 268.21304 131.5125 268.21304Q132.79375 268.21304 133.60625 269.0568Q134.43437 269.88492 134.43437 271.3693Q134.43437 272.57242 134.075 273.25992Q133.71562 273.94742 133.0125 274.33804Q132.325 274.71304 131.5125 274.71304Q130.21562 274.71304 129.40312 273.88492Q128.60625 273.04117 128.60625 271.46304ZM129.68437 271.46304Q129.68437 272.65054 130.2 273.2443Q130.73125 273.83804 131.5125 273.83804Q132.30937 273.83804 132.825 273.2443Q133.34062 272.65054 133.34062 271.4318Q133.34062 270.27554 132.80937 269.6818Q132.29375 269.08804 131.5125 269.08804Q130.73125 269.08804 130.2 269.6818Q129.68437 270.25992 129.68437 271.46304ZM136.24687 274.57242L136.24687 269.16617L135.30937 269.16617L135.30937 268.35367L136.24687 268.35367L136.24687 267.6818Q136.24687 267.0568 136.35625 266.75992Q136.5125 266.33804 136.8875 266.08804Q137.27812 265.83804 137.96562 265.83804Q138.41875 265.83804 138.95 265.94742L138.79375 266.85367Q138.46562 266.8068 138.16875 266.8068Q137.68437 266.8068 137.48125 267.00992Q137.29375 267.21304 137.29375 267.77554L137.29375 268.35367L138.5125 268.35367L138.5125 269.16617L137.29375 269.16617L137.29375 274.57242L136.24687 274.57242Z" fill-rule="nonzero"/><path fill="#000000" d="M125.24687 352.91724L125.24687 347.511L124.30937 347.511L124.30937 346.6985L125.24687 346.6985L125.24687 346.0266Q125.24687 345.4016 125.35625 345.10474Q125.5125 344.68286 125.8875 344.43286Q126.27812 344.18286 126.96562 344.18286Q127.41875 344.18286 127.95 344.29224L127.79375 345.1985Q127.46562 345.1516 127.16875 345.1516Q126.68437 345.1516 126.48125 345.35474Q126.29375 345.55786 126.29375 346.12036L126.29375 346.6985L127.5125 346.6985L127.5125 347.511L126.29375 347.511L126.29375 352.91724L125.24687 352.91724ZM127.60625 349.80786Q127.60625 348.0735 128.55937 347.24536Q129.35625 346.55786 130.5125 346.55786Q131.79375 346.55786 132.60625 347.4016Q133.43437 348.22974 133.43437 349.7141Q133.43437 350.91724 133.075 351.60474Q132.71562 352.29224 132.0125 352.68286Q131.325 353.05786 130.5125 353.05786Q129.21562 353.05786 128.40312 352.22974Q127.60625 351.386 127.60625 349.80786ZM128.68437 349.80786Q128.68437 350.99536 129.2 351.5891Q129.73125 352.18286 130.5125 352.18286Q131.30937 352.18286 131.825 351.5891Q132.34062 350.99536 132.34062 349.7766Q132.34062 348.62036 131.80937 348.0266Q131.29375 347.43286 130.5125 347.43286Q129.73125 347.43286 129.2 348.0266Q128.68437 348.60474 128.68437 349.80786ZM134.98125 352.91724L134.98125 346.6985L135.93437 346.6985L135.93437 347.636Q136.29375 346.97974 136.59062 346.7766Q136.90312 346.55786 137.27812 346.55786Q137.80937 346.55786 138.35625 346.886L137.99687 347.87036Q137.60625 347.636 137.23125 347.636Q136.87187 347.636 136.59062 347.85474Q136.325 348.05786 136.21562 348.43286Q136.02812 348.99536 136.02812 349.6516L136.02812 352.91724L134.98125 352.91724Z" fill-rule="nonzero"/><path fill="#000000" d="M141.2 414.5656Q141.2 413.03436 141.5125 412.1125Q141.825 411.175 142.43437 410.675Q143.05937 410.175 143.99687 410.175Q144.68437 410.175 145.2 410.45624Q145.73125 410.7375 146.075 411.26874Q146.41875 411.78436 146.60625 412.53436Q146.79375 413.28436 146.79375 414.5656Q146.79375 416.08124 146.48125 417.0031Q146.18437 417.925 145.55937 418.4406Q144.95 418.9406 143.99687 418.9406Q142.7625 418.9406 142.04375 418.05Q141.2 416.9875 141.2 414.5656ZM142.27812 414.5656Q142.27812 416.675 142.77812 417.3781Q143.27812 418.08124 143.99687 418.08124Q144.73125 418.08124 145.21562 417.3781Q145.71562 416.675 145.71562 414.5656Q145.71562 412.4406 145.21562 411.7531Q144.73125 411.05 143.98125 411.05Q143.2625 411.05 142.825 411.65936Q142.27812 412.4406 142.27812 414.5656Z" fill-rule="nonzero"/><path fill="#000000" d="M317.06876 418.8L316.02188 418.8L316.02188 412.08124Q315.63126 412.4406 315.00626 412.8156Q314.39688 413.175 313.9125 413.34686L313.9125 412.33124Q314.7875 411.90936 315.44376 411.33124Q316.11563 410.7375 316.39688 410.175L317.06876 410.175L317.06876 418.8ZM320.1 414.5656Q320.1 413.03436 320.4125 412.1125Q320.725 411.175 321.33438 410.675Q321.95938 410.175 322.89688 410.175Q323.58438 410.175 324.1 410.45624Q324.63126 410.7375 324.975 411.26874Q325.31876 411.78436 325.50626 412.53436Q325.69376 413.28436 325.69376 414.5656Q325.69376 416.08124 325.38126 417.0031Q325.08438 417.925 324.45938 418.4406Q323.85 418.9406 322.89688 418.9406Q321.6625 418.9406 320.94376 418.05Q320.1 416.9875 320.1 414.5656ZM321.17813 414.5656Q321.17813 416.675 321.67813 417.3781Q322.17813 418.08124 322.89688 418.08124Q323.63126 418.08124 324.11563 417.3781Q324.61563 416.675 324.61563 414.5656Q324.61563 412.4406 324.11563 411.7531Q323.63126 411.05 322.88126 411.05Q322.1625 411.05 321.725 411.65936Q321.17813 412.4406 321.17813 414.5656ZM327.1 414.5656Q327.1 413.03436 327.4125 412.1125Q327.725 411.175 328.33438 410.675Q328.95938 410.175 329.89688 410.175Q330.58438 410.175 331.1 410.45624Q331.63126 410.7375 331.975 411.26874Q332.31876 411.78436 332.50626 412.53436Q332.69376 413.28436 332.69376 414.5656Q332.69376 416.08124 332.38126 417.0031Q332.08438 417.925 331.45938 418.4406Q330.85 418.9406 329.89688 418.9406Q328.6625 418.9406 327.94376 418.05Q327.1 416.9875 327.1 414.5656ZM328.17813 414.5656Q328.17813 416.675 328.67813 417.3781Q329.17813 418.08124 329.89688 418.08124Q330.63126 418.08124 331.11563 417.3781Q331.61563 416.675 331.61563 414.5656Q331.61563 412.4406 331.11563 411.7531Q330.63126 411.05 329.88126 411.05Q329.1625 411.05 328.725 411.65936Q328.17813 412.4406 328.17813 414.5656Z" fill-rule="nonzero"/><path fill="#000000" d="M497.54688 417.78436L497.54688 418.8L491.85938 418.8Q491.85938 418.425 491.98438 418.0656Q492.20312 417.4875 492.67188 416.925Q493.15625 416.3625 494.0625 415.6281Q495.46875 414.47186 495.95312 413.8Q496.45312 413.1281 496.45312 412.53436Q496.45312 411.90936 496.0 411.4875Q495.54688 411.05 494.82812 411.05Q494.0625 411.05 493.60938 411.5031Q493.15625 411.95624 493.14062 412.76874L492.0625 412.65936Q492.17188 411.4406 492.89062 410.8156Q493.625 410.175 494.85938 410.175Q496.09375 410.175 496.8125 410.8625Q497.53125 411.55 497.53125 412.5656Q497.53125 413.08124 497.3125 413.58124Q497.10938 414.0656 496.60938 414.6281Q496.125 415.175 495.0 416.1281Q494.04688 416.925 493.76562 417.22186Q493.5 417.5031 493.32812 417.78436L497.54688 417.78436ZM499.0 414.5656Q499.0 413.03436 499.3125 412.1125Q499.625 411.175 500.23438 410.675Q500.85938 410.175 501.79688 410.175Q502.48438 410.175 503.0 410.45624Q503.53125 410.7375 503.875 411.26874Q504.21875 411.78436 504.40625 412.53436Q504.59375 413.28436 504.59375 414.5656Q504.59375 416.08124 504.28125 417.0031Q503.98438 417.925 503.35938 418.4406Q502.75 418.9406 501.79688 418.9406Q500.5625 418.9406 499.84375 418.05Q499.0 416.9875 499.0 414.5656ZM500.07812 414.5656Q500.07812 416.675 500.57812 417.3781Q501.07812 418.08124 501.79688 418.08124Q502.53125 418.08124 503.01562 417.3781Q503.51562 416.675 503.51562 414.5656Q503.51562 412.4406 503.01562 411.7531Q502.53125 411.05 501.78125 411.05Q501.0625 411.05 500.625 411.65936Q500.07812 412.4406 500.07812 414.5656ZM506.0 414.5656Q506.0 413.03436 506.3125 412.1125Q506.625 411.175 507.23438 410.675Q507.85938 410.175 508.79688 410.175Q509.48438 410.175 510.0 410.45624Q510.53125 410.7375 510.875 411.26874Q511.21875 411.78436 511.40625 412.53436Q511.59375 413.28436 511.59375 414.5656Q511.59375 416.08124 511.28125 417.0031Q510.98438 417.925 510.35938 418.4406Q509.75 418.9406 508.79688 418.9406Q507.5625 418.9406 506.84375 418.05Q506.0 416.9875 506.0 414.5656ZM507.07812 414.5656Q507.07812 416.675 507.57812 417.3781Q508.07812 418.08124 508.79688 418.08124Q509.53125 418.08124 510.01562 417.3781Q510.51562 416.675 510.51562 414.5656Q510.51562 412.4406 510.01562 411.7531Q509.53125 411.05 508.78125 411.05Q508.0625 411.05 507.625 411.65936Q507.07812 412.4406 507.07812 414.5656Z" fill-rule="nonzero"/><path fill="#000000" d="M670.9 416.53436L671.9625 416.39374Q672.1344 417.28436 672.5719 417.6906Q673.0094 418.08124 673.6344 418.08124Q674.3844 418.08124 674.9 417.5656Q675.41565 417.05 675.41565 416.28436Q675.41565 415.5656 674.9313 415.09686Q674.4625 414.6125 673.72815 414.6125Q673.4313 414.6125 672.97815 414.7375L673.10315 413.8Q673.2125 413.8156 673.275 413.8156Q673.9469 413.8156 674.47815 413.47186Q675.025 413.1125 675.025 412.3781Q675.025 411.8 674.6344 411.425Q674.2438 411.03436 673.6188 411.03436Q673.0094 411.03436 672.5875 411.425Q672.1813 411.8156 672.0719 412.58124L671.0094 412.39374Q671.1969 411.34686 671.8844 410.76874Q672.5719 410.175 673.5875 410.175Q674.29065 410.175 674.8844 410.4875Q675.47815 410.78436 675.79065 411.3Q676.10315 411.8156 676.10315 412.40936Q676.10315 412.95624 675.8063 413.425Q675.5094 413.8781 674.9313 414.14374Q675.6813 414.3156 676.10315 414.8781Q676.525 415.425 676.525 416.26874Q676.525 417.39374 675.6969 418.175Q674.8844 418.95624 673.6344 418.95624Q672.5094 418.95624 671.7594 418.28436Q671.0094 417.59686 670.9 416.53436ZM677.9 414.5656Q677.9 413.03436 678.2125 412.1125Q678.525 411.175 679.1344 410.675Q679.7594 410.175 680.6969 410.175Q681.3844 410.175 681.9 410.45624Q682.4313 410.7375 682.775 411.26874Q683.1188 411.78436 683.3063 412.53436Q683.4938 413.28436 683.4938 414.5656Q683.4938 416.08124 683.1813 417.0031Q682.8844 417.925 682.2594 418.4406Q681.65 418.9406 680.6969 418.9406Q679.4625 418.9406 678.7438 418.05Q677.9 416.9875 677.9 414.5656ZM678.97815 414.5656Q678.97815 416.675 679.47815 417.3781Q679.97815 418.08124 680.6969 418.08124Q681.4313 418.08124 681.91565 417.3781Q682.41565 416.675 682.41565 414.5656Q682.41565 412.4406 681.91565 411.7531Q681.4313 411.05 680.6813 411.05Q679.9625 411.05 679.525 411.65936Q678.97815 412.4406 678.97815 414.5656ZM684.9 414.5656Q684.9 413.03436 685.2125 412.1125Q685.525 411.175 686.1344 410.675Q686.7594 410.175 687.6969 410.175Q688.3844 410.175 688.9 410.45624Q689.4313 410.7375 689.775 411.26874Q690.1188 411.78436 690.3063 412.53436Q690.4938 413.28436 690.4938 414.5656Q690.4938 416.08124 690.1813 417.0031Q689.8844 417.925 689.2594 418.4406Q688.65 418.9406 687.6969 418.9406Q686.4625 418.9406 685.7438 418.05Q684.9 416.9875 684.9 414.5656ZM685.97815 414.5656Q685.97815 416.675 686.47815 417.3781Q686.97815 418.08124 687.6969 418.08124Q688.4313 418.08124 688.91565 417.3781Q689.41565 416.675 689.41565 414.5656Q689.41565 412.4406 688.91565 411.7531Q688.4313 411.05 687.6813 411.05Q686.9625 411.05 686.525 411.65936Q685.97815 412.4406 685.97815 414.5656Z" fill-rule="nonzero"/><path fill="#000000" d="M853.175 418.8L853.175 416.7375L849.45624 416.7375L849.45624 415.76874L853.3781 410.20624L854.2375 410.20624L854.2375 415.76874L855.39374 415.76874L855.39374 416.7375L854.2375 416.7375L854.2375 418.8L853.175 418.8ZM853.175 415.76874L853.175 411.90936L850.4875 415.76874L853.175 415.76874ZM856.8 414.5656Q856.8 413.03436 857.1125 412.1125Q857.425 411.175 858.03436 410.675Q858.65936 410.175 859.59686 410.175Q860.28436 410.175 860.8 410.45624Q861.33124 410.7375 861.675 411.26874Q862.01874 411.78436 862.20624 412.53436Q862.39374 413.28436 862.39374 414.5656Q862.39374 416.08124 862.08124 417.0031Q861.78436 417.925 861.15936 418.4406Q860.55 418.9406 859.59686 418.9406Q858.3625 418.9406 857.64374 418.05Q856.8 416.9875 856.8 414.5656ZM857.8781 414.5656Q857.8781 416.675 858.3781 417.3781Q858.8781 418.08124 859.59686 418.08124Q860.33124 418.08124 860.8156 417.3781Q861.3156 416.675 861.3156 414.5656Q861.3156 412.4406 860.8156 411.7531Q860.33124 411.05 859.58124 411.05Q858.8625 411.05 858.425 411.65936Q857.8781 412.4406 857.8781 414.5656ZM863.8 414.5656Q863.8 413.03436 864.1125 412.1125Q864.425 411.175 865.03436 410.675Q865.65936 410.175 866.59686 410.175Q867.28436 410.175 867.8 410.45624Q868.33124 410.7375 868.675 411.26874Q869.01874 411.78436 869.20624 412.53436Q869.39374 413.28436 869.39374 414.5656Q869.39374 416.08124 869.08124 417.0031Q868.78436 417.925 868.15936 418.4406Q867.55 418.9406 866.59686 418.9406Q865.3625 418.9406 864.64374 418.05Q863.8 416.9875 863.8 414.5656ZM864.8781 414.5656Q864.8781 416.675 865.3781 417.3781Q865.8781 418.08124 866.59686 418.08124Q867.33124 418.08124 867.8156 417.3781Q868.3156 416.675 868.3156 414.5656Q868.3156 412.4406 867.8156 411.7531Q867.33124 411.05 866.58124 411.05Q865.8625 411.05 865.425 411.65936Q864.8781 412.4406 864.8781 414.5656Z" fill-rule="nonzero"/><path fill="#757575" d="M23.6375 41.2L23.6375 38.45L26.3875 38.45L26.3875 41.2L23.6375 41.2ZM32.2625 41.2L29.5125 41.2L29.5125 30.825L32.075 30.825L32.075 32.309376Q32.715626 31.2625 33.23125 30.934376Q33.7625 30.590626 34.434376 30.590626Q35.371876 30.590626 36.23125 31.10625L35.3875 33.496876Q34.7 33.059376 34.10625 33.059376Q33.528126 33.059376 33.121876 33.371876Q32.715626 33.684376 32.48125 34.528126Q32.2625 35.35625 32.2625 37.996876L32.2625 41.2ZM43.6375 37.903126L46.371876 38.35625Q45.85625 39.85625 44.715626 40.653126Q43.575 41.434376 41.871876 41.434376Q39.153126 41.434376 37.85625 39.66875Q36.840626 38.246876 36.840626 36.090626Q36.840626 33.5125 38.184376 32.059376Q39.528126 30.590626 41.590626 30.590626Q43.903126 30.590626 45.23125 32.121876Q46.575 33.653126 46.528126 36.809376L39.653126 36.809376Q39.684376 38.028126 40.309376 38.715626Q40.95 39.3875 41.8875 39.3875Q42.54375 39.3875 42.98125 39.04375Q43.41875 38.684376 43.6375 37.903126ZM43.79375 35.121876Q43.7625 33.934376 43.16875 33.325Q42.590626 32.7 41.7625 32.7Q40.85625 32.7 40.278126 33.340626Q39.684376 33.996876 39.7 35.121876L43.79375 35.121876ZM58.153126 41.2L55.60625 41.2L55.60625 39.66875Q54.965626 40.559376 54.090626 40.996876Q53.23125 41.434376 52.35625 41.434376Q50.575 41.434376 49.29375 39.996876Q48.028126 38.559376 48.028126 35.98125Q48.028126 33.340626 49.2625 31.965626Q50.496876 30.590626 52.403126 30.590626Q54.1375 30.590626 55.403126 32.04375L55.403126 26.8875L58.153126 26.8875L58.153126 41.2ZM50.825 35.79375Q50.825 37.45 51.278126 38.184376Q51.95 39.2625 53.1375 39.2625Q54.090626 39.2625 54.746876 38.465626Q55.41875 37.653126 55.41875 36.059376Q55.41875 34.2625 54.7625 33.48125Q54.121876 32.7 53.121876 32.7Q52.1375 32.7 51.48125 33.48125Q50.825 34.246876 50.825 35.79375ZM67.46562 41.2L67.46562 39.653126Q66.90312 40.48125 65.96562 40.965626Q65.04375 41.434376 64.02812 41.434376Q62.98125 41.434376 62.153126 40.98125Q61.325 40.5125 60.95 39.684376Q60.575 38.85625 60.575 37.3875L60.575 30.825L63.325 30.825L63.325 35.590626Q63.325 37.778126 63.465626 38.278126Q63.621876 38.7625 64.0125 39.059376Q64.41875 39.340626 65.04375 39.340626Q65.74687 39.340626 66.29375 38.965626Q66.85625 38.575 67.05937 38.0125Q67.2625 37.434376 67.2625 35.2L67.2625 30.825L70.0125 30.825L70.0125 41.2L67.46562 41.2ZM81.68437 33.8875L78.98125 34.3875Q78.84062 33.575 78.35625 33.16875Q77.87187 32.746876 77.10625 32.746876Q76.075 32.746876 75.46562 33.465626Q74.85625 34.16875 74.85625 35.825Q74.85625 37.66875 75.46562 38.434376Q76.09062 39.2 77.1375 39.2Q77.91875 39.2 78.41875 38.7625Q78.91875 38.309376 79.12187 37.23125L81.80937 37.684376Q81.40312 39.54375 80.2 40.496876Q79.0125 41.434376 77.0125 41.434376Q74.73125 41.434376 73.37187 39.996876Q72.02812 38.559376 72.02812 36.028126Q72.02812 33.45 73.3875 32.028126Q74.74687 30.590626 77.05937 30.590626Q78.95 30.590626 80.05937 31.41875Q81.18437 32.23125 81.68437 33.8875ZM89.6375 37.903126L92.37187 38.35625Q91.85625 39.85625 90.71562 40.653126Q89.575 41.434376 87.87187 41.434376Q85.15312 41.434376 83.85625 39.66875Q82.84062 38.246876 82.84062 36.090626Q82.84062 33.5125 84.18437 32.059376Q85.52812 30.590626 87.59062 30.590626Q89.90312 30.590626 91.23125 32.121876Q92.575 33.653126 92.52812 36.809376L85.65312 36.809376Q85.68437 38.028126 86.30937 38.715626Q86.95 39.3875 87.8875 39.3875Q88.54375 39.3875 88.98125 39.04375Q89.41875 38.684376 89.6375 37.903126ZM89.79375 35.121876Q89.7625 33.934376 89.16875 33.325Q88.59062 32.7 87.7625 32.7Q86.85625 32.7 86.27812 33.340626Q85.68437 33.996876 85.7 35.121876L89.79375 35.121876ZM103.48125 41.2L99.30937 30.825L102.18437 30.825L104.1375 36.121876L104.71562 37.8875Q104.93437 37.215626 104.99687 36.996876Q105.12187 36.559376 105.27812 36.121876L107.2625 30.825L110.075 30.825L105.96562 41.2L103.48125 41.2ZM110.66875 38.246876L113.41875 37.825Q113.60625 38.621876 114.1375 39.04375Q114.66875 39.45 115.6375 39.45Q116.7 39.45 117.24687 39.059376Q117.60625 38.79375 117.60625 38.325Q117.60625 38.0125 117.40312 37.809376Q117.2 37.621876 116.49687 37.45Q113.16875 36.715626 112.27812 36.10625Q111.04375 35.278126 111.04375 33.778126Q111.04375 32.434376 112.10625 31.5125Q113.18437 30.590626 115.41875 30.590626Q117.54375 30.590626 118.575 31.29375Q119.62187 31.98125 120.0125 33.340626L117.41875 33.809376Q117.24687 33.215626 116.77812 32.8875Q116.325 32.559376 115.46562 32.559376Q114.3875 32.559376 113.91875 32.871876Q113.60625 33.090626 113.60625 33.41875Q113.60625 33.715626 113.87187 33.91875Q114.24687 34.2 116.43437 34.7Q118.62187 35.2 119.49687 35.91875Q120.35625 36.653126 120.35625 37.95Q120.35625 39.3875 119.16875 40.41875Q117.98125 41.434376 115.6375 41.434376Q113.52812 41.434376 112.27812 40.575Q111.04375 39.715626 110.66875 38.246876ZM127.43437 30.825L128.96562 30.825L128.96562 30.04375Q128.96562 28.73125 129.23125 28.090626Q129.5125 27.45 130.2625 27.04375Q131.0125 26.6375 132.15312 26.6375Q133.325 26.6375 134.45 26.996876L134.075 28.903126Q133.41875 28.746876 132.80937 28.746876Q132.21562 28.746876 131.95 29.028126Q131.7 29.309376 131.7 30.090626L131.7 30.825L133.74687 30.825L133.74687 32.98125L131.7 32.98125L131.7 41.2L128.96562 41.2L128.96562 32.98125L127.43437 32.98125L127.43437 30.825ZM134.99687 35.871876Q134.99687 34.496876 135.66875 33.215626Q136.35625 31.934376 137.59062 31.2625Q138.825 30.590626 140.34062 30.590626Q142.7 30.590626 144.2 32.121876Q145.7 33.653126 145.7 35.98125Q145.7 38.340626 144.18437 39.8875Q142.66875 41.434376 140.35625 41.434376Q138.93437 41.434376 137.6375 40.79375Q136.35625 40.1375 135.66875 38.903126Q134.99687 37.653126 134.99687 35.871876ZM137.80937 36.0125Q137.80937 37.559376 138.54375 38.3875Q139.27812 39.2 140.35625 39.2Q141.43437 39.2 142.15312 38.3875Q142.8875 37.559376 142.8875 35.996876Q142.8875 34.465626 142.15312 33.653126Q141.43437 32.825 140.35625 32.825Q139.27812 32.825 138.54375 33.653126Q137.80937 34.465626 137.80937 36.0125ZM150.2625 41.2L147.5125 41.2L147.5125 30.825L150.075 30.825L150.075 32.309376Q150.71562 31.2625 151.23125 30.934376Q151.7625 30.590626 152.43437 30.590626Q153.37187 30.590626 154.23125 31.10625L153.3875 33.496876Q152.7 33.059376 152.10625 33.059376Q151.52812 33.059376 151.12187 33.371876Q150.71562 33.684376 150.48125 34.528126Q150.2625 35.35625 150.2625 37.996876L150.2625 41.2ZM164.48125 41.2L160.30937 30.825L163.18437 30.825L165.1375 36.121876L165.71562 37.8875Q165.93437 37.215626 165.99687 36.996876Q166.12187 36.559376 166.27812 36.121876L168.2625 30.825L171.075 30.825L166.96562 41.2L164.48125 41.2ZM171.66875 38.246876L174.41875 37.825Q174.60625 38.621876 175.1375 39.04375Q175.66875 39.45 176.6375 39.45Q177.7 39.45 178.24687 39.059376Q178.60625 38.79375 178.60625 38.325Q178.60625 38.0125 178.40312 37.809376Q178.2 37.621876 177.49687 37.45Q174.16875 36.715626 173.27812 36.10625Q172.04375 35.278126 172.04375 33.778126Q172.04375 32.434376 173.10625 31.5125Q174.18437 30.590626 176.41875 30.590626Q178.54375 30.590626 179.575 31.29375Q180.62187 31.98125 181.0125 33.340626L178.41875 33.809376Q178.24687 33.215626 177.77812 32.8875Q177.325 32.559376 176.46562 32.559376Q175.3875 32.559376 174.91875 32.871876Q174.60625 33.090626 174.60625 33.41875Q174.60625 33.715626 174.87187 33.91875Q175.24687 34.2 177.43437 34.7Q179.62187 35.2 180.49687 35.91875Q181.35625 36.653126 181.35625 37.95Q181.35625 39.3875 180.16875 40.41875Q178.98125 41.434376 176.6375 41.434376Q174.52812 41.434376 173.27812 40.575Q172.04375 39.715626 171.66875 38.246876ZM188.43437 30.825L189.96562 30.825L189.96562 30.04375Q189.96562 28.73125 190.23125 28.090626Q190.5125 27.45 191.2625 27.04375Q192.0125 26.6375 193.15312 26.6375Q194.325 26.6375 195.45 26.996876L195.075 28.903126Q194.41875 28.746876 193.80937 28.746876Q193.21562 28.746876 192.95 29.028126Q192.7 29.309376 192.7 30.090626L192.7 30.825L194.74687 30.825L194.74687 32.98125L192.7 32.98125L192.7 41.2L189.96562 41.2L189.96562 32.98125L188.43437 32.98125L188.43437 30.825ZM195.99687 35.871876Q195.99687 34.496876 196.66875 33.215626Q197.35625 31.934376 198.59062 31.2625Q199.825 30.590626 201.34062 30.590626Q203.7 30.590626 205.2 32.121876Q206.7 33.653126 206.7 35.98125Q206.7 38.340626 205.18437 39.8875Q203.66875 41.434376 201.35625 41.434376Q199.93437 41.434376 198.6375 40.79375Q197.35625 40.1375 196.66875 38.903126Q195.99687 37.653126 195.99687 35.871876ZM198.80937 36.0125Q198.80937 37.559376 199.54375 38.3875Q200.27812 39.2 201.35625 39.2Q202.43437 39.2 203.15312 38.3875Q203.8875 37.559376 203.8875 35.996876Q203.8875 34.465626 203.15312 33.653126Q202.43437 32.825 201.35625 32.825Q200.27812 32.825 199.54375 33.653126Q198.80937 34.465626 198.80937 36.0125ZM211.2625 41.2L208.5125 41.2L208.5125 30.825L211.075 30.825L211.075 32.309376Q211.71562 31.2625 212.23125 30.934376Q212.7625 30.590626 213.43437 30.590626Q214.37187 30.590626 215.23125 31.10625L214.3875 33.496876Q213.7 33.059376 213.10625 33.059376Q212.52812 33.059376 212.12187 33.371876Q211.71562 33.684376 211.48125 34.528126Q211.2625 35.35625 211.2625 37.996876L211.2625 41.2ZM216.6375 41.2L216.6375 38.45L219.3875 38.45L219.3875 41.2L216.6375 41.2ZM222.6375 41.2L222.6375 38.45L225.3875 38.45L225.3875 41.2L222.6375 41.2ZM227.99687 35.871876Q227.99687 34.496876 228.66875 33.215626Q229.35625 31.934376 230.59062 31.2625Q231.825 30.590626 233.34062 30.590626Q235.7 30.590626 237.2 32.121876Q238.7 33.653126 238.7 35.98125Q238.7 38.340626 237.18437 39.8875Q235.66875 41.434376 233.35625 41.434376Q231.93437 41.434376 230.6375 40.79375Q229.35625 40.1375 228.66875 38.903126Q227.99687 37.653126 227.99687 35.871876ZM230.80937 36.0125Q230.80937 37.559376 231.54375 38.3875Q232.27812 39.2 233.35625 39.2Q234.43437 39.2 235.15312 38.3875Q235.8875 37.559376 235.8875 35.996876Q235.8875 34.465626 235.15312 33.653126Q234.43437 32.825 233.35625 32.825Q232.27812 32.825 231.54375 33.653126Q230.80937 34.465626 230.80937 36.0125ZM239.43437 30.825L240.96562 30.825L240.96562 30.04375Q240.96562 28.73125 241.23125 28.090626Q241.5125 27.45 242.2625 27.04375Q243.0125 26.6375 244.15312 26.6375Q245.325 26.6375 246.45 26.996876L246.075 28.903126Q245.41875 28.746876 244.80937 28.746876Q244.21562 28.746876 243.95 29.028126Q243.7 29.309376 243.7 30.090626L243.7 30.825L245.74687 30.825L245.74687 32.98125L243.7 32.98125L243.7 41.2L240.96562 41.2L240.96562 32.98125L239.43437 32.98125L239.43437 30.825Z" fill-rule="nonzero"/></svg>