<svg version="1.1" viewBox="0.0 0.0 882.0 444.0" fill="none" stroke="none" stroke-linecap="square" stroke-miterlimit="10" width="882" height="444" xmlns:xlink="http://www.w3.org/1999/xlink" xmlns="http://www.w3.org/2000/svg"><path fill="#ffffff" d="M0 0L882.0 0L882.0 444.0L0 444.0L0 0Z" fill-rule="nonzero"/><path stroke="#333333" stroke-width="1.0" stroke-linecap="butt" d="M143.5 61.5L143.5 401.5" fill-rule="nonzero"/><path stroke="#cccccc" stroke-width="1.0" stroke-linecap="butt" d="M322.5 61.5L322.5 401.5" fill-rule="nonzero"/><path stroke="#cccccc" stroke-width="1.0" stroke-linecap="butt" d="M501.5 61.5L501.5 401.5" fill-rule="nonzero"/><path stroke="#cccccc" stroke-width="1.0" stroke-linecap="butt" d="M680.5 61.5L680.5 401.5" fill-rule="nonzero"/><path stroke="#cccccc" stroke-width="1.0" stroke-linecap="butt" d="M859.5 61.5L859.5 401.5" fill-rule="nonzero"/><clipPath id="id_0"><path d="M143.2 61.0L859.8 61.0L859.8 401.8L143.2 401.8L143.2 61.0Z" clip-rule="nonzero"/></clipPath><path stroke="#000000" stroke-width="2.0" stroke-linecap="butt" stroke-opacity="0.0" clip-path="url(#id_0)" d="M143.0 140.0L143.0 89.0L319.0 89.0C320.10458 89.0 321.0 89.89543 321.0 91.0L321.0 138.0C321.0 139.10457 320.10458 140.0 319.0 140.0Z" fill-rule="nonzero"/><path fill="#129a74" clip-path="url(#id_0)" d="M143.0 140.0L143.0 89.0L319.0 89.0C320.10458 89.0 321.0 89.89543 321.0 91.0L321.0 138.0C321.0 139.10457 320.10458 140.0 319.0 140.0Z" fill-rule="nonzero"/><path stroke="#000000" stroke-width="2.0" stroke-linecap="butt" stroke-opacity="0.0" clip-path="url(#id_0)" d="M143.0 218.0L143.0 167.0L317.0 167.0C318.10458 167.0 319.0 167.89543 319.0 169.0L319.0 216.0C319.0 217.10457 318.10458 218.0 317.0 218.0Z" fill-rule="nonzero"/><path fill="#129a74" clip-path="url(#id_0)" d="M143.0 218.0L143.0 167.0L317.0 167.0C318.10458 167.0 319.0 167.89543 319.0 169.0L319.0 216.0C319.0 217.10457 318.10458 218.0 317.0 218.0Z" fill-rule="nonzero"/><path stroke="#000000" stroke-width="2.0" stroke-linecap="butt" stroke-opacity="0.0" clip-path="url(#id_0)" d="M143.0 297.0L143.0 246.0L797.0 246.0C798.10455 246.0 799.0 246.89543 799.0 248.0L799.0 295.0C799.0 296.10458 798.10455 297.0 797.0 297.0Z" fill-rule="nonzero"/><path fill="#129a74" clip-path="url(#id_0)" d="M143.0 297.0L143.0 246.0L797.0 246.0C798.10455 246.0 799.0 246.89543 799.0 248.0L799.0 295.0C799.0 296.10458 798.10455 297.0 797.0 297.0Z" fill-rule="nonzero"/><path stroke="#000000" stroke-width="2.0" stroke-linecap="butt" stroke-opacity="0.0" clip-path="url(#id_0)" d="M143.0 375.0L143.0 324.0L822.0 324.0C823.10455 324.0 824.0 324.89542 824.0 326.0L824.0 373.0C824.0 374.10458 823.10455 375.0 822.0 375.0Z" fill-rule="nonzero"/><path fill="#129a74" clip-path="url(#id_0)" d="M143.0 375.0L143.0 324.0L822.0 324.0C823.10455 324.0 824.0 324.89542 824.0 326.0L824.0 373.0C824.0 374.10458 823.10455 375.0 822.0 375.0Z" fill-rule="nonzero"/><path stroke="#129a74" stroke-width="3.0" stroke-linejoin="round" stroke-linecap="round" d="M290.3622 115.640625L291.5497 115.640625L291.5497 116.515625L290.3622 116.515625L290.3622 118.5L289.2841 118.5L289.2841 116.515625L285.39346 116.515625L285.39346 115.875L289.20596 109.96875L290.3622 109.96875L290.3622 115.640625ZM286.62784 115.640625L289.2841 115.640625L289.2841 111.453125L289.14346 111.6875L286.62784 115.640625ZM296.94034 114.75Q296.6122 115.15625 296.12784 115.40625Q295.6591 115.640625 295.0966 115.640625Q294.3622 115.640625 293.81534 115.28125Q293.26846 114.921875 292.9716 114.265625Q292.6747 113.59375 292.6747 112.796875Q292.6747 111.953125 292.9872 111.265625Q293.31534 110.578125 293.9091 110.21875Q294.51846 109.84375 295.31534 109.84375Q296.58096 109.84375 297.2997 110.796875Q298.0341 111.75 298.0341 113.375L298.0341 113.6875Q298.0341 116.1875 297.0497 117.328125Q296.06534 118.46875 294.08096 118.5L293.8622 118.5L293.8622 117.59375L294.0966 117.59375Q295.44034 117.5625 296.1591 116.890625Q296.87784 116.21875 296.94034 114.75ZM295.26846 114.75Q295.81534 114.75 296.26846 114.421875Q296.7372 114.078125 296.95596 113.59375L296.95596 113.15625Q296.95596 112.09375 296.4872 111.421875Q296.01846 110.75 295.31534 110.75Q294.5966 110.75 294.1591 111.296875Q293.7372 111.84375 293.7372 112.75Q293.7372 113.625 294.14346 114.1875Q294.56534 114.75 295.26846 114.75ZM299.9247 117.9375Q299.9247 117.65625 300.08096 117.46875Q300.25284 117.28125 300.58096 117.28125Q300.9247 117.28125 301.0966 117.46875Q301.26846 117.65625 301.26846 117.9375Q301.26846 118.203125 301.0966 118.390625Q300.9247 118.5625 300.58096 118.5625Q300.25284 118.5625 300.08096 118.390625Q299.9247 118.203125 299.9247 117.9375ZM303.2841 114.21875L303.7216 109.96875L308.0966 109.96875L308.0966 110.96875L304.64346 110.96875L304.37784 113.296875Q305.01846 112.921875 305.81534 112.921875Q306.9716 112.921875 307.6591 113.703125Q308.3466 114.46875 308.3466 115.78125Q308.3466 117.09375 307.62784 117.859375Q306.9247 118.625 305.64346 118.625Q304.51846 118.625 303.7997 118.0Q303.08096 117.359375 302.9872 116.25L304.00284 116.25Q304.1122 116.984375 304.5341 117.359375Q304.95596 117.734375 305.64346 117.734375Q306.39346 117.734375 306.83096 117.21875Q307.26846 116.703125 307.26846 115.796875Q307.26846 114.9375 306.7997 114.421875Q306.33096 113.90625 305.5497 113.90625Q304.8466 113.90625 304.44034 114.203125L304.1591 114.4375L303.2841 114.21875ZM313.94034 114.75Q313.6122 115.15625 313.12784 115.40625Q312.6591 115.640625 312.0966 115.640625Q311.3622 115.640625 310.81534 115.28125Q310.26846 114.921875 309.9716 114.265625Q309.6747 113.59375 309.6747 112.796875Q309.6747 111.953125 309.9872 111.265625Q310.31534 110.578125 310.9091 110.21875Q311.51846 109.84375 312.31534 109.84375Q313.58096 109.84375 314.2997 110.796875Q315.0341 111.75 315.0341 113.375L315.0341 113.6875Q315.0341 116.1875 314.0497 117.328125Q313.06534 118.46875 311.08096 118.5L310.8622 118.5L310.8622 117.59375L311.0966 117.59375Q312.44034 117.5625 313.1591 116.890625Q313.87784 116.21875 313.94034 114.75ZM312.26846 114.75Q312.81534 114.75 313.26846 114.421875Q313.7372 114.078125 313.95596 113.59375L313.95596 113.15625Q313.95596 112.09375 313.4872 111.421875Q313.01846 110.75 312.31534 110.75Q311.5966 110.75 311.1591 111.296875Q310.7372 111.84375 310.7372 112.75Q310.7372 113.625 311.14346 114.1875Q311.56534 114.75 312.26846 114.75Z" fill-rule="nonzero"/><path fill="#ffffff" d="M290.3622 115.640625L291.5497 115.640625L291.5497 116.515625L290.3622 116.515625L290.3622 118.5L289.2841 118.5L289.2841 116.515625L285.39346 116.515625L285.39346 115.875L289.20596 109.96875L290.3622 109.96875L290.3622 115.640625ZM286.62784 115.640625L289.2841 115.640625L289.2841 111.453125L289.14346 111.6875L286.62784 115.640625ZM296.94034 114.75Q296.6122 115.15625 296.12784 115.40625Q295.6591 115.640625 295.0966 115.640625Q294.3622 115.640625 293.81534 115.28125Q293.26846 114.921875 292.9716 114.265625Q292.6747 113.59375 292.6747 112.796875Q292.6747 111.953125 292.9872 111.265625Q293.31534 110.578125 293.9091 110.21875Q294.51846 109.84375 295.31534 109.84375Q296.58096 109.84375 297.2997 110.796875Q298.0341 111.75 298.0341 113.375L298.0341 113.6875Q298.0341 116.1875 297.0497 117.328125Q296.06534 118.46875 294.08096 118.5L293.8622 118.5L293.8622 117.59375L294.0966 117.59375Q295.44034 117.5625 296.1591 116.890625Q296.87784 116.21875 296.94034 114.75ZM295.26846 114.75Q295.81534 114.75 296.26846 114.421875Q296.7372 114.078125 296.95596 113.59375L296.95596 113.15625Q296.95596 112.09375 296.4872 111.421875Q296.01846 110.75 295.31534 110.75Q294.5966 110.75 294.1591 111.296875Q293.7372 111.84375 293.7372 112.75Q293.7372 113.625 294.14346 114.1875Q294.56534 114.75 295.26846 114.75ZM299.9247 117.9375Q299.9247 117.65625 300.08096 117.46875Q300.25284 117.28125 300.58096 117.28125Q300.9247 117.28125 301.0966 117.46875Q301.26846 117.65625 301.26846 117.9375Q301.26846 118.203125 301.0966 118.390625Q300.9247 118.5625 300.58096 118.5625Q300.25284 118.5625 300.08096 118.390625Q299.9247 118.203125 299.9247 117.9375ZM303.2841 114.21875L303.7216 109.96875L308.0966 109.96875L308.0966 110.96875L304.64346 110.96875L304.37784 113.296875Q305.01846 112.921875 305.81534 112.921875Q306.9716 112.921875 307.6591 113.703125Q308.3466 114.46875 308.3466 115.78125Q308.3466 117.09375 307.62784 117.859375Q306.9247 118.625 305.64346 118.625Q304.51846 118.625 303.7997 118.0Q303.08096 117.359375 302.9872 116.25L304.00284 116.25Q304.1122 116.984375 304.5341 117.359375Q304.95596 117.734375 305.64346 117.734375Q306.39346 117.734375 306.83096 117.21875Q307.26846 116.703125 307.26846 115.796875Q307.26846 114.9375 306.7997 114.421875Q306.33096 113.90625 305.5497 113.90625Q304.8466 113.90625 304.44034 114.203125L304.1591 114.4375L303.2841 114.21875ZM313.94034 114.75Q313.6122 115.15625 313.12784 115.40625Q312.6591 115.640625 312.0966 115.640625Q311.3622 115.640625 310.81534 115.28125Q310.26846 114.921875 309.9716 114.265625Q309.6747 113.59375 309.6747 112.796875Q309.6747 111.953125 309.9872 111.265625Q310.31534 110.578125 310.9091 110.21875Q311.51846 109.84375 312.31534 109.84375Q313.58096 109.84375 314.2997 110.796875Q315.0341 111.75 315.0341 113.375L315.0341 113.6875Q315.0341 116.1875 314.0497 117.328125Q313.06534 118.46875 311.08096 118.5L310.8622 118.5L310.8622 117.59375L311.0966 117.59375Q312.44034 117.5625 313.1591 116.890625Q313.87784 116.21875 313.94034 114.75ZM312.26846 114.75Q312.81534 114.75 313.26846 114.421875Q313.7372 114.078125 313.95596 113.59375L313.95596 113.15625Q313.95596 112.09375 313.4872 111.421875Q313.01846 110.75 312.31534 110.75Q311.5966 110.75 311.1591 111.296875Q310.7372 111.84375 310.7372 112.75Q310.7372 113.625 311.14346 114.1875Q311.56534 114.75 312.26846 114.75Z" fill-rule="nonzero"/><path stroke="#129a74" stroke-width="3.0" stroke-linejoin="round" stroke-linecap="round" d="M288.5707 193.64062L289.7582 193.64062L289.7582 194.51562L288.5707 194.51562L288.5707 196.5L287.49258 196.5L287.49258 194.51562L283.60196 194.51562L283.60196 193.875L287.41446 187.96875L288.5707 187.96875L288.5707 193.64062ZM284.83633 193.64062L287.49258 193.64062L287.49258 189.45312L287.35196 189.6875L284.83633 193.64062ZM295.14883 192.75Q294.8207 193.15625 294.33633 193.40625Q293.86758 193.64062 293.30508 193.64062Q292.5707 193.64062 292.02383 193.28125Q291.47696 192.92188 291.18008 192.26562Q290.8832 191.59375 290.8832 190.79688Q290.8832 189.95312 291.1957 189.26562Q291.52383 188.57812 292.11758 188.21875Q292.72696 187.84375 293.52383 187.84375Q294.78946 187.84375 295.5082 188.79688Q296.24258 189.75 296.24258 191.375L296.24258 191.6875Q296.24258 194.1875 295.2582 195.32812Q294.27383 196.46875 292.28946 196.5L292.0707 196.5L292.0707 195.59375L292.30508 195.59375Q293.64883 195.5625 294.36758 194.89062Q295.08633 194.21875 295.14883 192.75ZM293.47696 192.75Q294.02383 192.75 294.47696 192.42188Q294.9457 192.07812 295.16446 191.59375L295.16446 191.15625Q295.16446 190.09375 294.6957 189.42188Q294.22696 188.75 293.52383 188.75Q292.80508 188.75 292.36758 189.29688Q291.9457 189.84375 291.9457 190.75Q291.9457 191.625 292.35196 192.1875Q292.77383 192.75 293.47696 192.75ZM298.1332 195.9375Q298.1332 195.65625 298.28946 195.46875Q298.46133 195.28125 298.78946 195.28125Q299.1332 195.28125 299.30508 195.46875Q299.47696 195.65625 299.47696 195.9375Q299.47696 196.20312 299.30508 196.39062Q299.1332 196.5625 298.78946 196.5625Q298.46133 196.5625 298.28946 196.39062Q298.1332 196.20312 298.1332 195.9375ZM306.35196 192.85938Q306.35196 194.76562 305.6957 195.70312Q305.05508 196.625 303.66446 196.625Q302.30508 196.625 301.64883 195.71875Q300.99258 194.8125 300.96133 193.0L300.96133 191.5625Q300.96133 189.67188 301.60196 188.76562Q302.2582 187.84375 303.64883 187.84375Q305.02383 187.84375 305.68008 188.73438Q306.33633 189.60938 306.35196 191.45312L306.35196 192.85938ZM305.2582 191.375Q305.2582 190.0 304.86758 189.375Q304.49258 188.73438 303.64883 188.73438Q302.8207 188.73438 302.43008 189.375Q302.05508 190.0 302.05508 191.29688L302.05508 193.03125Q302.05508 194.40625 302.4457 195.07812Q302.85196 195.73438 303.66446 195.73438Q304.46133 195.73438 304.85196 195.10938Q305.24258 194.48438 305.2582 193.15625L305.2582 191.375ZM312.14883 192.75Q311.8207 193.15625 311.33633 193.40625Q310.86758 193.64062 310.30508 193.64062Q309.5707 193.64062 309.02383 193.28125Q308.47696 192.92188 308.18008 192.26562Q307.8832 191.59375 307.8832 190.79688Q307.8832 189.95312 308.1957 189.26562Q308.52383 188.57812 309.11758 188.21875Q309.72696 187.84375 310.52383 187.84375Q311.78946 187.84375 312.5082 188.79688Q313.24258 189.75 313.24258 191.375L313.24258 191.6875Q313.24258 194.1875 312.2582 195.32812Q311.27383 196.46875 309.28946 196.5L309.0707 196.5L309.0707 195.59375L309.30508 195.59375Q310.64883 195.5625 311.36758 194.89062Q312.08633 194.21875 312.14883 192.75ZM310.47696 192.75Q311.02383 192.75 311.47696 192.42188Q311.9457 192.07812 312.16446 191.59375L312.16446 191.15625Q312.16446 190.09375 311.6957 189.42188Q311.22696 188.75 310.52383 188.75Q309.80508 188.75 309.36758 189.29688Q308.9457 189.84375 308.9457 190.75Q308.9457 191.625 309.35196 192.1875Q309.77383 192.75 310.47696 192.75Z" fill-rule="nonzero"/><path fill="#ffffff" d="M288.5707 193.64062L289.7582 193.64062L289.7582 194.51562L288.5707 194.51562L288.5707 196.5L287.49258 196.5L287.49258 194.51562L283.60196 194.51562L283.60196 193.875L287.41446 187.96875L288.5707 187.96875L288.5707 193.64062ZM284.83633 193.64062L287.49258 193.64062L287.49258 189.45312L287.35196 189.6875L284.83633 193.64062ZM295.14883 192.75Q294.8207 193.15625 294.33633 193.40625Q293.86758 193.64062 293.30508 193.64062Q292.5707 193.64062 292.02383 193.28125Q291.47696 192.92188 291.18008 192.26562Q290.8832 191.59375 290.8832 190.79688Q290.8832 189.95312 291.1957 189.26562Q291.52383 188.57812 292.11758 188.21875Q292.72696 187.84375 293.52383 187.84375Q294.78946 187.84375 295.5082 188.79688Q296.24258 189.75 296.24258 191.375L296.24258 191.6875Q296.24258 194.1875 295.2582 195.32812Q294.27383 196.46875 292.28946 196.5L292.0707 196.5L292.0707 195.59375L292.30508 195.59375Q293.64883 195.5625 294.36758 194.89062Q295.08633 194.21875 295.14883 192.75ZM293.47696 192.75Q294.02383 192.75 294.47696 192.42188Q294.9457 192.07812 295.16446 191.59375L295.16446 191.15625Q295.16446 190.09375 294.6957 189.42188Q294.22696 188.75 293.52383 188.75Q292.80508 188.75 292.36758 189.29688Q291.9457 189.84375 291.9457 190.75Q291.9457 191.625 292.35196 192.1875Q292.77383 192.75 293.47696 192.75ZM298.1332 195.9375Q298.1332 195.65625 298.28946 195.46875Q298.46133 195.28125 298.78946 195.28125Q299.1332 195.28125 299.30508 195.46875Q299.47696 195.65625 299.47696 195.9375Q299.47696 196.20312 299.30508 196.39062Q299.1332 196.5625 298.78946 196.5625Q298.46133 196.5625 298.28946 196.39062Q298.1332 196.20312 298.1332 195.9375ZM306.35196 192.85938Q306.35196 194.76562 305.6957 195.70312Q305.05508 196.625 303.66446 196.625Q302.30508 196.625 301.64883 195.71875Q300.99258 194.8125 300.96133 193.0L300.96133 191.5625Q300.96133 189.67188 301.60196 188.76562Q302.2582 187.84375 303.64883 187.84375Q305.02383 187.84375 305.68008 188.73438Q306.33633 189.60938 306.35196 191.45312L306.35196 192.85938ZM305.2582 191.375Q305.2582 190.0 304.86758 189.375Q304.49258 188.73438 303.64883 188.73438Q302.8207 188.73438 302.43008 189.375Q302.05508 190.0 302.05508 191.29688L302.05508 193.03125Q302.05508 194.40625 302.4457 195.07812Q302.85196 195.73438 303.66446 195.73438Q304.46133 195.73438 304.85196 195.10938Q305.24258 194.48438 305.2582 193.15625L305.2582 191.375ZM312.14883 192.75Q311.8207 193.15625 311.33633 193.40625Q310.86758 193.64062 310.30508 193.64062Q309.5707 193.64062 309.02383 193.28125Q308.47696 192.92188 308.18008 192.26562Q307.8832 191.59375 307.8832 190.79688Q307.8832 189.95312 308.1957 189.26562Q308.52383 188.57812 309.11758 188.21875Q309.72696 187.84375 310.52383 187.84375Q311.78946 187.84375 312.5082 188.79688Q313.24258 189.75 313.24258 191.375L313.24258 191.6875Q313.24258 194.1875 312.2582 195.32812Q311.27383 196.46875 309.28946 196.5L309.0707 196.5L309.0707 195.59375L309.30508 195.59375Q310.64883 195.5625 311.36758 194.89062Q312.08633 194.21875 312.14883 192.75ZM310.47696 192.75Q311.02383 192.75 311.47696 192.42188Q311.9457 192.07812 312.16446 191.59375L312.16446 191.15625Q312.16446 190.09375 311.6957 189.42188Q311.22696 188.75 310.52383 188.75Q309.80508 188.75 309.36758 189.29688Q308.9457 189.84375 308.9457 190.75Q308.9457 191.625 309.35196 192.1875Q309.77383 192.75 310.47696 192.75Z" fill-rule="nonzero"/><path stroke="#129a74" stroke-width="3.0" stroke-linejoin="round" stroke-linecap="round" d="M777.3546 275.5L776.2765 275.5L776.2765 268.28125L774.089 269.07812L774.089 268.09375L777.19836 266.92188L777.3546 266.92188L777.3546 275.5ZM785.9796 269.1875Q785.9796 269.82812 785.63586 270.32812Q785.2921 270.82812 784.7296 271.10938Q785.38586 271.39062 785.7765 271.95312Q786.1671 272.5 786.1671 273.20312Q786.1671 274.29688 785.4171 274.96875Q784.68274 275.625 783.464 275.625Q782.2296 275.625 781.4796 274.96875Q780.74524 274.29688 780.74524 273.20312Q780.74524 272.5 781.12024 271.95312Q781.49524 271.39062 782.1671 271.10938Q781.6046 270.82812 781.2765 270.32812Q780.94836 269.82812 780.94836 269.1875Q780.94836 268.10938 781.63586 267.48438Q782.32336 266.84375 783.464 266.84375Q784.589 266.84375 785.2765 267.48438Q785.9796 268.10938 785.9796 269.1875ZM785.089 273.17188Q785.089 272.45312 784.63586 272.01562Q784.18274 271.5625 783.44836 271.5625Q782.714 271.5625 782.26086 272.01562Q781.82336 272.45312 781.82336 273.1875Q781.82336 273.90625 782.26086 274.32812Q782.69836 274.73438 783.464 274.73438Q784.214 274.73438 784.6515 274.3125Q785.089 273.89062 785.089 273.17188ZM783.464 267.73438Q782.82336 267.73438 782.4171 268.14062Q782.0265 268.53125 782.0265 269.21875Q782.0265 269.85938 782.4171 270.26562Q782.80774 270.67188 783.44836 270.67188Q784.1046 270.67188 784.49524 270.26562Q784.88586 269.85938 784.88586 269.21875Q784.88586 268.5625 784.4796 268.15625Q784.07336 267.73438 783.464 267.73438ZM789.37024 270.70312L790.18274 270.70312Q790.964 270.6875 791.4015 270.29688Q791.839 269.90625 791.839 269.23438Q791.839 267.73438 790.339 267.73438Q789.63586 267.73438 789.214 268.14062Q788.80774 268.54688 788.80774 269.20312L787.714 269.20312Q787.714 268.1875 788.44836 267.51562Q789.19836 266.84375 790.339 266.84375Q791.5421 266.84375 792.2296 267.48438Q792.9171 268.125 792.9171 269.26562Q792.9171 269.82812 792.55774 270.34375Q792.19836 270.85938 791.57336 271.125Q792.2765 271.34375 792.6515 271.85938Q793.0421 272.375 793.0421 273.125Q793.0421 274.26562 792.2921 274.95312Q791.5421 275.625 790.339 275.625Q789.1515 275.625 788.38586 274.96875Q787.63586 274.3125 787.63586 273.25L788.7296 273.25Q788.7296 273.92188 789.1671 274.32812Q789.6046 274.73438 790.3546 274.73438Q791.13586 274.73438 791.5421 274.32812Q791.964 273.90625 791.964 273.14062Q791.964 272.40625 791.51086 272.01562Q791.05774 271.60938 790.18274 271.59375L789.37024 271.59375L789.37024 270.70312Z" fill-rule="nonzero"/><path fill="#ffffff" d="M777.3546 275.5L776.2765 275.5L776.2765 268.28125L774.089 269.07812L774.089 268.09375L777.19836 266.92188L777.3546 266.92188L777.3546 275.5ZM785.9796 269.1875Q785.9796 269.82812 785.63586 270.32812Q785.2921 270.82812 784.7296 271.10938Q785.38586 271.39062 785.7765 271.95312Q786.1671 272.5 786.1671 273.20312Q786.1671 274.29688 785.4171 274.96875Q784.68274 275.625 783.464 275.625Q782.2296 275.625 781.4796 274.96875Q780.74524 274.29688 780.74524 273.20312Q780.74524 272.5 781.12024 271.95312Q781.49524 271.39062 782.1671 271.10938Q781.6046 270.82812 781.2765 270.32812Q780.94836 269.82812 780.94836 269.1875Q780.94836 268.10938 781.63586 267.48438Q782.32336 266.84375 783.464 266.84375Q784.589 266.84375 785.2765 267.48438Q785.9796 268.10938 785.9796 269.1875ZM785.089 273.17188Q785.089 272.45312 784.63586 272.01562Q784.18274 271.5625 783.44836 271.5625Q782.714 271.5625 782.26086 272.01562Q781.82336 272.45312 781.82336 273.1875Q781.82336 273.90625 782.26086 274.32812Q782.69836 274.73438 783.464 274.73438Q784.214 274.73438 784.6515 274.3125Q785.089 273.89062 785.089 273.17188ZM783.464 267.73438Q782.82336 267.73438 782.4171 268.14062Q782.0265 268.53125 782.0265 269.21875Q782.0265 269.85938 782.4171 270.26562Q782.80774 270.67188 783.44836 270.67188Q784.1046 270.67188 784.49524 270.26562Q784.88586 269.85938 784.88586 269.21875Q784.88586 268.5625 784.4796 268.15625Q784.07336 267.73438 783.464 267.73438ZM789.37024 270.70312L790.18274 270.70312Q790.964 270.6875 791.4015 270.29688Q791.839 269.90625 791.839 269.23438Q791.839 267.73438 790.339 267.73438Q789.63586 267.73438 789.214 268.14062Q788.80774 268.54688 788.80774 269.20312L787.714 269.20312Q787.714 268.1875 788.44836 267.51562Q789.19836 266.84375 790.339 266.84375Q791.5421 266.84375 792.2296 267.48438Q792.9171 268.125 792.9171 269.26562Q792.9171 269.82812 792.55774 270.34375Q792.19836 270.85938 791.57336 271.125Q792.2765 271.34375 792.6515 271.85938Q793.0421 272.375 793.0421 273.125Q793.0421 274.26562 792.2921 274.95312Q791.5421 275.625 790.339 275.625Q789.1515 275.625 788.38586 274.96875Q787.63586 274.3125 787.63586 273.25L788.7296 273.25Q788.7296 273.92188 789.1671 274.32812Q789.6046 274.73438 790.3546 274.73438Q791.13586 274.73438 791.5421 274.32812Q791.964 273.90625 791.964 273.14062Q791.964 272.40625 791.51086 272.01562Q791.05774 271.60938 790.18274 271.59375L789.37024 271.59375L789.37024 270.70312Z" fill-rule="nonzero"/><path stroke="#129a74" stroke-width="3.0" stroke-linejoin="round" stroke-linecap="round" d="M802.4356 353.5L801.3575 353.5L801.3575 346.28125L799.17 347.07812L799.17 346.09375L802.27936 344.92188L802.4356 344.92188L802.4356 353.5ZM810.02936 349.75Q809.70123 350.15625 809.21686 350.40625Q808.7481 350.64062 808.1856 350.64062Q807.45123 350.64062 806.90436 350.28125Q806.3575 349.92188 806.0606 349.26562Q805.76373 348.59375 805.76373 347.79688Q805.76373 346.95312 806.07623 346.26562Q806.40436 345.57812 806.9981 345.21875Q807.6075 344.84375 808.40436 344.84375Q809.67 344.84375 810.38873 345.79688Q811.1231 346.75 811.1231 348.375L811.1231 348.6875Q811.1231 351.1875 810.13873 352.32812Q809.15436 353.46875 807.17 353.5L806.95123 353.5L806.95123 352.59375L807.1856 352.59375Q808.52936 352.5625 809.2481 351.89062Q809.96686 351.21875 810.02936 349.75ZM808.3575 349.75Q808.90436 349.75 809.3575 349.42188Q809.82623 349.07812 810.045 348.59375L810.045 348.15625Q810.045 347.09375 809.57623 346.42188Q809.1075 345.75 808.40436 345.75Q807.6856 345.75 807.2481 346.29688Q806.82623 346.84375 806.82623 347.75Q806.82623 348.625 807.2325 349.1875Q807.65436 349.75 808.3575 349.75ZM818.2325 349.85938Q818.2325 351.76562 817.57623 352.70312Q816.9356 353.625 815.545 353.625Q814.1856 353.625 813.52936 352.71875Q812.8731 351.8125 812.84186 350.0L812.84186 348.5625Q812.84186 346.67188 813.4825 345.76562Q814.13873 344.84375 815.52936 344.84375Q816.90436 344.84375 817.5606 345.73438Q818.21686 346.60938 818.2325 348.45312L818.2325 349.85938ZM817.13873 348.375Q817.13873 347.0 816.7481 346.375Q816.3731 345.73438 815.52936 345.73438Q814.70123 345.73438 814.3106 346.375Q813.9356 347.0 813.9356 348.29688L813.9356 350.03125Q813.9356 351.40625 814.32623 352.07812Q814.7325 352.73438 815.545 352.73438Q816.34186 352.73438 816.7325 352.10938Q817.1231 351.48438 817.13873 350.15625L817.13873 348.375Z" fill-rule="nonzero"/><path fill="#ffffff" d="M802.4356 353.5L801.3575 353.5L801.3575 346.28125L799.17 347.07812L799.17 346.09375L802.27936 344.92188L802.4356 344.92188L802.4356 353.5ZM810.02936 349.75Q809.70123 350.15625 809.21686 350.40625Q808.7481 350.64062 808.1856 350.64062Q807.45123 350.64062 806.90436 350.28125Q806.3575 349.92188 806.0606 349.26562Q805.76373 348.59375 805.76373 347.79688Q805.76373 346.95312 806.07623 346.26562Q806.40436 345.57812 806.9981 345.21875Q807.6075 344.84375 808.40436 344.84375Q809.67 344.84375 810.38873 345.79688Q811.1231 346.75 811.1231 348.375L811.1231 348.6875Q811.1231 351.1875 810.13873 352.32812Q809.15436 353.46875 807.17 353.5L806.95123 353.5L806.95123 352.59375L807.1856 352.59375Q808.52936 352.5625 809.2481 351.89062Q809.96686 351.21875 810.02936 349.75ZM808.3575 349.75Q808.90436 349.75 809.3575 349.42188Q809.82623 349.07812 810.045 348.59375L810.045 348.15625Q810.045 347.09375 809.57623 346.42188Q809.1075 345.75 808.40436 345.75Q807.6856 345.75 807.2481 346.29688Q806.82623 346.84375 806.82623 347.75Q806.82623 348.625 807.2325 349.1875Q807.65436 349.75 808.3575 349.75ZM818.2325 349.85938Q818.2325 351.76562 817.57623 352.70312Q816.9356 353.625 815.545 353.625Q814.1856 353.625 813.52936 352.71875Q812.8731 351.8125 812.84186 350.0L812.84186 348.5625Q812.84186 346.67188 813.4825 345.76562Q814.13873 344.84375 815.52936 344.84375Q816.90436 344.84375 817.5606 345.73438Q818.21686 346.60938 818.2325 348.45312L818.2325 349.85938ZM817.13873 348.375Q817.13873 347.0 816.7481 346.375Q816.3731 345.73438 815.52936 345.73438Q814.70123 345.73438 814.3106 346.375Q813.9356 347.0 813.9356 348.29688L813.9356 350.03125Q813.9356 351.40625 814.32623 352.07812Q814.7325 352.73438 815.545 352.73438Q816.34186 352.73438 816.7325 352.10938Q817.1231 351.48438 817.13873 350.15625L817.13873 348.375Z" fill-rule="nonzero"/><path fill="#000000" d="M99.98125 117.88276L99.98125 111.66401L100.93437 111.66401L100.93437 112.60151Q101.29375 111.94526 101.59062 111.742134Q101.90312 111.523384 102.27812 111.523384Q102.80937 111.523384 103.35625 111.85151L102.99687 112.835884Q102.60625 112.60151 102.23125 112.60151Q101.87187 112.60151 101.59062 112.82026Q101.325 113.023384 101.21562 113.398384Q101.02812 113.960884 101.02812 114.617134L101.02812 117.88276L99.98125 117.88276ZM108.24687 115.88276L109.34062 116.00776Q109.09062 116.960884 108.3875 117.492134Q107.68437 118.023384 106.60625 118.023384Q105.24687 118.023384 104.43437 117.179634Q103.6375 116.335884 103.6375 114.82026Q103.6375 113.25776 104.45 112.398384Q105.2625 111.523384 106.54375 111.523384Q107.79375 111.523384 108.575 112.367134Q109.37187 113.210884 109.37187 114.75776Q109.37187 114.85151 109.37187 115.03901L104.73125 115.03901Q104.79375 116.07026 105.30937 116.617134Q105.825 117.148384 106.60625 117.148384Q107.18437 117.148384 107.59062 116.85151Q108.0125 116.53901 108.24687 115.88276ZM104.79375 114.179634L108.2625 114.179634Q108.2 113.38276 107.87187 112.992134Q107.35625 112.38276 106.55937 112.38276Q105.825 112.38276 105.325 112.867134Q104.84062 113.35151 104.79375 114.179634ZM115.02812 117.88276L115.02812 117.10151Q114.43437 118.023384 113.29375 118.023384Q112.54375 118.023384 111.91875 117.617134Q111.29375 117.19526 110.95 116.460884Q110.60625 115.72651 110.60625 114.773384Q110.60625 113.85151 110.91875 113.085884Q111.23125 112.32026 111.85625 111.929634Q112.48125 111.523384 113.24687 111.523384Q113.80937 111.523384 114.24687 111.75776Q114.68437 111.992134 114.96562 112.367134L114.96562 109.28901L116.0125 109.28901L116.0125 117.88276L115.02812 117.88276ZM111.7 114.773384Q111.7 115.97651 112.2 116.57026Q112.7 117.148384 113.3875 117.148384Q114.075 117.148384 114.55937 116.585884Q115.04375 116.023384 115.04375 114.867134Q115.04375 113.585884 114.54375 112.992134Q114.05937 112.398384 113.34062 112.398384Q112.6375 112.398384 112.16875 112.97651Q111.7 113.53901 111.7 114.773384ZM122.075 117.88276L122.075 116.960884Q121.34062 118.023384 120.09062 118.023384Q119.54375 118.023384 119.05937 117.82026Q118.59062 117.60151 118.35625 117.28901Q118.12187 116.960884 118.02812 116.492134Q117.96562 116.19526 117.96562 115.50776L117.96562 111.66401L119.02812 111.66401L119.02812 115.117134Q119.02812 115.929634 119.09062 116.22651Q119.18437 116.63276 119.49687 116.88276Q119.825 117.117134 120.30937 117.117134Q120.77812 117.117134 121.18437 116.88276Q121.60625 116.63276 121.77812 116.210884Q121.96562 115.78901 121.96562 114.992134L121.96562 111.66401L123.0125 111.66401L123.0125 117.88276L122.075 117.88276ZM129.05937 115.60151L130.09062 115.742134Q129.91875 116.804634 129.21562 117.41401Q128.5125 118.023384 127.49687 118.023384Q126.21562 118.023384 125.43437 117.19526Q124.66875 116.35151 124.66875 114.78901Q124.66875 113.78901 124.99687 113.03901Q125.34062 112.273384 126.0125 111.898384Q126.7 111.523384 127.5125 111.523384Q128.5125 111.523384 129.15312 112.03901Q129.80937 112.53901 129.99687 113.492134L128.96562 113.648384Q128.825 113.023384 128.45 112.710884Q128.075 112.38276 127.54375 112.38276Q126.74687 112.38276 126.24687 112.960884Q125.74687 113.523384 125.74687 114.75776Q125.74687 116.023384 126.23125 116.585884Q126.71562 117.148384 127.48125 117.148384Q128.10625 117.148384 128.5125 116.773384Q128.93437 116.398384 129.05937 115.60151ZM135.24687 115.88276L136.34062 116.00776Q136.09062 116.960884 135.3875 117.492134Q134.68437 118.023384 133.60625 118.023384Q132.24687 118.023384 131.43437 117.179634Q130.6375 116.335884 130.6375 114.82026Q130.6375 113.25776 131.45 112.398384Q132.2625 111.523384 133.54375 111.523384Q134.79375 111.523384 135.575 112.367134Q136.37187 113.210884 136.37187 114.75776Q136.37187 114.85151 136.37187 115.03901L131.73125 115.03901Q131.79375 116.07026 132.30937 116.617134Q132.825 117.148384 133.60625 117.148384Q134.18437 117.148384 134.59062 116.85151Q135.0125 116.53901 135.24687 115.88276ZM131.79375 114.179634L135.2625 114.179634Q135.2 113.38276 134.87187 112.992134Q134.35625 112.38276 133.55937 112.38276Q132.825 112.38276 132.325 112.867134Q131.84062 113.35151 131.79375 114.179634Z" fill-rule="nonzero"/><path fill="#000000" d="M22.98125 196.22758L22.98125 190.00883L23.934376 190.00883L23.934376 190.94633Q24.29375 190.29008 24.590626 190.08696Q24.903126 189.86821 25.278126 189.86821Q25.809376 189.86821 26.35625 190.19633L25.996876 191.18071Q25.60625 190.94633 25.23125 190.94633Q24.871876 190.94633 24.590626 191.16508Q24.325 191.36821 24.215626 191.74321Q24.028126 192.30571 24.028126 192.96196L24.028126 196.22758L22.98125 196.22758ZM31.246876 194.22758L32.340626 194.35258Q32.090626 195.30571 31.3875 195.83696Q30.684376 196.36821 29.60625 196.36821Q28.246876 196.36821 27.434376 195.52446Q26.6375 194.68071 26.6375 193.16508Q26.6375 191.60258 27.45 190.74321Q28.2625 189.86821 29.54375 189.86821Q30.79375 189.86821 31.575 190.71196Q32.371876 191.55571 32.371876 193.10258Q32.371876 193.19633 32.371876 193.38383L27.73125 193.38383Q27.79375 194.41508 28.309376 194.96196Q28.825 195.49321 29.60625 195.49321Q30.184376 195.49321 30.590626 195.19633Q31.0125 194.88383 31.246876 194.22758ZM27.79375 192.52446L31.2625 192.52446Q31.2 191.72758 30.871876 191.33696Q30.35625 190.72758 29.559376 190.72758Q28.825 190.72758 28.325 191.21196Q27.840626 191.69633 27.79375 192.52446ZM38.028126 196.22758L38.028126 195.44633Q37.434376 196.36821 36.29375 196.36821Q35.54375 196.36821 34.91875 195.96196Q34.29375 195.54008 33.95 194.80571Q33.60625 194.07133 33.60625 193.11821Q33.60625 192.19633 33.91875 191.43071Q34.23125 190.66508 34.85625 190.27446Q35.48125 189.86821 36.246876 189.86821Q36.809376 189.86821 37.246876 190.10258Q37.684376 190.33696 37.965626 190.71196L37.965626 187.63383L39.0125 187.63383L39.0125 196.22758L38.028126 196.22758ZM34.7 193.11821Q34.7 194.32133 35.2 194.91508Q35.7 195.49321 36.3875 195.49321Q37.075 195.49321 37.559376 194.93071Q38.04375 194.36821 38.04375 193.21196Q38.04375 191.93071 37.54375 191.33696Q37.059376 190.74321 36.340626 190.74321Q35.6375 190.74321 35.16875 191.32133Q34.7 191.88383 34.7 193.11821ZM45.075 196.22758L45.075 195.30571Q44.340626 196.36821 43.090626 196.36821Q42.54375 196.36821 42.059376 196.16508Q41.590626 195.94633 41.35625 195.63383Q41.121876 195.30571 41.028126 194.83696Q40.965626 194.54008 40.965626 193.85258L40.965626 190.00883L42.028126 190.00883L42.028126 193.46196Q42.028126 194.27446 42.090626 194.57133Q42.184376 194.97758 42.496876 195.22758Q42.825 195.46196 43.309376 195.46196Q43.778126 195.46196 44.184376 195.22758Q44.60625 194.97758 44.778126 194.55571Q44.965626 194.13383 44.965626 193.33696L44.965626 190.00883L46.0125 190.00883L46.0125 196.22758L45.075 196.22758ZM52.059376 193.94633L53.090626 194.08696Q52.91875 195.14946 52.215626 195.75883Q51.5125 196.36821 50.496876 196.36821Q49.215626 196.36821 48.434376 195.54008Q47.66875 194.69633 47.66875 193.13383Q47.66875 192.13383 47.996876 191.38383Q48.340626 190.61821 49.0125 190.24321Q49.7 189.86821 50.5125 189.86821Q51.5125 189.86821 52.153126 190.38383Q52.809376 190.88383 52.996876 191.83696L51.965626 191.99321Q51.825 191.36821 51.45 191.05571Q51.075 190.72758 50.54375 190.72758Q49.746876 190.72758 49.246876 191.30571Q48.746876 191.86821 48.746876 193.10258Q48.746876 194.36821 49.23125 194.93071Q49.715626 195.49321 50.48125 195.49321Q51.10625 195.49321 51.5125 195.11821Q51.934376 194.74321 52.059376 193.94633ZM58.246876 194.22758L59.340626 194.35258Q59.090626 195.30571 58.3875 195.83696Q57.684376 196.36821 56.60625 196.36821Q55.246876 196.36821 54.434376 195.52446Q53.6375 194.68071 53.6375 193.16508Q53.6375 191.60258 54.45 190.74321Q55.2625 189.86821 56.54375 189.86821Q57.79375 189.86821 58.575 190.71196Q59.371876 191.55571 59.371876 193.10258Q59.371876 193.19633 59.371876 193.38383L54.73125 193.38383Q54.79375 194.41508 55.309376 194.96196Q55.825 195.49321 56.60625 195.49321Q57.184376 195.49321 57.590626 195.19633Q58.0125 194.88383 58.246876 194.22758ZM54.79375 192.52446L58.2625 192.52446Q58.2 191.72758 57.871876 191.33696Q57.35625 190.72758 56.559376 190.72758Q55.825 190.72758 55.325 191.21196Q54.840626 191.69633 54.79375 192.52446ZM61.2625 196.22758L61.2625 195.02446L62.465626 195.02446L62.465626 196.22758Q62.465626 196.88383 62.23125 197.29008Q61.996876 197.71196 61.496876 197.93071L61.2 197.47758Q61.528126 197.33696 61.684376 197.04008Q61.840626 196.75883 61.871876 196.22758L61.2625 196.22758ZM71.02812 196.22758L71.02812 195.44633Q70.43437 196.36821 69.29375 196.36821Q68.54375 196.36821 67.91875 195.96196Q67.29375 195.54008 66.95 194.80571Q66.60625 194.07133 66.60625 193.11821Q66.60625 192.19633 66.91875 191.43071Q67.23125 190.66508 67.85625 190.27446Q68.48125 189.86821 69.24687 189.86821Q69.80937 189.86821 70.24687 190.10258Q70.68437 190.33696 70.96562 190.71196L70.96562 187.63383L72.0125 187.63383L72.0125 196.22758L71.02812 196.22758ZM67.7 193.11821Q67.7 194.32133 68.2 194.91508Q68.7 195.49321 69.3875 195.49321Q70.075 195.49321 70.55937 194.93071Q71.04375 194.36821 71.04375 193.21196Q71.04375 191.93071 70.54375 191.33696Q70.05937 190.74321 69.34062 190.74321Q68.6375 190.74321 68.16875 191.32133Q67.7 191.88383 67.7 193.11821ZM78.24687 194.22758L79.34062 194.35258Q79.09062 195.30571 78.3875 195.83696Q77.68437 196.36821 76.60625 196.36821Q75.24687 196.36821 74.43437 195.52446Q73.6375 194.68071 73.6375 193.16508Q73.6375 191.60258 74.45 190.74321Q75.2625 189.86821 76.54375 189.86821Q77.79375 189.86821 78.575 190.71196Q79.37187 191.55571 79.37187 193.10258Q79.37187 193.19633 79.37187 193.38383L74.73125 193.38383Q74.79375 194.41508 75.30937 194.96196Q75.825 195.49321 76.60625 195.49321Q77.18437 195.49321 77.59062 195.19633Q78.0125 194.88383 78.24687 194.22758ZM74.79375 192.52446L78.2625 192.52446Q78.2 191.72758 77.87187 191.33696Q77.35625 190.72758 76.55937 190.72758Q75.825 190.72758 75.325 191.21196Q74.84062 191.69633 74.79375 192.52446ZM80.575 194.36821L81.60625 194.21196Q81.7 194.83696 82.09062 195.16508Q82.49687 195.49321 83.23125 195.49321Q83.95 195.49321 84.29375 195.21196Q84.65312 194.91508 84.65312 194.50883Q84.65312 194.14946 84.34062 193.94633Q84.12187 193.80571 83.2625 193.58696Q82.10625 193.29008 81.65312 193.08696Q81.21562 192.86821 80.98125 192.49321Q80.74687 192.11821 80.74687 191.64946Q80.74687 191.24321 80.93437 190.88383Q81.12187 190.52446 81.45 190.29008Q81.7 190.11821 82.12187 189.99321Q82.54375 189.86821 83.04375 189.86821Q83.7625 189.86821 84.30937 190.08696Q84.87187 190.29008 85.1375 190.64946Q85.40312 191.00883 85.49687 191.60258L84.46562 191.74321Q84.40312 191.27446 84.05937 191.00883Q83.73125 190.72758 83.10625 190.72758Q82.3875 190.72758 82.075 190.97758Q81.7625 191.21196 81.7625 191.54008Q81.7625 191.74321 81.8875 191.89946Q82.02812 192.07133 82.29375 192.18071Q82.45 192.24321 83.23125 192.44633Q84.35625 192.75883 84.79375 192.94633Q85.23125 193.13383 85.48125 193.49321Q85.73125 193.85258 85.73125 194.39946Q85.73125 194.93071 85.41875 195.39946Q85.12187 195.85258 84.54375 196.11821Q83.96562 196.36821 83.23125 196.36821Q82.0125 196.36821 81.37187 195.86821Q80.74687 195.35258 80.575 194.36821ZM89.29375 195.29008L89.45 196.21196Q88.99687 196.30571 88.65312 196.30571Q88.075 196.30571 87.7625 196.13383Q87.45 195.94633 87.30937 195.64946Q87.18437 195.35258 87.18437 194.39946L87.18437 190.82133L86.41875 190.82133L86.41875 190.00883L87.18437 190.00883L87.18437 188.46196L88.23125 187.83696L88.23125 190.00883L89.29375 190.00883L89.29375 190.82133L88.23125 190.82133L88.23125 194.46196Q88.23125 194.91508 88.27812 195.04008Q88.34062 195.16508 88.46562 195.24321Q88.59062 195.32133 88.825 195.32133Q89.0125 195.32133 89.29375 195.29008ZM89.98125 196.22758L89.98125 190.00883L90.93437 190.00883L90.93437 190.94633Q91.29375 190.29008 91.59062 190.08696Q91.90312 189.86821 92.27812 189.86821Q92.80937 189.86821 93.35625 190.19633L92.99687 191.18071Q92.60625 190.94633 92.23125 190.94633Q91.87187 190.94633 91.59062 191.16508Q91.325 191.36821 91.21562 191.74321Q91.02812 192.30571 91.02812 192.96196L91.02812 196.22758L89.98125 196.22758ZM98.075 196.22758L98.075 195.30571Q97.34062 196.36821 96.09062 196.36821Q95.54375 196.36821 95.05937 196.16508Q94.59062 195.94633 94.35625 195.63383Q94.12187 195.30571 94.02812 194.83696Q93.96562 194.54008 93.96562 193.85258L93.96562 190.00883L95.02812 190.00883L95.02812 193.46196Q95.02812 194.27446 95.09062 194.57133Q95.18437 194.97758 95.49687 195.22758Q95.825 195.46196 96.30937 195.46196Q96.77812 195.46196 97.18437 195.22758Q97.60625 194.97758 97.77812 194.55571Q97.96562 194.13383 97.96562 193.33696L97.96562 190.00883L99.0125 190.00883L99.0125 196.22758L98.075 196.22758ZM105.05937 193.94633L106.09062 194.08696Q105.91875 195.14946 105.21562 195.75883Q104.5125 196.36821 103.49687 196.36821Q102.21562 196.36821 101.43437 195.54008Q100.66875 194.69633 100.66875 193.13383Q100.66875 192.13383 100.99687 191.38383Q101.34062 190.61821 102.0125 190.24321Q102.7 189.86821 103.5125 189.86821Q104.5125 189.86821 105.15312 190.38383Q105.80937 190.88383 105.99687 191.83696L104.96562 191.99321Q104.825 191.36821 104.45 191.05571Q104.075 190.72758 103.54375 190.72758Q102.74687 190.72758 102.24687 191.30571Q101.74687 191.86821 101.74687 193.10258Q101.74687 194.36821 102.23125 194.93071Q102.71562 195.49321 103.48125 195.49321Q104.10625 195.49321 104.5125 195.11821Q104.93437 194.74321 105.05937 193.94633ZM109.29375 195.29008L109.45 196.21196Q108.99687 196.30571 108.65312 196.30571Q108.075 196.30571 107.7625 196.13383Q107.45 195.94633 107.30937 195.64946Q107.18437 195.35258 107.18437 194.39946L107.18437 190.82133L106.41875 190.82133L106.41875 190.00883L107.18437 190.00883L107.18437 188.46196L108.23125 187.83696L108.23125 190.00883L109.29375 190.00883L109.29375 190.82133L108.23125 190.82133L108.23125 194.46196Q108.23125 194.91508 108.27812 195.04008Q108.34062 195.16508 108.46562 195.24321Q108.59062 195.32133 108.825 195.32133Q109.0125 195.32133 109.29375 195.29008ZM114.075 196.22758L114.075 195.30571Q113.34062 196.36821 112.09062 196.36821Q111.54375 196.36821 111.05937 196.16508Q110.59062 195.94633 110.35625 195.63383Q110.12187 195.30571 110.02812 194.83696Q109.96562 194.54008 109.96562 193.85258L109.96562 190.00883L111.02812 190.00883L111.02812 193.46196Q111.02812 194.27446 111.09062 194.57133Q111.18437 194.97758 111.49687 195.22758Q111.825 195.46196 112.30937 195.46196Q112.77812 195.46196 113.18437 195.22758Q113.60625 194.97758 113.77812 194.55571Q113.96562 194.13383 113.96562 193.33696L113.96562 190.00883L115.0125 190.00883L115.0125 196.22758L114.075 196.22758ZM116.98125 196.22758L116.98125 190.00883L117.93437 190.00883L117.93437 190.94633Q118.29375 190.29008 118.59062 190.08696Q118.90312 189.86821 119.27812 189.86821Q119.80937 189.86821 120.35625 190.19633L119.99687 191.18071Q119.60625 190.94633 119.23125 190.94633Q118.87187 190.94633 118.59062 191.16508Q118.325 191.36821 118.21562 191.74321Q118.02812 192.30571 118.02812 192.96196L118.02812 196.22758L116.98125 196.22758ZM120.99687 188.85258L120.99687 187.63383L122.05937 187.63383L122.05937 188.85258L120.99687 188.85258ZM120.99687 196.22758L120.99687 190.00883L122.05937 190.00883L122.05937 196.22758L120.99687 196.22758ZM123.99687 196.22758L123.99687 190.00883L124.93437 190.00883L124.93437 190.88383Q125.62187 189.86821 126.91875 189.86821Q127.48125 189.86821 127.95 190.07133Q128.43437 190.27446 128.66875 190.60258Q128.90312 190.93071 128.99687 191.36821Q129.04375 191.66508 129.04375 192.39946L129.04375 196.22758L127.99687 196.22758L127.99687 192.44633Q127.99687 191.79008 127.87187 191.47758Q127.74687 191.16508 127.43437 190.97758Q127.12187 190.77446 126.7 190.77446Q126.02812 190.77446 125.52812 191.21196Q125.04375 191.63383 125.04375 192.82133L125.04375 196.22758L123.99687 196.22758ZM130.79375 196.74321L131.825 196.89946Q131.8875 197.36821 132.18437 197.58696Q132.575 197.88383 133.24687 197.88383Q133.98125 197.88383 134.37187 197.58696Q134.77812 197.29008 134.91875 196.77446Q135.0125 196.44633 134.99687 195.41508Q134.30937 196.22758 133.27812 196.22758Q131.99687 196.22758 131.29375 195.30571Q130.59062 194.36821 130.59062 193.08696Q130.59062 192.19633 130.90312 191.44633Q131.23125 190.68071 131.84062 190.27446Q132.45 189.86821 133.27812 189.86821Q134.3875 189.86821 135.10625 190.75883L135.10625 190.00883L136.075 190.00883L136.075 195.38383Q136.075 196.83696 135.77812 197.44633Q135.48125 198.05571 134.84062 198.39946Q134.2 198.75883 133.2625 198.75883Q132.15312 198.75883 131.46562 198.25883Q130.77812 197.75883 130.79375 196.74321ZM131.66875 193.00883Q131.66875 194.22758 132.15312 194.79008Q132.6375 195.35258 133.37187 195.35258Q134.10625 195.35258 134.59062 194.79008Q135.09062 194.22758 135.09062 193.04008Q135.09062 191.89946 134.575 191.32133Q134.075 190.74321 133.35625 190.74321Q132.65312 190.74321 132.15312 191.32133Q131.66875 191.88383 131.66875 193.00883Z" fill-rule="nonzero"/><path fill="#000000" d="M108.24687 274.57242L108.24687 269.16617L107.30937 269.16617L107.30937 268.35367L108.24687 268.35367L108.24687 267.6818Q108.24687 267.0568 108.35625 266.75992Q108.5125 266.33804 108.8875 266.08804Q109.27812 265.83804 109.96562 265.83804Q110.41875 265.83804 110.95 265.94742L110.79375 266.85367Q110.46562 266.8068 110.16875 266.8068Q109.68437 266.8068 109.48125 267.00992Q109.29375 267.21304 109.29375 267.77554L109.29375 268.35367L110.5125 268.35367L110.5125 269.16617L109.29375 269.16617L109.29375 274.57242L108.24687 274.57242ZM110.60625 271.46304Q110.60625 269.72867 111.55937 268.90054Q112.35625 268.21304 113.5125 268.21304Q114.79375 268.21304 115.60625 269.0568Q116.43437 269.88492 116.43437 271.3693Q116.43437 272.57242 116.075 273.25992Q115.71562 273.94742 115.0125 274.33804Q114.325 274.71304 113.5125 274.71304Q112.21562 274.71304 111.40312 273.88492Q110.60625 273.04117 110.60625 271.46304ZM111.68437 271.46304Q111.68437 272.65054 112.2 273.2443Q112.73125 273.83804 113.5125 273.83804Q114.30937 273.83804 114.825 273.2443Q115.34062 272.65054 115.34062 271.4318Q115.34062 270.27554 114.80937 269.6818Q114.29375 269.08804 113.5125 269.08804Q112.73125 269.08804 112.2 269.6818Q111.68437 270.25992 111.68437 271.46304ZM117.98125 274.57242L117.98125 268.35367L118.93437 268.35367L118.93437 269.29117Q119.29375 268.63492 119.59062 268.4318Q119.90312 268.21304 120.27812 268.21304Q120.80937 268.21304 121.35625 268.54117L120.99687 269.52554Q120.60625 269.29117 120.23125 269.29117Q119.87187 269.29117 119.59062 269.50992Q119.325 269.71304 119.21562 270.08804Q119.02812 270.65054 119.02812 271.3068L119.02812 274.57242L117.98125 274.57242ZM122.29375 274.57242L122.29375 273.3693L123.49687 273.3693L123.49687 274.57242L122.29375 274.57242ZM125.29375 274.57242L125.29375 273.3693L126.49687 273.3693L126.49687 274.57242L125.29375 274.57242ZM127.60625 271.46304Q127.60625 269.72867 128.55937 268.90054Q129.35625 268.21304 130.5125 268.21304Q131.79375 268.21304 132.60625 269.0568Q133.43437 269.88492 133.43437 271.3693Q133.43437 272.57242 133.075 273.25992Q132.71562 273.94742 132.0125 274.33804Q131.325 274.71304 130.5125 274.71304Q129.21562 274.71304 128.40312 273.88492Q127.60625 273.04117 127.60625 271.46304ZM128.68437 271.46304Q128.68437 272.65054 129.2 273.2443Q129.73125 273.83804 130.5125 273.83804Q131.30937 273.83804 131.825 273.2443Q132.34062 272.65054 132.34062 271.4318Q132.34062 270.27554 131.80937 269.6818Q131.29375 269.08804 130.5125 269.08804Q129.73125 269.08804 129.2 269.6818Q128.68437 270.25992 128.68437 271.46304ZM135.24687 274.57242L135.24687 269.16617L134.30937 269.16617L134.30937 268.35367L135.24687 268.35367L135.24687 267.6818Q135.24687 267.0568 135.35625 266.75992Q135.5125 266.33804 135.8875 266.08804Q136.27812 265.83804 136.96562 265.83804Q137.41875 265.83804 137.95 265.94742L137.79375 266.85367Q137.46562 266.8068 137.16875 266.8068Q136.68437 266.8068 136.48125 267.00992Q136.29375 267.21304 136.29375 267.77554L136.29375 268.35367L137.5125 268.35367L137.5125 269.16617L136.29375 269.16617L136.29375 274.57242L135.24687 274.57242Z" fill-rule="nonzero"/><path fill="#000000" d="M124.24687 352.91724L124.24687 347.511L123.30937 347.511L123.30937 346.6985L124.24687 346.6985L124.24687 346.0266Q124.24687 345.4016 124.35625 345.10474Q124.5125 344.68286 124.8875 344.43286Q125.27812 344.18286 125.96562 344.18286Q126.41875 344.18286 126.95 344.29224L126.79375 345.1985Q126.46562 345.1516 126.16875 345.1516Q125.68437 345.1516 125.48125 345.35474Q125.29375 345.55786 125.29375 346.12036L125.29375 346.6985L126.5125 346.6985L126.5125 347.511L125.29375 347.511L125.29375 352.91724L124.24687 352.91724ZM126.60625 349.80786Q126.60625 348.0735 127.55937 347.24536Q128.35625 346.55786 129.5125 346.55786Q130.79375 346.55786 131.60625 347.4016Q132.43437 348.22974 132.43437 349.7141Q132.43437 350.91724 132.075 351.60474Q131.71562 352.29224 131.0125 352.68286Q130.325 353.05786 129.5125 353.05786Q128.21562 353.05786 127.40312 352.22974Q126.60625 351.386 126.60625 349.80786ZM127.68437 349.80786Q127.68437 350.99536 128.2 351.5891Q128.73125 352.18286 129.5125 352.18286Q130.30937 352.18286 130.825 351.5891Q131.34062 350.99536 131.34062 349.7766Q131.34062 348.62036 130.80937 348.0266Q130.29375 347.43286 129.5125 347.43286Q128.73125 347.43286 128.2 348.0266Q127.68437 348.60474 127.68437 349.80786ZM133.98125 352.91724L133.98125 346.6985L134.93437 346.6985L134.93437 347.636Q135.29375 346.97974 135.59062 346.7766Q135.90312 346.55786 136.27812 346.55786Q136.80937 346.55786 137.35625 346.886L136.99687 347.87036Q136.60625 347.636 136.23125 347.636Q135.87187 347.636 135.59062 347.85474Q135.325 348.05786 135.21562 348.43286Q135.02812 348.99536 135.02812 349.6516L135.02812 352.91724L133.98125 352.91724Z" fill-rule="nonzero"/><path fill="#000000" d="M140.2 414.5656Q140.2 413.03436 140.5125 412.1125Q140.825 411.175 141.43437 410.675Q142.05937 410.175 142.99687 410.175Q143.68437 410.175 144.2 410.45624Q144.73125 410.7375 145.075 411.26874Q145.41875 411.78436 145.60625 412.53436Q145.79375 413.28436 145.79375 414.5656Q145.79375 416.08124 145.48125 417.0031Q145.18437 417.925 144.55937 418.4406Q143.95 418.9406 142.99687 418.9406Q141.7625 418.9406 141.04375 418.05Q140.2 416.9875 140.2 414.5656ZM141.27812 414.5656Q141.27812 416.675 141.77812 417.3781Q142.27812 418.08124 142.99687 418.08124Q143.73125 418.08124 144.21562 417.3781Q144.71562 416.675 144.71562 414.5656Q144.71562 412.4406 144.21562 411.7531Q143.73125 411.05 142.98125 411.05Q142.2625 411.05 141.825 411.65936Q141.27812 412.4406 141.27812 414.5656Z" fill-rule="nonzero"/><path fill="#000000" d="M315.85 416.55L316.95938 416.45624Q317.08438 417.26874 317.52188 417.675Q317.975 418.08124 318.61563 418.08124Q319.36563 418.08124 319.89688 417.5031Q320.42813 416.925 320.42813 415.9875Q320.42813 415.08124 319.9125 414.5656Q319.4125 414.03436 318.58438 414.03436Q318.08438 414.03436 317.6625 414.26874Q317.25626 414.5031 317.02188 414.8625L316.0375 414.7375L316.86563 410.33124L321.14688 410.33124L321.14688 411.33124L317.70938 411.33124L317.25626 413.64374Q318.02188 413.09686 318.86563 413.09686Q319.99063 413.09686 320.75626 413.8781Q321.5375 414.65936 321.5375 415.89374Q321.5375 417.05 320.86563 417.90936Q320.0375 418.9406 318.61563 418.9406Q317.44376 418.9406 316.69376 418.28436Q315.95938 417.6281 315.85 416.55ZM322.85 414.5656Q322.85 413.03436 323.1625 412.1125Q323.475 411.175 324.08438 410.675Q324.70938 410.175 325.64688 410.175Q326.33438 410.175 326.85 410.45624Q327.38126 410.7375 327.725 411.26874Q328.06876 411.78436 328.25626 412.53436Q328.44376 413.28436 328.44376 414.5656Q328.44376 416.08124 328.13126 417.0031Q327.83438 417.925 327.20938 418.4406Q326.6 418.9406 325.64688 418.9406Q324.4125 418.9406 323.69376 418.05Q322.85 416.9875 322.85 414.5656ZM323.92813 414.5656Q323.92813 416.675 324.42813 417.3781Q324.92813 418.08124 325.64688 418.08124Q326.38126 418.08124 326.86563 417.3781Q327.36563 416.675 327.36563 414.5656Q327.36563 412.4406 326.86563 411.7531Q326.38126 411.05 325.63126 411.05Q324.9125 411.05 324.475 411.65936Q323.92813 412.4406 323.92813 414.5656Z" fill-rule="nonzero"/><path fill="#000000" d="M495.46875 418.8L494.42188 418.8L494.42188 412.08124Q494.03125 412.4406 493.40625 412.8156Q492.79688 413.175 492.3125 413.34686L492.3125 412.33124Q493.1875 411.90936 493.84375 411.33124Q494.51562 410.7375 494.79688 410.175L495.46875 410.175L495.46875 418.8ZM498.5 414.5656Q498.5 413.03436 498.8125 412.1125Q499.125 411.175 499.73438 410.675Q500.35938 410.175 501.29688 410.175Q501.98438 410.175 502.5 410.45624Q503.03125 410.7375 503.375 411.26874Q503.71875 411.78436 503.90625 412.53436Q504.09375 413.28436 504.09375 414.5656Q504.09375 416.08124 503.78125 417.0031Q503.48438 417.925 502.85938 418.4406Q502.25 418.9406 501.29688 418.9406Q500.0625 418.9406 499.34375 418.05Q498.5 416.9875 498.5 414.5656ZM499.57812 414.5656Q499.57812 416.675 500.07812 417.3781Q500.57812 418.08124 501.29688 418.08124Q502.03125 418.08124 502.51562 417.3781Q503.01562 416.675 503.01562 414.5656Q503.01562 412.4406 502.51562 411.7531Q502.03125 411.05 501.28125 411.05Q500.5625 411.05 500.125 411.65936Q499.57812 412.4406 499.57812 414.5656ZM505.5 414.5656Q505.5 413.03436 505.8125 412.1125Q506.125 411.175 506.73438 410.675Q507.35938 410.175 508.29688 410.175Q508.98438 410.175 509.5 410.45624Q510.03125 410.7375 510.375 411.26874Q510.71875 411.78436 510.90625 412.53436Q511.09375 413.28436 511.09375 414.5656Q511.09375 416.08124 510.78125 417.0031Q510.48438 417.925 509.85938 418.4406Q509.25 418.9406 508.29688 418.9406Q507.0625 418.9406 506.34375 418.05Q505.5 416.9875 505.5 414.5656ZM506.57812 414.5656Q506.57812 416.675 507.07812 417.3781Q507.57812 418.08124 508.29688 418.08124Q509.03125 418.08124 509.51562 417.3781Q510.01562 416.675 510.01562 414.5656Q510.01562 412.4406 509.51562 411.7531Q509.03125 411.05 508.28125 411.05Q507.5625 411.05 507.125 411.65936Q506.57812 412.4406 506.57812 414.5656Z" fill-rule="nonzero"/><path fill="#000000" d="M674.6188 418.8L673.5719 418.8L673.5719 412.08124Q673.1813 412.4406 672.5563 412.8156Q671.9469 413.175 671.4625 413.34686L671.4625 412.33124Q672.3375 411.90936 672.9938 411.33124Q673.66565 410.7375 673.9469 410.175L674.6188 410.175L674.6188 418.8ZM677.65 416.55L678.7594 416.45624Q678.8844 417.26874 679.3219 417.675Q679.775 418.08124 680.41565 418.08124Q681.16565 418.08124 681.6969 417.5031Q682.22815 416.925 682.22815 415.9875Q682.22815 415.08124 681.7125 414.5656Q681.2125 414.03436 680.3844 414.03436Q679.8844 414.03436 679.4625 414.26874Q679.0563 414.5031 678.8219 414.8625L677.8375 414.7375L678.66565 410.33124L682.9469 410.33124L682.9469 411.33124L679.5094 411.33124L679.0563 413.64374Q679.8219 413.09686 680.66565 413.09686Q681.79065 413.09686 682.5563 413.8781Q683.3375 414.65936 683.3375 415.89374Q683.3375 417.05 682.66565 417.90936Q681.8375 418.9406 680.41565 418.9406Q679.2438 418.9406 678.4938 418.28436Q677.7594 417.6281 677.65 416.55ZM684.65 414.5656Q684.65 413.03436 684.9625 412.1125Q685.275 411.175 685.8844 410.675Q686.5094 410.175 687.4469 410.175Q688.1344 410.175 688.65 410.45624Q689.1813 410.7375 689.525 411.26874Q689.8688 411.78436 690.0563 412.53436Q690.2438 413.28436 690.2438 414.5656Q690.2438 416.08124 689.9313 417.0031Q689.6344 417.925 689.0094 418.4406Q688.4 418.9406 687.4469 418.9406Q686.2125 418.9406 685.4938 418.05Q684.65 416.9875 684.65 414.5656ZM685.72815 414.5656Q685.72815 416.675 686.22815 417.3781Q686.72815 418.08124 687.4469 418.08124Q688.1813 418.08124 688.66565 417.3781Q689.16565 416.675 689.16565 414.5656Q689.16565 412.4406 688.66565 411.7531Q688.1813 411.05 687.4313 411.05Q686.7125 411.05 686.275 411.65936Q685.72815 412.4406 685.72815 414.5656Z" fill-rule="nonzero"/><path fill="#000000" d="M855.34686 417.78436L855.34686 418.8L849.65936 418.8Q849.65936 418.425 849.78436 418.0656Q850.0031 417.4875 850.47186 416.925Q850.95624 416.3625 851.8625 415.6281Q853.26874 414.47186 853.7531 413.8Q854.2531 413.1281 854.2531 412.53436Q854.2531 411.90936 853.8 411.4875Q853.34686 411.05 852.6281 411.05Q851.8625 411.05 851.40936 411.5031Q850.95624 411.95624 850.9406 412.76874L849.8625 412.65936Q849.97186 411.4406 850.6906 410.8156Q851.425 410.175 852.65936 410.175Q853.89374 410.175 854.6125 410.8625Q855.33124 411.55 855.33124 412.5656Q855.33124 413.08124 855.1125 413.58124Q854.90936 414.0656 854.40936 414.6281Q853.925 415.175 852.8 416.1281Q851.84686 416.925 851.5656 417.22186Q851.3 417.5031 851.1281 417.78436L855.34686 417.78436ZM856.8 414.5656Q856.8 413.03436 857.1125 412.1125Q857.425 411.175 858.03436 410.675Q858.65936 410.175 859.59686 410.175Q860.28436 410.175 860.8 410.45624Q861.33124 410.7375 861.675 411.26874Q862.01874 411.78436 862.20624 412.53436Q862.39374 413.28436 862.39374 414.5656Q862.39374 416.08124 862.08124 417.0031Q861.78436 417.925 861.15936 418.4406Q860.55 418.9406 859.59686 418.9406Q858.3625 418.9406 857.64374 418.05Q856.8 416.9875 856.8 414.5656ZM857.8781 414.5656Q857.8781 416.675 858.3781 417.3781Q858.8781 418.08124 859.59686 418.08124Q860.33124 418.08124 860.8156 417.3781Q861.3156 416.675 861.3156 414.5656Q861.3156 412.4406 860.8156 411.7531Q860.33124 411.05 859.58124 411.05Q858.8625 411.05 858.425 411.65936Q857.8781 412.4406 857.8781 414.5656ZM863.8 414.5656Q863.8 413.03436 864.1125 412.1125Q864.425 411.175 865.03436 410.675Q865.65936 410.175 866.59686 410.175Q867.28436 410.175 867.8 410.45624Q868.33124 410.7375 868.675 411.26874Q869.01874 411.78436 869.20624 412.53436Q869.39374 413.28436 869.39374 414.5656Q869.39374 416.08124 869.08124 417.0031Q868.78436 417.925 868.15936 418.4406Q867.55 418.9406 866.59686 418.9406Q865.3625 418.9406 864.64374 418.05Q863.8 416.9875 863.8 414.5656ZM864.8781 414.5656Q864.8781 416.675 865.3781 417.3781Q865.8781 418.08124 866.59686 418.08124Q867.33124 418.08124 867.8156 417.3781Q868.3156 416.675 868.3156 414.5656Q868.3156 412.4406 867.8156 411.7531Q867.33124 411.05 866.58124 411.05Q865.8625 411.05 865.425 411.65936Q864.8781 412.4406 864.8781 414.5656Z" fill-rule="nonzero"/><path fill="#757575" d="M23.6375 41.2L23.6375 38.45L26.3875 38.45L26.3875 41.2L23.6375 41.2ZM32.2625 41.2L29.5125 41.2L29.5125 30.825L32.075 30.825L32.075 32.309376Q32.715626 31.2625 33.23125 30.934376Q33.7625 30.590626 34.434376 30.590626Q35.371876 30.590626 36.23125 31.10625L35.3875 33.496876Q34.7 33.059376 34.10625 33.059376Q33.528126 33.059376 33.121876 33.371876Q32.715626 33.684376 32.48125 34.528126Q32.2625 35.35625 32.2625 37.996876L32.2625 41.2ZM43.6375 37.903126L46.371876 38.35625Q45.85625 39.85625 44.715626 40.653126Q43.575 41.434376 41.871876 41.434376Q39.153126 41.434376 37.85625 39.66875Q36.840626 38.246876 36.840626 36.090626Q36.840626 33.5125 38.184376 32.059376Q39.528126 30.590626 41.590626 30.590626Q43.903126 30.590626 45.23125 32.121876Q46.575 33.653126 46.528126 36.809376L39.653126 36.809376Q39.684376 38.028126 40.309376 38.715626Q40.95 39.3875 41.8875 39.3875Q42.54375 39.3875 42.98125 39.04375Q43.41875 38.684376 43.6375 37.903126ZM43.79375 35.121876Q43.7625 33.934376 43.16875 33.325Q42.590626 32.7 41.7625 32.7Q40.85625 32.7 40.278126 33.340626Q39.684376 33.996876 39.7 35.121876L43.79375 35.121876ZM58.153126 41.2L55.60625 41.2L55.60625 39.66875Q54.965626 40.559376 54.090626 40.996876Q53.23125 41.434376 52.35625 41.434376Q50.575 41.434376 49.29375 39.996876Q48.028126 38.559376 48.028126 35.98125Q48.028126 33.340626 49.2625 31.965626Q50.496876 30.590626 52.403126 30.590626Q54.1375 30.590626 55.403126 32.04375L55.403126 26.8875L58.153126 26.8875L58.153126 41.2ZM50.825 35.79375Q50.825 37.45 51.278126 38.184376Q51.95 39.2625 53.1375 39.2625Q54.090626 39.2625 54.746876 38.465626Q55.41875 37.653126 55.41875 36.059376Q55.41875 34.2625 54.7625 33.48125Q54.121876 32.7 53.121876 32.7Q52.1375 32.7 51.48125 33.48125Q50.825 34.246876 50.825 35.79375ZM67.46562 41.2L67.46562 39.653126Q66.90312 40.48125 65.96562 40.965626Q65.04375 41.434376 64.02812 41.434376Q62.98125 41.434376 62.153126 40.98125Q61.325 40.5125 60.95 39.684376Q60.575 38.85625 60.575 37.3875L60.575 30.825L63.325 30.825L63.325 35.590626Q63.325 37.778126 63.465626 38.278126Q63.621876 38.7625 64.0125 39.059376Q64.41875 39.340626 65.04375 39.340626Q65.74687 39.340626 66.29375 38.965626Q66.85625 38.575 67.05937 38.0125Q67.2625 37.434376 67.2625 35.2L67.2625 30.825L70.0125 30.825L70.0125 41.2L67.46562 41.2ZM81.68437 33.8875L78.98125 34.3875Q78.84062 33.575 78.35625 33.16875Q77.87187 32.746876 77.10625 32.746876Q76.075 32.746876 75.46562 33.465626Q74.85625 34.16875 74.85625 35.825Q74.85625 37.66875 75.46562 38.434376Q76.09062 39.2 77.1375 39.2Q77.91875 39.2 78.41875 38.7625Q78.91875 38.309376 79.12187 37.23125L81.80937 37.684376Q81.40312 39.54375 80.2 40.496876Q79.0125 41.434376 77.0125 41.434376Q74.73125 41.434376 73.37187 39.996876Q72.02812 38.559376 72.02812 36.028126Q72.02812 33.45 73.3875 32.028126Q74.74687 30.590626 77.05937 30.590626Q78.95 30.590626 80.05937 31.41875Q81.18437 32.23125 81.68437 33.8875ZM89.6375 37.903126L92.37187 38.35625Q91.85625 39.85625 90.71562 40.653126Q89.575 41.434376 87.87187 41.434376Q85.15312 41.434376 83.85625 39.66875Q82.84062 38.246876 82.84062 36.090626Q82.84062 33.5125 84.18437 32.059376Q85.52812 30.590626 87.59062 30.590626Q89.90312 30.590626 91.23125 32.121876Q92.575 33.653126 92.52812 36.809376L85.65312 36.809376Q85.68437 38.028126 86.30937 38.715626Q86.95 39.3875 87.8875 39.3875Q88.54375 39.3875 88.98125 39.04375Q89.41875 38.684376 89.6375 37.903126ZM89.79375 35.121876Q89.7625 33.934376 89.16875 33.325Q88.59062 32.7 87.7625 32.7Q86.85625 32.7 86.27812 33.340626Q85.68437 33.996876 85.7 35.121876L89.79375 35.121876ZM103.48125 41.2L99.30937 30.825L102.18437 30.825L104.1375 36.121876L104.71562 37.8875Q104.93437 37.215626 104.99687 36.996876Q105.12187 36.559376 105.27812 36.121876L107.2625 30.825L110.075 30.825L105.96562 41.2L103.48125 41.2ZM110.66875 38.246876L113.41875 37.825Q113.60625 38.621876 114.1375 39.04375Q114.66875 39.45 115.6375 39.45Q116.7 39.45 117.24687 39.059376Q117.60625 38.79375 117.60625 38.325Q117.60625 38.0125 117.40312 37.809376Q117.2 37.621876 116.49687 37.45Q113.16875 36.715626 112.27812 36.10625Q111.04375 35.278126 111.04375 33.778126Q111.04375 32.434376 112.10625 31.5125Q113.18437 30.590626 115.41875 30.590626Q117.54375 30.590626 118.575 31.29375Q119.62187 31.98125 120.0125 33.340626L117.41875 33.809376Q117.24687 33.215626 116.77812 32.8875Q116.325 32.559376 115.46562 32.559376Q114.3875 32.559376 113.91875 32.871876Q113.60625 33.090626 113.60625 33.41875Q113.60625 33.715626 113.87187 33.91875Q114.24687 34.2 116.43437 34.7Q118.62187 35.2 119.49687 35.91875Q120.35625 36.653126 120.35625 37.95Q120.35625 39.3875 119.16875 40.41875Q117.98125 41.434376 115.6375 41.434376Q113.52812 41.434376 112.27812 40.575Q111.04375 39.715626 110.66875 38.246876ZM127.43437 30.825L128.96562 30.825L128.96562 30.04375Q128.96562 28.73125 129.23125 28.090626Q129.5125 27.45 130.2625 27.04375Q131.0125 26.6375 132.15312 26.6375Q133.325 26.6375 134.45 26.996876L134.075 28.903126Q133.41875 28.746876 132.80937 28.746876Q132.21562 28.746876 131.95 29.028126Q131.7 29.309376 131.7 30.090626L131.7 30.825L133.74687 30.825L133.74687 32.98125L131.7 32.98125L131.7 41.2L128.96562 41.2L128.96562 32.98125L127.43437 32.98125L127.43437 30.825ZM134.99687 35.871876Q134.99687 34.496876 135.66875 33.215626Q136.35625 31.934376 137.59062 31.2625Q138.825 30.590626 140.34062 30.590626Q142.7 30.590626 144.2 32.121876Q145.7 33.653126 145.7 35.98125Q145.7 38.340626 144.18437 39.8875Q142.66875 41.434376 140.35625 41.434376Q138.93437 41.434376 137.6375 40.79375Q136.35625 40.1375 135.66875 38.903126Q134.99687 37.653126 134.99687 35.871876ZM137.80937 36.0125Q137.80937 37.559376 138.54375 38.3875Q139.27812 39.2 140.35625 39.2Q141.43437 39.2 142.15312 38.3875Q142.8875 37.559376 142.8875 35.996876Q142.8875 34.465626 142.15312 33.653126Q141.43437 32.825 140.35625 32.825Q139.27812 32.825 138.54375 33.653126Q137.80937 34.465626 137.80937 36.0125ZM150.2625 41.2L147.5125 41.2L147.5125 30.825L150.075 30.825L150.075 32.309376Q150.71562 31.2625 151.23125 30.934376Q151.7625 30.590626 152.43437 30.590626Q153.37187 30.590626 154.23125 31.10625L153.3875 33.496876Q152.7 33.059376 152.10625 33.059376Q151.52812 33.059376 151.12187 33.371876Q150.71562 33.684376 150.48125 34.528126Q150.2625 35.35625 150.2625 37.996876L150.2625 41.2ZM164.48125 41.2L160.30937 30.825L163.18437 30.825L165.1375 36.121876L165.71562 37.8875Q165.93437 37.215626 165.99687 36.996876Q166.12187 36.559376 166.27812 36.121876L168.2625 30.825L171.075 30.825L166.96562 41.2L164.48125 41.2ZM171.66875 38.246876L174.41875 37.825Q174.60625 38.621876 175.1375 39.04375Q175.66875 39.45 176.6375 39.45Q177.7 39.45 178.24687 39.059376Q178.60625 38.79375 178.60625 38.325Q178.60625 38.0125 178.40312 37.809376Q178.2 37.621876 177.49687 37.45Q174.16875 36.715626 173.27812 36.10625Q172.04375 35.278126 172.04375 33.778126Q172.04375 32.434376 173.10625 31.5125Q174.18437 30.590626 176.41875 30.590626Q178.54375 30.590626 179.575 31.29375Q180.62187 31.98125 181.0125 33.340626L178.41875 33.809376Q178.24687 33.215626 177.77812 32.8875Q177.325 32.559376 176.46562 32.559376Q175.3875 32.559376 174.91875 32.871876Q174.60625 33.090626 174.60625 33.41875Q174.60625 33.715626 174.87187 33.91875Q175.24687 34.2 177.43437 34.7Q179.62187 35.2 180.49687 35.91875Q181.35625 36.653126 181.35625 37.95Q181.35625 39.3875 180.16875 40.41875Q178.98125 41.434376 176.6375 41.434376Q174.52812 41.434376 173.27812 40.575Q172.04375 39.715626 171.66875 38.246876ZM188.43437 30.825L189.96562 30.825L189.96562 30.04375Q189.96562 28.73125 190.23125 28.090626Q190.5125 27.45 191.2625 27.04375Q192.0125 26.6375 193.15312 26.6375Q194.325 26.6375 195.45 26.996876L195.075 28.903126Q194.41875 28.746876 193.80937 28.746876Q193.21562 28.746876 192.95 29.028126Q192.7 29.309376 192.7 30.090626L192.7 30.825L194.74687 30.825L194.74687 32.98125L192.7 32.98125L192.7 41.2L189.96562 41.2L189.96562 32.98125L188.43437 32.98125L188.43437 30.825ZM195.99687 35.871876Q195.99687 34.496876 196.66875 33.215626Q197.35625 31.934376 198.59062 31.2625Q199.825 30.590626 201.34062 30.590626Q203.7 30.590626 205.2 32.121876Q206.7 33.653126 206.7 35.98125Q206.7 38.340626 205.18437 39.8875Q203.66875 41.434376 201.35625 41.434376Q199.93437 41.434376 198.6375 40.79375Q197.35625 40.1375 196.66875 38.903126Q195.99687 37.653126 195.99687 35.871876ZM198.80937 36.0125Q198.80937 37.559376 199.54375 38.3875Q200.27812 39.2 201.35625 39.2Q202.43437 39.2 203.15312 38.3875Q203.8875 37.559376 203.8875 35.996876Q203.8875 34.465626 203.15312 33.653126Q202.43437 32.825 201.35625 32.825Q200.27812 32.825 199.54375 33.653126Q198.80937 34.465626 198.80937 36.0125ZM211.2625 41.2L208.5125 41.2L208.5125 30.825L211.075 30.825L211.075 32.309376Q211.71562 31.2625 212.23125 30.934376Q212.7625 30.590626 213.43437 30.590626Q214.37187 30.590626 215.23125 31.10625L214.3875 33.496876Q213.7 33.059376 213.10625 33.059376Q212.52812 33.059376 212.12187 33.371876Q211.71562 33.684376 211.48125 34.528126Q211.2625 35.35625 211.2625 37.996876L211.2625 41.2ZM216.6375 41.2L216.6375 38.45L219.3875 38.45L219.3875 41.2L216.6375 41.2ZM222.6375 41.2L222.6375 38.45L225.3875 38.45L225.3875 41.2L222.6375 41.2ZM227.99687 35.871876Q227.99687 34.496876 228.66875 33.215626Q229.35625 31.934376 230.59062 31.2625Q231.825 30.590626 233.34062 30.590626Q235.7 30.590626 237.2 32.121876Q238.7 33.653126 238.7 35.98125Q238.7 38.340626 237.18437 39.8875Q235.66875 41.434376 233.35625 41.434376Q231.93437 41.434376 230.6375 40.79375Q229.35625 40.1375 228.66875 38.903126Q227.99687 37.653126 227.99687 35.871876ZM230.80937 36.0125Q230.80937 37.559376 231.54375 38.3875Q232.27812 39.2 233.35625 39.2Q234.43437 39.2 235.15312 38.3875Q235.8875 37.559376 235.8875 35.996876Q235.8875 34.465626 235.15312 33.653126Q234.43437 32.825 233.35625 32.825Q232.27812 32.825 231.54375 33.653126Q230.80937 34.465626 230.80937 36.0125ZM239.43437 30.825L240.96562 30.825L240.96562 30.04375Q240.96562 28.73125 241.23125 28.090626Q241.5125 27.45 242.2625 27.04375Q243.0125 26.6375 244.15312 26.6375Q245.325 26.6375 246.45 26.996876L246.075 28.903126Q245.41875 28.746876 244.80937 28.746876Q244.21562 28.746876 243.95 29.028126Q243.7 29.309376 243.7 30.090626L243.7 30.825L245.74687 30.825L245.74687 32.98125L243.7 32.98125L243.7 41.2L240.96562 41.2L240.96562 32.98125L239.43437 32.98125L239.43437 30.825Z" fill-rule="nonzero"/></svg>